<svg fill="none" class="icon icon-account" viewBox="0 0 24 24" xmlns="http://www.w3.org/2000/svg">
<path d="M14.6584 12.7293C14.8351 12.913 15.0221 13.0866 15.2184 13.2493C15.5284 13.5293 15.8384 13.7493 16.1084 14.0293C16.1601 14.0965 16.2356 14.1413 16.3194 14.1544C16.4032 14.1674 16.4888 14.1477 16.5584 14.0993C16.5939 14.0754 16.6241 14.0445 16.6471 14.0084C16.67 13.9723 16.6853 13.9319 16.6919 13.8896C16.6984 13.8473 16.6962 13.8042 16.6853 13.7628C16.6744 13.7214 16.655 13.6828 16.6284 13.6493C16.4456 13.2752 16.2315 12.9173 15.9884 12.5793C15.8826 12.4369 15.7655 12.3031 15.6384 12.1793C15.5137 12.0493 15.3764 11.932 15.2284 11.8293L14.9684 11.6793C15.6315 11.0536 16.1408 10.283 16.4565 9.42771C16.7723 8.57245 16.8859 7.65574 16.7884 6.74928C16.5784 3.92928 14.6684 1.25929 11.2684 1.30929C7.33841 1.43929 5.15842 4.16928 5.06842 6.89928C5.03051 7.97633 5.33146 9.03813 5.92885 9.93512C6.52625 10.8321 7.38999 11.5191 8.39842 11.8993C7.49495 12.4415 6.64453 13.0676 5.85842 13.7693C5.20953 14.3277 4.63785 14.97 4.15842 15.6793C3.73392 16.276 3.43148 16.9506 3.26845 17.6645C3.10542 18.3784 3.08502 19.1175 3.20842 19.8393C3.21772 19.8833 3.23592 19.9249 3.2619 19.9616C3.28787 19.9983 3.32108 20.0293 3.35947 20.0528C3.39787 20.0762 3.44064 20.0915 3.48517 20.0978C3.5297 20.104 3.57504 20.1012 3.61842 20.0893C3.70062 20.0746 3.77419 20.0293 3.82429 19.9624C3.8744 19.8956 3.89731 19.8123 3.88842 19.7293C3.84009 18.4666 4.26037 17.2307 5.06842 16.2593C5.52742 15.636 6.03214 15.0477 6.57842 14.4993C7.38922 13.6729 8.2509 12.8981 9.15842 12.1793C9.75277 12.3401 10.3632 12.434 10.9784 12.4593C11.016 12.462 11.0538 12.4571 11.0894 12.4449C11.1251 12.4326 11.1579 12.4133 11.1859 12.3881C11.2139 12.3629 11.2365 12.3323 11.2524 12.2981C11.2683 12.264 11.2772 12.227 11.2784 12.1893C11.2813 12.1156 11.2561 12.0436 11.2078 11.9878C11.1595 11.9321 11.0918 11.8969 11.0184 11.8893C7.53842 11.5993 5.94842 9.37928 6.01842 7.11929H6.09842C6.58307 7.3438 7.10531 7.47606 7.63842 7.50928C7.86441 7.5339 8.09242 7.5339 8.31842 7.50928C8.54281 7.47608 8.76372 7.42252 8.97842 7.34929C9.4963 7.16443 9.96495 6.8634 10.3484 6.46929C10.392 6.41604 10.4167 6.3498 10.4185 6.281C10.4203 6.2122 10.3992 6.14475 10.3584 6.08928C10.6153 6.24431 10.8826 6.3813 11.1584 6.49928C11.6409 6.72566 12.1475 6.89674 12.6684 7.00928C13.7367 7.21339 14.8313 7.24042 15.9084 7.08928C16.0584 9.88929 14.4484 11.8793 12.1584 12.1893C12.0836 12.2083 12.0182 12.2538 11.9742 12.3173C11.9302 12.3808 11.9107 12.458 11.9193 12.5347C11.9278 12.6115 11.9638 12.6826 12.0206 12.7349C12.0774 12.7872 12.1512 12.8171 12.2284 12.8193C12.9317 12.7651 13.6145 12.5568 14.2284 12.2093C14.3584 12.3893 14.4984 12.5593 14.6584 12.7293ZM9.89842 5.98928C9.59181 6.17158 9.25178 6.29059 8.89842 6.33928C8.72842 6.33928 8.55841 6.33928 8.37842 6.41928L7.59842 6.52928C7.15638 6.60868 6.70733 6.64219 6.25842 6.62928C6.22593 6.61261 6.18993 6.60392 6.15342 6.60392C6.1169 6.60392 6.08091 6.61261 6.04842 6.62928C6.13853 5.97448 6.36263 5.34528 6.70674 4.78095C7.05085 4.21661 7.50757 3.72925 8.04842 3.34929C8.47223 4.22499 9.07126 5.0044 9.80842 5.63929C9.93842 5.74929 10.0784 5.83928 10.2184 5.93928C10.1657 5.91731 10.1078 5.91035 10.0514 5.91917C9.99489 5.92799 9.94196 5.95226 9.89842 5.98928ZM12.8984 5.98928C12.4521 5.85842 12.0174 5.69119 11.5984 5.48928C11.1833 5.28892 10.7853 5.0548 10.4084 4.78929C9.69635 4.30274 9.07666 3.69322 8.57842 2.98929C9.42352 2.58335 10.3509 2.37802 11.2884 2.38929C13.9384 2.29929 15.4684 4.26928 15.8384 6.43928C14.853 6.44431 13.8722 6.30276 12.9284 6.01928L12.8984 5.98928Z" fill="black"/>
<path d="M11.547 14.3495C11.5549 14.3076 11.5535 14.2645 11.5428 14.2232C11.5321 14.1819 11.5125 14.1435 11.4852 14.1107C11.458 14.0779 11.4239 14.0515 11.3853 14.0334C11.3468 14.0153 11.3047 14.0059 11.262 14.0059C11.2194 14.0059 11.1773 14.0153 11.1387 14.0334C11.1001 14.0515 11.066 14.0779 11.0388 14.1107C11.0116 14.1435 10.992 14.1819 10.9813 14.2232C10.9706 14.2645 10.9691 14.3076 10.977 14.3495C10.877 14.8595 10.767 15.3495 10.707 15.8895V16.5595V17.2195C10.757 17.7395 10.847 18.2195 10.917 18.7595C10.9196 18.8479 10.9566 18.9318 11.0201 18.9935C11.0836 19.0551 11.1686 19.0895 11.257 19.0895C11.3428 19.0869 11.4242 19.051 11.4839 18.9894C11.5437 18.9278 11.5771 18.8453 11.577 18.7595C11.627 18.2395 11.697 17.7595 11.737 17.2195V16.5695V15.9095C11.697 15.3595 11.607 14.8595 11.547 14.3495Z" fill="black"/>
</svg>