<svg fill="none" class="icon icon-cart" viewBox="0 0 25 26" xmlns="http://www.w3.org/2000/svg">
<g clip-path="url(#clip0_116_2871)">
<path fill-rule="evenodd" clip-rule="evenodd" d="M14.6571 11.7542C14.6571 11.0717 14.6571 10.3783 14.73 9.69585C14.803 9.01335 14.0946 9.14335 13.8967 9.69585C13.6988 10.2483 13.6571 10.9417 13.5842 11.57V11.96H12.6571C11.8342 11.96 11.0113 11.895 10.1884 11.895H9.0217C9.0272 11.8374 9.0272 11.7793 9.0217 11.7217C9.0217 11.0608 8.94879 10.3892 8.90712 9.72835C8.86545 9.06751 8.13629 9.17585 8.09462 9.72835C8.05295 10.2808 7.96962 11.0608 7.93837 11.7325V11.9167H7.67795C6.3342 11.9167 5.48004 12.0683 4.1467 12.2308C3.36545 12.4475 3.62587 13.0542 4.36545 12.935H5.73004C6.42448 12.935 7.14323 12.9567 7.88629 13V13.1842C7.88629 13.6717 7.88629 14.1592 7.9592 14.6358C8.01129 15.3508 8.09462 15.3508 8.16754 16.0658C8.32379 17.0625 8.59462 17.0842 8.99045 16.0658V14.6142V13.1408V13.0108H9.12587H12.5738H13.4384V14.4408C13.4384 15.1992 13.4384 15.275 13.5113 16.0333C13.7717 17.225 14.0425 16.8783 14.3342 16.0333C14.4071 15.1233 14.4905 14.95 14.5425 14.0075V12.9783H16.0634C16.6707 12.9921 17.2763 13.05 17.8759 13.1517C18.3238 13.1517 18.4071 12.6967 18.0321 12.4367C17.4012 12.2801 16.7609 12.1679 16.1155 12.1008L14.5946 12.0033C14.6467 11.9167 14.6571 11.8408 14.6571 11.7542Z" fill="black"/>
<path fill-rule="evenodd" clip-rule="evenodd" d="M24.6781 2.46949C24.6354 2.40207 24.5694 2.35433 24.4937 2.33617C24.4181 2.31802 24.3386 2.33085 24.2718 2.37199C22.6679 3.41806 21.3877 4.92248 20.5843 6.70533C20.3303 7.22115 20.1077 7.75303 19.9177 8.29783C17.3968 8.17866 14.8864 7.97283 12.376 7.87533C11.2093 7.87533 10.0531 7.81033 8.88642 7.87533C8.126 7.87533 6.001 7.87533 4.35517 8.00533C3.64173 8.03123 2.93752 8.18137 2.27183 8.44949C2.0766 8.55856 1.90827 8.71309 1.77997 8.90102C1.65167 9.08895 1.56689 9.30518 1.53225 9.53283C1.42907 10.2962 1.49317 11.0739 1.71975 11.8078C2.24227 13.5917 2.98826 15.2964 3.9385 16.8778C4.18991 17.3732 4.54607 17.8029 4.98017 18.1345C5.80063 18.4339 6.66278 18.5913 7.53225 18.6003C8.75323 18.6043 9.9736 18.5428 11.1885 18.4162C11.9177 18.4162 12.6573 18.3512 13.3968 18.3512C14.9698 18.3512 16.5218 18.3512 18.126 18.4162V18.7845C18.0865 19.1419 17.9752 19.4867 17.7993 19.7965C17.6235 20.1063 17.387 20.3742 17.1052 20.5828C16.6774 20.8404 16.2013 20.9992 15.7093 21.0487C14.8788 21.1356 14.0436 21.1646 13.2093 21.1353L4.876 21.222C4.8313 21.2234 4.78732 21.2341 4.74668 21.2535C4.70604 21.2729 4.66957 21.3006 4.63944 21.3349C4.60931 21.3693 4.58614 21.4096 4.5713 21.4535C4.55647 21.4974 4.55027 21.5439 4.55308 21.5903C4.55545 21.6496 4.57448 21.7068 4.6078 21.755C4.64113 21.8031 4.68729 21.84 4.74059 21.8612C4.43437 22.1669 4.19309 22.5359 4.03225 22.9445C3.87396 23.316 3.81933 23.7264 3.87459 24.1286C3.92985 24.5309 4.09277 24.9089 4.34475 25.2195C4.61013 25.5085 4.93648 25.7295 5.29804 25.8648C5.65959 26.0002 6.04646 26.0463 6.42808 25.9995C6.98654 25.9087 7.49202 25.6037 7.84488 25.1444C8.19774 24.6852 8.37237 24.1052 8.33433 23.5187C8.3576 22.9642 8.18326 22.4202 7.84475 21.9912C9.74059 22.0453 11.8135 22.132 13.1677 22.1645H14.9489C14.7786 22.3913 14.6352 22.6386 14.5218 22.9012C14.3635 23.2727 14.3089 23.683 14.3642 24.0853C14.4194 24.4876 14.5824 24.8656 14.8343 25.1762C15.1002 25.4645 15.4266 25.685 15.788 25.8203C16.1495 25.9556 16.5361 26.0021 16.9177 25.9562C17.4875 25.8803 18.0082 25.5816 18.3739 25.1208C18.7396 24.6599 18.9228 24.0716 18.8864 23.4753C18.9213 23.0627 18.8317 22.649 18.6301 22.2918C18.4285 21.9345 18.1248 21.6515 17.7614 21.482C18.37 21.0509 18.8127 20.4102 19.0114 19.6728C19.3112 18.1352 19.4751 16.5723 19.501 15.0037C19.7266 12.2493 20.3408 9.54447 21.3239 6.97616C22.0233 5.32524 23.1526 3.91059 24.5843 2.89199C24.6186 2.87208 24.6485 2.84492 24.6721 2.81226C24.6957 2.7796 24.7125 2.74217 24.7213 2.70236C24.7301 2.66256 24.7308 2.62128 24.7234 2.58117C24.716 2.54106 24.7005 2.50302 24.6781 2.46949ZM6.34475 24.8187C6.14062 24.8396 5.93455 24.8167 5.73926 24.7515C5.54396 24.6863 5.36361 24.5801 5.20934 24.4395C5.0683 24.2916 4.96859 24.1066 4.92089 23.9044C4.87318 23.7021 4.87927 23.4901 4.9385 23.2912C5.02465 22.9344 5.19672 22.6063 5.4385 22.3378C5.624 22.1406 5.86588 22.011 6.12802 21.9685C6.39016 21.926 6.65848 21.9729 6.89289 22.1021C7.12731 22.2313 7.31523 22.4359 7.42859 22.6854C7.54195 22.9349 7.57466 23.2158 7.52183 23.4862C7.52882 23.6541 7.5039 23.8218 7.4485 23.9796C7.39311 24.1375 7.30832 24.2825 7.19899 24.4063C7.08966 24.53 6.95793 24.6302 6.81135 24.7009C6.66477 24.7717 6.50622 24.8117 6.34475 24.8187ZM17.9489 23.4862C17.963 23.8026 17.8646 24.1133 17.6725 24.3591C17.4804 24.6048 17.208 24.7684 16.9073 24.8187C16.6947 24.8481 16.4786 24.8294 16.2737 24.764C16.0687 24.6985 15.8798 24.5878 15.7198 24.4395C15.5725 24.2959 15.4685 24.111 15.4204 23.9071C15.3723 23.7033 15.3822 23.4893 15.4489 23.2912C15.5254 22.9306 15.6988 22.6 15.9489 22.3378C16.139 22.1753 16.3717 22.0758 16.6168 22.0523C16.8619 22.0289 17.1081 22.0825 17.3236 22.2062C17.5391 22.3299 17.7139 22.518 17.8254 22.7462C17.9369 22.9745 17.9799 23.2322 17.9489 23.4862ZM18.3864 14.8737C18.2823 15.5995 18.3031 16.6503 18.2198 17.6903C15.6156 17.6037 13.751 17.3978 11.1468 17.4953H7.57392C6.84139 17.476 6.11672 17.3333 5.42809 17.0728C5.23837 16.8568 5.0708 16.6208 4.92809 16.3687C3.79795 14.4817 3.0073 12.3966 2.59475 10.2153C2.59475 9.83616 2.59475 9.522 2.78225 9.40283C3.31895 9.20801 3.88082 9.09845 4.44892 9.07783C7.8135 8.72033 9.48017 8.73116 19.6989 8.87199C19.1117 10.8339 18.6729 12.8406 18.3864 14.8737Z" fill="black"/>
</g>
<defs>
<clipPath id="clip0_116_2871">
<rect width="25" height="26" fill="white"/>
</clipPath>
</defs>
</svg>