<svg fill="none" class="icon icon-search" viewBox="0 0 24 24" xmlns="http://www.w3.org/2000/svg">
<g clip-path="url(#clip0_116_2866)">
<path fill-rule="evenodd" clip-rule="evenodd" d="M15.6904 17.6697C15.7198 17.6233 15.7353 17.5695 15.7353 17.5147C15.7353 17.4598 15.7198 17.4061 15.6904 17.3597C15.4504 16.9697 14.8904 17.4997 14.2604 17.6497C13.698 17.7782 13.1262 17.8618 12.5504 17.8997C11.079 18.0283 9.59663 17.8617 8.19043 17.4097C7.48006 17.1947 6.80591 16.8745 6.19043 16.4597C5.5977 16.0774 5.06234 15.6127 4.60043 15.0797C3.77612 14.0581 3.23124 12.84 3.01913 11.5445C2.80703 10.2491 2.93497 8.9208 3.39043 7.68967C3.78127 6.43922 4.43245 5.28569 5.30113 4.30498C6.16981 3.32427 7.2363 2.5386 8.43043 1.99967C9.16413 1.6856 9.92813 1.44769 10.7104 1.28967C11.4611 1.11946 12.2334 1.0655 13.0004 1.12967C15.0967 1.41789 16.998 2.51203 18.3004 4.17967C19.6349 5.85274 20.3613 7.92959 20.3604 10.0697C20.3492 10.8987 20.2452 11.7238 20.0504 12.5297C19.8671 13.3316 19.5273 14.0894 19.0504 14.7597C18.5969 15.279 18.1019 15.7605 17.5704 16.1997C17.1209 16.4433 16.6928 16.7243 16.2904 17.0397C16.2617 17.0959 16.2491 17.1589 16.2542 17.2218C16.2593 17.2847 16.2817 17.345 16.3191 17.3958C16.3565 17.4467 16.4073 17.4862 16.4658 17.5098C16.5243 17.5334 16.5882 17.5403 16.6504 17.5297C17.7934 16.9527 18.8125 16.1578 19.6504 15.1897C20.2015 14.4603 20.5902 13.6216 20.7904 12.7297C21.0248 11.8649 21.1557 10.9753 21.1804 10.0797C21.2346 7.73463 20.4788 5.44259 19.0404 3.58967C17.6255 1.68531 15.5159 0.416659 13.1704 0.0596725C12.2801 -0.0431681 11.3792 -0.00605239 10.5004 0.169673C9.6437 0.343122 8.80628 0.601049 8.00043 0.939673C6.65573 1.54493 5.45698 2.43241 4.48555 3.54187C3.51413 4.65133 2.79277 5.9568 2.37043 7.36967C1.89058 8.77133 1.78861 10.2747 2.07476 11.7283C2.36092 13.1819 3.02512 14.5345 4.00043 15.6497C5.12116 16.7805 6.49104 17.6332 8.00043 18.1397C9.52066 18.5315 11.0957 18.6667 12.6604 18.5397C13.267 18.4839 13.8686 18.3836 14.4604 18.2397C14.8842 18.0809 15.2953 17.8903 15.6904 17.6697Z" fill="black"/>
<path fill-rule="evenodd" clip-rule="evenodd" d="M22.0016 21.0799C21.8965 20.5883 21.6695 20.131 21.3416 19.7499C20.9316 19.2599 20.3916 18.8699 19.9316 18.4199C19.4716 17.9699 19.1916 17.6599 18.8116 17.2999C18.7006 17.1925 18.5801 17.0955 18.4516 17.0099C18.3957 16.9504 18.3208 16.9123 18.2399 16.9021C18.1589 16.892 18.0769 16.9104 18.0081 16.9543C17.9393 16.9982 17.888 17.0648 17.863 17.1425C17.8381 17.2202 17.8411 17.3042 17.8716 17.3799C18.0319 17.5052 18.1763 17.6496 18.3016 17.8099C18.6516 18.1899 18.9816 18.6099 19.3016 18.9899C19.6216 19.3699 20.1916 19.8499 20.5616 20.3399C20.7651 20.61 20.899 20.9259 20.9516 21.2599C20.9676 21.5492 20.8935 21.8363 20.7394 22.0817C20.5854 22.3271 20.359 22.5186 20.0916 22.6299C19.8485 22.7981 19.5632 22.8948 19.268 22.9089C18.9728 22.9231 18.6796 22.8541 18.4216 22.7099C18.2048 22.5448 18.0129 22.3495 17.8516 22.1299C17.5835 21.7336 17.3429 21.3193 17.1316 20.8899C16.7716 20.2099 16.4116 19.5299 16.1316 18.8199C15.9816 18.4799 16.0216 18.5899 15.8816 18.2399C15.7416 17.8899 15.2216 18.2399 15.3316 18.4999C15.4816 18.9699 15.4516 18.9899 15.6216 19.4499C15.8516 20.0699 16.1016 20.6799 16.3716 21.2899C16.5656 21.7718 16.7928 22.2396 17.0516 22.6899C17.2561 23.0251 17.5166 23.3227 17.8216 23.5699C18.2464 23.8438 18.7411 23.9894 19.2466 23.9894C19.752 23.9894 20.2467 23.8438 20.6716 23.5699C21.1249 23.3451 21.4968 22.9843 21.7352 22.5379C21.9737 22.0915 22.0668 21.5818 22.0016 21.0799Z" fill="black"/>
</g>
<defs>
<clipPath id="clip0_116_2866">
<rect width="24" height="24" fill="white"/>
</clipPath>
</defs>
</svg>