<svg width="105" height="737" viewBox="0 0 105 737" fill="none" xmlns="http://www.w3.org/2000/svg">
<g clip-path="url(#clip0_138_2104)">
<path opacity="0.35" d="M69.3422 16.1184C70.9491 17.8483 74.0959 17.5363 76.3711 15.4222C78.6459 13.3078 79.187 10.1921 77.5802 8.46286C75.9724 6.7338 72.8261 7.04546 70.5509 9.1596C68.276 11.274 67.7349 14.3896 69.3422 16.1184Z" fill="#73A79D"/>
<path opacity="0.35" d="M59.7247 16.4393C61.8825 17.3131 64.5631 15.7211 65.7137 12.8822C66.8634 10.044 66.0463 7.03448 63.889 6.15971C61.7311 5.28661 59.0503 6.87909 57.9002 9.71764C56.7506 12.5559 57.5674 15.5651 59.7247 16.4393Z" fill="#73A79D"/>
<path opacity="0.35" d="M75.8646 24.5483C77.1352 26.5385 80.2868 26.7957 82.904 25.1243C85.5219 23.4512 86.6131 20.4838 85.3423 18.4935C84.0713 16.5043 80.9189 16.2473 78.302 17.9189C75.6844 19.5916 74.5937 22.5592 75.8646 24.5483Z" fill="#73A79D"/>
<path opacity="0.35" d="M84.1382 32.3249C83.8327 30.0173 81.1249 28.4712 78.089 28.8723C75.052 29.274 72.8387 31.47 73.1435 33.7779C73.4487 36.0853 76.1568 37.6316 79.193 37.23C82.229 36.8285 84.4428 34.6327 84.1382 32.3249Z" fill="#73A79D"/>
<path opacity="0.35" d="M71.8985 26.4955C72.4651 24.8292 72.2348 22.9291 71.08 21.4366C69.9252 19.9447 68.1433 19.2453 66.3889 19.3753C64.4496 19.5195 62.9036 20.2111 61.3662 20.0743C59.829 19.9376 57.0348 16.5883 52.7517 19.4946C49.7266 21.5475 49.3311 25.8895 51.5684 28.7802C53.2689 30.9775 55.101 31.7624 56.0892 33.0387C57.0773 34.3148 57.3774 36.2856 59.0778 38.4826C61.3151 41.3734 65.6172 42.0799 68.3633 39.6663C72.2512 36.2492 69.7094 32.704 69.9624 31.1815C70.2156 29.6594 71.2731 28.3363 71.8985 26.4955Z" fill="#73A79D"/>
</g>
<g clip-path="url(#clip1_138_2104)">
<path opacity="0.35" d="M21.1312 71.341C23.0141 72.7656 26.0589 71.9119 27.9325 69.4348C29.8055 66.9575 29.7974 63.7952 27.9147 62.3713C26.0311 60.9477 22.9867 61.8009 21.1132 64.278C19.2401 66.7553 19.2481 69.9176 21.1312 71.341Z" fill="#73A79D"/>
<path opacity="0.35" d="M11.7152 73.327C13.9919 73.8128 16.3554 71.7795 16.9955 68.784C17.635 65.7892 16.3076 62.9674 14.0312 62.4805C11.7545 61.9954 9.39095 64.0292 8.75117 67.0243C8.11189 70.019 9.4389 72.8407 11.7152 73.327Z" fill="#73A79D"/>
<path opacity="0.35" d="M29.0184 78.509C30.6153 80.2483 33.7637 79.9544 36.0509 77.8539C38.3385 75.7516 38.8978 72.6398 37.3007 70.9004C35.7036 69.1622 32.5545 69.4565 30.2676 71.557C27.9802 73.6589 27.4214 76.7709 29.0184 78.509Z" fill="#73A79D"/>
<path opacity="0.35" d="M38.5163 84.7307C37.8148 82.5113 34.8797 81.4589 31.9595 82.381C29.0385 83.304 27.2401 85.851 27.9411 88.0709C28.6423 90.2902 31.5777 91.3428 34.4981 90.4201C37.4182 89.4974 39.2171 86.9506 38.5163 84.7307Z" fill="#73A79D"/>
<path opacity="0.35" d="M25.4507 81.1162C25.7193 79.3769 25.1626 77.5456 23.7662 76.2763C22.3698 75.0076 20.4936 74.6282 18.7884 75.0609C16.9036 75.5397 15.5012 76.4892 13.9634 76.6215C12.4258 76.7538 9.09245 73.9406 5.3791 77.5465C2.75642 80.0935 3.12086 84.4382 5.82619 86.8965C7.88243 88.7651 9.82293 89.2199 11.0178 90.3053C12.2125 91.3904 12.8502 93.2792 14.9063 95.1475C17.6116 97.6058 21.971 97.5546 24.2562 94.7008C27.4917 90.6605 24.3729 87.6105 24.3577 86.0672C24.3428 84.5242 25.1544 83.0376 25.4507 81.1162Z" fill="#73A79D"/>
</g>
<g clip-path="url(#clip2_138_2104)">
<path opacity="0.35" d="M76.5731 181.472C78.2967 183.085 81.4141 182.554 83.5363 180.287C85.658 178.019 85.9805 174.873 84.257 173.26C82.5325 171.647 79.4156 172.178 77.2934 174.445C75.1716 176.713 74.8491 179.859 76.5731 181.472Z" fill="#73A79D"/>
<path opacity="0.35" d="M67.0007 182.462C69.2142 183.183 71.7772 181.408 72.727 178.496C73.676 175.584 72.6509 172.639 70.4378 171.917C68.2243 171.197 65.6611 172.972 64.7118 175.884C63.7629 178.796 64.7877 181.741 67.0007 182.462Z" fill="#73A79D"/>
<path opacity="0.35" d="M83.6672 189.425C85.0735 191.322 88.2354 191.358 90.7296 189.508C93.2244 187.657 94.106 184.62 92.6994 182.724C91.2927 180.828 88.1301 180.792 85.6361 182.642C83.1416 184.493 82.2606 187.529 83.6672 189.425Z" fill="#73A79D"/>
<path opacity="0.35" d="M92.4639 196.607C91.9983 194.326 89.1892 192.973 86.1886 193.584C83.1871 194.197 81.1323 196.542 81.5974 198.823C82.0628 201.104 84.8721 202.457 87.8729 201.845C90.8735 201.233 92.9288 198.888 92.4639 196.607Z" fill="#73A79D"/>
<path opacity="0.35" d="M79.8478 191.644C80.2968 189.943 79.9346 188.063 78.6784 186.655C77.4224 185.247 75.596 184.674 73.855 184.926C71.9304 185.205 70.4365 186.003 68.8933 185.974C67.3503 185.944 64.3292 182.798 60.2593 185.996C57.3848 188.255 57.2931 192.614 59.7266 195.342C61.5763 197.415 63.4586 198.07 64.5335 199.275C65.6082 200.479 66.045 202.424 67.8945 204.497C70.328 207.224 74.6689 207.629 77.2399 205.03C80.88 201.35 78.0971 197.991 78.2433 196.454C78.3898 194.918 79.3523 193.524 79.8478 191.644Z" fill="#73A79D"/>
</g>
<g clip-path="url(#clip3_138_2104)">
<path opacity="0.35" d="M29.3538 254.989C31.1595 256.51 34.2448 255.817 36.2455 253.441C38.2456 251.065 38.403 247.907 36.5974 246.386C34.7908 244.866 31.706 245.559 29.7054 247.934C27.7052 250.31 27.5477 253.469 29.3538 254.989Z" fill="#73A79D"/>
<path opacity="0.35" d="M19.8466 256.478C22.0948 257.083 24.5614 255.176 25.3575 252.218C26.1528 249.261 24.9749 246.373 22.7271 245.768C20.4789 245.164 18.0122 247.072 17.2165 250.029C16.4214 252.986 17.5989 255.874 19.8466 256.478Z" fill="#73A79D"/>
<path opacity="0.35" d="M36.855 262.561C38.3587 264.381 41.5181 264.253 43.9121 262.275C46.3066 260.295 47.028 257.217 45.5241 255.396C44.0202 253.577 40.86 253.706 38.4663 255.684C36.0721 257.663 35.3511 260.742 36.855 262.561Z" fill="#73A79D"/>
<path opacity="0.35" d="M46.0146 269.272C45.4302 267.019 42.5542 265.814 39.5897 266.582C36.6244 267.351 34.6952 269.8 35.279 272.054C35.8631 274.307 38.7394 275.512 41.7041 274.743C44.6685 273.975 46.5983 271.525 46.0146 269.272Z" fill="#73A79D"/>
<path opacity="0.35" d="M33.156 264.976C33.5153 263.253 33.0552 261.395 31.7271 260.055C30.3991 258.715 28.5452 258.238 26.8198 258.581C24.9125 258.96 23.4623 259.835 21.9197 259.886C20.3773 259.938 17.1957 256.954 13.2987 260.361C10.5464 262.767 10.6829 267.125 13.2559 269.722C15.2115 271.695 17.1256 272.251 18.262 273.397C19.3982 274.544 19.9362 276.463 21.8917 278.436C24.4646 281.033 28.8208 281.21 31.2522 278.48C34.6947 274.614 31.7398 271.405 31.8054 269.863C31.8713 268.322 32.7596 266.879 33.156 264.976Z" fill="#73A79D"/>
</g>
<g clip-path="url(#clip4_138_2104)">
<path opacity="0.35" d="M80.7614 365.157C82.4277 366.83 85.5617 366.408 87.7618 364.216C89.9613 362.023 90.3935 358.891 88.7273 357.219C87.0601 355.547 83.9266 355.968 81.7266 358.16C79.5269 360.353 79.0948 363.485 80.7614 365.157Z" fill="#73A79D"/>
<path opacity="0.35" d="M71.1603 365.812C73.3473 366.61 75.9707 364.926 77.0215 362.049C78.0715 359.172 77.1498 356.193 74.9633 355.394C72.7763 354.597 70.1527 356.282 69.1023 359.159C68.0525 362.035 68.9739 365.014 71.1603 365.812Z" fill="#73A79D"/>
<path opacity="0.35" d="M87.5734 373.352C88.9126 375.297 92.0713 375.444 94.6285 373.682C97.1865 371.919 98.1735 368.915 96.8339 366.97C95.4943 365.027 92.3349 364.88 89.7779 366.642C87.2202 368.405 86.2338 371.409 87.5734 373.352Z" fill="#73A79D"/>
<path opacity="0.35" d="M96.1136 380.836C95.7279 378.541 92.9677 377.09 89.9476 377.597C86.9266 378.104 84.7912 380.376 85.1764 382.672C85.5619 384.967 88.3223 386.418 91.3427 385.911C94.3627 385.404 96.4986 383.132 96.1136 380.836Z" fill="#73A79D"/>
<path opacity="0.35" d="M83.6785 375.436C84.1865 373.751 83.8901 371.86 82.6839 370.409C81.4777 368.958 79.6725 368.322 77.9237 368.513C75.9906 368.725 74.4697 369.47 72.9285 369.387C71.3875 369.304 68.4781 366.054 64.299 369.108C61.3474 371.265 61.1036 375.618 63.4405 378.429C65.2166 380.566 67.075 381.286 68.1072 382.527C69.1392 383.768 69.5078 385.727 71.2839 387.864C73.6207 390.674 77.9449 391.23 80.605 388.722C84.3713 385.172 81.7073 381.717 81.907 380.187C82.107 378.657 83.1176 377.298 83.6785 375.436Z" fill="#73A79D"/>
</g>
<g clip-path="url(#clip5_138_2104)">
<path opacity="0.35" d="M32.973 438.723C34.8307 440.18 37.89 439.38 39.8065 436.936C41.7225 434.492 41.7696 431.33 39.912 429.873C38.0535 428.417 34.9947 429.217 33.0783 431.661C31.1622 434.105 31.115 437.267 32.973 438.723Z" fill="#73A79D"/>
<path opacity="0.35" d="M23.524 440.545C25.7919 441.07 28.1904 439.078 28.8828 436.094C29.5744 433.111 28.2965 430.267 26.0289 429.74C23.761 429.215 21.3623 431.208 20.6704 434.191C19.9789 437.174 21.2565 440.019 23.524 440.545Z" fill="#73A79D"/>
<path opacity="0.35" d="M40.7334 446.027C42.2997 447.794 45.4527 447.555 47.7762 445.495C50.1002 443.433 50.7137 440.331 49.1472 438.564C47.5806 436.798 44.4269 437.037 42.1036 439.098C39.7799 441.159 39.1669 444.261 40.7334 446.027Z" fill="#73A79D"/>
<path opacity="0.35" d="M50.1223 452.414C49.4596 450.182 46.5433 449.079 43.6074 449.95C40.6707 450.822 38.8282 453.337 39.4903 455.569C40.1527 457.8 43.0693 458.904 46.0053 458.032C48.9411 457.161 50.7842 454.646 50.1223 452.414Z" fill="#73A79D"/>
<path opacity="0.35" d="M37.1218 448.572C37.4207 446.837 36.8961 444.997 35.5219 443.703C34.148 442.41 32.2786 441.998 30.5661 442.401C28.6733 442.847 27.2545 443.772 25.7147 443.877C24.175 443.983 20.8912 441.112 17.1155 444.652C14.4488 447.153 14.7373 451.503 17.3994 454.009C19.4227 455.913 21.3549 456.401 22.5307 457.507C23.7062 458.613 24.3109 460.513 26.3341 462.417C28.996 464.922 33.3557 464.947 35.6904 462.133C38.9959 458.15 35.9308 455.046 35.9425 453.503C35.9545 451.96 36.792 450.488 37.1218 448.572Z" fill="#73A79D"/>
</g>
<g clip-path="url(#clip6_138_2104)">
<path opacity="0.35" d="M72.6756 539.692C74.3993 541.306 77.5166 540.775 79.6389 538.507C81.7606 536.239 82.0831 533.094 80.3595 531.481C78.635 529.868 75.5182 530.398 73.396 532.666C71.2741 534.934 70.9516 538.08 72.6756 539.692Z" fill="#73A79D"/>
<path opacity="0.35" d="M63.1033 540.683C65.3167 541.404 67.8798 539.629 68.8296 536.717C69.7785 533.805 68.7534 530.86 66.5404 530.138C64.3268 529.417 61.7637 531.193 60.8143 534.105C59.8655 537.016 60.8903 539.961 63.1033 540.683Z" fill="#73A79D"/>
<path opacity="0.35" d="M79.7697 547.646C81.176 549.542 84.3379 549.579 86.8321 547.729C89.327 545.878 90.2085 542.841 88.8019 540.944C87.3953 539.049 84.2327 539.012 81.7387 540.862C79.2442 542.714 78.3631 545.75 79.7697 547.646Z" fill="#73A79D"/>
<path opacity="0.35" d="M88.5664 554.827C88.1008 552.547 85.2917 551.193 82.2911 551.805C79.2896 552.418 77.2348 554.763 77.7 557.044C78.1653 559.324 80.9746 560.678 83.9755 560.066C86.976 559.453 89.0313 557.108 88.5664 554.827Z" fill="#73A79D"/>
<path opacity="0.35" d="M75.9504 549.865C76.3993 548.163 76.0371 546.284 74.781 544.876C73.5249 543.468 71.6986 542.895 69.9575 543.147C68.033 543.426 66.539 544.223 64.9958 544.194C63.4528 544.165 60.4318 541.019 56.3618 544.217C53.4873 546.476 53.3956 550.835 55.8292 553.562C57.6788 555.636 59.5611 556.291 60.636 557.495C61.7107 558.699 62.1475 560.644 63.9971 562.717C66.4305 565.445 70.7715 565.85 73.3425 563.25C76.9825 559.57 74.1996 556.211 74.3458 554.675C74.4923 553.139 75.4548 551.745 75.9504 549.865Z" fill="#73A79D"/>
</g>
<g clip-path="url(#clip7_138_2104)">
<path opacity="0.35" d="M25.7371 613.182C27.4887 614.766 30.5963 614.181 32.6786 611.876C34.7604 609.572 35.028 606.421 33.2766 604.838C31.5241 603.256 28.417 603.84 26.3347 606.145C24.2528 608.449 23.9852 611.6 25.7371 613.182Z" fill="#73A79D"/>
<path opacity="0.35" d="M16.1842 614.339C18.4099 615.021 20.9415 613.202 21.8404 610.273C22.7384 607.346 21.662 604.419 19.4367 603.736C17.2109 603.054 14.6791 604.874 13.7807 607.802C12.8829 610.73 13.9589 613.656 16.1842 614.339Z" fill="#73A79D"/>
<path opacity="0.35" d="M32.9691 621.01C34.4083 622.882 37.5703 622.864 40.0318 620.971C42.494 619.076 43.3224 616.025 41.883 614.153C40.4434 612.282 37.2807 612.301 34.8193 614.194C32.3575 616.088 31.5296 619.14 32.9691 621.01Z" fill="#73A79D"/>
<path opacity="0.35" d="M41.8896 628.036C41.3843 625.764 38.552 624.46 35.5625 625.124C32.5722 625.789 30.5586 628.17 31.0635 630.442C31.5686 632.714 34.4011 634.019 37.3908 633.354C40.3802 632.689 42.3943 630.309 41.8896 628.036Z" fill="#73A79D"/>
<path opacity="0.35" d="M29.1887 623.296C29.6079 621.587 29.2129 619.714 27.9324 618.328C26.652 616.943 24.8159 616.401 23.0795 616.684C21.1601 616.996 19.6803 617.82 18.1369 617.818C16.5936 617.815 13.5181 614.722 9.5046 617.991C6.66992 620.3 6.65431 624.66 9.13509 627.344C11.0206 629.385 12.9141 630.007 14.0099 631.193C15.1054 632.378 15.5761 634.315 17.4615 636.355C19.9422 639.04 24.2895 639.369 26.8148 636.725C30.3901 632.982 27.549 629.672 27.6683 628.133C27.788 626.595 28.7261 625.185 29.1887 623.296Z" fill="#73A79D"/>
</g>
<g clip-path="url(#clip8_138_2104)">
<path opacity="0.35" d="M76.7143 705.013C78.4095 706.657 81.5356 706.18 83.6972 703.95C85.8581 701.72 86.2355 698.58 84.5404 696.937C82.8442 695.294 79.7186 695.77 77.5572 698.001C75.3961 700.231 75.0187 703.371 76.7143 705.013Z" fill="#73A79D"/>
<path opacity="0.35" d="M67.1259 705.837C69.3264 706.597 71.9201 704.867 72.9205 701.972C73.9202 699.077 72.9466 696.115 70.7465 695.354C68.5459 694.595 65.9521 696.326 64.9521 699.22C63.9526 702.115 64.9258 705.077 67.1259 705.837Z" fill="#73A79D"/>
<path opacity="0.35" d="M83.6687 713.09C85.0417 715.011 88.2025 715.103 90.7286 713.297C93.2554 711.489 94.1898 708.469 92.8165 706.548C91.4431 704.628 88.2817 704.536 85.7558 706.342C83.2293 708.15 82.2954 711.17 83.6687 713.09Z" fill="#73A79D"/>
<path opacity="0.35" d="M92.3384 720.424C91.9126 718.135 89.1276 716.733 86.1168 717.292C83.105 717.852 81.0096 720.161 81.4348 722.45C81.8604 724.738 84.6456 726.141 87.6567 725.581C90.6675 725.021 92.7634 722.712 92.3384 720.424Z" fill="#73A79D"/>
<path opacity="0.35" d="M79.8102 715.243C80.2888 713.549 79.9594 711.663 78.728 710.233C77.4968 708.804 75.6807 708.199 73.9355 708.42C72.0064 708.666 70.4988 709.437 68.9563 709.381C67.414 709.325 64.4484 706.127 60.3232 709.253C57.4097 711.462 57.242 715.818 59.6275 718.588C61.4407 720.693 63.3113 721.381 64.365 722.604C65.4185 723.827 65.8213 725.779 67.6344 727.884C70.0199 730.654 74.3531 731.134 76.9691 728.58C80.6728 724.964 77.949 721.557 78.122 720.023C78.2952 718.49 79.2819 717.114 79.8102 715.243Z" fill="#73A79D"/>
</g>
<defs>
<clipPath id="clip0_138_2104">
<rect width="35.9983" height="35.9983" fill="white" transform="translate(61.4141) rotate(27)"/>
</clipPath>
<clipPath id="clip1_138_2104">
<rect width="35.9983" height="35.9983" fill="white" transform="translate(10.5244 56.8438) rotate(17)"/>
</clipPath>
<clipPath id="clip2_138_2104">
<rect width="35.9983" height="35.9983" fill="white" transform="translate(67.54 165.945) rotate(23)"/>
</clipPath>
<clipPath id="clip3_138_2104">
<rect width="35.9983" height="35.9983" fill="white" transform="translate(19.5205 239.957) rotate(20)"/>
</clipPath>
<clipPath id="clip4_138_2104">
<rect width="35.9983" height="35.9983" fill="white" transform="translate(72.2754 349.324) rotate(25)"/>
</clipPath>
<clipPath id="clip5_138_2104">
<rect width="35.9983" height="35.9983" fill="white" transform="translate(22.6211 424.043) rotate(18)"/>
</clipPath>
<clipPath id="clip6_138_2104">
<rect width="35.9983" height="35.9983" fill="white" transform="translate(63.6426 524.166) rotate(23)"/>
</clipPath>
<clipPath id="clip7_138_2104">
<rect width="35.9983" height="35.9983" fill="white" transform="translate(16.4346 597.816) rotate(22)"/>
</clipPath>
<clipPath id="clip8_138_2104">
<rect width="35.9983" height="35.9983" fill="white" transform="translate(67.9531 689.332) rotate(24)"/>
</clipPath>
</defs>
</svg>
