<svg width="85" height="85" viewBox="0 0 85 85" fill="none" xmlns="http://www.w3.org/2000/svg">
<path d="M43.4625 70.6829C47.0597 68.23 60.8495 67.9451 67.2948 68.1093C94.1066 56.1574 70.5719 34.8397 62.4 27.8723C54.2281 20.9048 42.4971 28.7786 35.2332 22.5853C27.9693 16.392 22.2977 15.3197 12.4725 19.487C2.64728 23.6543 5.98109 31.5145 8.27309 36.9183C10.5651 42.3222 13.7219 41.5629 16.7423 58.2506C19.7627 74.9382 38.966 73.749 43.4625 70.6829Z" fill="#FFE6FE"/>
<g clip-path="url(#clip0_134_893)">
<path fill-rule="evenodd" clip-rule="evenodd" d="M68.3081 58.8872C68.3081 58.6539 67.9873 51.8872 67.8123 51.6539C66.8795 50.6699 65.8429 49.7897 64.7206 49.0289C64.6364 48.9542 64.5382 48.8968 64.4318 48.8601C64.3254 48.8233 64.2127 48.8079 64.1003 48.8147C63.9879 48.8214 63.878 48.8503 63.7767 48.8995C63.6755 48.9488 63.5849 49.0175 63.5102 49.1018C63.4355 49.1861 63.3782 49.2842 63.3414 49.3907C63.3047 49.4971 63.2892 49.6097 63.296 49.7221C63.3028 49.8345 63.3316 49.9445 63.3809 50.0457C63.4302 50.147 63.4989 50.2375 63.5831 50.3122C63.9331 50.6331 64.604 52.0039 65.304 52.6456C64.1373 53.1706 58.3623 54.8914 57.2248 55.1831C55.3326 53.4408 53.2013 51.9774 50.8956 50.8372C53.9553 50.112 56.9501 49.1365 59.8498 47.9206C71.5165 41.8539 59.8498 29.1081 51.7415 42.7872C48.5915 37.7997 40.8623 33.5414 36.5165 37.7997C32.1706 42.0581 37.8873 46.5497 42.8456 49.2914C44.1304 49.9063 45.4557 50.4325 46.8123 50.8664C43.7498 52.0331 41.4165 51.6539 39.0831 53.4622C33.2498 49.9039 33.2498 49.4372 32.7831 49.2914C33.5695 48.7654 34.4514 48.3987 35.379 48.2122C35.642 48.2122 35.8942 48.1077 36.0802 47.9218C36.2662 47.7358 36.3706 47.4836 36.3706 47.2206C36.3706 46.9575 36.2662 46.7053 36.0802 46.5193C35.8942 46.3334 35.642 46.2289 35.379 46.2289C33.3373 46.2289 29.6915 46.8706 29.5456 48.9706C29.0935 52.4805 28.9179 56.0206 29.0206 59.5581C28.9197 62.2421 29.3152 64.9218 30.1873 67.4622C34.1722 70.8622 38.4468 73.9071 42.9623 76.5622C43.6619 77.1829 44.4903 77.6408 45.388 77.903C46.2857 78.1653 47.2303 78.2253 48.154 78.0789C50.7816 77.5302 53.3727 76.8191 55.9123 75.9497C59.919 74.8364 63.6997 73.0299 67.0831 70.6122C67.7831 70.1455 69.7956 69.7664 69.5915 67.3747C68.992 64.5742 68.5635 61.7398 68.3081 58.8872ZM54.2498 45.0331C58.3331 36.4872 63.7581 39.8706 61.629 43.1664C59.4606 45.779 56.4486 47.5532 53.1123 48.1831C53.5525 47.1561 53.9323 46.1043 54.2498 45.0331ZM38.4415 39.8122C41.3581 37.1872 47.1915 41.3872 48.9706 44.5956C49.9623 46.2872 50.2248 48.5914 48.329 49.2331C46.8289 48.7137 45.367 48.09 43.954 47.3664C41.3581 45.7914 36.1665 41.8539 38.4415 39.8122ZM49.029 52.1497C49.8748 53.0539 52.179 54.5706 53.6373 55.8539C46.0831 56.9622 47.804 58.508 41.9706 55.2122C43.7498 54.2205 48.154 52.8497 49.029 52.1497ZM32.4331 63.8164C31.953 59.4873 31.7193 55.1345 31.7331 50.7789C33.6449 52.5117 35.6507 54.1378 37.7415 55.6497C37.0345 60.0719 36.5962 64.5328 36.429 69.0081C31.2665 64.5456 32.6665 65.6539 32.4331 63.758V63.8164ZM38.2665 70.4372C38.7331 69.7372 40.7748 58.0706 40.804 57.7206C41.8002 58.3979 42.8323 59.021 43.8956 59.5872C43.9547 63.6966 43.7794 67.8061 43.3706 71.8955C43.2977 72.7788 43.2977 73.6665 43.3706 74.5497C41.9123 73.4122 40.0165 71.9247 38.1498 70.3789L38.2665 70.4372ZM47.3956 75.1039C46.8123 75.2497 46.4623 75.1039 46.3456 74.8414C45.704 73.2372 46.3456 67.1414 45.879 60.2581C48.0526 60.3992 50.2328 60.1118 52.2956 59.4122C53.6081 59.2372 54.8623 59.0622 56.1165 58.7706C57.9058 62.6173 59.0301 66.7396 59.4415 70.9622C55.4901 72.6123 51.4255 73.9769 47.279 75.0456L47.3956 75.1039ZM61.2498 70.2622C61.7464 65.9827 61.0393 61.6494 59.2081 57.7497L65.2456 55.2122C67.1706 54.5705 65.4498 55.2122 66.2081 58.9456L67.0831 66.9664C65.251 68.2529 63.2972 69.3568 61.2498 70.2622Z" fill="black"/>
<path fill-rule="evenodd" clip-rule="evenodd" d="M27.3293 23.7417C29.9251 23.7417 32.5793 23.4792 35.1751 23.5667C43.2251 23.7709 41.4751 24.325 41.7376 25.1417L42.8751 30.7417C42.9297 30.9479 43.0577 31.1271 43.2352 31.2456C43.4126 31.364 43.6272 31.4136 43.8386 31.3849C44.05 31.3562 44.2436 31.2513 44.3831 31.0899C44.5226 30.9285 44.5983 30.7217 44.596 30.5084C43.7793 23.0125 43.9543 22.4292 42.4085 21.7584C40.5791 21.1455 38.6935 20.7156 36.7793 20.475C36.7938 17.4509 35.7635 14.5146 33.8626 12.1625C33.1174 11.3604 32.2147 10.7206 31.211 10.2831C30.2073 9.84557 29.1242 9.61976 28.0293 9.61976C26.9344 9.61976 25.8513 9.84557 24.8476 10.2831C23.8439 10.7206 22.9412 11.3604 22.196 12.1625C20.322 14.8036 18.957 17.771 18.171 20.9125C18.171 21.3209 19.046 21.1167 12.046 21.6709C12.7632 18.8359 13.7395 16.0729 14.9626 13.4167C15.5144 12.3465 16.3981 11.4839 17.4812 10.9581C18.5644 10.4323 19.7888 10.2716 20.971 10.5C21.0993 10.5249 21.2312 10.5243 21.3593 10.4982C21.4874 10.4721 21.6091 10.421 21.7174 10.3479C21.8257 10.2748 21.9186 10.181 21.9907 10.072C22.0628 9.96298 22.1127 9.84083 22.1376 9.71252C22.1625 9.58421 22.1619 9.45225 22.1358 9.32417C22.1097 9.1961 22.0586 9.07442 21.9855 8.96609C21.9124 8.85775 21.8186 8.76488 21.7096 8.69278C21.6006 8.62067 21.4784 8.57075 21.3501 8.54585C19.8917 8.10909 18.3464 8.04888 16.8585 8.37085C15.1975 8.80828 13.7061 9.73443 12.5777 11.0293C11.4492 12.3242 10.7356 13.9282 10.5293 15.6334C10.1831 17.708 9.96877 19.8024 9.88763 21.9042C7.75846 21.9042 7.49596 21.9042 7.26263 22.3709C7.0293 22.8375 6.65013 22.75 6.0668 26.0167C3.85013 35.1167 3.15013 36.4584 2.24596 40.3959C1.24395 44.5872 0.648145 48.8653 0.466797 53.1709C1.02096 58.45 6.79596 57.4292 11.3168 57.5167L22.1085 58.0417C22.3502 58.0404 22.5831 57.9508 22.7634 57.7899C22.9438 57.6289 23.0591 57.4076 23.0878 57.1676C23.1164 56.9276 23.0564 56.6854 22.9191 56.4865C22.7817 56.2876 22.5764 56.1457 22.3418 56.0875L14.5835 55.3292C14.6354 53.2179 14.577 51.1053 14.4085 49C14.2212 41.1881 13.5491 33.3953 12.396 25.6667C12.396 24.9375 12.396 24.5584 12.1626 24.0334C18.521 24.0334 20.4168 24.0917 27.3293 23.7417ZM23.771 15.1375C27.0085 11.2875 33.2793 12.2209 34.6501 20.3584C29.8352 20.1739 25.0135 20.4179 20.2418 21.0875C21.2003 18.9828 22.3836 16.9879 23.771 15.1375ZM12.6001 55.0959C9.94596 54.8334 8.0793 54.8334 6.12513 54.6292C3.4418 54.1917 3.55846 53.6375 3.67513 51.9459C3.7918 50.2542 5.33763 40.4834 7.0293 33.0167C8.57513 22.5459 8.13763 24.2667 9.27513 24.0042H10.2085C10.1766 24.6429 10.2455 25.2827 10.4126 25.9C10.4126 31.7334 10.4126 37.5667 10.646 41.1542C10.821 43.1667 12.2501 53.9292 12.6001 55.0959Z" fill="black"/>
</g>
<defs>
<clipPath id="clip0_134_893">
<rect width="70" height="70" fill="white" transform="translate(0 8.16699)"/>
</clipPath>
</defs>
</svg>
