<svg width="267" height="309" viewBox="0 0 267 309" fill="none" xmlns="http://www.w3.org/2000/svg">

<g id="Frontpage" filter="url(#filter0_dd_0_1)">

<g id="Group 1321314246">
<path id="Vector 238" d="M230.262 146.726C224.043 173.733 251.559 220.978 266.095 241.225C268.087 270.077 251.551 281.397 243.034 283.45C221.201 281.889 170.484 283.169 142.285 300.775C107.036 322.783 38.3486 293.402 14.3819 262.733C-9.58481 232.063 27.9098 184.348 31.5137 158.387C35.1176 132.427 -5.11153 82.2998 0.546808 44.7177C6.20514 7.13566 60.2405 18.1634 126.281 3.07614C192.322 -12.0112 193.611 32.7109 208.358 44.0193C223.105 55.3277 238.036 112.967 230.262 146.726Z" fill="#E4F9E3"/>
</g>
</g>
<defs>
<filter id="filter0_dd_0_1" x="-497.396" y="-923.206" width="1220" height="3672" filterUnits="userSpaceOnUse" color-interpolation-filters="sRGB">
<feFlood flood-opacity="0" result="BackgroundImageFix"/>
<feColorMatrix in="SourceAlpha" type="matrix" values="0 0 0 0 0 0 0 0 0 0 0 0 0 0 0 0 0 0 127 0" result="hardAlpha"/>
<feOffset dy="2"/>
<feGaussianBlur stdDeviation="5"/>
<feColorMatrix type="matrix" values="0 0 0 0 0 0 0 0 0 0 0 0 0 0 0 0 0 0 0.1 0"/>
<feBlend mode="normal" in2="BackgroundImageFix" result="effect1_dropShadow_0_1"/>
<feColorMatrix in="SourceAlpha" type="matrix" values="0 0 0 0 0 0 0 0 0 0 0 0 0 0 0 0 0 0 127 0" result="hardAlpha"/>
<feOffset/>
<feGaussianBlur stdDeviation="1"/>
<feColorMatrix type="matrix" values="0 0 0 0 0 0 0 0 0 0 0 0 0 0 0 0 0 0 0.2 0"/>
<feBlend mode="normal" in2="effect1_dropShadow_0_1" result="effect2_dropShadow_0_1"/>
<feBlend mode="normal" in="SourceGraphic" in2="effect2_dropShadow_0_1" result="shape"/>
</filter>
</defs>
</svg>
