<svg width="70" height="70" viewBox="0 0 70 70" fill="none" xmlns="http://www.w3.org/2000/svg">
<g clip-path="url(#clip0_98_1927)">
<path d="M21.0564 62.2346C25.3931 62.6205 36.2336 71.1484 41.1118 75.3641C69.4199 83.1342 64.7508 51.7251 62.8538 41.155C60.9569 30.585 46.8936 29.2295 45.2075 19.8339C43.5213 10.4382 39.8174 6.0114 29.5786 2.99977C19.3399 -0.0118686 16.9306 8.1791 15.2742 13.8104C13.6178 19.4417 16.5397 20.8574 8.28814 35.6733C0.0365545 50.4893 15.6354 61.7523 21.0564 62.2346Z" fill="#E3F9FF"/>
<path fill-rule="evenodd" clip-rule="evenodd" d="M48.6496 32.0836C49.1966 29.8817 49.335 27.5981 49.0579 25.3461C48.4162 22.1961 47.2204 20.3878 46.1412 19.8628C43.9537 18.8711 42.6121 20.2128 41.5329 22.0795C40.9204 12.4545 33.1912 9.42115 30.1287 18.4336C25.5496 8.75031 15.8371 16.8295 22.0204 34.417C19.6871 32.8128 16.9162 31.5003 14.7579 33.192C12.5996 34.8836 13.3871 40.5711 14.5829 43.5461C16.4496 48.3586 19.5121 51.567 21.1746 58.2753C23.1871 66.3253 22.1079 68.2795 23.7996 68.1628C24.0494 68.12 24.2743 67.9858 24.4306 67.7864C24.587 67.5869 24.6635 67.3364 24.6454 67.0836C24.6454 64.0211 24.4412 60.8128 24.0037 57.7211C22.8371 49.4961 20.4162 48.0086 18.1704 42.1461C17.259 40.2063 16.8287 38.0752 16.9162 35.9336C17.3829 34.0961 22.2829 37.3045 24.1204 39.2295C24.8416 40.7754 25.6398 42.2843 26.5121 43.7503C26.5703 43.8681 26.652 43.9727 26.7522 44.0577C26.8524 44.1427 26.9689 44.2063 27.0946 44.2445C27.2203 44.2828 27.3525 44.2949 27.4831 44.2801C27.6136 44.2654 27.7398 44.224 27.8537 44.1586C29.4579 43.2836 26.9787 42.2628 24.7329 33.1336C23.5264 28.7524 23.4462 24.1375 24.4996 19.717C24.6448 19.2174 24.8505 18.7375 25.1121 18.2878C25.1121 18.2878 25.1121 17.9086 25.3746 17.9086C26.0454 17.9086 27.2121 19.8628 27.5037 20.4753C29.1606 23.996 30.1496 27.7937 30.4204 31.6753C30.463 31.9693 30.6205 32.2343 30.8585 32.412C31.0964 32.5898 31.3952 32.6658 31.6892 32.6232C31.9831 32.5807 32.2481 32.4231 32.4259 32.1852C32.6037 31.9472 32.6796 31.6484 32.6371 31.3545C32.6659 28.1247 32.2538 24.9061 31.4121 21.7878C31.8402 19.7115 32.9865 17.8526 34.6496 16.5378C36.5162 15.3711 38.0621 21.4086 38.1496 24.3253C38.3537 31.3253 36.7204 34.0378 38.6746 34.2711C38.972 34.3041 39.2705 34.2185 39.5053 34.0328C39.74 33.8472 39.8922 33.5765 39.9287 33.2795C40.2496 31.6461 40.6287 29.8961 40.9787 28.117C41.3871 27.8836 41.1829 28.117 43.0787 24.5586C44.3329 22.4586 44.7704 21.642 45.3829 25.842C45.6903 27.833 45.6903 29.8593 45.3829 31.8503C44.7412 37.9753 43.4871 39.1128 45.0621 39.6086C45.3483 39.6906 45.6551 39.657 45.9169 39.5153C46.1786 39.3735 46.3744 39.1348 46.4621 38.8503C46.8704 37.7711 47.3079 36.6045 47.6871 35.4378C48.2704 34.9711 50.6037 33.1336 51.0704 33.717C51.5371 34.3003 50.7496 37.917 50.4579 38.9378C47.9787 47.0753 45.1204 46.5211 43.9829 53.142C43.1954 57.7795 43.7787 63.3503 43.3996 66.0045C43.3566 66.3013 43.4297 66.6032 43.6034 66.8476C43.7772 67.092 44.0385 67.2601 44.3329 67.317C46.5496 67.6961 45.4704 63.5253 46.9287 55.6503C48.2121 48.767 50.3996 50.1086 52.9954 42.992C54.1912 39.6378 55.5329 32.9878 52.4704 31.4711C51.8423 31.1937 51.1474 31.1039 50.4695 31.2126C49.7915 31.3213 49.1595 31.6238 48.6496 32.0836Z" fill="black"/>
<path fill-rule="evenodd" clip-rule="evenodd" d="M14.3497 14.2339C14.9299 12.9199 15.6747 11.685 16.5664 10.5589C16.6851 10.4593 16.7831 10.3373 16.8547 10.1998C16.9262 10.0624 16.9701 9.91219 16.9836 9.75781C16.9971 9.60343 16.9801 9.4479 16.9336 9.30009C16.887 9.15228 16.8118 9.01509 16.7122 8.89636C16.6126 8.77762 16.4906 8.67966 16.3532 8.60807C16.2157 8.53648 16.0655 8.49267 15.9112 8.47912C15.7568 8.46558 15.6012 8.48258 15.4534 8.52915C15.3056 8.57571 15.1684 8.65094 15.0497 8.75052C13.1081 9.7109 11.5078 11.2437 10.4647 13.1422C9.42157 15.0406 8.98587 17.2133 9.21637 19.3672C9.18724 19.4988 9.18526 19.635 9.21055 19.7675C9.23584 19.8999 9.28786 20.0258 9.36345 20.1374C9.43903 20.249 9.53659 20.3441 9.65016 20.4168C9.76372 20.4894 9.89091 20.5382 10.024 20.56C10.157 20.5819 10.2931 20.5763 10.4239 20.5438C10.5548 20.5113 10.6776 20.4524 10.7849 20.3708C10.8922 20.2892 10.9818 20.1865 11.0481 20.0691C11.1144 19.9517 11.156 19.8221 11.1705 19.688C12.1231 17.8096 13.1847 15.9884 14.3497 14.2339Z" fill="black"/>
<path fill-rule="evenodd" clip-rule="evenodd" d="M13.5333 3.87969C13.7369 3.68413 13.8605 3.41985 13.8801 3.13824C13.8996 2.85663 13.8138 2.5778 13.6392 2.35596C13.4647 2.13412 13.2138 1.98511 12.9355 1.9379C12.6572 1.89069 12.3713 1.94865 12.1333 2.10052C4.40416 7.17553 2.15832 12.0755 -9.25362e-06 20.4172C-0.092835 20.6647 -0.0835258 20.939 0.0258704 21.1797C0.135267 21.4203 0.335789 21.6077 0.583324 21.7005C0.830859 21.7934 1.10513 21.784 1.3458 21.6746C1.58647 21.5653 1.77383 21.3647 1.86666 21.1172C5.00441 14.8973 8.92513 9.10439 13.5333 3.87969Z" fill="black"/>
<path fill-rule="evenodd" clip-rule="evenodd" d="M62.9121 47.9793C62.9597 47.7365 62.9148 47.4847 62.7862 47.2733C62.6577 47.0618 62.4547 46.9061 62.2172 46.8367C61.9797 46.7673 61.7248 46.7892 61.5026 46.898C61.2804 47.0069 61.1069 47.1949 61.0163 47.4252C60.1255 48.6413 59.3538 49.9403 58.7121 51.3043C58.2163 52.5585 57.9246 54.221 57.5454 55.5918C57.4062 55.8548 57.3771 56.1624 57.4647 56.4468C57.5522 56.7313 57.7491 56.9693 58.0121 57.1085C58.2751 57.2477 58.5827 57.2768 58.8671 57.1893C59.1515 57.1018 59.3895 56.9048 59.5288 56.6418C60.7365 55.5676 61.6728 54.2226 62.2608 52.7169C62.8489 51.2113 63.0721 49.5878 62.9121 47.9793Z" fill="black"/>
<path fill-rule="evenodd" clip-rule="evenodd" d="M70.0004 43.4018C70.0004 43.1388 69.896 42.8866 69.71 42.7006C69.524 42.5146 69.2718 42.4102 69.0088 42.4102C68.7458 42.4102 68.4935 42.5146 68.3076 42.7006C68.1216 42.8866 68.0171 43.1388 68.0171 43.4018C66.7437 49.0484 64.9772 54.5724 62.7379 59.9102C62.6052 60.1541 62.5663 60.4382 62.6286 60.7088C62.6908 60.9795 62.85 61.218 63.076 61.3794C63.3019 61.5409 63.5792 61.614 63.8554 61.5852C64.1316 61.5563 64.3877 61.4273 64.5754 61.2227C66.7639 58.8528 68.3885 56.0191 69.3279 52.9332C70.2673 49.8473 70.4972 46.5891 70.0004 43.4018Z" fill="black"/>
</g>
<defs>
<clipPath id="clip0_98_1927">
<rect width="70" height="70" fill="white"/>
</clipPath>
</defs>
</svg>
