<svg preserveAspectRatio="none" width="1209" height="638" viewBox="0 0 1209 638" fill="none" xmlns="http://www.w3.org/2000/svg">
<path d="M102.986 1.83743C59.0838 -8.04088 15.5487 24.3134 0 41.6918L0.0896885 632.94H1199.18C1199.64 469.677 1201.97 265.444 1200.87 185.322C1199.5 85.1686 1108.49 82.6964 1035.78 101.904C963.063 121.111 860.66 59.1185 779.715 60.4905C698.769 61.8625 675.628 112.534 596.193 116.186C515.342 119.903 490.281 36.7514 389.846 51.3601C250.534 71.6236 157.865 14.1853 102.986 1.83743Z" fill="#B9E3DE"/>
<g opacity="0.3" clip-path="url(#clip0_136_1563)">
<path d="M826.574 582.879C828.518 585.013 832.367 584.668 835.173 582.111C837.978 579.554 838.676 575.752 836.733 573.62C834.788 571.487 830.939 571.831 828.133 574.388C825.328 576.946 824.63 580.747 826.574 582.879Z" fill="#73A79D"/>
<path d="M814.816 583.157C817.443 584.25 820.738 582.336 822.178 578.88C823.616 575.425 822.653 571.737 820.027 570.642C817.4 569.549 814.104 571.464 812.665 574.92C811.227 578.375 812.19 582.063 814.816 583.157Z" fill="#73A79D"/>
<path d="M834.447 593.258C835.976 595.705 839.825 596.057 843.044 594.045C846.263 592.031 847.632 588.417 846.102 585.969C844.572 583.523 840.722 583.172 837.504 585.184C834.285 587.198 832.917 590.812 834.447 593.258Z" fill="#73A79D"/>
<path d="M844.468 602.861C844.122 600.037 840.831 598.116 837.115 598.57C833.399 599.025 830.668 601.683 831.013 604.508C831.359 607.331 834.65 609.253 838.366 608.798C842.081 608.343 844.813 605.685 844.468 602.861Z" fill="#73A79D"/>
<path d="M829.577 595.591C830.289 593.561 830.03 591.236 828.636 589.398C827.242 587.561 825.072 586.685 822.926 586.823C820.554 586.977 818.657 587.804 816.779 587.618C814.902 587.433 811.526 583.307 806.257 586.808C802.536 589.282 802.001 594.584 804.702 598.144C806.754 600.849 808.984 601.83 810.177 603.401C811.37 604.973 811.713 607.385 813.765 610.09C816.466 613.65 821.716 614.564 825.1 611.647C829.893 607.516 826.828 603.153 827.155 601.295C827.482 599.438 828.79 597.833 829.577 595.591Z" fill="#73A79D"/>
</g>
<g opacity="0.3" clip-path="url(#clip1_136_1563)">
<path d="M924.013 600.486C926.31 602.233 930.034 601.199 932.332 598.178C934.629 595.156 934.63 591.291 932.333 589.544C930.035 587.798 926.311 588.831 924.014 591.853C921.716 594.875 921.716 598.74 924.013 600.486Z" fill="#73A79D"/>
<path d="M912.497 602.883C915.278 603.484 918.173 601.006 918.966 597.347C919.757 593.689 918.143 590.235 915.363 589.633C912.581 589.032 909.686 591.511 908.894 595.17C908.103 598.828 909.716 602.281 912.497 602.883Z" fill="#73A79D"/>
<path d="M933.63 609.273C935.576 611.404 939.425 611.055 942.227 608.494C945.03 605.932 945.724 602.131 943.778 599.999C941.831 597.87 937.981 598.219 935.179 600.779C932.376 603.341 931.683 607.143 933.63 609.273Z" fill="#73A79D"/>
<path d="M945.219 616.908C944.369 614.193 940.785 612.897 937.213 614.015C933.639 615.134 931.433 618.241 932.283 620.957C933.133 623.672 936.717 624.968 940.29 623.849C943.862 622.731 946.069 619.624 945.219 616.908Z" fill="#73A79D"/>
<path d="M929.261 612.446C929.595 610.321 928.92 608.081 927.217 606.525C925.515 604.97 923.223 604.5 921.137 605.024C918.832 605.603 917.115 606.759 915.235 606.915C913.355 607.072 909.29 603.623 904.739 608.018C901.525 611.123 901.957 616.435 905.255 619.448C907.763 621.739 910.133 622.301 911.59 623.631C913.047 624.961 913.82 627.272 916.327 629.562C919.626 632.576 924.954 632.527 927.757 629.046C931.725 624.119 927.922 620.381 927.909 618.494C927.895 616.608 928.892 614.794 929.261 612.446Z" fill="#73A79D"/>
</g>
<g opacity="0.3" clip-path="url(#clip2_136_1563)">
<path d="M912.941 514.23C915.034 516.217 918.849 515.595 921.462 512.842C924.075 510.088 924.497 506.246 922.404 504.26C920.31 502.274 916.496 502.895 913.883 505.648C911.27 508.402 910.848 512.244 912.941 514.23Z" fill="#73A79D"/>
<path d="M901.234 515.356C903.933 516.257 907.081 514.11 908.267 510.558C909.452 507.008 908.224 503.399 905.526 502.498C902.827 501.598 899.678 503.746 898.493 507.297C897.308 510.847 898.535 514.455 901.234 515.356Z" fill="#73A79D"/>
<path d="M921.544 524.012C923.246 526.342 927.11 526.415 930.175 524.175C933.24 521.934 934.344 518.23 932.641 515.9C930.939 513.57 927.073 513.498 924.009 515.738C920.944 517.979 919.841 521.683 921.544 524.012Z" fill="#73A79D"/>
<path d="M932.233 532.864C931.684 530.073 928.262 528.394 924.59 529.116C920.916 529.839 918.384 532.687 918.933 535.479C919.482 538.27 922.904 539.949 926.577 539.227C930.249 538.504 932.782 535.656 932.233 532.864Z" fill="#73A79D"/>
<path d="M916.855 526.691C917.419 524.615 916.992 522.315 915.469 520.583C913.946 518.851 911.719 518.135 909.589 518.428C907.234 518.752 905.401 519.714 903.515 519.665C901.629 519.616 897.964 515.745 892.962 519.618C889.429 522.354 889.279 527.681 892.23 531.036C894.473 533.586 896.768 534.404 898.071 535.885C899.374 537.366 899.891 539.747 902.134 542.297C905.085 545.652 910.387 546.184 913.552 543.029C918.033 538.563 914.66 534.433 914.852 532.556C915.045 530.68 916.233 528.985 916.855 526.691Z" fill="#73A79D"/>
</g>
<g opacity="0.3" clip-path="url(#clip3_136_1563)">
<path d="M1000.29 548.226C1002.38 550.213 1006.19 549.591 1008.81 546.838C1011.42 544.084 1011.84 540.242 1009.75 538.256C1007.65 536.27 1003.84 536.891 1001.23 539.644C998.614 542.398 998.193 546.24 1000.29 548.226Z" fill="#73A79D"/>
<path d="M988.578 549.353C991.277 550.253 994.425 548.106 995.612 544.554C996.797 541.004 995.569 537.395 992.871 536.494C990.171 535.594 987.023 537.742 985.837 541.293C984.653 544.843 985.88 548.451 988.578 549.353Z" fill="#73A79D"/>
<path d="M1008.89 558.008C1010.59 560.338 1014.46 560.411 1017.52 558.171C1020.59 555.93 1021.69 552.226 1019.99 549.896C1018.28 547.566 1014.42 547.494 1011.35 549.734C1008.29 551.975 1007.19 555.679 1008.89 558.008Z" fill="#73A79D"/>
<path d="M1019.58 566.86C1019.03 564.069 1015.61 562.39 1011.93 563.112C1008.26 563.835 1005.73 566.683 1006.28 569.475C1006.83 572.266 1010.25 573.945 1013.92 573.223C1017.59 572.5 1020.13 569.652 1019.58 566.86Z" fill="#73A79D"/>
<path d="M1004.2 560.688C1004.76 558.612 1004.34 556.311 1002.81 554.579C1001.29 552.848 999.064 552.131 996.933 552.424C994.579 552.749 992.746 553.711 990.86 553.662C988.974 553.613 985.309 549.741 980.307 553.614C976.774 556.35 976.624 561.678 979.575 565.032C981.818 567.583 984.113 568.4 985.416 569.881C986.719 571.362 987.236 573.743 989.479 576.293C992.429 579.648 997.732 580.18 1000.9 577.025C1005.38 572.559 1002.01 568.429 1002.2 566.552C1002.39 564.676 1003.58 562.981 1004.2 560.688Z" fill="#73A79D"/>
</g>
<g opacity="0.3" clip-path="url(#clip4_136_1563)">
<path d="M1073.56 407.872C1075.66 409.859 1079.47 409.238 1082.08 406.485C1084.7 403.731 1085.12 399.889 1083.03 397.902C1080.93 395.916 1077.12 396.538 1074.5 399.291C1071.89 402.045 1071.47 405.887 1073.56 407.872Z" fill="#73A79D"/>
<path d="M1061.85 408.999C1064.55 409.9 1067.7 407.752 1068.89 404.201C1070.07 400.651 1068.85 397.042 1066.15 396.14C1063.45 395.24 1060.3 397.388 1059.11 400.939C1057.93 404.49 1059.16 408.098 1061.85 408.999Z" fill="#73A79D"/>
<path d="M1082.16 417.654C1083.87 419.985 1087.73 420.057 1090.8 417.818C1093.86 415.576 1094.97 411.873 1093.26 409.542C1091.56 407.213 1087.69 407.141 1084.63 409.381C1081.57 411.622 1080.46 415.325 1082.16 417.654Z" fill="#73A79D"/>
<path d="M1092.85 426.507C1092.31 423.715 1088.88 422.037 1085.21 422.758C1081.54 423.481 1079.01 426.33 1079.55 429.122C1080.1 431.913 1083.52 433.592 1087.2 432.869C1090.87 432.147 1093.4 429.299 1092.85 426.507Z" fill="#73A79D"/>
<path d="M1077.48 420.334C1078.04 418.258 1077.61 415.958 1076.09 414.226C1074.57 412.494 1072.34 411.777 1070.21 412.071C1067.85 412.395 1066.02 413.357 1064.14 413.308C1062.25 413.259 1058.59 409.387 1053.58 413.261C1050.05 415.997 1049.9 421.324 1052.85 424.679C1055.09 427.229 1057.39 428.046 1058.69 429.527C1060 431.008 1060.51 433.389 1062.76 435.939C1065.71 439.294 1071.01 439.826 1074.17 436.672C1078.65 432.205 1075.28 428.075 1075.47 426.199C1075.67 424.323 1076.85 422.627 1077.48 420.334Z" fill="#73A79D"/>
</g>
<g opacity="0.3" clip-path="url(#clip5_136_1563)">
<path d="M1166.52 444.374C1168.61 446.361 1172.43 445.74 1175.04 442.986C1177.65 440.233 1178.07 436.391 1175.98 434.404C1173.89 432.418 1170.07 433.04 1167.46 435.793C1164.85 438.546 1164.43 442.389 1166.52 444.374Z" fill="#73A79D"/>
<path d="M1154.81 445.501C1157.51 446.402 1160.66 444.254 1161.85 440.703C1163.03 437.152 1161.8 433.544 1159.1 432.642C1156.4 431.742 1153.26 433.89 1152.07 437.441C1150.89 440.992 1152.11 444.6 1154.81 445.501Z" fill="#73A79D"/>
<path d="M1175.12 454.156C1176.82 456.487 1180.69 456.559 1183.75 454.32C1186.82 452.078 1187.92 448.375 1186.22 446.044C1184.52 443.715 1180.65 443.643 1177.59 445.883C1174.52 448.124 1173.42 451.827 1175.12 454.156Z" fill="#73A79D"/>
<path d="M1185.81 463.009C1185.26 460.217 1181.84 458.539 1178.17 459.26C1174.49 459.983 1171.96 462.832 1172.51 465.624C1173.06 468.415 1176.48 470.094 1180.15 469.371C1183.83 468.649 1186.36 465.801 1185.81 463.009Z" fill="#73A79D"/>
<path d="M1170.43 456.836C1171 454.76 1170.57 452.46 1169.05 450.727C1167.52 448.996 1165.3 448.279 1163.17 448.572C1160.81 448.897 1158.98 449.859 1157.09 449.81C1155.21 449.761 1151.54 445.889 1146.54 449.763C1143.01 452.499 1142.86 457.826 1145.81 461.181C1148.05 463.731 1150.35 464.548 1151.65 466.029C1152.95 467.51 1153.47 469.891 1155.71 472.441C1158.66 475.796 1163.97 476.328 1167.13 473.174C1171.61 468.707 1168.24 464.577 1168.43 462.701C1168.62 460.824 1169.81 459.129 1170.43 456.836Z" fill="#73A79D"/>
</g>
<g opacity="0.3" clip-path="url(#clip6_136_1563)">
<path d="M1178.66 350.015C1180.75 352.002 1184.57 351.38 1187.18 348.627C1189.8 345.873 1190.22 342.031 1188.12 340.045C1186.03 338.059 1182.22 338.68 1179.6 341.433C1176.99 344.187 1176.57 348.029 1178.66 350.015Z" fill="#73A79D"/>
<path d="M1166.95 351.142C1169.65 352.042 1172.8 349.895 1173.99 346.343C1175.17 342.793 1173.94 339.185 1171.25 338.283C1168.55 337.383 1165.4 339.531 1164.21 343.082C1163.03 346.632 1164.25 350.241 1166.95 351.142Z" fill="#73A79D"/>
<path d="M1187.26 359.797C1188.97 362.127 1192.83 362.2 1195.89 359.96C1198.96 357.719 1200.06 354.015 1198.36 351.685C1196.66 349.356 1192.79 349.284 1189.73 351.523C1186.66 353.764 1185.56 357.468 1187.26 359.797Z" fill="#73A79D"/>
<path d="M1197.95 368.649C1197.4 365.858 1193.98 364.179 1190.31 364.901C1186.64 365.624 1184.1 368.472 1184.65 371.264C1185.2 374.056 1188.62 375.734 1192.3 375.012C1195.97 374.289 1198.5 371.441 1197.95 368.649Z" fill="#73A79D"/>
<path d="M1182.58 362.477C1183.14 360.401 1182.71 358.1 1181.19 356.368C1179.67 354.637 1177.44 353.92 1175.31 354.213C1172.95 354.538 1171.12 355.5 1169.23 355.451C1167.35 355.402 1163.68 351.53 1158.68 355.404C1155.15 358.14 1155 363.467 1157.95 366.822C1160.19 369.372 1162.49 370.189 1163.79 371.67C1165.09 373.151 1165.61 375.532 1167.85 378.082C1170.8 381.437 1176.11 381.969 1179.27 378.814C1183.75 374.348 1180.38 370.218 1180.57 368.341C1180.76 366.465 1181.95 364.77 1182.58 362.477Z" fill="#73A79D"/>
</g>
<g opacity="0.3" clip-path="url(#clip7_136_1563)">
<path d="M1079.16 498.652C1081.26 500.639 1085.07 500.017 1087.69 497.264C1090.3 494.51 1090.72 490.668 1088.63 488.682C1086.53 486.696 1082.72 487.317 1080.11 490.07C1077.49 492.824 1077.07 496.666 1079.16 498.652Z" fill="#73A79D"/>
<path d="M1067.46 499.778C1070.16 500.679 1073.3 498.531 1074.49 494.98C1075.68 491.43 1074.45 487.821 1071.75 486.919C1069.05 486.02 1065.9 488.168 1064.72 491.719C1063.53 495.269 1064.76 498.877 1067.46 499.778Z" fill="#73A79D"/>
<path d="M1087.77 508.434C1089.47 510.764 1093.33 510.836 1096.4 508.597C1099.46 506.355 1100.57 502.652 1098.87 500.321C1097.16 497.992 1093.3 497.92 1090.23 500.16C1087.17 502.401 1086.06 506.105 1087.77 508.434Z" fill="#73A79D"/>
<path d="M1098.46 517.286C1097.91 514.494 1094.49 512.816 1090.81 513.538C1087.14 514.26 1084.61 517.109 1085.16 519.901C1085.71 522.692 1089.13 524.371 1092.8 523.649C1096.47 522.926 1099.01 520.078 1098.46 517.286Z" fill="#73A79D"/>
<path d="M1083.08 511.113C1083.64 509.037 1083.22 506.737 1081.69 505.005C1080.17 503.273 1077.94 502.557 1075.81 502.85C1073.46 503.174 1071.62 504.136 1069.74 504.087C1067.85 504.038 1064.19 500.167 1059.19 504.04C1055.65 506.776 1055.5 512.103 1058.45 515.458C1060.7 518.008 1062.99 518.825 1064.29 520.307C1065.6 521.788 1066.12 524.169 1068.36 526.719C1071.31 530.073 1076.61 530.606 1079.78 527.451C1084.26 522.985 1080.88 518.855 1081.08 516.978C1081.27 515.102 1082.46 513.407 1083.08 511.113Z" fill="#73A79D"/>
</g>
<g opacity="0.3" clip-path="url(#clip8_136_1563)">
<path d="M986.205 459.952C988.298 461.94 992.113 461.318 994.726 458.565C997.339 455.811 997.76 451.969 995.668 449.982C993.574 447.996 989.76 448.618 987.146 451.371C984.533 454.125 984.112 457.967 986.205 459.952Z" fill="#73A79D"/>
<path d="M974.497 461.079C977.196 461.98 980.344 459.832 981.531 456.281C982.716 452.731 981.488 449.122 978.789 448.22C976.09 447.32 972.942 449.469 971.756 453.019C970.572 456.57 971.799 460.178 974.497 461.079Z" fill="#73A79D"/>
<path d="M994.807 469.734C996.51 472.065 1000.37 472.137 1003.44 469.898C1006.5 467.656 1007.61 463.953 1005.91 461.622C1004.2 459.293 1000.34 459.221 997.273 461.461C994.208 463.702 993.105 467.405 994.807 469.734Z" fill="#73A79D"/>
<path d="M1005.5 478.587C1004.95 475.795 1001.53 474.117 997.853 474.838C994.179 475.561 991.648 478.41 992.196 481.202C992.745 483.993 996.167 485.672 999.84 484.949C1003.51 484.227 1006.05 481.379 1005.5 478.587Z" fill="#73A79D"/>
<path d="M990.119 472.414C990.682 470.338 990.256 468.038 988.733 466.306C987.21 464.574 984.982 463.858 982.852 464.151C980.498 464.475 978.665 465.437 976.779 465.388C974.893 465.339 971.228 461.468 966.226 465.341C962.693 468.077 962.543 473.404 965.494 476.759C967.737 479.309 970.032 480.126 971.335 481.607C972.638 483.088 973.155 485.47 975.398 488.019C978.348 491.374 983.651 491.906 986.816 488.752C991.296 484.285 987.924 480.156 988.116 478.279C988.308 476.403 989.497 474.708 990.119 472.414Z" fill="#73A79D"/>
</g>
<defs>
<clipPath id="clip0_136_1563">
<rect width="44" height="44" fill="white" transform="translate(817.031 563.062) rotate(27.5524)"/>
</clipPath>
<clipPath id="clip1_136_1563">
<rect width="44" height="44" fill="white" transform="translate(911.049 582.719) rotate(17.1513)"/>
</clipPath>
<clipPath id="clip2_136_1563">
<rect width="44" height="44" fill="white" transform="translate(901.991 495.154) rotate(23.4058)"/>
</clipPath>
<clipPath id="clip3_136_1563">
<rect width="44" height="44" fill="white" transform="translate(989.336 529.15) rotate(23.4058)"/>
</clipPath>
<clipPath id="clip4_136_1563">
<rect width="44" height="44" fill="white" transform="translate(1062.61 388.797) rotate(23.4058)"/>
</clipPath>
<clipPath id="clip5_136_1563">
<rect width="44" height="44" fill="white" transform="translate(1155.57 425.299) rotate(23.4058)"/>
</clipPath>
<clipPath id="clip6_136_1563">
<rect width="44" height="44" fill="white" transform="translate(1167.71 330.939) rotate(23.4058)"/>
</clipPath>
<clipPath id="clip7_136_1563">
<rect width="44" height="44" fill="white" transform="translate(1068.21 479.576) rotate(23.4058)"/>
</clipPath>
<clipPath id="clip8_136_1563">
<rect width="44" height="44" fill="white" transform="translate(975.255 440.877) rotate(23.4058)"/>
</clipPath>
</defs>
</svg>
