<svg width="70" height="70" viewBox="0 0 70 70" fill="none" xmlns="http://www.w3.org/2000/svg">
<g clip-path="url(#clip0_98_2675)">
<path d="M9.94629 34.3867C10.7999 38.6561 5.6776 51.4625 3.00977 57.332C3.5437 86.6822 32.3587 73.3397 41.9639 68.5371C51.5691 63.7345 48.901 49.8603 57.439 45.5913C65.9769 41.3223 69.1787 36.5197 69.1787 25.8472C69.1787 15.1748 60.6407 15.1748 54.7709 15.1748C48.901 15.1748 48.3674 18.3774 31.8251 14.6421C15.2828 10.9067 8.8793 29.0499 9.94629 34.3867Z" fill="#FFE3E3"/>
<path fill-rule="evenodd" clip-rule="evenodd" d="M32.7538 51.8292C32.6341 51.7652 32.5024 51.7265 32.3671 51.7155C32.2318 51.7045 32.0957 51.7214 31.9672 51.7652C31.8387 51.8089 31.7205 51.8786 31.62 51.9699C31.5195 52.0612 31.4389 52.1721 31.383 52.2958C30.6538 53.7542 33.9496 54.9792 27.2996 61.7458C24.3507 64.7039 20.4221 66.482 16.2535 66.7452C12.0849 67.0084 7.9639 65.7387 4.66631 63.175C5.6885 63.2032 6.70438 63.0062 7.64192 62.5979C8.57946 62.1896 9.41569 61.5801 10.0913 60.8125C15.9246 55.3583 13.5913 44.7417 22.808 45.2083C27.1246 45.4417 26.9205 47.3958 28.3788 48.7375C30.5371 50.7208 31.2955 47.8917 29.9246 47.6292C28.5538 47.3667 29.1663 43.75 22.983 42.9917C11.8121 41.7667 12.8038 53.7542 7.78714 58.3333C5.57048 60.375 3.96631 59.8208 2.33298 60.6375C0.699644 61.4542 -0.0295229 63.5542 2.33298 65.6833C4.65043 67.4726 7.33085 68.7338 10.1867 69.3789C13.0426 70.0239 16.0049 70.0371 18.8664 69.4176C21.7279 68.7981 24.4195 67.5607 26.7528 65.7922C29.0861 64.0237 31.0048 61.7667 32.3746 59.1792C33.5121 57.1667 34.8246 52.8208 32.7538 51.8292Z" fill="black"/>
<path fill-rule="evenodd" clip-rule="evenodd" d="M57.4289 0.612014C50.9248 2.50785 46.4914 7.52451 42.8456 13.3578C36.2539 24.587 36.4873 23.6245 31.7331 31.5287C24.9956 42.8745 26.7456 38.9078 25.8123 40.5412C25.7078 40.6648 25.6372 40.8135 25.6076 40.9727C25.5779 41.1318 25.5902 41.2959 25.6431 41.4489C25.6961 41.6019 25.7879 41.7385 25.9096 41.8452C26.0313 41.952 26.1787 42.0253 26.3373 42.0578C27.9414 42.5828 32.8414 33.9495 33.6873 32.6953C34.9998 30.6537 36.4289 28.6412 37.8289 26.6287C44.6831 16.1287 47.1914 11.7245 51.0998 8.13701C56.7289 3.00368 66.1789 0.72868 65.6831 8.13701C65.2456 19.2495 50.8956 28.087 43.7498 35.5828C42.1748 37.2162 40.8331 39.112 39.2873 40.8912C35.6414 45.1787 32.5206 46.2287 33.0456 47.6287C33.8623 49.7578 36.9539 46.1703 38.8789 44.712C41.3873 42.5245 43.2539 39.7245 45.5581 37.4787C52.9373 30.3037 63.2623 24.7037 67.7831 14.7578C72.3039 4.81201 66.5581 -2.01299 57.4289 0.612014Z" fill="black"/>
<path fill-rule="evenodd" clip-rule="evenodd" d="M53.9875 14.583C57.1142 12.3373 59.9035 9.65603 62.2708 6.62047C62.3043 6.38475 62.2434 6.14534 62.1015 5.95421C61.9595 5.76309 61.7478 5.63568 61.5125 5.59964C60.7711 5.47723 60.0107 5.54405 59.302 5.79389C58.5933 6.04373 57.9591 6.4685 57.4583 7.0288C55.4413 9.12225 53.6341 11.4082 52.0625 13.8538C52.1054 14.054 52.1978 14.2403 52.3312 14.3956C52.4647 14.5508 52.6349 14.6702 52.8264 14.7427C53.0179 14.8153 53.2245 14.8386 53.4273 14.8107C53.6301 14.7828 53.8227 14.7045 53.9875 14.583Z" fill="black"/>
</g>
<defs>
<clipPath id="clip0_98_2675">
<rect width="70" height="70" fill="white"/>
</clipPath>
</defs>
</svg>
