<svg preserveAspectRatio="none" width="100%" height="100%" overflow="visible" style="display: block;" viewBox="0 0 10.7625 20.4495" fill="none" xmlns="http://www.w3.org/2000/svg">
<g id="7935ec95c421cee6d86eb22ecd11b7e3">
<path id="Vector" d="M6.33163 5.27843C6.33163 5.47211 6.33163 6.10336 6.33163 7.00018H9.41505L9.08074 9.74885H6.33163C6.33163 13.9878 6.33163 19.6682 6.33163 19.6682H2.68263C2.68263 19.6682 2.68263 14.063 2.68263 9.74885H0.78125V7.00018H2.68263C2.68263 5.91013 2.68263 5.13502 2.68263 4.91921C2.68263 3.89096 2.60516 3.40308 3.04207 2.60627C3.47921 1.80951 4.71222 0.756343 6.84483 0.781698C8.97795 0.807978 9.8771 1.01318 9.8771 1.01318L9.41505 3.94259C9.41505 3.94259 8.05293 3.58293 7.38435 3.71111C6.71665 3.83932 6.33163 4.25062 6.33163 5.27843Z" fill="var(--fill-0, #43786C)" stroke="var(--stroke-0, #43786C)" stroke-width="1.5625"/>
</g>
</svg>
