<svg width="31" height="29" viewBox="0 0 31 29" fill="none" xmlns="http://www.w3.org/2000/svg">
<path d="M24.1573 0.0195573C24.7048 0.097803 25.2131 0.254356 25.6824 0.48899C26.2299 0.880168 26.661 1.46768 26.9739 2.24991C27.3647 2.95371 27.6396 3.73699 27.796 4.59707C27.9522 5.45698 28.0682 6.35665 28.1464 7.29466C28.2246 8.23281 28.2654 9.05487 28.2654 9.75863C28.3436 10.5408 28.5002 11.6371 28.7348 13.0447C28.9695 14.3743 29.2032 15.7835 29.4379 17.2695C29.7508 18.7558 29.9867 20.2054 30.1431 21.6134C30.2994 22.9424 30.3381 23.9985 30.2599 24.7805C30.0252 25.7191 29.4762 26.5019 28.6158 27.1276C27.7554 27.6751 26.7775 28.0269 25.6824 28.1833C24.6654 28.3397 23.6084 28.3012 22.5132 28.0665C21.4188 27.7536 20.5194 27.2062 19.8156 26.4246C19.268 25.7205 18.8756 24.6633 18.6409 23.2554C18.4062 21.7691 18.2497 20.2038 18.1715 18.561C18.0933 16.9183 18.0547 15.353 18.0547 13.8667C18.1329 12.3025 18.1715 11.0886 18.1715 10.2281C18.2497 9.4462 18.3678 8.54669 18.5241 7.53048C18.7588 6.43537 19.0333 5.41676 19.3462 4.47806C19.7371 3.53987 20.1664 2.71787 20.6355 2.01409C21.1829 1.23199 21.7707 0.723802 22.3964 0.48899C23.1005 0.0978111 23.6879 -0.0586775 24.1573 0.0195573Z" fill="#B368B0"/>
<path d="M6.10262 0.0195573C6.6501 0.097803 7.15843 0.254356 7.62773 0.48899C8.17525 0.880168 8.60632 1.46768 8.91922 2.24991C9.31002 2.95371 9.5849 3.73699 9.74127 4.59707C9.89756 5.45698 10.0135 6.35665 10.0917 7.29466C10.1699 8.23281 10.2107 9.05487 10.2107 9.75863C10.2889 10.5408 10.4456 11.6371 10.6801 13.0447C10.9148 14.3743 11.1485 15.7835 11.3832 17.2695C11.6961 18.7558 11.932 20.2054 12.0884 21.6134C12.2447 22.9424 12.2834 23.9985 12.2052 24.7805C11.9705 25.7191 11.4216 26.5019 10.5611 27.1276C9.70068 27.6751 8.72278 28.0269 7.62773 28.1833C6.61076 28.3397 5.55369 28.3012 4.45851 28.0665C3.36411 27.7536 2.46471 27.2062 1.76092 26.4246C1.21334 25.7205 0.820957 24.6633 0.58624 23.2554C0.351561 21.7691 0.195051 20.2038 0.116807 18.561C0.0385858 16.9183 9.60589e-06 15.353 0 13.8667C0.0782089 12.3025 0.116791 11.0886 0.116807 10.2281C0.195015 9.4462 0.313106 8.54669 0.469432 7.53048C0.704097 6.43537 0.978616 5.41676 1.29149 4.47806C1.68245 3.53987 2.11167 2.71787 2.58078 2.01409C3.12825 1.23199 3.71604 0.723802 4.3417 0.48899C5.04582 0.0978111 5.63321 -0.0586775 6.10262 0.0195573Z" fill="#B368B0"/>
</svg>
