<svg width="83" height="90" viewBox="0 0 83 90" fill="none" xmlns="http://www.w3.org/2000/svg">
<path d="M40.7914 75.6634C37.1942 73.2105 23.4044 72.9256 16.9591 73.0898C-9.85271 61.1379 13.682 39.8202 21.8539 32.8527C30.0258 25.8853 41.7568 33.7591 49.0207 27.5658C56.2846 21.3725 61.9562 20.3002 71.7814 24.4675C81.6066 28.6347 78.2728 36.4949 75.9808 41.8988C73.6888 47.3027 70.532 46.5434 67.5116 63.2311C64.4912 79.9187 45.2879 78.7295 40.7914 75.6634Z" fill="#FDFFCA"/>
<g clip-path="url(#clip0_139_3541)">
<path fill-rule="evenodd" clip-rule="evenodd" d="M65.3836 12.308C64.698 11.625 63.8674 11.1053 62.9535 10.7872C62.0396 10.4691 61.0658 10.3608 60.1044 10.4705C58.6692 10.6463 57.3597 11.3761 56.4551 12.504C55.5505 13.632 55.1226 15.0689 55.2627 16.5079C55.3397 17.0792 55.5175 17.6322 55.7877 18.1413L50.7711 20.1246C50.3183 20.1944 49.8703 20.2918 49.4294 20.4163C47.7669 17.9955 45.1419 13.4746 43.2169 10.7621C42.9836 10.4705 42.7794 10.2371 42.6044 9.97462C42.9629 9.72723 43.2952 9.44381 43.5961 9.12879C44.2296 8.66885 44.7241 8.04315 45.0252 7.32045C45.3753 6.37917 45.4259 5.35268 45.1701 4.38154C44.9143 3.41039 44.3645 2.54206 43.5961 1.89545C42.9319 1.22223 42.1277 0.703392 41.2406 0.375755C40.3534 0.0481176 39.4051 -0.0802972 38.4627 -0.000380641C37.017 0.161391 35.6929 0.88517 34.7761 2.01473C33.8594 3.14429 33.4236 4.58903 33.5627 6.03712C33.6798 6.9068 34.0325 7.72791 34.5825 8.41163C35.1326 9.09536 35.8591 9.61567 36.6836 9.91629C34.2044 12.833 30.0627 18.6663 28.6044 20.6496L27.1752 20.4163C25.2678 19.6592 23.3205 19.0068 21.3419 18.4621C21.6686 17.5415 21.7126 16.5442 21.4684 15.5983C21.2241 14.6524 20.7027 13.8011 19.9711 13.1538C19.2855 12.4709 18.4549 11.9511 17.541 11.633C16.6271 11.3149 15.6533 11.2067 14.6919 11.3163C13.2319 11.4987 11.9033 12.2512 10.9962 13.4097C10.0891 14.5682 9.67712 16.0385 9.85024 17.4996C9.94847 18.1606 10.1793 18.7948 10.5288 19.3643C10.8783 19.9339 11.3394 20.4268 11.8842 20.8137C12.4291 21.2005 13.0465 21.4732 13.6994 21.6155C14.3523 21.7577 15.0272 21.7665 15.6836 21.6413V23.6538L16.2086 26.5704L17.4627 30.9454L18.6294 34.8829C19.0086 36.1371 20.4377 35.7288 20.3211 34.3288L19.3002 30.4788L18.2502 26.1038L18.1044 23.333C18.1044 23.0413 17.9294 22.0788 17.9002 21.408C18.4059 21.2062 18.8938 20.9623 19.3586 20.6788C19.8971 20.7126 20.4329 20.7808 20.9627 20.8829C22.8178 21.5052 24.6384 22.2257 26.4169 23.0413C27.3691 23.3192 28.3458 23.5047 29.3336 23.5955C29.5935 23.6127 29.8535 23.5627 30.0885 23.4504C30.3234 23.338 30.5255 23.167 30.6752 22.9538C31.1127 22.3121 37.0336 14.2038 39.7169 11.2871C41.8752 13.8246 45.7836 20.4454 47.6211 22.9538C47.7864 23.1719 48.004 23.345 48.2537 23.4571C48.5034 23.5693 48.7773 23.6168 49.0502 23.5955C49.915 23.451 50.7645 23.2264 51.5877 22.9246C52.3169 22.6621 53.0461 22.3996 53.7461 22.0788C54.4461 21.758 55.8169 21.1455 56.8377 20.6788C57.0419 20.6788 57.7711 20.5038 57.9752 20.2413C58.2888 20.6098 58.4732 21.0707 58.5002 21.5538C58.6363 22.5212 58.6363 23.503 58.5002 24.4705C58.1276 26.9728 57.5521 29.4406 56.7794 31.8496C56.2544 33.5996 55.4669 35.0871 54.7961 36.7788C54.1252 38.4704 55.4669 39.6954 56.0502 38.4121C56.8961 36.5455 58.1211 34.4454 58.7919 32.5788C59.6788 30.079 60.3711 27.5144 60.8627 24.908C61.1012 23.5279 61.1012 22.1172 60.8627 20.7371C62.3211 20.7371 62.0002 21.1746 62.7586 20.9121C63.7076 20.6417 64.5978 20.1966 65.3836 19.5996C66.0091 19.1314 66.5017 18.5081 66.8127 17.7913C67.1675 16.8413 67.2206 15.805 66.9648 14.8237C66.7091 13.8424 66.1569 12.9639 65.3836 12.308ZM19.1252 17.7913C18.8919 18.7246 12.6502 21.8455 12.4752 17.1205C12.527 16.3828 12.857 15.6924 13.3985 15.1888C13.9399 14.6852 14.6525 14.4061 15.3919 14.408C15.9147 14.3306 16.4483 14.3718 16.9531 14.5283C17.4579 14.6847 17.9211 14.9526 18.3086 15.3121C18.6732 15.5994 18.9451 15.9878 19.0904 16.4287C19.2356 16.8696 19.2477 17.3435 19.1252 17.7913ZM36.1877 5.83295C36.2465 5.10053 36.5796 4.41729 37.1203 3.91981C37.661 3.42232 38.3696 3.14726 39.1044 3.14962C39.5975 3.08896 40.0978 3.13575 40.5711 3.28679C41.0443 3.43783 41.4793 3.68954 41.8461 4.02462C42.2604 4.27674 42.5883 4.64887 42.7862 5.09164C42.9842 5.53442 43.0428 6.02691 42.9544 6.50379C42.812 6.98474 42.5146 7.40515 42.1086 7.69962C42.1086 7.69962 36.3044 9.47879 36.1877 5.83295ZM64.5086 16.9163C64.3552 17.3918 64.06 17.8091 63.6627 18.1121C63.192 18.4987 62.6319 18.7611 62.0337 18.8755C61.4354 18.9899 60.818 18.9525 60.2379 18.7669C59.6577 18.5813 59.1334 18.2532 58.7127 17.8128C58.2919 17.3723 57.9883 16.8335 57.8294 16.2455C57.8882 15.513 58.2212 14.8298 58.762 14.3323C59.3027 13.8348 60.0113 13.5598 60.7461 13.5621C61.2391 13.5015 61.7395 13.5483 62.2127 13.6993C62.686 13.8503 63.121 14.102 63.4877 14.4371C63.8856 14.7086 64.1946 15.0913 64.3762 15.5374C64.5578 15.9836 64.6038 16.4733 64.5086 16.9455V16.9163Z" fill="black"/>
<path fill-rule="evenodd" clip-rule="evenodd" d="M53.9207 39.3751C52.8062 38.4799 51.5424 37.7887 50.1874 37.3334C45.8838 36.0197 41.4157 35.3225 36.9165 35.2626C31.7549 34.9463 26.5784 35.5588 21.6332 37.0709L21.2832 37.2459C20.8122 37.4305 20.3624 37.6652 19.9415 37.9459C19.054 38.4367 18.3406 39.1908 17.8999 40.1042C17.3276 41.4927 16.8406 42.9148 16.4415 44.3626C15.8874 46.4334 15.5374 48.2417 15.2749 49.3792C15.1748 49.5578 15.0871 49.7429 15.0124 49.9334L14.429 50.1667C13.1373 50.4589 11.8619 50.8191 10.6082 51.2459C9.41236 51.7126 8.79986 52.4417 8.71236 53.0251C7.92486 57.1376 10.5499 61.7751 16.0332 65.2751C22.1348 68.758 29.1146 70.3991 36.129 70.0001C36.3228 69.9636 36.4978 69.8606 36.6237 69.7088C36.7496 69.557 36.8185 69.366 36.8185 69.1688C36.8185 68.9716 36.7496 68.7806 36.6237 68.6288C36.4978 68.4771 36.3228 68.374 36.129 68.3376C29.4453 68.5821 22.8357 66.8688 17.1124 63.4084C12.9415 60.6376 10.6082 57.1084 11.1332 53.9001C10.6665 53.1126 13.5832 53.1709 14.8957 52.8792C15.7219 52.7373 16.5078 52.419 17.1999 51.9459C17.6199 51.4919 17.9206 50.9407 18.0749 50.3417C18.8012 47.2445 19.7766 44.211 20.9915 41.2709C21.3415 40.3667 22.7707 39.9001 24.6082 39.4334C28.6937 38.525 32.8815 38.1622 37.0624 38.3542C38.579 38.3542 39.979 38.5001 41.4957 38.6459C40.4247 40.4344 39.0184 41.9991 37.354 43.2542C36.5577 43.84 35.7193 44.3665 34.8457 44.8292C33.9583 45.2776 33.0424 45.6673 32.104 45.9959C30.374 46.6314 28.5508 46.9763 26.7082 47.0167C26.8143 45.966 26.9896 44.9235 27.2332 43.8959C27.2787 43.6799 27.2409 43.4546 27.1273 43.2653C27.0137 43.0759 26.8327 42.9366 26.6207 42.8751C26.4158 42.8207 26.1978 42.8481 26.0127 42.9515C25.8277 43.0549 25.6901 43.2262 25.629 43.4292C24.6207 46.3424 24.1753 49.4206 24.3165 52.5001C24.473 54.672 25.1536 56.7736 26.2999 58.6251C27.6309 60.5063 29.5335 61.9076 31.7249 62.6209C34.7857 63.6357 38.0385 63.9351 41.2332 63.4959C42.3641 63.3761 43.4731 63.1013 44.529 62.6792C45.3499 62.3743 46.0958 61.8969 46.7165 61.2792C48.2518 59.534 49.2629 57.3906 49.6332 55.0959C50.2143 51.9261 50.1448 48.6713 49.429 45.5292C49.3668 45.2881 49.2136 45.0804 49.0014 44.9498C48.7893 44.8193 48.5349 44.7761 48.2915 44.8292C48.0526 44.8849 47.8452 45.0324 47.7142 45.2398C47.5832 45.4472 47.5391 45.6979 47.5915 45.9376C48.0294 48.3582 48.0294 50.8378 47.5915 53.2584C47.3176 55.5562 46.2922 57.6992 44.6749 59.3542C44.3097 59.6718 43.8826 59.9101 43.4207 60.0542C42.5658 60.3123 41.6858 60.4785 40.7957 60.5501C38.5152 60.7952 36.21 60.6671 33.9707 60.1709C31.8755 59.8424 29.9531 58.8144 28.5165 57.2542C27.2422 55.435 26.5137 53.2899 26.4165 51.0709V49.1751C28.505 49.5985 30.6572 49.5985 32.7457 49.1751C33.9191 48.9089 35.0485 48.4767 36.0999 47.8917C37.1624 47.3384 38.1438 46.6416 39.0165 45.8209C40.9662 43.9811 42.4465 41.7007 43.3332 39.1709C45.3129 39.4188 47.2656 39.8484 49.1665 40.4542C50.9749 41.0667 52.3457 41.6792 52.754 42.6709C54.1832 46.1126 54.9415 49.2917 55.4665 50.8084C55.6046 51.3498 55.8868 51.8437 56.2832 52.2376C56.7341 52.5434 57.2388 52.7611 57.7707 52.8792C58.704 53.1709 60.4249 54.2792 61.1832 54.1917C61.0462 56.2336 60.4408 58.2166 59.4141 59.9869C58.3873 61.7571 56.9667 63.2672 55.2624 64.4001C51.2248 66.8197 46.611 68.1091 41.904 68.1334C41.7802 68.1331 41.6577 68.1583 41.544 68.2074C41.4303 68.2564 41.3279 68.3283 41.2431 68.4185C41.1584 68.5087 41.093 68.6154 41.0512 68.732C41.0093 68.8485 40.9919 68.9724 40.9999 69.0959C41.0149 69.3461 41.1269 69.5805 41.3121 69.7493C41.4973 69.9182 41.7411 70.0081 41.9915 70.0001C47.1043 70.0954 52.1463 68.7946 56.5749 66.2376C58.8033 64.8309 60.6471 62.8923 61.9403 60.5961C63.2335 58.2999 63.9355 55.7183 63.9832 53.0834C63.9875 52.7494 63.8929 52.4216 63.7112 52.1413C63.5296 51.8611 63.269 51.6408 62.9624 51.5084C61.747 50.9744 60.4883 50.545 59.1999 50.2251C58.8499 50.2251 58.4999 49.9042 58.2957 49.8459L58.179 49.5834C57.8582 48.5917 57.479 47.0167 56.9249 45.1501C56.5457 43.9834 56.1665 42.7001 55.6415 41.3876C55.114 40.6787 54.5391 40.0063 53.9207 39.3751Z" fill="black"/>
</g>
<defs>
<clipPath id="clip0_139_3541">
<rect width="70" height="70" fill="white" transform="translate(2.7627)"/>
</clipPath>
</defs>
</svg>
