<svg width="88" height="85" viewBox="0 0 88 85" fill="none" xmlns="http://www.w3.org/2000/svg">
<path d="M45.9692 70.6829C42.372 68.23 28.5821 67.9451 22.1368 68.1093C-4.67497 56.1574 18.8598 34.8397 27.0317 27.8723C35.2036 20.9048 46.9345 28.7786 54.1985 22.5853C61.4624 16.392 67.1339 15.3197 76.9591 19.487C86.7844 23.6543 83.4505 31.5145 81.1586 36.9183C78.8666 42.3222 75.7098 41.5629 72.6893 58.2506C69.6689 74.9382 50.4657 73.749 45.9692 70.6829Z" fill="#E4F9E3"/>
<g clip-path="url(#clip0_134_898)">
<path fill-rule="evenodd" clip-rule="evenodd" d="M67.7261 8.10742C63.2908 8.64827 58.9032 9.5258 54.6011 10.7324C51.4511 11.6949 48.3594 12.9491 45.2094 13.9699C40.0469 15.6324 41.2136 14.4658 34.2719 26.9783C33.7674 24.3948 32.7777 21.9305 31.3552 19.7158C28.4386 16.7991 25.5219 21.2033 23.4511 24.5574C17.2969 34.6199 11.6677 43.6616 10.5011 58.7991C10.4817 59.0311 10.5554 59.2614 10.7058 59.4392C10.8562 59.6169 11.0711 59.7277 11.3032 59.747C11.5352 59.7663 11.7655 59.6927 11.9432 59.5423C12.121 59.3919 12.2317 59.177 12.2511 58.9449C13.5344 44.5366 19.2511 35.6116 25.5219 25.8991C26.4153 24.2001 27.6578 22.7092 29.1677 21.5241C29.3427 21.8158 29.5177 21.5241 30.2761 23.5074C31.0344 25.4908 31.6177 29.6324 32.7552 30.5074C33.8927 31.3824 35.3219 30.5074 36.2261 29.2533C37.1303 27.9991 41.9428 18.6658 43.7511 17.8491C44.5896 17.5052 45.4587 17.2415 46.3469 17.0616C52.8132 14.5688 59.5321 12.7888 66.3844 11.7533C66.4546 14.2137 66.1598 16.671 65.5094 19.0449C63.8907 26.1223 61.5955 33.0277 58.6553 39.6658C57.7803 41.6199 56.3802 46.0824 54.3969 47.5116C54.1927 47.2199 53.5802 46.9866 53.4053 46.8116C50.9791 44.6396 48.1567 42.9561 45.0928 41.8533C41.3594 41.3574 43.2553 49.6699 43.0803 51.6533C40.9219 50.1658 35.5844 47.4533 34.6219 49.7283C33.9802 51.2449 34.9136 53.1991 35.2052 54.3949C35.8761 56.9324 37.5094 61.8324 35.5553 63.6408C31.501 66.5145 26.5122 67.7539 21.5844 67.1116C14.5844 66.4408 16.7719 63.5241 15.2552 64.6324C14.6719 64.8657 14.0302 65.3908 14.6719 66.1491C15.5211 67.3896 16.7988 68.2725 18.2594 68.6283C23.7719 70.2324 32.5219 69.3283 36.9844 65.3908C40.2511 62.4741 38.2678 56.1449 36.9844 51.6533C39.3694 52.3576 41.5172 53.6987 43.1969 55.5324C43.5004 55.7838 43.882 55.9213 44.2761 55.9213C44.6701 55.9213 45.0518 55.7838 45.3553 55.5324C46.4636 54.2783 45.3553 48.8824 45.5886 45.3533H46.1427C47.8729 46.4246 49.5206 47.6238 51.0719 48.9408C51.6519 49.6321 52.3416 50.2234 53.1136 50.6908C54.8927 51.4199 56.9053 49.5533 57.9844 48.0949C61.6302 43.2824 74.7261 8.86576 67.7261 8.10742Z" fill="black"/>
<path fill-rule="evenodd" clip-rule="evenodd" d="M20.5925 55.445C40.8342 32.695 50.7217 25.9283 57.0217 21.2617C57.1289 21.1851 57.22 21.0881 57.2898 20.9763C57.3596 20.8645 57.4066 20.74 57.4283 20.61C57.45 20.48 57.4458 20.347 57.4161 20.2186C57.3863 20.0902 57.3316 19.9689 57.255 19.8617C57.1784 19.7544 57.0814 19.6633 56.9696 19.5936C56.8578 19.5238 56.7333 19.4767 56.6033 19.4551C56.4733 19.4334 56.3403 19.4375 56.2119 19.4673C56.0835 19.497 55.9623 19.5517 55.855 19.6283C51.7717 22.545 47.7758 25.0242 44.0133 28.0575C22.7217 45.5575 14.9925 57.2242 2.65502 73.3825L0.409183 76.7075C0.317673 76.9034 0.299401 77.1256 0.35768 77.3339C0.41596 77.5421 0.546932 77.7225 0.726845 77.8425C0.906757 77.9624 1.1237 78.0139 1.33832 77.9876C1.55294 77.9613 1.75104 77.859 1.89668 77.6992C7.78835 69.9992 17.2675 59.1783 20.5925 55.445Z" fill="black"/>
</g>
<defs>
<clipPath id="clip0_134_898">
<rect width="70" height="70" fill="white" transform="translate(0 8.10742)"/>
</clipPath>
</defs>
</svg>
