<svg width="85" height="85" viewBox="0 0 85 85" fill="none" xmlns="http://www.w3.org/2000/svg">
<path d="M43.4625 70.6829C47.0597 68.23 60.8495 67.9451 67.2948 68.1093C94.1066 56.1574 70.5719 34.8397 62.4 27.8723C54.2281 20.9048 42.4971 28.7786 35.2332 22.5853C27.9693 16.392 22.2977 15.3197 12.4725 19.487C2.64728 23.6543 5.98109 31.5145 8.27309 36.9183C10.5651 42.3222 13.7219 41.5629 16.7423 58.2506C19.7627 74.9382 38.966 73.749 43.4625 70.6829Z" fill="#FFE6FE"/>
<g clip-path="url(#clip0_139_3542)">
<path fill-rule="evenodd" clip-rule="evenodd" d="M68.3081 58.8882C68.3081 58.6549 67.9873 51.8882 67.8123 51.6549C66.8795 50.6708 65.8429 49.7907 64.7206 49.0299C64.6364 48.9552 64.5382 48.8978 64.4318 48.8611C64.3254 48.8243 64.2127 48.8089 64.1003 48.8156C63.9879 48.8224 63.878 48.8512 63.7767 48.9005C63.6755 48.9498 63.5849 49.0185 63.5102 49.1028C63.4355 49.187 63.3782 49.2852 63.3414 49.3916C63.3047 49.4981 63.2892 49.6107 63.296 49.7231C63.3028 49.8355 63.3316 49.9454 63.3809 50.0467C63.4302 50.148 63.4989 50.2385 63.5831 50.3132C63.9331 50.634 64.604 52.0049 65.304 52.6465C64.1373 53.1715 58.3623 54.8924 57.2248 55.184C55.3326 53.4417 53.2013 51.9784 50.8956 50.8382C53.9553 50.113 56.9501 49.1375 59.8498 47.9215C71.5165 41.8549 59.8498 29.109 51.7415 42.7882C48.5915 37.8007 40.8623 33.5424 36.5165 37.8007C32.1706 42.059 37.8873 46.5507 42.8456 49.2924C44.1304 49.9073 45.4557 50.4335 46.8123 50.8674C43.7498 52.034 41.4165 51.6549 39.0831 53.4632C33.2498 49.9049 33.2498 49.4382 32.7831 49.2924C33.5695 48.7663 34.4514 48.3997 35.379 48.2132C35.642 48.2132 35.8942 48.1087 36.0802 47.9227C36.2662 47.7368 36.3706 47.4845 36.3706 47.2215C36.3706 46.9585 36.2662 46.7063 36.0802 46.5203C35.8942 46.3343 35.642 46.2299 35.379 46.2299C33.3373 46.2299 29.6915 46.8715 29.5456 48.9715C29.0935 52.4815 28.9179 56.0216 29.0206 59.559C28.9197 62.2431 29.3152 64.9228 30.1873 67.4632C34.1722 70.8632 38.4468 73.9081 42.9623 76.5632C43.6619 77.1839 44.4903 77.6418 45.388 77.904C46.2857 78.1663 47.2303 78.2263 48.154 78.0799C50.7816 77.5311 53.3727 76.82 55.9123 75.9507C59.919 74.8374 63.6997 73.0309 67.0831 70.6132C67.7831 70.1465 69.7956 69.7674 69.5915 67.3757C68.992 64.5752 68.5635 61.7408 68.3081 58.8882ZM54.2498 45.034C58.3331 36.4882 63.7581 39.8715 61.629 43.1674C59.4606 45.78 56.4486 47.5542 53.1123 48.184C53.5525 47.1571 53.9323 46.1053 54.2498 45.034ZM38.4415 39.8132C41.3581 37.1882 47.1915 41.3882 48.9706 44.5965C49.9623 46.2882 50.2248 48.5924 48.329 49.234C46.8289 48.7147 45.367 48.0909 43.954 47.3674C41.3581 45.7924 36.1665 41.8549 38.4415 39.8132ZM49.029 52.1507C49.8748 53.0549 52.179 54.5715 53.6373 55.8549C46.0831 56.9632 47.804 58.509 41.9706 55.2132C43.7498 54.2215 48.154 52.8507 49.029 52.1507ZM32.4331 63.8174C31.953 59.4883 31.7193 55.1354 31.7331 50.7799C33.6449 52.5126 35.6507 54.1387 37.7415 55.6507C37.0345 60.0729 36.5962 64.5338 36.429 69.009C31.2665 64.5465 32.6665 65.6549 32.4331 63.759V63.8174ZM38.2665 70.4382C38.7331 69.7382 40.7748 58.0715 40.804 57.7215C41.8002 58.3989 42.8323 59.022 43.8956 59.5882C43.9547 63.6976 43.7794 67.8071 43.3706 71.8965C43.2977 72.7797 43.2977 73.6675 43.3706 74.5507C41.9123 73.4132 40.0165 71.9257 38.1498 70.3799L38.2665 70.4382ZM47.3956 75.1049C46.8123 75.2507 46.4623 75.1049 46.3456 74.8424C45.704 73.2382 46.3456 67.1424 45.879 60.259C48.0526 60.4002 50.2328 60.1128 52.2956 59.4132C53.6081 59.2382 54.8623 59.0632 56.1165 58.7715C57.9058 62.6183 59.0301 66.7406 59.4415 70.9632C55.4901 72.6133 51.4255 73.9779 47.279 75.0465L47.3956 75.1049ZM61.2498 70.2632C61.7464 65.9836 61.0393 61.6504 59.2081 57.7507L65.2456 55.2132C67.1706 54.5715 65.4498 55.2132 66.2081 58.9465L67.0831 66.9674C65.251 68.2539 63.2972 69.3577 61.2498 70.2632Z" fill="black"/>
<path fill-rule="evenodd" clip-rule="evenodd" d="M27.3293 23.7427C29.9251 23.7427 32.5793 23.4802 35.1751 23.5677C43.2251 23.7718 41.4751 24.326 41.7376 25.1427L42.8751 30.7427C42.9297 30.9489 43.0577 31.1281 43.2352 31.2465C43.4126 31.365 43.6272 31.4146 43.8386 31.3859C44.05 31.3572 44.2436 31.2523 44.3831 31.0909C44.5226 30.9295 44.5983 30.7227 44.596 30.5093C43.7793 23.0135 43.9543 22.4302 42.4085 21.7593C40.5791 21.1464 38.6935 20.7165 36.7793 20.476C36.7938 17.4519 35.7635 14.5156 33.8626 12.1635C33.1174 11.3614 32.2147 10.7216 31.211 10.2841C30.2073 9.84655 29.1242 9.62074 28.0293 9.62074C26.9344 9.62074 25.8513 9.84655 24.8476 10.2841C23.8439 10.7216 22.9412 11.3614 22.196 12.1635C20.322 14.8046 18.957 17.772 18.171 20.9135C18.171 21.3218 19.046 21.1177 12.046 21.6718C12.7632 18.8369 13.7395 16.0739 14.9626 13.4177C15.5144 12.3475 16.3981 11.4849 17.4812 10.9591C18.5644 10.4333 19.7888 10.2726 20.971 10.501C21.0993 10.5259 21.2312 10.5253 21.3593 10.4992C21.4874 10.4731 21.6091 10.422 21.7174 10.3489C21.8257 10.2757 21.9186 10.182 21.9907 10.073C22.0628 9.96396 22.1127 9.84181 22.1376 9.7135C22.1625 9.58518 22.1619 9.45322 22.1358 9.32515C22.1097 9.19708 22.0586 9.0754 21.9855 8.96707C21.9124 8.85873 21.8186 8.76586 21.7096 8.69376C21.6006 8.62165 21.4784 8.57173 21.3501 8.54683C19.8917 8.11006 18.3464 8.04986 16.8585 8.37183C15.1975 8.80925 13.7061 9.73541 12.5777 11.0303C11.4492 12.3252 10.7356 13.9291 10.5293 15.6343C10.1831 17.7089 9.96877 19.8034 9.88763 21.9052C7.75846 21.9052 7.49596 21.9052 7.26263 22.3718C7.0293 22.8385 6.65013 22.751 6.0668 26.0177C3.85013 35.1177 3.15013 36.4593 2.24596 40.3968C1.24395 44.5881 0.648145 48.8662 0.466797 53.1718C1.02096 58.451 6.79596 57.4302 11.3168 57.5177L22.1085 58.0427C22.3502 58.0414 22.5831 57.9518 22.7634 57.7909C22.9438 57.6299 23.0591 57.4086 23.0878 57.1686C23.1164 56.9286 23.0564 56.6863 22.9191 56.4874C22.7817 56.2885 22.5764 56.1467 22.3418 56.0885L14.5835 55.3302C14.6354 53.2188 14.577 51.1062 14.4085 49.001C14.2212 41.1891 13.5491 33.3963 12.396 25.6677C12.396 24.9385 12.396 24.5593 12.1626 24.0343C18.521 24.0343 20.4168 24.0927 27.3293 23.7427ZM23.771 15.1385C27.0085 11.2885 33.2793 12.2218 34.6501 20.3593C29.8352 20.1749 25.0135 20.4189 20.2418 21.0885C21.2003 18.9838 22.3836 16.9888 23.771 15.1385ZM12.6001 55.0968C9.94596 54.8343 8.0793 54.8343 6.12513 54.6302C3.4418 54.1927 3.55846 53.6385 3.67513 51.9468C3.7918 50.2552 5.33763 40.4843 7.0293 33.0177C8.57513 22.5468 8.13763 24.2677 9.27513 24.0052H10.2085C10.1766 24.6439 10.2455 25.2837 10.4126 25.901C10.4126 31.7343 10.4126 37.5677 10.646 41.1552C10.821 43.1677 12.2501 53.9302 12.6001 55.0968Z" fill="black"/>
</g>
<defs>
<clipPath id="clip0_139_3542">
<rect width="70" height="70" fill="white" transform="translate(0 8.16797)"/>
</clipPath>
</defs>
</svg>
