<svg preserveAspectRatio="none" width="100%" height="100%" overflow="visible" style="display: block;" viewBox="0 0 313.907 387.184" fill="none" xmlns="http://www.w3.org/2000/svg">
<g id="Generative Object">
<path id="Vector" d="M253.22 121.669L249.261 122.556C248.586 122.709 248.031 122.241 247.917 121.794C247.541 120.379 250.47 118.549 253.083 117.526C257.357 115.854 262.459 115.342 262.759 117.689C262.862 118.506 262.328 119.301 261.457 119.529L253.22 121.664V121.669Z" fill="var(--fill-0, #040404)"/>
<path id="Vector_2" d="M254.864 126.236C258.349 126.846 261.85 128.958 261.3 131.893C260.875 134.147 257.135 130.82 252.392 130.249L250.672 129.503C249.86 129.154 249.539 128.55 249.681 127.859C249.969 126.399 252.387 125.79 254.87 126.231L254.864 126.236Z" fill="var(--fill-0, #040404)"/>
<path id="Vector_3" d="M107.113 113.539C108.806 114.263 110.706 114.96 111.076 117.04C109.318 117.835 107.488 117.688 105.79 117.35C102.082 116.61 98.7497 115.172 99.8278 113.185C100.459 112.015 104.619 112.472 107.113 113.539Z" fill="var(--fill-0, #050505)"/>
<g id="Group">
<path id="Vector_4" d="M248.706 141.89C247.889 144.1 247.023 146.577 245.45 148.265L245.477 149.588L240.348 155.093L244.851 157.423C244.29 155.234 245.728 151.674 247.873 153.77C248.281 154.352 249.022 154.646 249.365 155.746L251.88 163.793L261.43 187.897C266.063 199.592 268.535 211.45 269.303 224.038L271.889 266.484C282.55 261.405 292.704 268.608 297.648 278.68C304.818 293.719 302.232 312.366 295.236 327.268C291.784 334.619 288.022 341.468 282.931 347.713L274.541 358.009C286.878 358.21 305.39 358.036 312.462 367.586C313.677 369.225 314.363 371.163 313.562 372.987C311.537 377.615 299.559 377.473 292.655 377.321L265.911 376.738L250.258 376.052C249.294 379.139 247.35 381.687 244.35 383.038C239.439 385.254 234.071 386.364 228.615 385.88C222.517 385.341 216.49 384.268 210.882 382.134C206.385 380.419 203.608 376.591 204.174 371.43C192.087 376.488 179.755 376.324 166.606 373.597C166.111 377.364 164.238 380.119 160.949 381.807C150.125 387.366 135.294 389.511 124.574 383.871C122.222 382.635 120.621 380.631 119.717 378.279C108.006 378.094 96.9368 378.862 85.454 379.602C77.9513 380.087 67.122 380.98 62.6737 376.591C45.6701 379.444 28.5413 380.13 11.3417 378.018C6.63757 377.441 0.686586 375.715 0.0658977 371.942C-1.18092 364.352 15.5776 359.903 23.8535 358.668L50.7391 354.66C58.4323 353.511 65.788 352.297 73.0784 349.787C76.9169 348.464 80.2272 346.531 82.6664 343.227C72.2671 331.461 68.6029 313.194 68.5975 297.764C68.592 286.766 72.9913 276.132 82.5902 270.65C86.2326 268.57 90.229 268.276 94.2852 269.904C92.7662 250.548 93.2453 231.764 96.278 212.839C97.846 203.071 100.106 194.109 102.768 184.646L110.565 156.966C110.968 155.539 111.321 154.265 112.106 153.171C109.274 150.187 107.32 146.703 106.737 142.848C106.231 139.488 107.233 136.32 109.1 136.919C110.968 137.518 109.498 143.616 113.782 148.695C117.349 152.92 122.145 155.926 127.634 157.467C142.454 161.637 157.203 164.817 172.633 166.287C186.789 167.632 200.641 166.81 214.22 163.238C228.136 159.579 243.806 150.116 245.956 135.427C246.087 134.545 247.497 133.978 248.101 134.087C250.29 134.49 249.942 138.579 248.722 141.895L248.706 141.89Z" fill="var(--fill-0, #010101)"/>
<g id="Group_2">
<path id="Vector_5" d="M247.868 153.776C247.084 153.776 246.038 154.129 245.821 155.012C245.494 156.351 245.875 157.521 245.908 159.188L238.786 155.414L245.445 148.266C246.283 150.16 246.735 152.175 247.862 153.77L247.868 153.776Z" fill="var(--fill-0, #F2D4A2)"/>
<g id="Group_3">
<path id="Vector_6" d="M205.819 286.7C208.547 285.366 210.202 283.728 209.075 282.002C208.52 281.152 207.327 280.798 206.424 281.343C192.235 289.804 175.395 290.849 162.24 280.641C161.75 280.259 161.162 280.744 160.912 280.994C159.469 282.459 162.257 285.023 165.328 287.022C162.861 304.733 161.788 324.312 163.035 342.263C163.749 352.499 163.672 362.468 162.431 372.546C162.104 375.192 160.896 376.918 158.62 378.116C154.569 380.25 150.181 381.508 145.678 382.308C145.03 378.127 147.736 374.729 146.064 374.517C143.963 374.25 142.112 378.617 142.313 382.667C139.58 383.065 136.77 382.874 133.749 382.335C133.531 379.275 134.985 376.352 136.226 373.651C133.438 371.582 130.721 376.651 130.275 381.513C128.516 381.04 127.003 380.511 125.696 379.471C123.491 377.718 123.121 374.56 124.547 372.094C128.13 365.893 134.908 366.698 135.132 363.862C135.464 359.669 134.887 355.629 134.358 351.448L132.186 334.281C131.375 327.856 130.226 321.922 128.614 315.611C124.776 300.573 122.511 285.535 120.665 270.165C120.594 269.572 120.115 268.918 119.772 268.837C117.453 268.281 118.242 277.39 118.667 282.731C119.614 294.606 121.493 305.925 124.542 317.397C126.208 323.653 127.27 329.669 128.059 336.061L130.716 357.497C122.342 352.874 117.633 347.261 112.373 339.764C111.251 338.168 110.761 336.29 108.747 335.12C108.284 336.856 108.818 338.626 109.585 340.265C114.034 349.766 121.466 356.991 130.966 362.081L126.431 364.335C122.669 366.208 120.17 369.704 119.386 374.217L98.3313 374.392L78.9539 375.562C74.6526 375.824 70.433 375.704 66.208 374.114C68.1191 368.865 77.3314 366.279 82.9829 365.648L103.705 363.323C104.68 363.214 105.186 362.343 105.333 361.782C105.562 360.916 105.317 359.833 104.451 359.13C95.9793 352.21 88.335 344.49 82.2425 335.299C78.2352 329.256 76.2152 322.493 74.7942 315.459C71.865 300.96 70.7761 283.777 83.5982 274.978C86.8922 272.719 90.7088 272.092 94.4711 273.797C94.923 280.472 98.952 303.709 100.901 303.699C101.304 303.699 101.849 303.176 101.794 302.566L100.629 289.129C98.1462 271.553 97.1771 254.201 98.1244 236.463C99.0282 219.53 102.186 203.501 106.613 187.178L115.057 156.029C118.999 158.741 123.039 160.701 127.721 162.007C155.876 169.87 187.34 175.064 216.093 167.316C214.672 175.755 217.591 182.398 225.796 184.804C235.776 187.733 246.387 182.915 250.895 173.218L259.302 195.089C262.084 202.32 263.08 209.702 264.344 217.374L267.474 265.597L266.979 299.13C266.968 299.746 267.501 300.601 267.953 300.611C270.414 300.655 271.721 278.572 271.721 271.526C275.919 268.281 281.538 268.385 285.937 271.483C290.794 274.907 293.957 279.938 295.732 285.66C299.859 298.94 296.696 314.332 290.554 326.844C286.057 336.007 280.427 344.305 274.046 352.237L267.866 358.069C267.033 358.853 266.63 359.947 266.93 360.84C267.267 361.869 268.34 362.294 269.565 362.326L288.757 362.8C294.812 362.947 307.405 365.577 309.616 371.511C305.091 373.058 300.561 373.226 295.852 373.139L264.055 372.557L250.367 373.134C249.393 368.032 246.028 364.292 241.062 361.733C244.215 359.697 246.295 357.497 248.766 355.069C255.861 346.673 260.995 336.747 263.396 325.994C263.674 324.747 263.418 323.332 261.997 323.032C257.325 335.463 250.4 350.185 239.658 357.682C240.044 348.943 241.612 341.021 242.919 332.697L246.05 312.682C247.46 297.247 247.857 282.067 247.46 266.632C247.443 265.946 247.002 265.303 246.67 265.156C243.899 263.926 243.774 283.238 243.24 290.103L241.1 317.528L236.625 343.896C235.721 349.232 235.324 354.393 235.356 359.805C235.4 366.551 241.999 364.602 245.374 371.495C246.583 373.962 246.011 376.738 243.785 378.323C242.511 379.226 241.177 379.853 239.298 380.354C239.418 375.241 236.091 370.624 234.518 372.029C233.375 373.052 236.63 375.992 235.786 381.099C232.781 381.758 229.808 381.715 226.754 381.432C227.494 376.825 225.066 371.604 223.198 371.92C220.966 372.301 224.108 376.542 223.16 381.007C215.919 379.275 208.307 378.873 208.46 372.257L208.776 358.864L208.58 327.475C208.493 313.766 207.545 300.562 205.797 286.722L205.819 286.7Z" fill="var(--fill-0, #F5D5A3)"/>
<path id="Vector_7" d="M176.14 370.857L167.102 369.763C167.815 360.888 168.033 352.231 167.39 343.204C166.644 332.766 166.628 322.721 167.074 312.24L168.076 288.599C179.189 294.115 191.826 293.14 203.265 287.854L203.602 307.182L204.67 348.665L204.512 367.487C203.107 367.53 202.029 367.699 200.826 368.135C192.975 370.998 184.764 371.897 176.14 370.851V370.857Z" fill="var(--fill-0, #F6D6A4)"/>
<path id="Vector_8" d="M9.33833 373.298C7.45993 373.091 5.80477 372.47 4.28027 371.256C5.59243 368.92 7.91729 367.799 10.3456 366.83C16.9118 364.216 23.6904 362.888 30.7521 361.875L54.9426 358.401C61.6503 357.362 68.0097 356.115 74.3309 353.806C78.545 352.244 82.2256 349.995 85.0949 346.391L98.0314 359.48C90.3871 360.127 82.9606 360.786 75.5777 362.85C69.5668 364.527 62.6739 367.908 61.7592 374.055C48.8065 375.035 36.1368 375.46 23.1786 374.844L9.33833 373.309V373.298Z" fill="var(--fill-0, #F5D6A4)"/>
<path id="Vector_9" d="M220.301 165.786L227.308 162.9C230.112 165.955 232.007 169.472 233.499 173.316C233.842 174.204 234.936 174.645 235.519 174.503C238.715 173.713 235.312 165.1 230.809 161.087L234.67 158.594C238.394 159.508 242.058 161.164 244.666 163.973C247.998 167.561 247.513 172.38 244.323 175.733C239.542 180.764 232.584 182.948 226.04 180.454C222.533 179.115 220.274 176.311 219.985 172.576L220.301 165.792V165.786Z" fill="var(--fill-0, #F09897)"/>
</g>
</g>
</g>
<g id="Group_4">
<path id="Vector_10" d="M121.045 49.102L114.463 49.2054L119.766 54.9876C124.035 61.7172 127.105 69.2417 128.526 77.1309L128.14 84.7534L127.16 84.3124C127.312 82.5538 124.372 71.6427 122.771 76.7498C126.915 86.8387 124.699 97.5211 121.688 107.583L120.43 108.65C117.011 111.71 112.203 113.31 107.554 112.461C104.249 111.857 100.77 110.632 98.3413 108.296C99.2506 107.615 99.5773 107.006 99.3268 106.472C96.757 102.111 94.7424 97.5102 93.2778 92.6699C92.178 97.2652 93.8277 102.497 96.7352 106.162L96.5228 107.305C92.0256 107.599 87.9258 104.757 85.4974 101.349C85.3123 101.311 85.1436 101.256 85.0401 101.142C84.0165 99.9711 84.5828 90.149 84.7679 88.3578C85.688 79.4394 88.5519 72.7643 92.6136 65.2399L89.8913 68.0003C88.9711 69.5792 87.8495 70.5592 86.5374 70.9458C86.7824 67.4504 88.2361 64.0094 90.2724 61.1673L90.3704 59.5121C97.3667 50.7844 108.893 47.278 119.777 48.062L121.045 49.102Z" fill="var(--fill-0, #EBC091)"/>
<path id="Vector_11" d="M85.4973 101.353C84.6479 101.277 83.8639 101.027 83.4882 99.9106C80.2214 90.1756 81.3594 79.6565 86.5426 70.9506C87.9365 68.6039 89.9455 66.5241 91.9709 64.4932C92.5372 63.927 94.0889 64.3462 93.8711 64.7927L89.3847 73.9016C86.0363 80.7019 85.4211 88.0957 85.4428 95.7563L85.5027 101.353H85.4973Z" fill="var(--fill-0, #020202)"/>
<path id="Vector_12" d="M98.3413 108.301L96.5228 107.31C91.0183 101.545 91.2252 90.9329 93.4466 91.5972C93.697 91.6734 94.0999 92.1307 94.2034 92.5445C96.746 103.042 103.857 108.073 98.3413 108.301Z" fill="var(--fill-0, #040404)"/>
<path id="Vector_13" d="M128.139 84.7586C128.972 92.6533 127.649 100.88 123.315 107.724C122.918 108.35 122.461 108.699 121.905 108.916C121.497 109.08 120.882 109.085 120.43 108.655C123.457 97.8802 126.239 88.2813 121.954 77.2233C121.579 76.2487 122.128 75.0454 122.749 74.6806C125.695 72.9383 127.622 79.8421 128.139 84.7586Z" fill="var(--fill-0, #020202)"/>
<path id="Vector_14" d="M111.86 101.218C111.06 102.171 110.091 101.115 109.786 100.581C109.421 99.9385 108.958 98.316 109.884 98.0547C111.147 97.7933 112.808 100.096 111.86 101.223V101.218Z" fill="var(--fill-0, #1C1511)"/>
</g>
<g id="Group_5">
<path id="Vector_15" d="M262.35 51.7371L261.593 51.8569L254.581 47.6264C254.21 47.3923 261.806 51.6228 261.708 52.4558C264.882 54.65 267.67 57.3669 270.272 60.4485C277.884 69.4703 278.238 81.296 274.372 92.1853C273.817 93.7479 272.385 94.4121 271.372 94.9512C270.343 94.6844 269.788 93.6336 270.054 92.5229L271.579 86.218C274.873 72.6173 269.662 63.4649 258.615 55.4776C253.601 51.8515 247.731 49.7444 241.802 50.2181C240.098 50.3542 238.094 51.2634 236.379 51.2471C234.664 51.2308 234.033 51.0348 232.448 51.7099C224.287 55.1945 215.799 57.0184 206.755 57.8732C185.962 59.8333 165.272 58.728 144.812 54.944C138.207 53.719 132.371 51.9277 126.267 49.4939C124.721 48.8733 122.499 49.0801 121.04 49.1019C109.509 47.9041 97.1492 51.5847 90.2727 61.1672C89.4396 61.0856 88.6393 60.9876 88.22 60.3886C86.7718 58.3197 90.24 54.2144 93.6048 51.7371C101.984 45.5684 112.514 43.6301 122.657 45.846L123.926 42.4486C127.291 27.8352 135.474 9.65013 149.777 4.14016C155.695 1.85886 161.761 0.835274 168.207 0.37248C188.445 -1.0649 208.775 1.64653 227.755 8.70277C234.485 11.2073 240.082 15.4269 243.844 21.269C246.871 25.9677 248.151 31.053 249.675 36.5248C253.688 28.9895 268.296 21.1873 272.641 26.0167C273.915 27.4323 274.279 29.523 273.729 31.6464C272.499 36.3778 268.35 39.4704 263.472 41.0711C268.851 42.4377 277.198 46.7662 275.826 50.9531C274.72 54.3233 267.572 54.1437 262.361 51.7317L262.35 51.7371Z" fill="var(--fill-0, #010101)"/>
<g id="Group_6">
<path id="Vector_16" d="M262.351 51.7348L261.708 52.4535C259.008 50.586 256.187 48.9254 252.839 47.929C253.334 47.0742 253.917 46.9435 254.576 46.4971C256.928 48.5279 259.53 50.4281 262.356 51.7348H262.351Z" fill="var(--fill-0, #DDDDDC)"/>
<path id="Vector_17" d="M262.976 34.3777C262.976 34.8841 262.404 35.1454 262.165 36.0601C263.145 35.7008 264.397 34.7752 264.588 33.2888C258.882 32.8587 254.428 38.4176 253.094 37.7044C252.457 37.3668 252.354 36.8278 252.92 36.1363C256.797 31.4322 262.17 28.1763 268.203 26.9785C269.009 26.8206 269.825 27.0601 270.305 27.3923C272.02 28.5846 271.453 33.1962 267.267 36.2235C263.461 38.9784 256.176 40.7806 255.321 40.1273C253.372 38.6354 258.588 35.8641 262.971 34.3777H262.976Z" fill="var(--fill-0, #5EA7C2)"/>
<path id="Vector_18" d="M272.674 48.7898C275.331 51.2072 267.256 52.7371 259.89 47.2979C258.382 46.1818 256.705 45.5012 255.801 43.3016C262.106 42.6265 268.117 44.6518 272.674 48.7898Z" fill="var(--fill-0, #5DA4C0)"/>
<path id="Vector_19" d="M253.192 43.0073C252.642 45.098 249.441 47.1942 247.383 45.9147C246.223 44.9292 246.13 41.8911 246.707 40.6116C247.633 38.5754 250.236 38.9293 251.515 40.2033C250.807 40.5518 250.263 41.7224 250.829 42.098C251.194 42.2069 251.913 41.167 252.321 41.1942C252.795 41.2269 253.47 41.951 253.192 43.0073Z" fill="var(--fill-0, #5DA3BF)"/>
<path id="Vector_20" d="M243.795 46.569C243.364 46.9937 242.793 46.6725 242.951 46.3567L243.675 45.6761C243.822 45.5345 244.366 45.6217 244.519 45.7741C244.737 45.9864 244.84 46.961 243.795 46.5745V46.569Z" fill="var(--fill-0, #888788)"/>
<g id="Group_7">
<path id="Vector_21" d="M227.983 31.7201C233.973 32.1883 239.286 35.76 244.105 39.4242C243.991 40.5513 244.176 42.1084 243.392 42.7346C234.381 49.9215 216.931 54.0757 204.898 55.1048C183.757 56.9124 162.67 55.6329 141.958 51.3153C136.187 50.112 131.004 48.5113 125.782 46.0558L126.986 42.7128C129.904 28.8235 138.256 11.0686 152.036 6.40798C172.601 -0.544817 208.111 3.51143 228.446 12.2446C239.281 16.8943 244.154 25.3117 246.599 36.6638L244.377 38.9451C230.57 25.0014 218.15 30.6693 232.747 35.8144L227.973 31.7201H227.983Z" fill="var(--fill-0, #5CA6C2)"/>
<path id="Vector_22" d="M214.764 45.7725C220.704 44.8306 226.366 43.7689 232.219 42.2444C235.873 41.6781 239.39 40.5293 243.201 41.8632C233.613 44.4004 224.33 46.1917 214.764 45.7725Z" fill="var(--fill-0, #0B1011)"/>
</g>
</g>
</g>
<g id="Group_8">
<path id="Vector_23" d="M271.372 94.9499C269.02 98.8374 266.602 103.253 263.161 106.324L263.036 104.625C266.727 97.5089 267.92 89.2494 266.129 81.4255C265.775 90.4254 264.272 102.12 256.203 107.358C255.31 108.54 255.914 109.482 257.379 109.291L258.103 110.097L252.985 113.309C248.052 115.28 242.336 114.447 237.713 111.899C237.833 111.159 238.339 110.903 239.221 111.148L239.401 110.091C233.929 100.062 234.991 88.6777 236.657 77.9409C233.134 84.1532 232.802 91.7866 233.199 98.7938L232.377 99.8501C231.67 99.714 231.653 98.9898 231.506 98.2603C229.018 85.5797 233.15 69.3384 239.738 58.0408C241.405 55.1823 243.653 53.1079 246.022 50.7994L241.802 50.2168C243.953 48.2459 248.722 49.6887 251.423 50.6252C258.985 53.2549 267.561 60.578 271.056 67.803C275.15 76.2585 273.168 84.4418 270.914 92.9245C271.127 93.5833 271.279 94.2585 271.372 94.9445V94.9499Z" fill="var(--fill-0, #EBC091)"/>
<path id="Vector_24" d="M263.161 106.329L261.174 108.104C260.123 109.04 259.078 109.481 258.098 110.097C257.151 110.32 255.991 110.38 255.196 109.46C254.651 108.828 254.777 107.135 255.855 106.492C258.071 105.169 259.584 103.492 260.755 101.167C264.229 94.2746 265.454 86.8971 265.154 79.0078C266.646 79.3073 266.88 80.5378 267.12 81.6485C268.96 90.1802 267.354 98.9787 263.161 106.329Z" fill="var(--fill-0, #030303)"/>
<path id="Vector_25" d="M237.708 111.899C234.594 110.184 232.835 103.945 232.378 99.8557C231.61 93.001 232.421 82.5364 236.2 76.727C236.429 76.3785 236.837 76.0192 237.077 76.0464C239.597 76.3132 231.839 93.9592 240.18 109.564C240.518 110.195 240.18 111.594 239.739 111.872C239.244 112.182 238.313 112.019 237.708 111.899Z" fill="var(--fill-0, #020202)"/>
<path id="Vector_26" d="M247.775 109.237C247.938 110.098 247.551 110.947 246.963 111.23C246.31 111.546 245.118 111.399 244.519 110.577C241.894 107 243.228 100.161 245.352 100.624C245.923 100.749 246.315 101.539 246.462 102.301L247.78 109.243L247.775 109.237Z" fill="var(--fill-0, #070606)"/>
</g>
<g id="Group_9">
<path id="Vector_27" d="M121.046 49.103C121.068 47.6874 124.427 47.9978 125.445 48.3081C144.11 55.4896 165.186 57.8145 185.358 57.907C201.861 57.9832 218.423 56.8235 233.554 50.3989C236.173 50.437 238.574 50.1157 241.078 49.3862L241.803 50.2246C243.414 50.1974 245.009 50.3934 246.578 50.8072L246.354 51.7165C234.403 63.3952 229.77 83.7636 232.378 99.8633C233.363 100.381 233.886 101.546 233.946 103.364L236.222 109.103C237.273 110.056 237.768 110.992 237.708 111.907C239.461 112.027 241.225 112.386 243 112.985L249.049 113.371C250.585 112.816 251.897 112.794 252.98 113.317C252.077 114.498 252.588 116.039 253.084 117.537L252.98 118.577C249.861 119.965 245.646 122.992 252.431 120.907L253.22 121.675L253.029 125.665C253.873 125.709 254.44 125.861 254.859 126.237L254.222 127.076C252.104 126.684 248.418 127.985 252.245 129.183L252.387 130.25C252.24 134.437 251.031 138.498 248.706 141.89L248.009 141.085C248.641 139.609 249.741 133.402 246.844 135.542C245.216 146.507 236.625 154.266 227.216 159.21C198.589 174.248 156.474 166.718 126.692 158.159C116.56 155.246 109.803 147.961 108.861 137.818C108.033 137.889 107.592 138.727 107.549 140.322C107.767 141.613 107.489 142.457 106.721 142.854C105.779 142.391 105.823 141.243 105.496 140.29C104.168 136.457 103.558 132.765 103.781 128.905L103.64 127.909L110.739 123.542L108.649 123.351C107.184 123.831 106.095 123.743 105.382 123.096L105.79 117.368L106.509 116.562C107.799 116.878 108.899 116.796 109.819 116.317C108.485 115.484 107.582 114.564 107.108 113.557C107.402 113.175 107.582 112.794 107.549 112.479L108.556 111.695C112.362 112.119 116.184 110.889 119.173 108.52L120.425 108.667C122.489 107.818 123.295 106.321 124.242 104.137C126.752 98.3769 127.868 92.5675 127.34 86.2735L128.135 84.7708C127.917 71.9923 123.104 58.8761 113.897 49.8489L113.984 49.1248L121.041 49.1139L121.046 49.103Z" fill="var(--fill-0, #F5D6A5)"/>
<path id="Vector_28" d="M103.781 128.893C103.035 129.351 101.63 129.596 100.83 129.269C99.485 128.719 99.7028 127.075 100.568 126.111C101.837 124.696 103.547 123.726 105.387 123.084C108.779 121.897 112.291 122.349 111.942 123.677C111.85 124.031 111.594 124.086 111.213 124.32L103.781 128.888V128.893Z" fill="var(--fill-0, #080607)"/>
<path id="Vector_29" d="M202.797 140.768C191.478 155.529 160.977 156.149 150.066 141.46C145.71 135.59 146.32 128.039 150.964 122.485C162.392 108.83 191.38 107.496 202.661 121.059C207.556 126.944 207.457 134.692 202.797 140.768Z" fill="var(--fill-0, #010101)"/>
<g id="Group_10">
<path id="Vector_30" d="M172.492 102.988C170.135 104.861 166.993 104.246 165.087 101.845C161.886 97.8103 161.385 91.7613 164.222 87.4328C165.43 85.5871 167.358 84.5581 169.187 84.5308C171.283 84.5036 173.314 85.4564 174.577 87.4274C176.842 90.9446 177.278 95.6814 175.568 99.5798C174.942 101.001 173.646 102.073 172.492 102.988Z" fill="var(--fill-0, #FFFFFD)"/>
<path id="Vector_31" d="M170.004 101.991C172.885 101.991 175.22 99.6552 175.22 96.7745C175.22 93.8938 172.885 91.5586 170.004 91.5586C167.123 91.5586 164.788 93.8938 164.788 96.7745C164.788 99.6552 167.123 101.991 170.004 101.991Z" fill="var(--fill-0, #010101)"/>
</g>
<g id="Group_11">
<path id="Vector_32" d="M192.457 101.92C189.969 104.463 186.13 104.425 183.441 102.443C179.869 99.8185 179.439 94.7931 181.9 91.1126C183.686 88.4447 187.323 87.1979 190.312 88.7605C195.136 91.2759 196.405 97.8802 192.457 101.92Z" fill="var(--fill-0, #FEFEFD)"/>
<path id="Vector_33" d="M182.995 101.272C180.632 99.2898 180.915 95.9849 182.723 94.0302C184.53 92.0756 187.786 91.7108 190.035 93.6001C192.284 95.4894 192.311 98.6636 190.677 100.651C188.766 102.976 185.565 103.428 182.995 101.266V101.272Z" fill="var(--fill-0, #010101)"/>
</g>
</g>
</g>
</svg>
