<svg width="30" height="30" viewBox="0 0 30 30" fill="none" xmlns="http://www.w3.org/2000/svg">
<g clip-path="url(#clip0_98_2513)">
<path d="M5.92922 20.3735C7.54712 21.3032 10.2318 26.5695 11.372 29.0865C20.9888 37.1977 24.8179 24.1386 25.9798 19.6852C27.1417 15.2319 21.9139 12.1768 22.9467 8.21826C23.9795 4.25974 23.3341 1.87168 19.892 -1.14037C16.4499 -4.15242 14.0402 -1.39873 12.3836 0.494441C10.727 2.38761 11.6093 3.46359 5.7359 7.74466C-0.137521 12.0257 3.90685 19.2115 5.92922 20.3735Z" fill="#E3FFF6"/>
<path fill-rule="evenodd" clip-rule="evenodd" d="M18.3008 18.4009C17.7536 19.1036 17.3693 19.919 17.1758 20.7884C17.1748 20.8798 17.2073 20.9684 17.267 21.0376C17.3268 21.1068 17.4098 21.1518 17.5004 21.164C17.591 21.1763 17.683 21.1551 17.759 21.1043C17.835 21.0536 17.8899 20.9768 17.9133 20.8884C18.1709 20.2248 18.5673 19.6239 19.0758 19.1259C19.9372 18.3853 21.017 17.9463 22.1508 17.8759C23.0948 17.7266 24.0619 17.8752 24.9176 18.3008C25.7733 18.7264 26.4752 19.408 26.9258 20.2509C26.9821 20.3346 27.0663 20.3956 27.1634 20.423C27.2605 20.4503 27.3642 20.4423 27.4559 20.4002C27.5476 20.3581 27.6213 20.2847 27.6639 20.1933C27.7065 20.1018 27.7151 19.9981 27.6883 19.9009C27.3272 19.0166 26.7445 18.2403 25.9962 17.6465C25.248 17.0528 24.3595 16.6618 23.4164 16.5111C22.4732 16.3604 21.5071 16.4551 20.6111 16.7861C19.7151 17.1171 18.9195 17.6732 18.3008 18.4009Z" fill="black"/>
<path fill-rule="evenodd" clip-rule="evenodd" d="M28.2508 25.5756C28.1565 25.5566 28.0585 25.5746 27.9771 25.6257C27.8957 25.6769 27.837 25.7574 27.8133 25.8506C27.721 26.1078 27.581 26.3453 27.4008 26.5506C26.935 27.1793 26.3192 27.6814 25.6096 28.0111C24.9 28.3407 24.1192 28.4876 23.3383 28.4381C22.3718 28.4831 21.4147 28.232 20.5948 27.7182C19.775 27.2044 19.1316 26.4525 18.7508 25.5631L20.9633 26.5381C21.0445 26.5912 21.1435 26.6098 21.2384 26.5898C21.3334 26.5699 21.4165 26.5131 21.4695 26.4319C21.5226 26.3507 21.5412 26.2517 21.5213 26.1567C21.5013 26.0618 21.4445 25.9787 21.3633 25.9256C20.5691 25.2654 19.7341 24.6559 18.8633 24.1006C18.5508 23.9256 18.1758 23.6006 17.6883 23.7381C16.8508 23.9381 17.1258 24.9881 16.2383 27.1881V27.2631C16.2383 27.4756 16.3883 27.5881 16.5758 27.6381C16.6338 27.6748 16.7009 27.6942 16.7695 27.6942C16.8381 27.6942 16.9053 27.6748 16.9633 27.6381C17.3595 27.0753 17.6948 26.4719 17.9633 25.8381C18.2478 26.7515 18.7606 27.5772 19.4531 28.2371C20.1456 28.8971 20.9951 29.3696 21.921 29.6098C22.847 29.8501 23.819 29.8502 24.745 29.6102C25.6711 29.3701 26.5206 28.8979 27.2133 28.2381C27.7383 27.7381 29.0883 25.7631 28.2508 25.5756Z" fill="black"/>
<path fill-rule="evenodd" clip-rule="evenodd" d="M29.6116 19.788C29.2491 19.5255 29.0366 19.788 27.8491 22.0255L25.1866 20.663C25.148 20.6343 25.1041 20.6134 25.0575 20.6017C25.0109 20.5899 24.9624 20.5874 24.9148 20.5944C24.8672 20.6013 24.8214 20.6176 24.7801 20.6422C24.7388 20.6669 24.7028 20.6994 24.6741 20.738C24.6453 20.7766 24.6245 20.8204 24.6127 20.8671C24.6009 20.9137 24.5985 20.9622 24.6054 21.0098C24.6124 21.0574 24.6287 21.1031 24.6533 21.1444C24.678 21.1857 24.7105 21.2218 24.7491 21.2505C25.6739 22.1394 26.6876 22.9311 27.7741 23.613C27.941 23.6801 28.1248 23.6932 28.2997 23.6506C28.4745 23.6081 28.6316 23.5119 28.7491 23.3755C28.8616 23.238 28.8991 23.1755 29.5241 21.163C29.7866 20.438 30.2366 20.0005 29.6116 19.788Z" fill="black"/>
<path fill-rule="evenodd" clip-rule="evenodd" d="M14.2999 26.1378C12.9257 26.1381 11.5554 25.9914 10.2124 25.7003C9.57291 25.5582 8.95794 25.3223 8.3874 25.0003L8.0999 24.8128C-3.1501 19.6253 1.7624 2.43782 11.8499 1.06282C12.8792 0.796376 13.9542 0.757981 14.9999 0.950319C15.0596 0.900394 15.1022 0.833145 15.122 0.757889C15.1417 0.682633 15.1376 0.603098 15.1101 0.530305C15.0827 0.457512 15.0332 0.395065 14.9687 0.351617C14.9041 0.30817 14.8277 0.285874 14.7499 0.287819C7.9874 -0.687181 3.2249 3.58782 0.812404 10.0003C-0.302672 12.9807 -0.230491 16.2756 1.01404 19.2043C2.25857 22.133 4.58038 24.4719 7.4999 25.7378C9.64985 26.8091 12.0614 27.2428 14.4499 26.9878C14.5626 26.9679 14.6628 26.9041 14.7285 26.8103C14.7941 26.7165 14.8198 26.6005 14.7999 26.4878C14.78 26.3751 14.7162 26.2749 14.6224 26.2093C14.5286 26.1436 14.4126 26.1179 14.2999 26.1378Z" fill="black"/>
<path fill-rule="evenodd" clip-rule="evenodd" d="M15.1129 20.5132C13.02 20.5608 10.9274 20.4101 8.86289 20.0632C8.48169 18.2605 8.33465 16.4161 8.42539 14.5757C13.643 15.0124 18.8918 14.9076 24.0879 14.2632C25.3379 14.0507 25.1504 13.2507 24.0129 13.3257C22.5879 13.4507 20.7504 13.5007 18.7129 13.5007C18.7778 11.4747 18.529 9.45077 17.9754 7.50075H22.3254C22.4381 7.50075 22.5462 7.45597 22.6259 7.37627C22.7056 7.29656 22.7504 7.18846 22.7504 7.07575C22.7504 6.96303 22.7056 6.85493 22.6259 6.77523C22.5462 6.69552 22.4381 6.65075 22.3254 6.65075C21.0754 6.65075 19.4004 6.45075 17.5629 6.28825C17.2504 5.40075 16.9129 4.53825 16.5754 3.66325C16.5382 3.58027 16.4721 3.51364 16.3894 3.47575C16.3068 3.43787 16.2132 3.43131 16.126 3.4573C16.0389 3.48329 15.9642 3.54005 15.9158 3.61703C15.8673 3.69401 15.8486 3.78595 15.8629 3.87575C16.0129 4.63825 16.1504 5.41325 16.3004 6.17575C14.0504 6.00075 11.9879 5.88825 9.85039 5.92575C10.3486 4.46645 11.2344 3.17017 12.4129 2.17575C12.4129 1.77575 12.1379 1.62575 10.5254 2.76325C9.7005 3.71772 9.04901 4.80918 8.60039 5.98825C7.61289 5.98825 6.68789 6.12575 5.83789 6.23825C4.26289 6.72575 4.25039 7.03825 5.06289 7.28825C6.09486 7.21322 7.13092 7.21322 8.16289 7.28825C7.60449 9.24512 7.2608 11.257 7.13789 13.2882C5.65039 13.2882 4.30039 13.1757 3.15039 13.0882C1.90039 13.5382 1.90039 13.8507 3.15039 14.0007C4.40039 14.1507 5.65039 14.3507 7.10039 14.4882C7.03405 16.3174 7.21911 18.147 7.65039 19.9257L4.23789 19.4132C3.28789 19.5382 2.86289 20.2382 5.25039 20.7757C5.67539 20.9007 6.08789 21.0257 6.50039 21.1257C8.76289 21.6507 7.58789 20.8257 8.77539 23.0882C8.99722 23.5212 9.24778 23.9388 9.52539 24.3382C10.1004 25.5882 10.5754 25.5132 11.0254 24.7257C10.2631 23.8011 9.68205 22.7409 9.31289 21.6007C11.2697 21.8085 13.2455 21.7539 15.1879 21.4382C15.3106 21.4283 15.4242 21.37 15.5039 21.2763C15.5836 21.1825 15.6228 21.0609 15.6129 20.9382C15.6029 20.8156 15.5447 20.7019 15.4509 20.6222C15.3571 20.5425 15.2356 20.5033 15.1129 20.5132ZM9.43789 7.28825C11.0879 7.28825 15.6879 7.48825 16.5504 7.50075C16.9129 9.36325 17.4629 10.4382 17.8879 13.5007C15.8254 13.5007 9.47539 13.3007 8.53789 13.2757C8.6587 11.2571 8.9599 9.25324 9.43789 7.28825Z" fill="black"/>
<path fill-rule="evenodd" clip-rule="evenodd" d="M22.6509 3.62586C21.3705 2.67808 20.0114 1.84169 18.5883 1.12586C18.4909 1.08919 18.3834 1.08957 18.2862 1.12693C18.189 1.1643 18.1089 1.23604 18.0611 1.32855C18.0133 1.42106 18.0011 1.52789 18.0269 1.62878C18.0526 1.72967 18.1146 1.81759 18.2009 1.87586C18.9783 2.33798 19.7294 2.84293 20.4509 3.38836C22.0749 4.49932 23.3047 6.09674 23.9633 7.95086C24.9894 10.0179 25.4875 12.3069 25.4133 14.6134C25.4179 14.7028 25.4544 14.7877 25.5161 14.8526C25.5779 14.9176 25.6608 14.9582 25.7499 14.9673C25.839 14.9764 25.9285 14.9532 26.002 14.902C26.0756 14.8509 26.1284 14.7751 26.1508 14.6884C26.479 12.6991 26.333 10.6605 25.7249 8.73821C25.1167 6.81597 24.0635 5.06438 22.6509 3.62586Z" fill="black"/>
</g>
<defs>
<clipPath id="clip0_98_2513">
<rect width="30" height="30" fill="white"/>
</clipPath>
</defs>
</svg>
