<svg width="90" height="91" viewBox="0 0 90 91" fill="none" xmlns="http://www.w3.org/2000/svg">
<path d="M19.8049 57.908C23.58 60.0772 29.8443 72.3654 32.5046 78.2383C54.9439 97.1645 63.8784 66.6931 66.5895 56.302C69.3006 45.9109 57.1025 38.7823 59.5123 29.5457C61.9222 20.3092 60.4164 14.737 52.3847 7.70893C44.3531 0.680809 38.7306 7.1061 34.8652 11.5235C30.9997 15.9409 33.0585 18.4515 19.3538 28.4407C5.64917 38.4298 15.086 55.1966 19.8049 57.908Z" fill="#E3FFF6"/>
<g clip-path="url(#clip0_139_3539)">
<path fill-rule="evenodd" clip-rule="evenodd" d="M46.4844 58.5155C45.2076 60.1551 44.311 62.0578 43.8594 64.0863C43.8571 64.2996 43.9328 64.5064 44.0723 64.6679C44.2118 64.8293 44.4054 64.9342 44.6168 64.9628C44.8282 64.9915 45.0428 64.942 45.2202 64.8235C45.3976 64.705 45.5257 64.5259 45.5803 64.3196C46.1814 62.7713 47.1062 61.3692 48.2928 60.2071C50.3027 58.479 52.8222 57.4548 55.4678 57.2905C57.6705 56.9423 59.9269 57.2888 61.9236 58.2819C63.9203 59.275 65.5581 60.8654 66.6094 62.8321C66.7407 63.0276 66.9372 63.1699 67.1638 63.2337C67.3904 63.2976 67.6324 63.2787 67.8463 63.1805C68.0603 63.0822 68.2323 62.9111 68.3317 62.6977C68.431 62.4842 68.4512 62.2424 68.3886 62.0155C67.546 59.9522 66.1863 58.1407 64.4405 56.7553C62.6946 55.37 60.6215 54.4576 58.4207 54.1059C56.22 53.7543 53.9657 53.9753 51.8751 54.7476C49.7845 55.5199 47.928 56.8175 46.4844 58.5155Z" fill="black"/>
<path fill-rule="evenodd" clip-rule="evenodd" d="M69.701 75.2572C69.4811 75.2128 69.2524 75.2547 69.0625 75.3741C68.8725 75.4935 68.7356 75.6814 68.6802 75.8988C68.4648 76.4989 68.1383 77.053 67.7177 77.5322C66.6308 78.9991 65.194 80.1706 63.5383 80.9399C61.8825 81.7091 60.0606 82.0517 58.2385 81.9363C55.9835 82.0414 53.7501 81.4553 51.8372 80.2565C49.9243 79.0576 48.4231 77.3033 47.5344 75.228L52.6969 77.503C52.8864 77.6268 53.1173 77.6702 53.3388 77.6237C53.5604 77.5772 53.7544 77.4446 53.8781 77.2551C54.0019 77.0656 54.0453 76.8347 53.9988 76.6131C53.9523 76.3916 53.8197 76.1976 53.6302 76.0738C51.777 74.5334 49.8287 73.1112 47.7969 71.8155C47.0677 71.4072 46.1927 70.6488 45.0552 70.9697C43.101 71.4363 43.7427 73.8863 41.6719 79.0197V79.1947C41.6719 79.6905 42.0219 79.953 42.4594 80.0697C42.5946 80.1552 42.7514 80.2006 42.9115 80.2006C43.0715 80.2006 43.2283 80.1552 43.3635 80.0697C44.2881 78.7564 45.0703 77.3485 45.6969 75.8697C46.3608 78.0008 47.5572 79.9274 49.1732 81.4674C50.7891 83.0073 52.771 84.1097 54.9316 84.6703C57.0923 85.2309 59.3602 85.2312 61.5209 84.6711C63.6817 84.1111 65.6639 83.0092 67.2802 81.4697C68.5052 80.303 71.6552 75.6947 69.701 75.2572Z" fill="black"/>
<path fill-rule="evenodd" clip-rule="evenodd" d="M72.8804 61.7521C72.0346 61.1396 71.5388 61.7521 68.7679 66.9729L62.5554 63.7938C62.4654 63.7267 62.3631 63.6781 62.2543 63.6506C62.1455 63.6231 62.0323 63.6173 61.9213 63.6336C61.8102 63.6498 61.7035 63.6878 61.6071 63.7453C61.5107 63.8028 61.4266 63.8787 61.3596 63.9688C61.2926 64.0588 61.2439 64.1611 61.2164 64.2699C61.189 64.3787 61.1832 64.4919 61.1994 64.6029C61.2157 64.714 61.2537 64.8207 61.3112 64.9171C61.3687 65.0135 61.4446 65.0976 61.5346 65.1646C63.6926 67.2387 66.0578 69.0859 68.5929 70.6771C68.9826 70.8336 69.4114 70.8643 69.8193 70.7649C70.2273 70.6656 70.5939 70.4411 70.8679 70.1229C71.1304 69.8021 71.2179 69.6563 72.6763 64.9604C73.2888 63.2688 74.3388 62.2479 72.8804 61.7521Z" fill="black"/>
<path fill-rule="evenodd" clip-rule="evenodd" d="M37.1509 76.5693C33.9445 76.57 30.7471 76.2278 27.6134 75.5485C26.1213 75.2167 24.6864 74.6664 23.3551 73.9151L22.6843 73.4776C-3.56572 61.3735 7.89678 21.2693 31.4343 18.061C33.8359 17.4393 36.3444 17.3497 38.7843 17.7985C38.9235 17.682 39.0231 17.5251 39.0692 17.3495C39.1152 17.1739 39.1056 16.9883 39.0415 16.8184C38.9774 16.6486 38.862 16.5029 38.7114 16.4015C38.5608 16.3001 38.3824 16.2481 38.2009 16.2526C22.4218 13.9776 11.3093 23.9526 5.68011 38.9151C3.07827 45.8694 3.24669 53.5574 6.1506 60.391C9.0545 67.2247 14.4721 72.6821 21.2843 75.636C26.3008 78.1356 31.9278 79.1476 37.5009 78.5526C37.764 78.5062 37.9977 78.3572 38.1509 78.1384C38.3041 77.9196 38.364 77.649 38.3176 77.386C38.2712 77.123 38.1222 76.8892 37.9034 76.736C37.6846 76.5829 37.414 76.5229 37.1509 76.5693Z" fill="black"/>
<path fill-rule="evenodd" clip-rule="evenodd" d="M39.0473 63.4443C34.1639 63.5552 29.281 63.2037 24.4639 62.3943C23.5745 58.1879 23.2314 53.8843 23.4431 49.5902C35.6176 50.6089 47.8648 50.3645 59.9889 48.861C62.9056 48.3652 62.4681 46.4985 59.8139 46.6735C56.4889 46.9652 52.2014 47.0818 47.4473 47.0818C47.5988 42.3543 47.0183 37.6319 45.7264 33.0818H55.8764C56.1394 33.0818 56.3917 32.9773 56.5776 32.7914C56.7636 32.6054 56.8681 32.3532 56.8681 32.0902C56.8681 31.8271 56.7636 31.5749 56.5776 31.3889C56.3917 31.203 56.1394 31.0985 55.8764 31.0985C52.9598 31.0985 49.0514 30.6318 44.7639 30.2527C44.0348 28.1818 43.2473 26.1693 42.4598 24.1277C42.373 23.934 42.2188 23.7786 42.0259 23.6902C41.833 23.6018 41.6146 23.5865 41.4113 23.6471C41.2079 23.7077 41.0336 23.8402 40.9206 24.0198C40.8077 24.1994 40.7638 24.414 40.7973 24.6235C41.1473 26.4027 41.4681 28.211 41.8181 29.9902C36.5681 29.5818 31.7556 29.3193 26.7681 29.4068C27.9306 26.0018 29.9974 22.9771 32.7473 20.6568C32.7473 19.7235 32.1056 19.3735 28.3431 22.0277C26.4184 24.2548 24.8982 26.8015 23.8514 29.5527C21.5473 29.5527 19.3889 29.8735 17.4056 30.136C13.7306 31.2735 13.7014 32.0027 15.5973 32.586C18.0052 32.4109 20.4227 32.4109 22.8306 32.586C21.5277 37.152 20.7257 41.8464 20.4389 46.586C16.9681 46.586 13.8181 46.3235 11.1348 46.1193C8.2181 47.1693 8.2181 47.8985 11.1348 48.2485C14.0514 48.5985 16.9681 49.0652 20.3514 49.386C20.1966 53.654 20.6284 57.923 21.6348 62.0735L13.6723 60.8777C11.4556 61.1693 10.4639 62.8027 16.0348 64.0568C17.0264 64.3485 17.9889 64.6402 18.9514 64.8735C24.2306 66.0985 21.4889 64.1735 24.2598 69.4526C24.7774 70.4628 25.362 71.4372 26.0098 72.3693C27.3514 75.286 28.4598 75.111 29.5098 73.2735C27.731 71.1159 26.3753 68.6421 25.5139 65.9818C30.0799 66.4667 34.6901 66.3391 39.2223 65.6027C39.5085 65.5794 39.7738 65.4435 39.9597 65.2247C40.1457 65.0059 40.2371 64.7222 40.2139 64.436C40.1907 64.1498 40.0548 63.8845 39.836 63.6985C39.6172 63.5126 39.3335 63.4211 39.0473 63.4443ZM25.8056 32.586C29.6556 32.586 40.3889 33.0527 42.4014 33.0818C43.2473 37.4277 44.5306 39.936 45.5223 47.0818C40.7098 47.0818 25.8931 46.6152 23.7056 46.5568C23.9875 41.8466 24.6903 37.171 25.8056 32.586Z" fill="black"/>
<path fill-rule="evenodd" clip-rule="evenodd" d="M56.6345 24.0414C53.6471 21.8299 50.4758 19.8783 47.1554 18.2081C46.928 18.1225 46.6771 18.1234 46.4503 18.2106C46.2235 18.2977 46.0366 18.4651 45.9251 18.681C45.8136 18.8969 45.7852 19.1461 45.8453 19.3816C45.9054 19.617 46.0498 19.8221 46.2512 19.9581C48.0652 21.0363 49.8179 22.2146 51.5012 23.4872C55.2906 26.0795 58.1601 29.8068 59.697 34.1331C62.0911 38.9562 63.2534 44.2971 63.0804 49.6789C63.091 49.8877 63.1761 50.0857 63.3202 50.2372C63.4642 50.3887 63.6577 50.4836 63.8657 50.5047C64.0737 50.5259 64.2823 50.4719 64.4539 50.3525C64.6255 50.2331 64.7487 50.0562 64.8012 49.8539C65.5669 45.2123 65.2263 40.4554 63.8073 35.9702C62.3882 31.485 59.9307 27.3979 56.6345 24.0414Z" fill="black"/>
</g>
<defs>
<clipPath id="clip0_139_3539">
<rect width="70" height="70" fill="white" transform="translate(3.78418 15.582)"/>
</clipPath>
</defs>
</svg>
