<svg width="28" height="34" viewBox="0 0 28 34" fill="none" xmlns="http://www.w3.org/2000/svg">
<g clip-path="url(#clip0_98_2523)">
<path d="M13.1865 28.5799C11.9356 27.7269 7.14012 27.6278 4.89877 27.6849C-4.42505 23.5286 3.75917 16.1154 6.60095 13.6924C9.44273 11.2695 13.5222 14.0076 16.0482 11.8539C18.5742 9.70019 20.5465 9.32729 23.9632 10.7765C27.38 12.2256 26.2206 14.959 25.4236 16.8382C24.6266 18.7174 23.5288 18.4534 22.4784 24.2565C21.4281 30.0597 14.7501 29.6461 13.1865 28.5799Z" fill="#FFE6FE"/>
<path fill-rule="evenodd" clip-rule="evenodd" d="M25.9111 24.37C25.9111 22.75 25.8511 21.1 25.8311 19.47V17.4V14.59C25.8311 12.37 25.7411 9.95 25.7411 8.08V7.08C25.7411 6.73 25.6311 6.16 25.5611 5.69V5.03C25.5356 4.92007 25.4916 4.81526 25.4311 4.72C25.2168 4.44832 24.9113 4.26357 24.5711 4.2C24.2132 4.07805 23.839 4.01063 23.4611 4H21.5711H19.6911C16.0111 4.19 12.2411 4.21 8.63111 4.32C7.00111 4.36 5.41111 4.43 3.91111 4.53C3.86644 4.53255 3.8227 4.54389 3.78242 4.56338C3.74214 4.58287 3.7061 4.61012 3.67637 4.64356C3.64664 4.67701 3.62381 4.71599 3.60918 4.75828C3.59454 4.80057 3.58841 4.84533 3.59111 4.89C3.59793 4.97259 3.63384 5.05008 3.69244 5.10868C3.75103 5.16727 3.82852 5.20318 3.91111 5.21C5.19111 5.14 6.53111 5.1 7.91111 5.07C7.85111 5.57 7.75111 6.07 7.69111 6.61C7.63427 7.0376 7.60754 7.46866 7.61111 7.9C7.63489 8.40082 7.71541 8.89733 7.85111 9.38C6.93111 9.48 6.03111 9.59 5.12111 9.64C4.40531 9.6898 3.68691 9.6898 2.97111 9.64C2.97111 9.17 2.97111 8.71 3.02111 8.31V6.31C3.02111 5.88 3.07111 5.45 3.13111 5.02C3.1415 4.98188 3.14398 4.94205 3.13842 4.90293C3.13286 4.86382 3.11936 4.82626 3.09876 4.79255C3.07816 4.75884 3.05089 4.72969 3.01862 4.7069C2.98635 4.68411 2.94977 4.66815 2.91111 4.66C2.87298 4.65437 2.8341 4.6564 2.79676 4.66597C2.75942 4.67554 2.72436 4.69246 2.69364 4.71573C2.66291 4.73901 2.63713 4.76818 2.61781 4.80154C2.59849 4.83489 2.58601 4.87177 2.58111 4.91C2.51111 5.35 2.47111 5.81 2.44111 6.26C2.44111 6.93 2.44111 7.6 2.37111 8.26C2.37111 8.73 2.32111 9.26 2.29111 9.83C2.29111 10.7 2.22111 11.64 2.19111 12.57C2.16111 13.5 2.14111 14.66 2.19111 15.49C2.24111 16.32 2.19111 17.14 2.19111 17.95C2.19111 18.76 2.19111 19.47 2.13111 20.4L2.03111 23.4C2.03111 24.06 1.96111 25.57 2.03111 26.49C2.01471 26.8531 2.07962 27.2152 2.22111 27.55C2.56871 27.7871 2.98033 27.9127 3.40111 27.91C4.56111 28.01 6.50111 27.91 6.97111 27.91L9.64111 27.78H11.2411C12.5211 27.78 13.8311 27.84 15.0611 27.78H20.0611C20.7611 27.78 21.4811 27.78 22.2511 27.7C22.6811 27.7 24.0911 27.7 24.6911 27.64C24.9075 27.6233 25.1152 27.5471 25.2911 27.42C25.5578 27.1259 25.7348 26.7615 25.8011 26.37C25.8985 25.7081 25.9353 25.0386 25.9111 24.37ZM19.7211 4.93H21.5711L23.4111 5C23.66 5.00763 23.9077 5.03775 24.1511 5.09C24.31 5.11113 24.4557 5.18933 24.5611 5.31V5.9C24.6111 6.28 24.6611 6.64 24.6911 7.01C24.7279 7.37213 24.7446 7.73602 24.7411 8.1V9.84C22.0811 9.68 19.4111 9.36 16.7411 9.21C16.0511 9.21 15.3611 9.15 14.6811 9.14C14.6811 8.64 14.7611 8.14 14.8011 7.66C14.8261 7.29042 14.8261 6.91958 14.8011 6.55C14.7817 6.02832 14.7148 5.50951 14.6011 5C16.3111 5 18.0211 5 19.7211 4.93ZM8.64111 5.05L13.9111 5C13.8611 5.42 13.7911 5.84 13.7511 6.26C13.7362 6.49309 13.7362 6.72691 13.7511 6.96V7.66C13.7783 8.14255 13.8317 8.62326 13.9111 9.1H13.1111C12.2811 9.1 11.4511 9.1 10.6211 9.15C10.0611 9.15 9.49111 9.21 8.93111 9.26H8.67111V8.09C8.67111 7.69 8.73111 7.26 8.73111 6.84C8.71998 6.23232 8.65641 5.62674 8.54111 5.03L8.64111 5.05ZM24.7611 14.59C24.7611 15.59 24.7611 16.52 24.6911 17.35C24.6211 18.18 24.6911 18.76 24.6911 19.48C24.6911 21.1 24.7611 22.75 24.7411 24.36C24.7696 24.903 24.7696 25.447 24.7411 25.99C24.7344 26.1952 24.6832 26.3965 24.5911 26.58C24.0011 26.65 22.5911 26.58 22.2011 26.64C21.4611 26.69 20.7611 26.71 20.0811 26.72C18.4211 26.72 16.8711 26.66 15.0811 26.72H11.2811C10.7211 26.72 10.1611 26.72 9.62111 26.79L6.91111 26.94H4.73111C4.17016 26.9571 3.6087 26.9337 3.05111 26.87H2.91111V26.82C2.85111 26.02 2.91111 24.16 2.91111 23.42L2.96111 20.42V17.95C2.96111 17.2 2.91111 16.41 2.91111 15.53V12.64C2.91111 11.83 2.91111 11 2.96111 10.23C3.68278 10.3376 4.41147 10.3911 5.14111 10.39C7.09111 10.39 6.14111 10.28 13.1411 10.25H16.6911C19.3811 10.32 22.0711 10.46 24.7511 10.48C24.7511 11.84 24.7711 13.25 24.7611 14.59Z" fill="black"/>
<path fill-rule="evenodd" clip-rule="evenodd" d="M20.2724 16.3096C20.0817 15.4885 19.7428 14.7091 19.2724 14.0096C18.812 13.2825 18.162 12.6947 17.3924 12.3096C17.1191 12.1724 16.8304 12.0683 16.5324 11.9996C16.103 11.9201 15.6686 11.87 15.2324 11.8496C15.1449 11.8571 15.0634 11.8973 15.0041 11.9622C14.9448 12.027 14.9121 12.1118 14.9124 12.1996C14.9068 12.2882 14.9362 12.3755 14.9941 12.4427C15.052 12.51 15.1339 12.552 15.2224 12.5596C15.6321 12.5917 16.0395 12.6485 16.4424 12.7296C16.6867 12.7783 16.9225 12.8625 17.1424 12.9796C17.7797 13.3171 18.3097 13.8263 18.6724 14.4496C19.0482 15.0662 19.3154 15.7427 19.4624 16.4496C19.6114 17.1729 19.6518 17.9144 19.5824 18.6496C19.5293 19.3751 19.3499 20.0858 19.0524 20.7496C18.5635 21.8498 17.7774 22.7918 16.7824 23.4696C15.8171 24.1435 14.6449 24.4551 13.4724 24.3496C12.2293 24.2115 11.0575 23.6988 10.1124 22.8796C9.17559 22.0687 8.52365 20.9786 8.25239 19.7696C8.09096 18.9274 8.11828 18.06 8.33239 17.2296C8.48829 16.3797 8.80022 15.566 9.25239 14.8296C9.69121 14.0696 10.3224 13.4384 11.0824 12.9996C11.9049 12.6107 12.8162 12.4485 13.7224 12.5296C13.7618 12.5323 13.8014 12.5272 13.8388 12.5146C13.8762 12.502 13.9108 12.4821 13.9406 12.4561C13.9703 12.4301 13.9946 12.3984 14.0121 12.363C14.0295 12.3276 14.0398 12.289 14.0424 12.2496C14.0451 12.2102 14.04 12.1706 14.0274 12.1332C14.0148 12.0958 13.9949 12.0612 13.9689 12.0314C13.9429 12.0017 13.9112 11.9774 13.8758 11.9599C13.8404 11.9425 13.8018 11.9321 13.7624 11.9296C12.741 11.8022 11.7042 11.9543 10.7624 12.3696C9.83759 12.8414 9.05949 13.5573 8.51239 14.4396C7.44431 16.085 6.98123 18.0504 7.20239 19.9996C7.44735 21.4708 8.19693 22.8109 9.32239 23.7896C10.4439 24.7707 11.8407 25.3818 13.3224 25.5396C14.7662 25.6802 16.2121 25.293 17.3924 24.4496C18.5203 23.6195 19.3932 22.4902 19.9124 21.1896C20.2251 20.4154 20.4043 19.5937 20.4424 18.7596C20.5071 17.939 20.4498 17.1134 20.2724 16.3096Z" fill="black"/>
<path fill-rule="evenodd" clip-rule="evenodd" d="M9.28092 18.2804C9.53988 18.1725 9.82267 18.1345 10.1009 18.1704C10.376 18.2099 10.647 18.2735 10.9109 18.3604C11.4609 18.5304 12.0009 18.7804 12.5509 19.0004C13.1393 19.2495 13.7483 19.4469 14.3709 19.5904C15.4757 19.7797 16.6109 19.6727 17.6609 19.2804C18.2401 19.05 18.7697 18.7105 19.2209 18.2804C19.4909 17.9004 19.2909 17.2804 18.9009 17.4904C18.4486 17.8725 17.9253 18.1614 17.3609 18.3404C16.4668 18.6033 15.5204 18.6343 14.6109 18.4304C13.6109 18.2404 12.6109 17.7504 11.6109 17.4304C11.1361 17.2913 10.6454 17.214 10.1509 17.2004C9.83189 17.1964 9.5154 17.2576 9.22092 17.3804C9.01333 17.4407 8.8173 17.5354 8.64092 17.6604C8.22092 17.9404 8.17092 18.5204 8.50092 18.5504C8.75507 18.4443 9.01558 18.3541 9.28092 18.2804Z" fill="black"/>
<path fill-rule="evenodd" clip-rule="evenodd" d="M19.2406 7.49973C19.6206 7.55973 19.9706 7.65973 20.3606 7.69973H20.8506L21.3306 7.63973C21.7131 7.55891 22.0904 7.45539 22.4606 7.32973C22.541 7.31991 22.615 7.28085 22.6685 7.22C22.722 7.15914 22.7512 7.08074 22.7506 6.99973C22.7457 6.95496 22.7319 6.91162 22.71 6.87222C22.6882 6.83283 22.6587 6.79817 22.6234 6.77026C22.588 6.74235 22.5475 6.72174 22.5041 6.70963C22.4607 6.69752 22.4153 6.69416 22.3706 6.69973C21.9906 6.69973 21.6206 6.61973 21.2306 6.60973C20.9777 6.58973 20.7236 6.58973 20.4706 6.60973C20.0399 6.68906 19.6155 6.79934 19.2006 6.93973C19.1612 6.94227 19.1227 6.95257 19.0872 6.97005C19.0518 6.98752 19.0202 7.01182 18.9941 7.04156C18.9681 7.07129 18.9482 7.10587 18.9356 7.14331C18.923 7.18075 18.9179 7.22031 18.9206 7.25973C18.9351 7.33209 18.9758 7.39657 19.0348 7.44084C19.0938 7.48512 19.1671 7.50608 19.2406 7.49973Z" fill="black"/>
</g>
<defs>
<clipPath id="clip0_98_2523">
<rect width="28" height="34" fill="white"/>
</clipPath>
</defs>
</svg>
