<svg width="14" height="14" viewBox="0 0 14 14" fill="none" xmlns="http://www.w3.org/2000/svg">
<g clip-path="url(#clip0_116_1085)">
<path d="M13.9767 5.31059C13.9247 5.15506 13.7899 5.04175 13.6278 5.01681L9.32413 4.35925L7.39585 0.251563C7.32367 0.098 7.16923 0 6.9997 0C6.83017 0 6.67595 0.098 6.60354 0.251563L4.67526 4.35925L0.371572 5.01703C0.209479 5.04175 0.0749473 5.15528 0.022666 5.31081C-0.0293965 5.46613 0.00975976 5.63763 0.124385 5.75509L3.2512 8.96131L2.51226 13.4903C2.48513 13.6557 2.55492 13.8222 2.69207 13.9184C2.76732 13.9716 2.85548 13.9985 2.94385 13.9985C3.01648 13.9985 3.08954 13.9801 3.1556 13.9438L6.99948 11.8177L10.8434 13.9438C10.9094 13.9801 10.9825 13.9985 11.0551 13.9985C11.1435 13.9985 11.2319 13.9716 11.3069 13.9184C11.444 13.8222 11.5138 13.6557 11.4867 13.4903L10.7478 8.96131L13.8746 5.75509C13.9894 5.63741 14.0288 5.46591 13.9767 5.31059Z" fill="#43786C"/>
</g>
<defs>
<clipPath id="clip0_116_1085">
<rect width="14" height="14" fill="white"/>
</clipPath>
</defs>
</svg>
