<svg preserveAspectRatio="none" width="100%" height="100%" overflow="visible" style="display: block;" viewBox="0 0 74.0259 75.9175" fill="none" xmlns="http://www.w3.org/2000/svg">
<g id="Group">
<path id="Vector" d="M29.4674 22.698C34.1432 24.41 39.7574 20.811 42.0087 14.66C44.2587 8.50893 42.2926 2.13628 37.6176 0.425316C32.9408 -1.28432 27.3272 2.31362 25.0761 8.46459C22.826 14.6157 24.792 20.9884 29.4674 22.698Z" fill="var(--fill-0, #73A79D)"/>
<path id="Vector_2" d="M11.7013 32.5072C16.5925 32.0831 20.1053 26.5251 19.5494 20.089C18.9923 13.6551 14.5755 8.78243 9.68425 9.20413C4.79349 9.62954 1.28081 15.1886 1.83729 21.6237C2.39452 28.0575 6.81065 32.9301 11.7013 32.5072Z" fill="var(--fill-0, #73A79D)"/>
<path id="Vector_3" d="M49.7933 32.291C54.0862 34.8142 60.2546 32.2801 63.5721 26.6336C66.8896 20.9834 66.0989 14.3625 61.8054 11.8394C57.5126 9.31856 51.343 11.8538 48.026 17.5003C44.7088 23.1495 45.5006 29.7702 49.7933 32.291Z" fill="var(--fill-0, #73A79D)"/>
<path id="Vector_4" d="M72.7862 38.9827C70.0029 34.9391 63.4344 34.6265 58.1136 38.2867C52.7917 41.9493 50.7351 48.1949 53.5176 52.2397C56.3002 56.2832 62.8693 56.5961 68.1902 52.9345C73.5104 49.2731 75.5682 43.0276 72.7862 38.9827Z" fill="var(--fill-0, #73A79D)"/>
<path id="Vector_5" d="M44.2058 39.747C43.675 36.0737 41.4232 32.7237 37.8241 31.0248C34.2257 29.327 30.2079 29.7189 27.0358 31.6429C23.5296 33.7707 21.2868 36.5503 18.267 37.7653C15.2476 38.9801 6.79034 35.3619 1.52474 44.9238C-2.1942 51.6775 1.21973 60.2153 8.19156 63.5051C13.4907 66.0057 17.6847 65.7265 20.7637 67.1785C23.8422 68.6306 26.2929 72.0465 31.5916 74.5467C38.5633 77.8367 47.3238 75.0452 50.1729 67.8806C54.2069 57.7374 46.0364 53.5093 45.0541 50.4062C44.0726 47.3035 44.7928 43.8049 44.2058 39.747Z" fill="var(--fill-0, #73A79D)"/>
</g>
</svg>
