<svg width="70" height="70" viewBox="0 0 70 70" fill="none" xmlns="http://www.w3.org/2000/svg">
<rect width="70" height="70" fill="#F5F5F5"/>
<g id="Default Product" filter="url(#filter0_dd_0_1)">
<rect width="1201" height="4779" transform="translate(-965.582 -2387.18)" fill="white"/>
<g id="Group 1321314240">
<g id="Group 1321314234">
<g id="products-shopping-bags--Streamline-Freehand" clip-path="url(#clip0_0_1)">
<g id="Group">
<path id="Vector" fill-rule="evenodd" clip-rule="evenodd" d="M68.3081 50.7202C68.3081 50.4869 67.9873 43.7202 67.8123 43.4869C66.8795 42.5029 65.8429 41.6227 64.7206 40.8619C64.6364 40.7872 64.5382 40.7298 64.4318 40.6931C64.3254 40.6563 64.2127 40.6409 64.1003 40.6477C63.9879 40.6544 63.878 40.6833 63.7767 40.7325C63.6755 40.7818 63.5849 40.8505 63.5102 40.9348C63.4355 41.0191 63.3782 41.1172 63.3414 41.2237C63.3047 41.3301 63.2892 41.4427 63.296 41.5551C63.3028 41.6675 63.3316 41.7775 63.3809 41.8787C63.4302 41.98 63.4989 42.0705 63.5831 42.1452C63.9331 42.4661 64.604 43.8369 65.304 44.4786C64.1373 45.0036 58.3623 46.7244 57.2248 47.0161C55.3326 45.2738 53.2013 43.8104 50.8956 42.6702C53.9553 41.945 56.9501 40.9695 59.8498 39.7536C71.5165 33.6869 59.8498 20.9411 51.7415 34.6202C48.5915 29.6327 40.8623 25.3744 36.5165 29.6327C32.1706 33.8911 37.8873 38.3827 42.8456 41.1244C44.1304 41.7393 45.4557 42.2655 46.8123 42.6994C43.7498 43.8661 41.4165 43.4869 39.0831 45.2952C33.2498 41.7369 33.2498 41.2702 32.7831 41.1244C33.5695 40.5984 34.4514 40.2317 35.379 40.0452C35.642 40.0452 35.8942 39.9407 36.0802 39.7548C36.2662 39.5688 36.3706 39.3166 36.3706 39.0536C36.3706 38.7906 36.2662 38.5383 36.0802 38.3523C35.8942 38.1664 35.642 38.0619 35.379 38.0619C33.3373 38.0619 29.6915 38.7036 29.5456 40.8036C29.0935 44.3135 28.9179 47.8536 29.0206 51.3911C28.9197 54.0751 29.3152 56.7548 30.1873 59.2952C34.1722 62.6952 38.4468 65.7402 42.9623 68.3952C43.6619 69.0159 44.4903 69.4738 45.388 69.7361C46.2857 69.9983 47.2303 70.0584 48.154 69.9119C50.7816 69.3632 53.3727 68.6521 55.9123 67.7827C59.919 66.6694 63.6997 64.863 67.0831 62.4452C67.7831 61.9786 69.7956 61.5994 69.5915 59.2077C68.992 56.4072 68.5635 53.5728 68.3081 50.7202ZM54.2498 36.8661C58.3331 28.3202 63.7581 31.7036 61.629 34.9994C59.4606 37.612 56.4486 39.3862 53.1123 40.0161C53.5525 38.9891 53.9323 37.9373 54.2498 36.8661ZM38.4415 31.6452C41.3581 29.0202 47.1915 33.2202 48.9706 36.4286C49.9623 38.1202 50.2248 40.4244 48.329 41.0661C46.8289 40.5467 45.367 39.923 43.954 39.1994C41.3581 37.6244 36.1665 33.6869 38.4415 31.6452ZM49.029 43.9827C49.8748 44.8869 52.179 46.4036 53.6373 47.6869C46.0831 48.7952 47.804 50.3411 41.9706 47.0452C43.7498 46.0536 48.154 44.6827 49.029 43.9827ZM32.4331 55.6494C31.953 51.3203 31.7193 46.9675 31.7331 42.6119C33.6449 44.3447 35.6507 45.9708 37.7415 47.4827C37.0345 51.9049 36.5962 56.3659 36.429 60.8411C31.2665 56.3786 32.6665 57.4869 32.4331 55.5911V55.6494ZM38.2665 62.2702C38.7331 61.5702 40.7748 49.9036 40.804 49.5536C41.8002 50.2309 42.8323 50.854 43.8956 51.4202C43.9547 55.5296 43.7794 59.6391 43.3706 63.7286C43.2977 64.6118 43.2977 65.4995 43.3706 66.3827C41.9123 65.2452 40.0165 63.7577 38.1498 62.2119L38.2665 62.2702ZM47.3956 66.9369C46.8123 67.0827 46.4623 66.9369 46.3456 66.6744C45.704 65.0702 46.3456 58.9744 45.879 52.0911C48.0526 52.2322 50.2328 51.9448 52.2956 51.2452C53.6081 51.0702 54.8623 50.8952 56.1165 50.6036C57.9058 54.4503 59.0301 58.5726 59.4415 62.7952C55.4901 64.4453 51.4255 65.8099 47.279 66.8786L47.3956 66.9369ZM61.2498 62.0952C61.7464 57.8157 61.0393 53.4825 59.2081 49.5827L65.2456 47.0452C67.1706 46.4036 65.4498 47.0452 66.2081 50.7786L67.0831 58.7994C65.251 60.0859 63.2972 61.1898 61.2498 62.0952Z" fill="black"/>
<path id="Vector_2" fill-rule="evenodd" clip-rule="evenodd" d="M27.3293 15.5747C29.9251 15.5747 32.5793 15.3122 35.1751 15.3997C43.2251 15.6039 41.4751 16.158 41.7376 16.9747L42.8751 22.5747C42.9297 22.7809 43.0577 22.9601 43.2352 23.0786C43.4126 23.197 43.6272 23.2466 43.8386 23.2179C44.05 23.1893 44.2436 23.0843 44.3831 22.9229C44.5226 22.7615 44.5983 22.5547 44.596 22.3414C43.7793 14.8455 43.9543 14.2622 42.4085 13.5914C40.5791 12.9785 38.6935 12.5486 36.7793 12.308C36.7938 9.28392 35.7635 6.3476 33.8626 3.99553C33.1174 3.1934 32.2147 2.5536 31.211 2.11609C30.2073 1.67858 29.1242 1.45277 28.0293 1.45277C26.9344 1.45277 25.8513 1.67858 24.8476 2.11609C23.8439 2.5536 22.9412 3.1934 22.196 3.99553C20.322 6.63661 18.957 9.604 18.171 12.7455C18.171 13.1539 19.046 12.9497 12.046 13.5039C12.7632 10.6689 13.7395 7.9059 14.9626 5.24969C15.5144 4.17953 16.3981 3.31693 17.4812 2.79112C18.5644 2.26531 19.7888 2.10459 20.971 2.33303C21.0993 2.35792 21.2312 2.3573 21.3593 2.3312C21.4874 2.3051 21.6091 2.25403 21.7174 2.1809C21.8257 2.10778 21.9186 2.01403 21.9907 1.90501C22.0628 1.79599 22.1127 1.67384 22.1376 1.54553C22.1625 1.41721 22.1619 1.28526 22.1358 1.15718C22.1097 1.02911 22.0586 0.907432 21.9855 0.799097C21.9124 0.690762 21.8186 0.597891 21.7096 0.525787C21.6006 0.453683 21.4784 0.403757 21.3501 0.378861C19.8917 -0.0579067 18.3464 -0.118113 16.8585 0.203861C15.1975 0.641283 13.7061 1.56744 12.5777 2.86233C11.4492 4.15722 10.7356 5.76117 10.5293 7.46636C10.1831 9.54098 9.96877 11.6355 9.88763 13.7372C7.75846 13.7372 7.49596 13.7372 7.26263 14.2039C7.0293 14.6705 6.65013 14.583 6.0668 17.8497C3.85013 26.9497 3.15013 28.2914 2.24596 32.2289C1.24395 36.4202 0.648145 40.6983 0.466797 45.0039C1.02096 50.283 6.79596 49.2622 11.3168 49.3497L22.1085 49.8747C22.3502 49.8734 22.5831 49.7838 22.7634 49.6229C22.9438 49.4619 23.0591 49.2406 23.0878 49.0006C23.1164 48.7606 23.0564 48.5184 22.9191 48.3195C22.7817 48.1206 22.5764 47.9787 22.3418 47.9205L14.5835 47.1622C14.6354 45.0509 14.577 42.9383 14.4085 40.833C14.2212 33.0211 13.5491 25.2283 12.396 17.4997C12.396 16.7705 12.396 16.3914 12.1626 15.8664C18.521 15.8664 20.4168 15.9247 27.3293 15.5747ZM23.771 6.97053C27.0085 3.12053 33.2793 4.05386 34.6501 12.1914C29.8352 12.0069 25.0135 12.2509 20.2418 12.9205C21.2003 10.8158 22.3836 8.82086 23.771 6.97053ZM12.6001 46.9289C9.94596 46.6664 8.0793 46.6664 6.12513 46.4622C3.4418 46.0247 3.55846 45.4705 3.67513 43.7789C3.7918 42.0872 5.33763 32.3164 7.0293 24.8497C8.57513 14.3789 8.13763 16.0997 9.27513 15.8372H10.2085C10.1766 16.4759 10.2455 17.1157 10.4126 17.733C10.4126 23.5664 10.4126 29.3997 10.646 32.9872C10.821 34.9997 12.2501 45.7622 12.6001 46.9289Z" fill="black"/>
</g>
</g>
</g>
</g>
</g>
<defs>
<filter id="filter0_dd_0_1" x="-975.582" y="-2395.18" width="1221" height="4799" filterUnits="userSpaceOnUse" color-interpolation-filters="sRGB">
<feFlood flood-opacity="0" result="BackgroundImageFix"/>
<feColorMatrix in="SourceAlpha" type="matrix" values="0 0 0 0 0 0 0 0 0 0 0 0 0 0 0 0 0 0 127 0" result="hardAlpha"/>
<feOffset dy="2"/>
<feGaussianBlur stdDeviation="5"/>
<feColorMatrix type="matrix" values="0 0 0 0 0 0 0 0 0 0 0 0 0 0 0 0 0 0 0.1 0"/>
<feBlend mode="normal" in2="BackgroundImageFix" result="effect1_dropShadow_0_1"/>
<feColorMatrix in="SourceAlpha" type="matrix" values="0 0 0 0 0 0 0 0 0 0 0 0 0 0 0 0 0 0 127 0" result="hardAlpha"/>
<feOffset/>
<feGaussianBlur stdDeviation="1"/>
<feColorMatrix type="matrix" values="0 0 0 0 0 0 0 0 0 0 0 0 0 0 0 0 0 0 0.2 0"/>
<feBlend mode="normal" in2="effect1_dropShadow_0_1" result="effect2_dropShadow_0_1"/>
<feBlend mode="normal" in="SourceGraphic" in2="effect2_dropShadow_0_1" result="shape"/>
</filter>
<clipPath id="clip0_0_1">
<rect width="70" height="70" fill="white"/>
</clipPath>
</defs>
</svg>
