<svg width="70" height="70" viewBox="0 0 70 70" fill="none" xmlns="http://www.w3.org/2000/svg">
<g clip-path="url(#clip0_98_2694)">
<path d="M21.0573 62.2336C25.3941 62.6195 36.2346 71.1474 41.1127 75.3631C69.4208 83.1332 64.7518 51.7241 62.8548 41.1541C60.9579 30.584 46.8946 29.2285 45.2084 19.8329C43.5223 10.4373 39.8183 6.01043 29.5796 2.99879C19.3409 -0.0128452 16.9316 8.17813 15.2752 13.8094C13.6188 19.4407 16.5407 20.8564 8.28912 35.6723C0.037531 50.4883 15.6364 61.7513 21.0573 62.2336Z" fill="#E3F9FF"/>
<path fill-rule="evenodd" clip-rule="evenodd" d="M48.6496 32.0827C49.1966 29.8807 49.335 27.5971 49.0579 25.3452C48.4162 22.1952 47.2204 20.3868 46.1412 19.8618C43.9537 18.8702 42.6121 20.2118 41.5329 22.0785C40.9204 12.4535 33.1912 9.42017 30.1287 18.4327C25.5496 8.74934 15.8371 16.8285 22.0204 34.416C19.6871 32.8118 16.9162 31.4993 14.7579 33.191C12.5996 34.8827 13.3871 40.5702 14.5829 43.5452C16.4496 48.3577 19.5121 51.566 21.1746 58.2743C23.1871 66.3243 22.1079 68.2785 23.7996 68.1618C24.0494 68.119 24.2743 67.9849 24.4306 67.7854C24.587 67.5859 24.6635 67.3354 24.6454 67.0827C24.6454 64.0202 24.4412 60.8118 24.0037 57.7202C22.8371 49.4952 20.4162 48.0077 18.1704 42.1452C17.259 40.2053 16.8287 38.0742 16.9162 35.9327C17.3829 34.0952 22.2829 37.3035 24.1204 39.2285C24.8416 40.7745 25.6398 42.2833 26.5121 43.7493C26.5703 43.8671 26.652 43.9717 26.7522 44.0567C26.8524 44.1417 26.9689 44.2053 27.0946 44.2435C27.2203 44.2818 27.3525 44.2939 27.4831 44.2791C27.6136 44.2644 27.7398 44.223 27.8537 44.1577C29.4579 43.2827 26.9787 42.2618 24.7329 33.1327C23.5264 28.7515 23.4462 24.1365 24.4996 19.716C24.6448 19.2165 24.8505 18.7365 25.1121 18.2868C25.1121 18.2868 25.1121 17.9077 25.3746 17.9077C26.0454 17.9077 27.2121 19.8618 27.5037 20.4743C29.1606 23.995 30.1496 27.7927 30.4204 31.6743C30.463 31.9683 30.6205 32.2333 30.8585 32.4111C31.0964 32.5888 31.3952 32.6648 31.6892 32.6223C31.9831 32.5797 32.2481 32.4221 32.4259 32.1842C32.6037 31.9463 32.6796 31.6475 32.6371 31.3535C32.6659 28.1237 32.2538 24.9051 31.4121 21.7868C31.8402 19.7105 32.9865 17.8516 34.6496 16.5368C36.5162 15.3702 38.0621 21.4077 38.1496 24.3243C38.3537 31.3243 36.7204 34.0368 38.6746 34.2702C38.972 34.3031 39.2705 34.2175 39.5053 34.0319C39.74 33.8462 39.8922 33.5755 39.9287 33.2785C40.2496 31.6452 40.6287 29.8952 40.9787 28.116C41.3871 27.8827 41.1829 28.116 43.0787 24.5577C44.3329 22.4577 44.7704 21.641 45.3829 25.841C45.6903 27.832 45.6903 29.8584 45.3829 31.8493C44.7412 37.9743 43.4871 39.1118 45.0621 39.6077C45.3483 39.6896 45.6551 39.6561 45.9169 39.5143C46.1786 39.3725 46.3744 39.1338 46.4621 38.8493C46.8704 37.7702 47.3079 36.6035 47.6871 35.4368C48.2704 34.9702 50.6037 33.1327 51.0704 33.716C51.5371 34.2993 50.7496 37.916 50.4579 38.9368C47.9787 47.0743 45.1204 46.5202 43.9829 53.141C43.1954 57.7785 43.7787 63.3493 43.3996 66.0035C43.3566 66.3003 43.4297 66.6022 43.6034 66.8466C43.7772 67.091 44.0385 67.2591 44.3329 67.316C46.5496 67.6952 45.4704 63.5243 46.9287 55.6493C48.2121 48.766 50.3996 50.1077 52.9954 42.991C54.1912 39.6368 55.5329 32.9868 52.4704 31.4702C51.8423 31.1927 51.1474 31.103 50.4695 31.2116C49.7915 31.3203 49.1595 31.6228 48.6496 32.0827Z" fill="black"/>
<path fill-rule="evenodd" clip-rule="evenodd" d="M14.3497 14.2329C14.9299 12.9189 15.6747 11.684 16.5664 10.5579C16.6851 10.4583 16.7831 10.3363 16.8547 10.1989C16.9262 10.0614 16.9701 9.91121 16.9836 9.75683C16.9971 9.60245 16.9801 9.44692 16.9336 9.29911C16.887 9.1513 16.8118 9.01412 16.7122 8.89538C16.6126 8.77664 16.4906 8.67868 16.3532 8.60709C16.2157 8.53551 16.0655 8.49169 15.9112 8.47815C15.7568 8.46461 15.6012 8.4816 15.4534 8.52817C15.3056 8.57474 15.1684 8.64996 15.0497 8.74955C13.1081 9.70992 11.5078 11.2427 10.4647 13.1412C9.42157 15.0396 8.98587 17.2124 9.21637 19.3662C9.18724 19.4979 9.18526 19.634 9.21055 19.7665C9.23584 19.8989 9.28786 20.0248 9.36345 20.1364C9.43903 20.2481 9.53659 20.3431 9.65016 20.4158C9.76372 20.4885 9.89091 20.5372 10.024 20.559C10.157 20.5809 10.2931 20.5754 10.4239 20.5428C10.5548 20.5103 10.6776 20.4514 10.7849 20.3698C10.8922 20.2882 10.9818 20.1856 11.0481 20.0682C11.1144 19.9508 11.156 19.8211 11.1705 19.687C12.1231 17.8086 13.1847 15.9875 14.3497 14.2329Z" fill="black"/>
<path fill-rule="evenodd" clip-rule="evenodd" d="M13.5343 3.87872C13.7379 3.68315 13.8615 3.41888 13.881 3.13727C13.9006 2.85566 13.8148 2.57683 13.6402 2.35498C13.4656 2.13314 13.2148 1.98413 12.9365 1.93692C12.6582 1.88971 12.3723 1.94768 12.1343 2.09955C4.40513 7.17455 2.1593 12.0745 0.000967309 20.4162C-0.0918585 20.6638 -0.0825493 20.938 0.0268469 21.1787C0.136243 21.4194 0.336765 21.6067 0.584301 21.6995C0.831836 21.7924 1.10611 21.7831 1.34678 21.6737C1.58745 21.5643 1.77481 21.3638 1.86763 21.1162C5.00538 14.8963 8.92611 9.10342 13.5343 3.87872Z" fill="black"/>
<path fill-rule="evenodd" clip-rule="evenodd" d="M62.9131 47.9784C62.9607 47.7355 62.9158 47.4837 62.7872 47.2723C62.6586 47.0609 62.4557 46.9052 62.2182 46.8357C61.9807 46.7663 61.7258 46.7882 61.5036 46.8971C61.2814 47.0059 61.1079 47.194 61.0172 47.4242C60.1264 48.6403 59.3548 49.9393 58.7131 51.3034C58.2172 52.5575 57.9256 54.22 57.5464 55.5909C57.4072 55.8539 57.3781 56.1614 57.4656 56.4458C57.5532 56.7303 57.7501 56.9683 58.0131 57.1075C58.2761 57.2468 58.5836 57.2758 58.8681 57.1883C59.1525 57.1008 59.3905 56.9039 59.5297 56.6409C60.7375 55.5666 61.6737 54.2216 62.2618 52.716C62.8499 51.2103 63.073 49.5868 62.9131 47.9784Z" fill="black"/>
<path fill-rule="evenodd" clip-rule="evenodd" d="M70.0024 43.3999C70.0024 43.1369 69.8979 42.8846 69.7119 42.6987C69.526 42.5127 69.2737 42.4082 69.0107 42.4082C68.7477 42.4082 68.4955 42.5127 68.3095 42.6987C68.1235 42.8846 68.0191 43.1369 68.0191 43.3999C66.7457 49.0465 64.9792 54.5705 62.7399 59.9082C62.6072 60.1522 62.5683 60.4362 62.6305 60.7069C62.6928 60.9775 62.8519 61.2161 63.0779 61.3775C63.3039 61.5389 63.5811 61.6121 63.8574 61.5832C64.1336 61.5543 64.3897 61.4254 64.5774 61.2207C66.7658 58.8509 68.3904 56.0172 69.3298 52.9313C70.2692 49.8454 70.4991 46.5871 70.0024 43.3999Z" fill="black"/>
</g>
<defs>
<clipPath id="clip0_98_2694">
<rect width="70" height="70" fill="white"/>
</clipPath>
</defs>
</svg>
