<svg width="90" height="91" viewBox="0 0 90 91" fill="none" xmlns="http://www.w3.org/2000/svg">
<path d="M19.8049 57.909C23.58 60.0782 29.8443 72.3663 32.5046 78.2393C54.9439 97.1655 63.8784 66.6941 66.5895 56.303C69.3006 45.9119 57.1025 38.7832 59.5123 29.5467C61.9222 20.3102 60.4164 14.738 52.3847 7.7099C44.3531 0.681785 38.7306 7.10707 34.8652 11.5245C30.9997 15.9419 33.0585 18.4525 19.3538 28.4416C5.64917 38.4308 15.086 55.1976 19.8049 57.909Z" fill="#E3FFF6"/>
<g clip-path="url(#clip0_134_899)">
<path fill-rule="evenodd" clip-rule="evenodd" d="M46.4844 58.5164C45.2076 60.156 44.311 62.0588 43.8594 64.0873C43.8571 64.3006 43.9328 64.5074 44.0723 64.6688C44.2118 64.8303 44.4054 64.9352 44.6168 64.9638C44.8282 64.9925 45.0428 64.9429 45.2202 64.8245C45.3976 64.706 45.5257 64.5268 45.5803 64.3206C46.1814 62.7723 47.1062 61.3702 48.2928 60.2081C50.3027 58.48 52.8222 57.4558 55.4678 57.2914C57.6705 56.9432 59.9269 57.2898 61.9236 58.2829C63.9203 59.276 65.5581 60.8664 66.6094 62.8331C66.7407 63.0285 66.9372 63.1709 67.1638 63.2347C67.3904 63.2985 67.6324 63.2797 67.8463 63.1814C68.0603 63.0832 68.2323 62.9121 68.3317 62.6987C68.431 62.4852 68.4512 62.2434 68.3886 62.0164C67.546 59.9532 66.1863 58.1416 64.4405 56.7563C62.6946 55.371 60.6215 54.4586 58.4207 54.1069C56.22 53.7553 53.9657 53.9762 51.8751 54.7485C49.7845 55.5209 47.928 56.8185 46.4844 58.5164Z" fill="black"/>
<path fill-rule="evenodd" clip-rule="evenodd" d="M69.701 75.2582C69.4811 75.2138 69.2524 75.2557 69.0625 75.3751C68.8725 75.4945 68.7356 75.6824 68.6802 75.8998C68.4648 76.4999 68.1383 77.054 67.7177 77.5332C66.6308 79.0001 65.194 80.1716 63.5383 80.9408C61.8825 81.7101 60.0606 82.0527 58.2385 81.9373C55.9835 82.0424 53.7501 81.4563 51.8372 80.2574C49.9243 79.0586 48.4231 77.3042 47.5344 75.229L52.6969 77.504C52.8864 77.6278 53.1173 77.6712 53.3388 77.6247C53.5604 77.5782 53.7544 77.4456 53.8781 77.2561C54.0019 77.0666 54.0453 76.8356 53.9988 76.6141C53.9523 76.3926 53.8197 76.1986 53.6302 76.0748C51.777 74.5344 49.8287 73.1121 47.7969 71.8165C47.0677 71.4082 46.1927 70.6498 45.0552 70.9707C43.101 71.4373 43.7427 73.8873 41.6719 79.0207V79.1957C41.6719 79.6915 42.0219 79.954 42.4594 80.0707C42.5946 80.1562 42.7514 80.2016 42.9115 80.2016C43.0715 80.2016 43.2283 80.1562 43.3635 80.0707C44.2881 78.7574 45.0703 77.3495 45.6969 75.8707C46.3608 78.0018 47.5572 79.9284 49.1732 81.4684C50.7891 83.0083 52.771 84.1107 54.9316 84.6713C57.0923 85.2318 59.3602 85.2321 61.5209 84.6721C63.6817 84.1121 65.6639 83.0102 67.2802 81.4707C68.5052 80.304 71.6552 75.6957 69.701 75.2582Z" fill="black"/>
<path fill-rule="evenodd" clip-rule="evenodd" d="M72.8775 61.754C72.0317 61.1415 71.5358 61.754 68.765 66.9749L62.5525 63.7957C62.4625 63.7287 62.3602 63.68 62.2514 63.6526C62.1425 63.6251 62.0294 63.6193 61.9183 63.6355C61.8073 63.6518 61.7005 63.6898 61.6042 63.7473C61.5078 63.8048 61.4237 63.8807 61.3567 63.9707C61.2896 64.0607 61.241 64.1631 61.2135 64.2719C61.186 64.3807 61.1803 64.4938 61.1965 64.6049C61.2128 64.7159 61.2507 64.8227 61.3082 64.919C61.3657 65.0154 61.4417 65.0995 61.5317 65.1665C63.6897 67.2407 66.0549 69.0878 68.59 70.679C68.9796 70.8355 69.4084 70.8663 69.8164 70.7669C70.2243 70.6675 70.591 70.443 70.865 70.1249C71.1275 69.804 71.215 69.6582 72.6733 64.9624C73.2858 63.2707 74.3358 62.2499 72.8775 61.754Z" fill="black"/>
<path fill-rule="evenodd" clip-rule="evenodd" d="M37.149 76.5703C33.9425 76.571 30.7452 76.2287 27.6115 75.5494C26.1193 75.2177 24.6844 74.6673 23.3532 73.9161L22.6823 73.4786C-3.56767 61.3744 7.89483 21.2703 31.4323 18.0619C33.834 17.4402 36.3424 17.3507 38.7823 17.7994C38.9216 17.683 39.0211 17.526 39.0672 17.3504C39.1133 17.1748 39.1036 16.9893 39.0395 16.8194C38.9754 16.6496 38.8601 16.5038 38.7095 16.4025C38.5589 16.3011 38.3805 16.2491 38.199 16.2536C22.4198 13.9786 11.3073 23.9536 5.67816 38.9161C3.07632 45.8704 3.24474 53.5583 6.14864 60.392C9.05255 67.2257 14.4701 72.6831 21.2823 75.6369C26.2989 78.1366 31.9259 79.1486 37.499 78.5536C37.762 78.5072 37.9958 78.3582 38.149 78.1394C38.3021 77.9206 38.3621 77.65 38.3157 77.3869C38.2692 77.1239 38.1203 76.8901 37.9015 76.737C37.6827 76.5838 37.412 76.5239 37.149 76.5703Z" fill="black"/>
<path fill-rule="evenodd" clip-rule="evenodd" d="M39.0453 63.4453C34.162 63.5562 29.2791 63.2046 24.462 62.3953C23.5725 58.1889 23.2294 53.8853 23.4411 49.5911C35.6156 50.6099 47.8628 50.3655 59.987 48.862C62.9036 48.3661 62.4661 46.4995 59.812 46.6745C56.487 46.9661 52.1995 47.0828 47.4453 47.0828C47.5968 42.3553 47.0163 37.6329 45.7245 33.0828H55.8745C56.1375 33.0828 56.3897 32.9783 56.5757 32.7923C56.7617 32.6064 56.8661 32.3541 56.8661 32.0911C56.8661 31.8281 56.7617 31.5759 56.5757 31.3899C56.3897 31.2039 56.1375 31.0995 55.8745 31.0995C52.9578 31.0995 49.0495 30.6328 44.762 30.2536C44.0328 28.1828 43.2453 26.1703 42.4578 24.1286C42.371 23.935 42.2168 23.7795 42.0239 23.6911C41.8311 23.6027 41.6126 23.5874 41.4093 23.6481C41.206 23.7087 41.0316 23.8412 40.9187 24.0208C40.8057 24.2004 40.7619 24.4149 40.7953 24.6245C41.1453 26.4036 41.4661 28.212 41.8161 29.9911C36.5661 29.5828 31.7536 29.3203 26.7661 29.4078C27.9286 26.0028 29.9955 22.9781 32.7453 20.6578C32.7453 19.7245 32.1036 19.3745 28.3411 22.0286C26.4164 24.2557 24.8963 26.8025 23.8495 29.5536C21.5453 29.5536 19.387 29.8745 17.4036 30.137C13.7286 31.2745 13.6995 32.0036 15.5953 32.587C18.0032 32.4119 20.4207 32.4119 22.8286 32.587C21.5257 37.153 20.7238 41.8473 20.437 46.587C16.9661 46.587 13.8161 46.3245 11.1328 46.1203C8.21615 47.1703 8.21615 47.8995 11.1328 48.2495C14.0495 48.5995 16.9661 49.0661 20.3495 49.387C20.1947 53.6549 20.6265 57.9239 21.6328 62.0745L13.6703 60.8786C11.4536 61.1703 10.462 62.8036 16.0328 64.0578C17.0245 64.3495 17.987 64.6411 18.9495 64.8745C24.2286 66.0995 21.487 64.1745 24.2578 69.4536C24.7754 70.4638 25.36 71.4382 26.0078 72.3703C27.3495 75.287 28.4578 75.112 29.5078 73.2745C27.729 71.1169 26.3734 68.6431 25.512 65.9828C30.0779 66.4676 34.6882 66.3401 39.2203 65.6036C39.5065 65.5804 39.7718 65.4445 39.9578 65.2257C40.1437 65.0069 40.2352 64.7232 40.212 64.437C40.1888 64.1508 40.0528 63.8855 39.834 63.6995C39.6152 63.5135 39.3315 63.4221 39.0453 63.4453ZM25.8036 32.587C29.6536 32.587 40.387 33.0536 42.3995 33.0828C43.2453 37.4286 44.5286 39.937 45.5203 47.0828C40.7078 47.0828 25.8911 46.6161 23.7036 46.5578C23.9855 41.8475 24.6883 37.1719 25.8036 32.587Z" fill="black"/>
<path fill-rule="evenodd" clip-rule="evenodd" d="M56.6326 24.0414C53.6452 21.8299 50.4739 19.8783 47.1534 18.2081C46.926 18.1225 46.6751 18.1234 46.4483 18.2106C46.2216 18.2977 46.0347 18.4651 45.9231 18.681C45.8116 18.8969 45.7832 19.1461 45.8433 19.3816C45.9034 19.617 46.0479 19.8221 46.2492 19.9581C48.0632 21.0363 49.8159 22.2146 51.4993 23.4872C55.2886 26.0795 58.1581 29.8068 59.6951 34.1331C62.0891 38.9562 63.2515 44.2971 63.0784 49.6789C63.0891 49.8877 63.1741 50.0857 63.3182 50.2372C63.4623 50.3887 63.6558 50.4836 63.8637 50.5047C64.0717 50.5259 64.2804 50.4719 64.452 50.3525C64.6236 50.2331 64.7468 50.0562 64.7992 49.8539C65.5649 45.2123 65.2244 40.4554 63.8053 35.9702C62.3862 31.485 59.9287 27.3979 56.6326 24.0414Z" fill="black"/>
</g>
<defs>
<clipPath id="clip0_134_899">
<rect width="70" height="70" fill="white" transform="translate(3.7832 15.583)"/>
</clipPath>
</defs>
</svg>
