<svg width="440" height="296" viewBox="0 0 440 296" fill="none" xmlns="http://www.w3.org/2000/svg">
<mask id="mask0_138_3378" style="mask-type:luminance" maskUnits="userSpaceOnUse" x="0" y="0" width="440" height="296">
<path d="M439.997 0H0V295.998H439.997V0Z" fill="white"/>
</mask>
<g mask="url(#mask0_138_3378)">
<path d="M354.933 137.007L349.383 138.007C348.437 138.179 347.659 137.652 347.499 137.149C346.973 135.555 351.079 133.495 354.741 132.342C360.733 130.46 367.883 129.884 368.303 132.526C368.447 133.446 367.699 134.341 366.479 134.599L354.933 137.002V137.007Z" fill="#040404"/>
<path d="M357.237 142.15C362.121 142.837 367.027 145.216 366.257 148.521C365.663 151.059 360.419 147.313 353.773 146.669L351.359 145.829C350.223 145.436 349.773 144.756 349.971 143.978C350.375 142.334 353.763 141.648 357.245 142.145L357.237 142.15Z" fill="#040404"/>
<path d="M150.138 127.854C152.511 128.67 155.174 129.454 155.694 131.796C153.229 132.691 150.665 132.526 148.284 132.146C143.086 131.312 138.416 129.694 139.927 127.456C140.813 126.138 146.642 126.652 150.138 127.854Z" fill="#050505"/>
<path d="M348.606 159.777C347.462 162.267 346.248 165.056 344.042 166.957L344.08 168.447L336.892 174.646L343.202 177.27C342.416 174.805 344.432 170.795 347.438 173.156C348.01 173.811 349.05 174.143 349.53 175.381L353.056 184.443L366.442 211.585C372.935 224.755 376.399 238.108 377.477 252.282L381.101 300.08C396.045 294.36 410.277 302.472 417.207 313.814C427.257 330.748 423.633 351.746 413.827 368.528C408.987 376.804 403.715 384.517 396.579 391.549L384.819 403.143C402.111 403.369 428.059 403.175 437.971 413.929C439.675 415.773 440.637 417.957 439.513 420.011C436.675 425.221 419.885 425.061 410.209 424.891L372.721 424.233L350.782 423.461C349.43 426.937 346.706 429.807 342.5 431.327C335.618 433.823 328.092 435.073 320.446 434.529C311.898 433.921 303.45 432.713 295.588 430.311C289.286 428.379 285.394 424.069 286.186 418.257C269.244 423.953 251.958 423.767 233.528 420.695C232.834 424.939 230.208 428.041 225.598 429.943C210.427 436.201 189.639 438.617 174.613 432.265C171.316 430.875 169.072 428.617 167.805 425.969C151.39 425.761 135.874 426.625 119.779 427.459C109.263 428.005 94.0836 429.009 87.8484 424.069C64.0148 427.281 40.0057 428.053 15.8974 425.675C9.30374 425.025 0.962373 423.081 0.0923671 418.833C-1.65527 410.287 21.8349 405.277 33.435 403.885L71.1199 399.373C81.9034 398.079 92.2138 396.711 102.433 393.885C107.813 392.395 112.453 390.219 115.872 386.497C101.295 373.25 96.1593 352.68 96.1517 335.304C96.1439 322.92 102.311 310.944 115.765 304.77C120.87 302.43 126.472 302.098 132.158 303.93C130.029 282.136 130.7 260.982 134.951 239.67C137.149 228.673 140.316 218.581 144.048 207.925L154.977 176.755C155.542 175.148 156.036 173.713 157.137 172.482C153.167 169.122 150.428 165.197 149.611 160.857C148.902 157.074 150.306 153.505 152.923 154.18C155.542 154.854 153.481 161.721 159.486 167.441C164.486 172.199 171.208 175.584 178.902 177.318C199.675 182.015 220.349 185.596 241.976 187.251C261.818 188.766 281.234 187.839 300.268 183.818C319.774 179.697 341.738 169.042 344.752 152.501C344.936 151.507 346.912 150.869 347.758 150.992C350.826 151.445 350.338 156.05 348.628 159.784L348.606 159.777Z" fill="#010101"/>
<path d="M347.429 173.16C346.331 173.16 344.865 173.558 344.561 174.552C344.103 176.061 344.637 177.378 344.683 179.254L334.701 175.005L344.035 166.955C345.209 169.089 345.843 171.358 347.423 173.154L347.429 173.16Z" fill="#F2D4A2"/>
<path d="M288.491 322.844C292.313 321.342 294.635 319.498 293.055 317.554C292.275 316.596 290.605 316.198 289.337 316.812C269.449 326.34 245.846 327.516 227.408 316.02C226.722 315.59 225.898 316.136 225.546 316.418C223.524 318.068 227.43 320.956 231.736 323.206C228.278 343.15 226.774 365.198 228.522 385.412C229.522 396.938 229.416 408.164 227.674 419.514C227.218 422.492 225.522 424.436 222.332 425.786C216.654 428.188 210.504 429.606 204.192 430.506C203.284 425.798 207.076 421.972 204.734 421.732C201.788 421.432 199.193 426.35 199.475 430.909C195.644 431.357 191.707 431.143 187.471 430.535C187.166 427.09 189.204 423.8 190.943 420.758C187.037 418.428 183.228 424.136 182.602 429.61C180.137 429.078 178.015 428.482 176.183 427.312C173.093 425.338 172.574 421.782 174.574 419.004C179.595 412.02 189.097 412.928 189.41 409.734C189.875 405.012 189.066 400.464 188.326 395.756L185.28 376.424C184.143 369.188 182.533 362.506 180.275 355.4C174.894 338.466 171.719 321.532 169.133 304.224C169.033 303.556 168.362 302.82 167.881 302.728C164.629 302.102 165.737 312.36 166.331 318.374C167.66 331.746 170.292 344.492 174.566 357.412C176.901 364.456 178.39 371.23 179.495 378.428L183.22 402.566C171.483 397.362 164.882 391.04 157.509 382.598C155.938 380.8 155.251 378.686 152.426 377.368C151.779 379.324 152.526 381.316 153.602 383.162C159.837 393.86 170.254 401.996 183.572 407.728L177.214 410.268C171.94 412.376 168.438 416.314 167.339 421.396L137.827 421.592L110.666 422.91C104.637 423.204 98.7229 423.07 92.8008 421.28C95.4796 415.368 108.392 412.456 116.314 411.744L145.36 409.128C146.726 409.004 147.436 408.024 147.642 407.392C147.962 406.418 147.618 405.198 146.406 404.406C134.531 396.614 123.816 387.92 115.276 377.57C109.659 370.766 106.828 363.15 104.836 355.228C100.73 338.902 99.2037 319.552 117.176 309.644C121.793 307.1 127.143 306.394 132.417 308.314C133.05 315.83 138.697 341.998 141.43 341.984C141.995 341.984 142.757 341.398 142.682 340.71L141.047 325.58C137.568 305.788 136.209 286.248 137.537 266.275C138.804 247.207 143.231 229.157 149.435 210.775L161.272 175.699C166.798 178.753 172.459 180.96 179.023 182.431C218.486 191.284 262.589 197.134 302.893 188.409C300.901 197.912 304.991 205.391 316.491 208.101C330.481 211.401 345.355 205.975 351.673 195.055L363.457 219.683C367.355 227.825 368.753 236.139 370.523 244.779L374.913 299.08L374.217 336.842C374.201 337.534 374.951 338.496 375.583 338.508C379.033 338.558 380.863 313.69 380.863 305.756C386.749 302.102 394.625 302.22 400.791 305.708C407.598 309.564 412.03 315.23 414.518 321.672C420.304 336.628 415.87 353.96 407.26 368.05C400.958 378.368 393.067 387.71 384.123 396.644L375.461 403.21C374.295 404.094 373.729 405.326 374.149 406.332C374.623 407.49 376.125 407.968 377.841 408.004L404.744 408.538C413.23 408.704 430.882 411.666 433.98 418.348C427.638 420.09 421.29 420.28 414.688 420.182L370.119 419.526L350.933 420.176C349.567 414.43 344.851 410.218 337.891 407.338C342.309 405.044 345.225 402.566 348.689 399.832C358.633 390.378 365.831 379.2 369.197 367.092C369.585 365.688 369.225 364.094 367.233 363.756C360.687 377.754 350.979 394.334 335.921 402.776C336.465 392.934 338.661 384.014 340.493 374.64L344.881 352.102C346.857 334.72 347.415 317.626 346.857 300.244C346.835 299.472 346.217 298.75 345.751 298.584C341.867 297.198 341.691 318.946 340.943 326.676L337.945 357.558L331.671 387.252C330.405 393.26 329.847 399.072 329.893 405.166C329.953 412.762 339.203 410.568 343.935 418.33C345.629 421.106 344.827 424.234 341.707 426.018C339.921 427.036 338.051 427.74 335.419 428.304C335.585 422.548 330.923 417.35 328.717 418.932C327.115 420.084 331.679 423.394 330.495 429.144C326.283 429.886 322.117 429.837 317.835 429.518C318.873 424.332 315.469 418.452 312.851 418.808C309.723 419.238 314.125 424.014 312.797 429.042C302.647 427.09 291.979 426.636 292.191 419.188L292.635 404.106L292.359 368.76C292.237 353.322 290.911 338.454 288.461 322.868L288.491 322.844Z" fill="#F5D5A3"/>
<path d="M308.792 186.686L318.614 183.438C322.544 186.877 325.2 190.837 327.29 195.166C327.772 196.166 329.306 196.662 330.121 196.503C334.601 195.614 329.832 185.914 323.52 181.396L328.93 178.588C334.151 179.618 339.287 181.482 342.943 184.645C347.613 188.685 346.933 194.112 342.461 197.889C335.761 203.553 326.008 206.011 316.836 203.203C311.92 201.695 308.754 198.538 308.348 194.333L308.792 186.693V186.686Z" fill="#F09897"/>
<path d="M169.667 55.2933L160.44 55.4097L167.873 61.9209C173.857 69.499 178.16 77.972 180.151 86.8559L179.61 95.4393L178.237 94.9427C178.45 92.9625 174.329 80.6758 172.085 86.4267C177.893 97.7877 174.787 109.817 170.567 121.147L168.803 122.348C164.011 125.794 157.272 127.597 150.755 126.64C146.123 125.96 141.246 124.58 137.842 121.95C139.117 121.184 139.575 120.497 139.224 119.896C135.621 114.985 132.798 109.804 130.745 104.354C129.203 109.529 131.516 115.421 135.591 119.547L135.293 120.834C128.99 121.165 123.243 117.965 119.839 114.127C119.58 114.084 119.343 114.022 119.198 113.894C117.764 112.576 118.557 101.515 118.817 99.4982C120.106 89.4555 124.121 81.9388 129.814 73.4658L125.998 76.5742C124.708 78.3522 123.136 79.4558 121.297 79.891C121.64 75.955 123.678 72.0802 126.532 68.8797L126.67 67.0159C136.476 57.1877 152.632 53.2394 167.888 54.1221L169.667 55.2933Z" fill="#EBC091"/>
<path d="M119.841 114.132C118.65 114.046 117.551 113.763 117.024 112.507C112.446 101.545 114.041 89.6994 121.306 79.8958C123.26 77.2535 126.075 74.9113 128.914 72.6245C129.708 71.9867 131.883 72.4589 131.578 72.9617L125.289 83.2188C120.596 90.8766 119.734 99.2025 119.764 107.829L119.848 114.132H119.841Z" fill="#020202"/>
<path d="M137.844 121.955L135.295 120.839C127.579 114.346 127.869 102.397 130.983 103.145C131.334 103.231 131.899 103.746 132.044 104.212C135.608 116.032 145.575 121.697 137.844 121.955Z" fill="#040404"/>
<path d="M179.612 95.4437C180.779 104.334 178.925 113.597 172.85 121.304C172.292 122.009 171.651 122.402 170.873 122.648C170.3 122.831 169.438 122.838 168.805 122.353C173.048 110.22 176.948 99.4107 170.942 86.9584C170.415 85.861 171.186 84.506 172.057 84.0952C176.184 82.1332 178.886 89.9076 179.612 95.4437Z" fill="#020202"/>
<path d="M156.792 113.98C155.67 115.053 154.312 113.864 153.885 113.262C153.373 112.539 152.724 110.712 154.022 110.418C155.792 110.123 158.12 112.717 156.792 113.986V113.98Z" fill="#1C1511"/>
<path d="M367.731 58.2596L366.669 58.3946L356.841 53.6308C356.321 53.3672 366.967 58.131 366.831 59.069C371.279 61.5398 375.187 64.5994 378.835 68.0693C389.503 78.2285 390.001 91.5452 384.581 103.807C383.803 105.567 381.797 106.315 380.377 106.922C378.933 106.621 378.155 105.438 378.529 104.188L380.667 97.0877C385.283 81.7723 377.979 71.4661 362.495 62.4718C355.467 58.3886 347.239 56.0158 338.929 56.5492C336.539 56.7024 333.731 57.7262 331.327 57.708C328.923 57.6896 328.039 57.4688 325.817 58.229C314.377 62.153 302.481 64.2068 289.803 65.1694C260.658 67.3765 231.658 66.132 202.98 61.871C193.721 60.4914 185.541 58.4744 176.985 55.7336C174.818 55.0348 171.704 55.2678 169.659 55.2922C153.496 53.9434 136.172 58.088 126.533 68.8787C125.365 68.7867 124.243 68.6763 123.656 68.0019C121.626 65.6722 126.487 61.0494 131.203 58.2596C142.948 51.3133 157.708 49.1307 171.925 51.6259L173.704 47.8003C178.421 31.3444 189.891 10.8667 209.938 4.66211C218.234 2.09321 226.736 0.940577 235.772 0.419439C264.14 -1.19916 292.635 1.85411 319.239 9.79995C328.673 12.6202 336.517 17.3718 341.791 23.9504C346.033 29.2414 347.827 34.968 349.963 41.1295C355.589 32.6442 376.065 23.8584 382.155 29.2966C383.941 30.8908 384.451 33.245 383.679 35.6362C381.955 40.9639 376.141 44.4465 369.303 46.2491C376.843 47.7879 388.543 52.662 386.619 57.3768C385.069 61.172 375.049 60.9698 367.745 58.2536L367.731 58.2596Z" fill="#010101"/>
<path d="M367.732 58.2573L366.832 59.0667C363.046 56.9637 359.094 55.0938 354.4 53.9718C355.094 53.0092 355.91 52.8622 356.834 52.3594C360.132 54.6464 363.78 56.7859 367.74 58.2573H367.732Z" fill="#DDDDDC"/>
<path d="M368.609 38.7124C368.609 39.2826 367.807 39.5768 367.473 40.6068C368.845 40.2022 370.601 39.16 370.867 37.4862C362.869 37.0018 356.627 43.2616 354.757 42.4584C353.865 42.0784 353.719 41.4714 354.513 40.6928C359.947 35.3954 367.479 31.729 375.935 30.3802C377.063 30.2024 378.209 30.4722 378.881 30.8462C381.285 32.189 380.491 37.382 374.623 40.7908C369.287 43.8932 359.077 45.9225 357.879 45.1867C355.145 43.507 362.457 40.3862 368.601 38.7124H368.609Z" fill="#5EA7C2"/>
<path d="M382.201 54.941C385.925 57.6632 374.607 59.3862 364.281 53.2612C362.169 52.0042 359.817 51.238 358.551 48.761C367.389 48.0008 375.813 50.2814 382.201 54.941Z" fill="#5DA4C0"/>
<path d="M354.895 48.4291C354.123 50.7833 349.635 53.1439 346.751 51.7031C345.127 50.5933 344.997 47.1721 345.805 45.7313C347.103 43.4384 350.751 43.837 352.545 45.2716C351.551 45.6639 350.787 46.9821 351.583 47.4051C352.093 47.5277 353.101 46.3567 353.673 46.3875C354.337 46.4243 355.283 47.2397 354.895 48.4291Z" fill="#5DA3BF"/>
<path d="M341.721 52.4396C341.119 52.918 340.319 52.5562 340.539 52.2006L341.555 51.4342C341.761 51.2748 342.523 51.3728 342.737 51.5446C343.043 51.7836 343.187 52.8812 341.721 52.4458V52.4396Z" fill="#888788"/>
<path d="M319.562 35.7201C327.956 36.2473 335.406 40.2693 342.157 44.3955C341.997 45.6645 342.257 47.4181 341.159 48.1231C328.528 56.2162 304.07 60.8942 287.202 62.0528C257.57 64.0884 228.012 62.6476 198.982 57.7856C190.892 56.4306 183.627 54.6282 176.309 51.863L177.995 48.0987C182.085 32.4584 193.792 12.465 213.108 7.21678C241.932 -0.612561 291.706 3.95506 320.21 13.7893C335.396 19.0252 342.227 28.5038 345.653 41.2871L342.539 43.8559C323.186 28.1544 305.78 34.5368 326.24 40.3305L319.546 35.7201H319.562Z" fill="#5CA6C2"/>
<path d="M301.031 51.5438C309.357 50.483 317.293 49.2876 325.497 47.5708C330.619 46.9332 335.549 45.6394 340.891 47.1416C327.451 49.9986 314.439 52.0158 301.031 51.5438Z" fill="#0B1011"/>
<path d="M380.377 106.921C377.079 111.298 373.691 116.27 368.869 119.728L368.693 117.815C373.867 109.802 375.537 100.501 373.027 91.6911C372.531 101.826 370.425 114.996 359.115 120.893C357.863 122.224 358.711 123.285 360.763 123.07L361.779 123.977L354.605 127.594C347.691 129.813 339.677 128.875 333.2 126.006C333.366 125.173 334.076 124.885 335.312 125.161L335.564 123.972C327.896 112.678 329.382 99.8577 331.718 87.7672C326.78 94.7627 326.316 103.358 326.872 111.249L325.72 112.439C324.728 112.285 324.704 111.47 324.498 110.648C321.012 96.3691 326.804 78.0802 336.038 65.3583C338.371 62.1393 341.525 59.8036 344.843 57.204L338.929 56.548C341.943 54.3286 348.629 55.9532 352.413 57.0078C363.015 59.969 375.035 68.2153 379.935 76.3512C385.673 85.8728 382.895 95.0877 379.735 104.64C380.033 105.382 380.247 106.142 380.377 106.915V106.921Z" fill="#EBC091"/>
<path d="M368.87 119.734L366.084 121.733C364.61 122.788 363.144 123.285 361.772 123.977C360.444 124.228 358.818 124.296 357.704 123.26C356.94 122.548 357.116 120.642 358.628 119.918C361.734 118.428 363.856 116.54 365.496 113.923C370.364 106.16 372.082 97.8527 371.662 88.9688C373.752 89.3059 374.082 90.6915 374.418 91.9423C376.996 101.55 374.746 111.457 368.87 119.734Z" fill="#030303"/>
<path d="M333.19 126.008C328.826 124.077 326.36 117.05 325.72 112.446C324.644 104.727 325.782 92.9428 331.076 86.4008C331.398 86.0086 331.97 85.6038 332.306 85.6344C335.84 85.9348 324.964 105.806 336.656 123.377C337.13 124.088 336.656 125.664 336.038 125.976C335.344 126.327 334.038 126.142 333.19 126.008Z" fill="#020202"/>
<path d="M347.302 123.009C347.53 123.978 346.988 124.935 346.164 125.253C345.25 125.609 343.578 125.444 342.738 124.518C339.06 120.489 340.93 112.789 343.906 113.31C344.706 113.451 345.256 114.34 345.462 115.199L347.31 123.016L347.302 123.009Z" fill="#070606"/>
<path d="M169.669 55.2931C169.699 53.6991 174.408 54.0485 175.835 54.3979C201.996 62.4848 231.539 65.1028 259.813 65.207C282.945 65.2928 306.161 63.9868 327.369 56.7522C331.041 56.7952 334.405 56.4334 337.915 55.6119L338.931 56.556C341.189 56.5254 343.425 56.746 345.623 57.212L345.311 58.236C328.559 71.3871 322.065 94.3234 325.721 112.453C327.101 113.035 327.835 114.347 327.919 116.395L331.109 122.857C332.581 123.93 333.275 124.984 333.191 126.015C335.649 126.15 338.121 126.554 340.609 127.229L349.089 127.664C351.241 127.038 353.081 127.015 354.599 127.602C353.331 128.933 354.049 130.669 354.745 132.354L354.599 133.526C350.225 135.089 344.319 138.497 353.827 136.149L354.935 137.014L354.667 141.508C355.85 141.557 356.642 141.729 357.232 142.151L356.338 143.096C353.371 142.655 348.203 144.12 353.569 145.469L353.767 146.67C353.561 151.385 351.867 155.959 348.607 159.779L347.631 158.871C348.517 157.209 350.059 150.22 345.997 152.629C343.715 164.978 331.673 173.714 318.485 179.281C278.357 196.215 219.327 187.736 177.582 178.098C163.381 174.817 153.909 166.614 152.589 155.192C151.428 155.272 150.81 156.216 150.75 158.013C151.054 159.466 150.666 160.416 149.589 160.863C148.269 160.343 148.331 159.049 147.873 157.976C146.011 153.66 145.156 149.502 145.469 145.156L145.27 144.034L155.221 139.116L152.291 138.902C150.238 139.442 148.712 139.344 147.713 138.614L148.285 132.164L149.292 131.257C151.1 131.612 152.642 131.52 153.932 130.981C152.062 130.043 150.795 129.007 150.132 127.873C150.544 127.444 150.795 127.015 150.75 126.659L152.162 125.776C157.496 126.253 162.854 124.868 167.043 122.201L168.798 122.366C171.691 121.41 172.821 119.724 174.148 117.266C177.667 110.779 179.231 104.237 178.491 97.1498L179.605 95.4576C179.299 81.0681 172.553 66.2982 159.648 56.133L159.77 55.3177L169.66 55.3053L169.669 55.2931Z" fill="#F5D6A5"/>
<path d="M145.468 145.142C144.422 145.658 142.453 145.934 141.332 145.566C139.446 144.946 139.752 143.095 140.966 142.01C142.743 140.415 145.14 139.324 147.719 138.601C152.474 137.265 157.396 137.774 156.907 139.269C156.778 139.668 156.419 139.73 155.885 139.993L145.468 145.137V145.142Z" fill="#080607"/>
<path d="M284.257 158.516C268.391 175.136 225.639 175.836 210.345 159.295C204.239 152.685 205.095 144.182 211.603 137.927C227.623 122.551 268.253 121.049 284.067 136.322C290.927 142.949 290.789 151.674 284.257 158.516Z" fill="#010101"/>
<path d="M241.779 115.97C238.473 118.08 234.071 117.387 231.399 114.683C226.911 110.14 226.211 103.328 230.185 98.454C231.881 96.3756 234.581 95.217 237.147 95.1862C240.085 95.1556 242.931 96.2284 244.701 98.448C247.877 102.409 248.487 107.742 246.091 112.132C245.213 113.733 243.397 114.94 241.779 115.97Z" fill="#FFFFFD"/>
<path d="M238.29 114.848C242.328 114.848 245.6 112.219 245.6 108.975C245.6 105.731 242.328 103.102 238.29 103.102C234.252 103.102 230.98 105.731 230.98 108.975C230.98 112.219 234.252 114.848 238.29 114.848Z" fill="#010101"/>
<path d="M269.764 114.77C266.276 117.633 260.896 117.591 257.126 115.359C252.12 112.403 251.518 106.745 254.966 102.6C257.47 99.5958 262.568 98.1918 266.758 99.9514C273.52 102.784 275.296 110.221 269.764 114.77Z" fill="#FEFEFD"/>
<path d="M256.5 114.039C253.188 111.807 253.584 108.086 256.118 105.885C258.652 103.683 263.216 103.273 266.368 105.4C269.52 107.528 269.558 111.102 267.268 113.34C264.59 115.958 260.102 116.467 256.5 114.032V114.039Z" fill="#010101"/>
</g>
</svg>
