<svg width="70" height="70" viewBox="0 0 70 70" fill="none" xmlns="http://www.w3.org/2000/svg">

<g>

<g id="Group 1321314240">
<g id="Group 1321314234">
<g id="human-resources-employee-crown-woman--Streamline-Freehand" clip-path="url(#clip0_0_1)">
<g id="Group">
<path id="Vector" fill-rule="evenodd" clip-rule="evenodd" d="M62.6209 12.308C61.9353 11.625 61.1047 11.1053 60.1908 10.7872C59.2769 10.4691 58.3031 10.3608 57.3417 10.4705C55.9066 10.6463 54.597 11.3761 53.6924 12.504C52.7878 13.632 52.3599 15.0689 52.5 16.5079C52.577 17.0792 52.7548 17.6322 53.025 18.1413L48.0084 20.1246C47.5556 20.1944 47.1076 20.2918 46.6667 20.4163C45.0042 17.9955 42.3792 13.4746 40.4542 10.7621C40.2209 10.4705 40.0167 10.2371 39.8417 9.97462C40.2002 9.72723 40.5325 9.44381 40.8334 9.12879C41.4669 8.66885 41.9614 8.04315 42.2625 7.32045C42.6127 6.37917 42.6633 5.35268 42.4074 4.38154C42.1516 3.41039 41.6018 2.54206 40.8334 1.89545C40.1692 1.22223 39.365 0.703392 38.4779 0.375755C37.5907 0.0481176 36.6424 -0.0802972 35.7 -0.000380641C34.2543 0.161391 32.9302 0.88517 32.0134 2.01473C31.0967 3.14429 30.6609 4.58903 30.8 6.03712C30.9171 6.9068 31.2698 7.72791 31.8198 8.41163C32.3699 9.09536 33.0964 9.61567 33.9209 9.91629C31.4417 12.833 27.3 18.6663 25.8417 20.6496L24.4125 20.4163C22.5051 19.6592 20.5578 19.0068 18.5792 18.4621C18.9059 17.5415 18.9499 16.5442 18.7057 15.5983C18.4614 14.6524 17.94 13.8011 17.2084 13.1538C16.5228 12.4709 15.6922 11.9511 14.7783 11.633C13.8644 11.3149 12.8907 11.2067 11.9292 11.3163C10.4692 11.4987 9.1406 12.2512 8.23349 13.4097C7.32639 14.5682 6.91442 16.0385 7.08754 17.4996C7.18577 18.1606 7.41658 18.7948 7.76611 19.3643C8.11564 19.9339 8.57667 20.4268 9.12152 20.8137C9.66637 21.2005 10.2838 21.4732 10.9367 21.6155C11.5896 21.7577 12.2645 21.7665 12.9209 21.6413V23.6538L13.4459 26.5704L14.7 30.9454L15.8667 34.8829C16.2459 36.1371 17.675 35.7288 17.5584 34.3288L16.5375 30.4788L15.4875 26.1038L15.3417 23.333C15.3417 23.0413 15.1667 22.0788 15.1375 21.408C15.6432 21.2062 16.1311 20.9623 16.5959 20.6788C17.1344 20.7126 17.6702 20.7808 18.2 20.8829C20.0551 21.5052 21.8757 22.2257 23.6542 23.0413C24.6064 23.3192 25.5831 23.5047 26.5709 23.5955C26.8308 23.6127 27.0908 23.5627 27.3258 23.4504C27.5607 23.338 27.7628 23.167 27.9125 22.9538C28.35 22.3121 34.2709 14.2038 36.9542 11.2871C39.1125 13.8246 43.0209 20.4454 44.8584 22.9538C45.0237 23.1719 45.2413 23.345 45.491 23.4571C45.7407 23.5693 46.0146 23.6168 46.2875 23.5955C47.1523 23.451 48.0018 23.2264 48.825 22.9246C49.5542 22.6621 50.2834 22.3996 50.9834 22.0788C51.6834 21.758 53.0542 21.1455 54.075 20.6788C54.2792 20.6788 55.0084 20.5038 55.2125 20.2413C55.5261 20.6098 55.7105 21.0707 55.7375 21.5538C55.8736 22.5212 55.8736 23.503 55.7375 24.4705C55.3649 26.9728 54.7894 29.4406 54.0167 31.8496C53.4917 33.5996 52.7042 35.0871 52.0334 36.7788C51.3625 38.4704 52.7042 39.6954 53.2875 38.4121C54.1334 36.5455 55.3584 34.4454 56.0292 32.5788C56.9161 30.079 57.6084 27.5144 58.1 24.908C58.3385 23.5279 58.3385 22.1172 58.1 20.7371C59.5584 20.7371 59.2375 21.1746 59.9959 20.9121C60.9449 20.6417 61.8351 20.1966 62.6209 19.5996C63.2464 19.1314 63.739 18.5081 64.05 17.7913C64.4048 16.8413 64.4579 15.805 64.2021 14.8237C63.9464 13.8424 63.3942 12.9639 62.6209 12.308ZM16.3625 17.7913C16.1292 18.7246 9.88754 21.8455 9.71254 17.1205C9.7643 16.3828 10.0943 15.6924 10.6358 15.1888C11.1772 14.6852 11.8898 14.4061 12.6292 14.408C13.152 14.3306 13.6856 14.3718 14.1904 14.5283C14.6952 14.6847 15.1584 14.9526 15.5459 15.3121C15.9105 15.5994 16.1824 15.9878 16.3277 16.4287C16.4729 16.8696 16.485 17.3435 16.3625 17.7913ZM33.425 5.83295C33.4838 5.10053 33.8169 4.41729 34.3576 3.91981C34.8984 3.42232 35.6069 3.14726 36.3417 3.14962C36.8348 3.08896 37.3351 3.13575 37.8084 3.28679C38.2817 3.43783 38.7166 3.68954 39.0834 4.02462C39.4977 4.27674 39.8256 4.64887 40.0235 5.09164C40.2215 5.53442 40.2801 6.02691 40.1917 6.50379C40.0493 6.98474 39.7519 7.40515 39.3459 7.69962C39.3459 7.69962 33.5417 9.47879 33.425 5.83295ZM61.7459 16.9163C61.5925 17.3918 61.2973 17.8091 60.9 18.1121C60.4293 18.4987 59.8692 18.7611 59.271 18.8755C58.6727 18.9899 58.0553 18.9525 57.4752 18.7669C56.8951 18.5813 56.3707 18.2532 55.95 17.8128C55.5292 17.3723 55.2256 16.8335 55.0667 16.2455C55.1255 15.513 55.4585 14.8298 55.9993 14.3323C56.54 13.8348 57.2486 13.5598 57.9834 13.5621C58.4764 13.5015 58.9768 13.5483 59.4501 13.6993C59.9233 13.8503 60.3583 14.102 60.725 14.4371C61.1229 14.7086 61.432 15.0913 61.6135 15.5374C61.7951 15.9836 61.8411 16.4733 61.7459 16.9455V16.9163Z" fill="black"/>
<path id="Vector_2" fill-rule="evenodd" clip-rule="evenodd" d="M51.158 39.3751C50.0435 38.4799 48.7797 37.7887 47.4247 37.3334C43.1211 36.0197 38.653 35.3225 34.1538 35.2626C28.9922 34.9463 23.8158 35.5588 18.8705 37.0709L18.5205 37.2459C18.0495 37.4305 17.5997 37.6652 17.1788 37.9459C16.2913 38.4367 15.578 39.1908 15.1372 40.1042C14.5649 41.4927 14.0779 42.9148 13.6788 44.3626C13.1247 46.4334 12.7747 48.2417 12.5122 49.3792C12.4121 49.5578 12.3244 49.7429 12.2497 49.9334L11.6663 50.1667C10.3746 50.4589 9.09921 50.8191 7.8455 51.2459C6.64966 51.7126 6.03716 52.4417 5.94966 53.0251C5.16216 57.1376 7.78716 61.7751 13.2705 65.2751C19.3721 68.758 26.352 70.3991 33.3663 70.0001C33.5601 69.9636 33.7351 69.8606 33.861 69.7088C33.9869 69.557 34.0558 69.366 34.0558 69.1688C34.0558 68.9716 33.9869 68.7806 33.861 68.6288C33.7351 68.4771 33.5601 68.374 33.3663 68.3376C26.6826 68.5821 20.073 66.8688 14.3497 63.4084C10.1788 60.6376 7.84549 57.1084 8.37049 53.9001C7.90383 53.1126 10.8205 53.1709 12.133 52.8792C12.9592 52.7373 13.7451 52.419 14.4372 51.9459C14.8572 51.4919 15.1579 50.9407 15.3122 50.3417C16.0385 47.2445 17.0139 44.211 18.2288 41.2709C18.5788 40.3667 20.008 39.9001 21.8455 39.4334C25.931 38.525 30.1188 38.1622 34.2997 38.3542C35.8163 38.3542 37.2163 38.5001 38.733 38.6459C37.662 40.4344 36.2557 41.9991 34.5913 43.2542C33.795 43.84 32.9566 44.3665 32.083 44.8292C31.1956 45.2776 30.2797 45.6673 29.3413 45.9959C27.6113 46.6314 25.7881 46.9763 23.9455 47.0167C24.0516 45.966 24.227 44.9235 24.4705 43.8959C24.516 43.6799 24.4782 43.4546 24.3646 43.2653C24.251 43.0759 24.07 42.9366 23.858 42.8751C23.6531 42.8207 23.4351 42.8481 23.25 42.9515C23.065 43.0549 22.9274 43.2262 22.8663 43.4292C21.858 46.3424 21.4126 49.4206 21.5538 52.5001C21.7103 54.672 22.3909 56.7736 23.5372 58.6251C24.8682 60.5063 26.7708 61.9076 28.9622 62.6209C32.023 63.6357 35.2758 63.9351 38.4705 63.4959C39.6014 63.3761 40.7104 63.1013 41.7663 62.6792C42.5872 62.3743 43.3331 61.8969 43.9538 61.2792C45.4891 59.534 46.5002 57.3906 46.8705 55.0959C47.4516 51.9261 47.3822 48.6713 46.6663 45.5292C46.6041 45.2881 46.4509 45.0804 46.2388 44.9498C46.0266 44.8193 45.7722 44.7761 45.5288 44.8292C45.2899 44.8849 45.0825 45.0324 44.9515 45.2398C44.8205 45.4472 44.7764 45.6979 44.8288 45.9376C45.2667 48.3582 45.2667 50.8378 44.8288 53.2584C44.5549 55.5562 43.5296 57.6992 41.9122 59.3542C41.547 59.6718 41.1199 59.9101 40.658 60.0542C39.8031 60.3123 38.9231 60.4785 38.033 60.5501C35.7525 60.7952 33.4473 60.6671 31.208 60.1709C29.1128 59.8424 27.1904 58.8144 25.7538 57.2542C24.4795 55.435 23.751 53.2899 23.6538 51.0709V49.1751C25.7423 49.5985 27.8945 49.5985 29.983 49.1751C31.1564 48.9089 32.2858 48.4767 33.3372 47.8917C34.3997 47.3384 35.3811 46.6416 36.2538 45.8209C38.2035 43.9811 39.6838 41.7007 40.5705 39.1709C42.5502 39.4188 44.5029 39.8484 46.4038 40.4542C48.2122 41.0667 49.583 41.6792 49.9913 42.6709C51.4205 46.1126 52.1788 49.2917 52.7038 50.8084C52.8419 51.3498 53.1241 51.8437 53.5205 52.2376C53.9714 52.5434 54.4761 52.7611 55.008 52.8792C55.9413 53.1709 57.6622 54.2792 58.4205 54.1917C58.2835 56.2336 57.6781 58.2166 56.6514 59.9869C55.6246 61.7571 54.204 63.2672 52.4997 64.4001C48.4621 66.8197 43.8483 68.1091 39.1413 68.1334C39.0175 68.1331 38.895 68.1583 38.7813 68.2074C38.6676 68.2564 38.5652 68.3283 38.4804 68.4185C38.3957 68.5087 38.3303 68.6154 38.2885 68.732C38.2466 68.8485 38.2292 68.9724 38.2372 69.0959C38.2522 69.3461 38.3643 69.5805 38.5494 69.7493C38.7346 69.9182 38.9784 70.0081 39.2288 70.0001C44.3416 70.0954 49.3837 68.7946 53.8122 66.2376C56.0406 64.8309 57.8844 62.8923 59.1776 60.5961C60.4708 58.2999 61.1728 55.7183 61.2205 53.0834C61.2248 52.7494 61.1302 52.4216 60.9485 52.1413C60.7669 51.8611 60.5063 51.6408 60.1997 51.5084C58.9843 50.9744 57.7256 50.545 56.4372 50.2251C56.0872 50.2251 55.7372 49.9042 55.533 49.8459L55.4163 49.5834C55.0955 48.5917 54.7163 47.0167 54.1622 45.1501C53.783 43.9834 53.4038 42.7001 52.8788 41.3876C52.3513 40.6787 51.7764 40.0063 51.158 39.3751Z" fill="black"/>
</g>
</g>
</g>
</g>
</g>
<defs>
<filter id="filter0_dd_0_1" x="-815.244" y="-2392" width="1221" height="4799" filterUnits="userSpaceOnUse" color-interpolation-filters="sRGB">
<feFlood flood-opacity="0" result="BackgroundImageFix"/>
<feColorMatrix in="SourceAlpha" type="matrix" values="0 0 0 0 0 0 0 0 0 0 0 0 0 0 0 0 0 0 127 0" result="hardAlpha"/>
<feOffset dy="2"/>
<feGaussianBlur stdDeviation="5"/>
<feColorMatrix type="matrix" values="0 0 0 0 0 0 0 0 0 0 0 0 0 0 0 0 0 0 0.1 0"/>
<feBlend mode="normal" in2="BackgroundImageFix" result="effect1_dropShadow_0_1"/>
<feColorMatrix in="SourceAlpha" type="matrix" values="0 0 0 0 0 0 0 0 0 0 0 0 0 0 0 0 0 0 127 0" result="hardAlpha"/>
<feOffset/>
<feGaussianBlur stdDeviation="1"/>
<feColorMatrix type="matrix" values="0 0 0 0 0 0 0 0 0 0 0 0 0 0 0 0 0 0 0.2 0"/>
<feBlend mode="normal" in2="effect1_dropShadow_0_1" result="effect2_dropShadow_0_1"/>
<feBlend mode="normal" in="SourceGraphic" in2="effect2_dropShadow_0_1" result="shape"/>
</filter>
<clipPath id="clip0_0_1">

</clipPath>
</defs>
</svg>
