<svg width="1148" height="588" viewBox="0 0 1148 588" fill="none" xmlns="http://www.w3.org/2000/svg">
<g clip-path="url(#clip0_135_904)">
<rect width="1148" height="588" rx="20" fill="#B9E3DE"/>
<g opacity="0.1">
<g clip-path="url(#clip1_135_904)">
<path d="M664.863 26.9744C669.539 28.6864 675.153 25.0874 677.404 18.9364C679.654 12.7853 677.688 6.41265 673.013 4.70168C668.336 2.99205 662.723 6.58999 660.472 12.741C658.221 18.8921 660.187 25.2647 664.863 26.9744Z" fill="#73A79D"/>
<path d="M647.097 36.7836C651.988 36.3595 655.501 30.8015 654.945 24.3654C654.388 17.9315 649.971 13.0588 645.08 13.4805C640.189 13.9059 636.676 19.465 637.233 25.9C637.79 32.3339 642.206 37.2064 647.097 36.7836Z" fill="#73A79D"/>
<path d="M685.189 36.5673C689.482 39.0906 695.65 36.5565 698.968 30.91C702.285 25.2597 701.494 18.6389 697.201 16.1158C692.908 13.5949 686.738 16.1302 683.422 21.7767C680.104 27.4259 680.896 34.0466 685.189 36.5673Z" fill="#73A79D"/>
<path d="M708.182 43.2591C705.398 39.2154 698.83 38.9029 693.509 42.5631C688.187 46.2257 686.131 52.4712 688.913 56.5161C691.696 60.5596 698.265 60.8725 703.586 57.2109C708.906 53.5495 710.964 47.3039 708.182 43.2591Z" fill="#73A79D"/>
<path d="M679.601 44.0231C679.07 40.3499 676.819 36.9999 673.22 35.3009C669.621 33.6031 665.603 33.995 662.431 35.9191C658.925 38.0468 656.682 40.8264 653.662 42.0414C650.643 43.2563 642.186 39.638 636.92 49.1999C633.201 55.9536 636.615 64.4914 643.587 67.7813C648.886 70.2818 653.08 70.0026 656.159 71.4547C659.238 72.9067 661.688 76.3226 666.987 78.8228C673.959 82.1128 682.719 79.3213 685.568 72.1568C689.602 62.0136 681.432 57.7855 680.45 54.6823C679.468 51.5796 680.188 48.081 679.601 44.0231Z" fill="#73A79D"/>
</g>
<g clip-path="url(#clip2_135_904)">
<path d="M664.863 146.097C669.539 147.809 675.153 144.21 677.404 138.059C679.654 131.908 677.688 125.536 673.013 123.825C668.336 122.115 662.723 125.713 660.472 131.864C658.221 138.015 660.187 144.388 664.863 146.097Z" fill="#73A79D"/>
<path d="M647.097 155.907C651.988 155.483 655.501 149.925 654.945 143.488C654.388 137.055 649.971 132.182 645.08 132.604C640.189 133.029 636.676 138.588 637.233 145.023C637.79 151.457 642.206 156.329 647.097 155.907Z" fill="#73A79D"/>
<path d="M685.189 155.69C689.482 158.214 695.65 155.68 698.968 150.033C702.285 144.383 701.494 137.762 697.201 135.239C692.908 132.718 686.738 135.253 683.422 140.9C680.104 146.549 680.896 153.17 685.189 155.69Z" fill="#73A79D"/>
<path d="M708.182 162.382C705.398 158.338 698.83 158.026 693.509 161.686C688.187 165.349 686.131 171.594 688.913 175.639C691.696 179.683 698.265 179.996 703.586 176.334C708.906 172.673 710.964 166.427 708.182 162.382Z" fill="#73A79D"/>
<path d="M679.601 163.146C679.07 159.473 676.819 156.123 673.22 154.424C669.621 152.726 665.603 153.118 662.431 155.042C658.925 157.17 656.682 159.949 653.662 161.164C650.643 162.379 642.186 158.761 636.92 168.323C633.201 175.077 636.615 183.614 643.587 186.904C648.886 189.405 653.08 189.126 656.159 190.578C659.238 192.03 661.688 195.446 666.987 197.946C673.959 201.236 682.719 198.444 685.568 191.28C689.602 181.137 681.432 176.909 680.45 173.805C679.468 170.703 680.188 167.204 679.601 163.146Z" fill="#73A79D"/>
</g>
<g clip-path="url(#clip3_135_904)">
<path d="M663.917 265.22C668.592 266.932 674.207 263.333 676.458 257.183C678.708 251.031 676.742 244.659 672.067 242.948C667.39 241.238 661.776 244.836 659.525 250.987C657.275 257.138 659.241 263.511 663.917 265.22Z" fill="#73A79D"/>
<path d="M646.15 275.03C651.042 274.606 654.554 269.048 653.999 262.611C653.442 256.178 649.025 251.305 644.133 251.727C639.243 252.152 635.73 257.711 636.286 264.146C636.844 270.58 641.26 275.453 646.15 275.03Z" fill="#73A79D"/>
<path d="M684.243 274.813C688.535 277.337 694.704 274.803 698.021 269.156C701.339 263.506 700.548 256.885 696.255 254.362C691.962 251.841 685.792 254.376 682.475 260.023C679.158 265.672 679.95 272.293 684.243 274.813Z" fill="#73A79D"/>
<path d="M707.235 281.505C704.452 277.462 697.884 277.149 692.563 280.809C687.241 284.472 685.184 290.717 687.967 294.762C690.749 298.806 697.319 299.119 702.639 295.457C707.96 291.796 710.017 285.55 707.235 281.505Z" fill="#73A79D"/>
<path d="M678.655 282.269C678.124 278.596 675.872 275.246 672.273 273.547C668.675 271.849 664.657 272.241 661.485 274.165C657.979 276.293 655.736 279.073 652.716 280.288C649.697 281.502 641.24 277.884 635.974 287.446C632.255 294.2 635.669 302.738 642.641 306.027C647.94 308.528 652.134 308.249 655.213 309.701C658.291 311.153 660.742 314.569 666.041 317.069C673.012 320.359 681.773 317.567 684.622 310.403C688.656 300.26 680.486 296.032 679.503 292.928C678.522 289.826 679.242 286.327 678.655 282.269Z" fill="#73A79D"/>
</g>
<g clip-path="url(#clip4_135_904)">
<path d="M661.866 384.343C666.542 386.056 672.156 382.457 674.407 376.306C676.657 370.154 674.691 363.782 670.016 362.071C665.339 360.361 659.726 363.959 657.475 370.11C655.224 376.261 657.19 382.634 661.866 384.343Z" fill="#73A79D"/>
<path d="M644.1 394.153C648.991 393.729 652.504 388.171 651.948 381.735C651.391 375.301 646.974 370.428 642.083 370.85C637.192 371.275 633.679 376.834 634.236 383.269C634.793 389.703 639.209 394.576 644.1 394.153Z" fill="#73A79D"/>
<path d="M682.192 393.936C686.485 396.46 692.653 393.926 695.971 388.279C699.288 382.629 698.497 376.008 694.204 373.485C689.911 370.964 683.741 373.499 680.424 379.146C677.107 384.795 677.899 391.416 682.192 393.936Z" fill="#73A79D"/>
<path d="M705.185 400.628C702.401 396.585 695.833 396.272 690.512 399.932C685.19 403.595 683.134 409.84 685.916 413.885C688.699 417.929 695.268 418.242 700.589 414.58C705.909 410.919 707.967 404.673 705.185 400.628Z" fill="#73A79D"/>
<path d="M676.604 401.392C676.073 397.719 673.822 394.369 670.223 392.67C666.624 390.972 662.606 391.364 659.434 393.288C655.928 395.416 653.685 398.196 650.665 399.411C647.646 400.625 639.189 397.007 633.923 406.569C630.204 413.323 633.618 421.861 640.59 425.15C645.889 427.651 650.083 427.372 653.162 428.824C656.241 430.276 658.691 433.692 663.99 436.192C670.962 439.482 679.722 436.69 682.571 429.526C686.605 419.383 678.435 415.155 677.453 412.051C676.471 408.949 677.191 405.45 676.604 401.392Z" fill="#73A79D"/>
</g>
<g clip-path="url(#clip5_135_904)">
<path d="M661.866 503.467C666.542 505.179 672.156 501.58 674.407 495.429C676.657 489.277 674.691 482.905 670.016 481.194C665.339 479.484 659.726 483.082 657.475 489.233C655.224 495.384 657.19 501.757 661.866 503.467Z" fill="#73A79D"/>
<path d="M644.1 513.276C648.991 512.852 652.504 507.294 651.948 500.858C651.391 494.424 646.974 489.551 642.083 489.973C637.192 490.398 633.679 495.957 634.236 502.392C634.793 508.826 639.209 513.699 644.1 513.276Z" fill="#73A79D"/>
<path d="M682.192 513.06C686.485 515.583 692.653 513.049 695.971 507.402C699.288 501.752 698.497 495.131 694.204 492.608C689.911 490.087 683.741 492.622 680.424 498.269C677.107 503.918 677.899 510.539 682.192 513.06Z" fill="#73A79D"/>
<path d="M705.185 519.751C702.401 515.708 695.833 515.395 690.512 519.055C685.19 522.718 683.134 528.963 685.916 533.008C688.699 537.052 695.268 537.365 700.589 533.703C705.909 530.042 707.967 523.796 705.185 519.751Z" fill="#73A79D"/>
<path d="M676.604 520.515C676.073 516.842 673.822 513.492 670.223 511.793C666.624 510.095 662.606 510.487 659.434 512.411C655.928 514.539 653.685 517.319 650.665 518.534C647.646 519.748 639.189 516.13 633.923 525.692C630.204 532.446 633.618 540.984 640.59 544.273C645.889 546.774 650.083 546.495 653.162 547.947C656.241 549.399 658.691 552.815 663.99 555.315C670.962 558.605 679.722 555.814 682.571 548.649C686.605 538.506 678.435 534.278 677.453 531.175C676.471 528.072 677.191 524.573 676.604 520.515Z" fill="#73A79D"/>
</g>
<g clip-path="url(#clip6_135_904)">
<path d="M775.887 -22.7161C775.357 -26.3894 773.105 -29.7394 769.506 -31.4384C765.907 -33.1361 761.89 -32.7442 758.717 -30.8202C755.211 -28.6924 752.968 -25.9128 749.949 -24.6978C746.929 -23.483 738.472 -27.1013 733.206 -17.5393C729.487 -10.7856 732.901 -2.24783 739.873 1.04199C745.172 3.54254 749.366 3.26333 752.445 4.71541C755.524 6.16748 757.975 9.58334 763.273 12.0836C770.245 15.3735 779.005 12.5821 781.855 5.4175C785.889 -4.72568 777.718 -8.95379 776.736 -12.0569C775.754 -15.1596 776.474 -18.6582 775.887 -22.7161Z" fill="#73A79D"/>
</g>
<g clip-path="url(#clip7_135_904)">
<path d="M761.149 79.3581C765.825 81.0701 771.439 77.4712 773.69 71.3202C775.94 65.1691 773.974 58.7964 769.299 57.0855C764.622 55.3758 759.009 58.9738 756.758 65.1247C754.508 71.2759 756.474 77.6485 761.149 79.3581Z" fill="#73A79D"/>
<path d="M743.383 89.1674C748.274 88.7433 751.787 83.1853 751.231 76.7492C750.674 70.3153 746.257 65.4426 741.366 65.8643C736.475 66.2897 732.962 71.8488 733.519 78.2838C734.076 84.7177 738.492 89.5902 743.383 89.1674Z" fill="#73A79D"/>
<path d="M781.475 88.9511C785.768 91.4743 791.936 88.9403 795.254 83.2938C798.571 77.6435 797.781 71.0227 793.487 68.4996C789.194 65.9787 783.025 68.514 779.708 74.1605C776.39 79.8097 777.182 86.4304 781.475 88.9511Z" fill="#73A79D"/>
<path d="M804.468 95.6429C801.685 91.5992 795.116 91.2867 789.795 94.9469C784.473 98.6095 782.417 104.855 785.199 108.9C787.982 112.943 794.551 113.256 799.872 109.595C805.192 105.933 807.25 99.6877 804.468 95.6429Z" fill="#73A79D"/>
<path d="M775.887 96.4069C775.357 92.7337 773.105 89.3836 769.506 87.6847C765.907 85.9869 761.89 86.3788 758.717 88.3029C755.211 90.4306 752.968 93.2102 749.949 94.4252C746.929 95.64 738.472 92.0218 733.206 101.584C729.487 108.337 732.901 116.875 739.873 120.165C745.172 122.666 749.366 122.386 752.445 123.838C755.524 125.291 757.975 128.706 763.273 131.207C770.245 134.497 779.005 131.705 781.855 124.541C785.889 114.397 777.718 110.169 776.736 107.066C775.754 103.963 776.474 100.465 775.887 96.4069Z" fill="#73A79D"/>
</g>
<g clip-path="url(#clip8_135_904)">
<path d="M760.203 198.481C764.879 200.193 770.493 196.594 772.744 190.443C774.994 184.292 773.028 177.919 768.353 176.209C763.676 174.499 758.063 178.097 755.811 184.248C753.561 190.399 755.527 196.772 760.203 198.481Z" fill="#73A79D"/>
<path d="M742.437 208.29C747.328 207.866 750.841 202.308 750.285 195.872C749.728 189.438 745.311 184.566 740.42 184.987C735.529 185.413 732.016 190.972 732.573 197.407C733.13 203.841 737.546 208.713 742.437 208.29Z" fill="#73A79D"/>
<path d="M780.529 208.074C784.822 210.597 790.99 208.063 794.307 202.417C797.625 196.767 796.834 190.146 792.541 187.623C788.248 185.102 782.078 187.637 778.761 193.284C775.444 198.933 776.236 205.553 780.529 208.074Z" fill="#73A79D"/>
<path d="M803.522 214.766C800.738 210.722 794.17 210.41 788.849 214.07C783.527 217.733 781.47 223.978 784.253 228.023C787.036 232.066 793.605 232.379 798.926 228.718C804.246 225.056 806.304 218.811 803.522 214.766Z" fill="#73A79D"/>
<path d="M774.941 215.53C774.41 211.857 772.159 208.507 768.559 206.808C764.961 205.11 760.943 205.502 757.771 207.426C754.265 209.554 752.022 212.333 749.002 213.548C745.983 214.763 737.526 211.145 732.26 220.707C728.541 227.46 731.955 235.998 738.927 239.288C744.226 241.789 748.42 241.509 751.499 242.962C754.578 244.414 757.028 247.829 762.327 250.33C769.299 253.62 778.059 250.828 780.908 243.664C784.942 233.52 776.772 229.292 775.789 226.189C774.808 223.086 775.528 219.588 774.941 215.53Z" fill="#73A79D"/>
</g>
<g clip-path="url(#clip9_135_904)">
<path d="M758.152 317.604C762.828 319.316 768.442 315.717 770.693 309.566C772.943 303.415 770.977 297.043 766.302 295.332C761.625 293.622 756.012 297.22 753.761 303.371C751.511 309.522 753.477 315.895 758.152 317.604Z" fill="#73A79D"/>
<path d="M740.386 327.413C745.277 326.989 748.79 321.431 748.234 314.995C747.677 308.561 743.26 303.689 738.369 304.11C733.478 304.536 729.965 310.095 730.522 316.53C731.079 322.964 735.495 327.836 740.386 327.413Z" fill="#73A79D"/>
<path d="M778.478 327.197C782.771 329.72 788.939 327.186 792.257 321.54C795.574 315.89 794.783 309.269 790.49 306.746C786.197 304.225 780.028 306.76 776.711 312.407C773.393 318.056 774.185 324.676 778.478 327.197Z" fill="#73A79D"/>
<path d="M801.471 333.889C798.687 329.845 792.119 329.533 786.798 333.193C781.476 336.856 779.42 343.101 782.202 347.146C784.985 351.189 791.554 351.502 796.875 347.841C802.195 344.179 804.253 337.934 801.471 333.889Z" fill="#73A79D"/>
<path d="M772.89 334.653C772.36 330.98 770.108 327.63 766.509 325.931C762.91 324.233 758.892 324.625 755.72 326.549C752.214 328.677 749.971 331.456 746.952 332.671C743.932 333.886 735.475 330.268 730.209 339.83C726.49 346.584 729.904 355.121 736.876 358.411C742.175 360.912 746.369 360.632 749.448 362.085C752.527 363.537 754.977 366.952 760.276 369.453C767.248 372.743 776.008 369.951 778.857 362.787C782.891 352.643 774.721 348.415 773.739 345.312C772.757 342.21 773.477 338.711 772.89 334.653Z" fill="#73A79D"/>
</g>
<g clip-path="url(#clip10_135_904)">
<path d="M758.152 436.727C762.828 438.439 768.442 434.84 770.693 428.689C772.943 422.538 770.977 416.166 766.302 414.455C761.625 412.745 756.012 416.343 753.761 422.494C751.511 428.645 753.477 435.018 758.152 436.727Z" fill="#73A79D"/>
<path d="M740.386 446.536C745.277 446.112 748.79 440.554 748.234 434.118C747.677 427.684 743.26 422.812 738.369 423.233C733.478 423.659 729.965 429.218 730.522 435.653C731.079 442.087 735.495 446.959 740.386 446.536Z" fill="#73A79D"/>
<path d="M778.478 446.32C782.771 448.843 788.939 446.309 792.257 440.663C795.574 435.013 794.783 428.392 790.49 425.869C786.197 423.348 780.028 425.883 776.711 431.53C773.393 437.179 774.185 443.8 778.478 446.32Z" fill="#73A79D"/>
<path d="M801.471 453.012C798.687 448.968 792.119 448.656 786.798 452.316C781.476 455.979 779.42 462.224 782.202 466.269C784.985 470.313 791.554 470.625 796.875 466.964C802.195 463.302 804.253 457.057 801.471 453.012Z" fill="#73A79D"/>
<path d="M772.89 453.776C772.36 450.103 770.108 446.753 766.509 445.054C762.91 443.356 758.892 443.748 755.72 445.672C752.214 447.8 749.971 450.579 746.952 451.794C743.932 453.009 735.475 449.391 730.209 458.953C726.49 465.707 729.904 474.244 736.876 477.534C742.175 480.035 746.369 479.756 749.448 481.208C752.527 482.66 754.977 486.076 760.276 488.576C767.248 491.866 776.008 489.074 778.857 481.91C782.891 471.767 774.721 467.538 773.739 464.435C772.757 461.333 773.477 457.834 772.89 453.776Z" fill="#73A79D"/>
</g>
<g clip-path="url(#clip11_135_904)">
<path d="M757.206 555.85C761.881 557.562 767.496 553.963 769.747 547.812C771.997 541.661 770.031 535.289 765.356 533.578C760.679 531.868 755.065 535.466 752.814 541.617C750.564 547.768 752.53 554.141 757.206 555.85Z" fill="#73A79D"/>
<path d="M739.44 565.66C744.331 565.235 747.844 559.677 747.288 553.241C746.731 546.807 742.314 541.935 737.423 542.356C732.532 542.782 729.019 548.341 729.576 554.776C730.133 561.21 734.549 566.082 739.44 565.66Z" fill="#73A79D"/>
<path d="M777.532 565.443C781.825 567.967 787.993 565.432 791.31 559.786C794.628 554.136 793.837 547.515 789.544 544.992C785.251 542.471 779.081 545.006 775.764 550.653C772.447 556.302 773.239 562.923 777.532 565.443Z" fill="#73A79D"/>
<path d="M800.525 572.135C797.741 568.091 791.173 567.779 785.852 571.439C780.53 575.102 778.473 581.347 781.256 585.392C784.038 589.436 790.608 589.748 795.929 586.087C801.249 582.425 803.306 576.18 800.525 572.135Z" fill="#73A79D"/>
<path d="M771.944 572.899C771.413 569.226 769.162 565.876 765.562 564.177C761.964 562.479 757.946 562.871 754.774 564.795C751.268 566.923 749.025 569.702 746.005 570.917C742.986 572.132 734.529 568.514 729.263 578.076C725.544 584.83 728.958 593.367 735.93 596.657C741.229 599.158 745.423 598.879 748.502 600.331C751.58 601.783 754.031 605.199 759.33 607.699C766.302 610.989 775.062 608.197 777.911 601.033C781.945 590.89 773.775 586.661 772.792 583.558C771.811 580.456 772.531 576.957 771.944 572.899Z" fill="#73A79D"/>
</g>
<g clip-path="url(#clip12_135_904)">
<path d="M865.32 2.6931C869.996 4.40511 875.61 0.806134 877.861 -5.34484C880.111 -11.496 878.145 -17.8686 873.47 -19.5796C868.793 -21.2892 863.18 -17.6913 860.929 -11.5403C858.679 -5.38917 860.645 0.983472 865.32 2.6931Z" fill="#73A79D"/>
<path d="M847.554 12.5023C852.445 12.0782 855.958 6.52023 855.402 0.0841192C854.845 -6.34976 850.428 -11.2224 845.537 -10.8007C840.646 -10.3753 837.133 -4.81628 837.69 1.61879C838.247 8.05267 842.663 12.9252 847.554 12.5023Z" fill="#73A79D"/>
<path d="M885.646 12.2861C889.939 14.8093 896.107 12.2752 899.425 6.62872C902.742 0.978476 901.951 -5.64238 897.658 -8.16546C893.365 -10.6863 887.196 -8.15108 883.879 -2.50455C880.561 3.14465 881.353 9.76537 885.646 12.2861Z" fill="#73A79D"/>
<path d="M908.639 18.9778C905.855 14.9342 899.287 14.6216 893.966 18.2818C888.644 21.9444 886.588 28.19 889.37 32.2348C892.153 36.2784 898.722 36.5912 904.043 32.9297C909.363 29.2683 911.421 23.0227 908.639 18.9778Z" fill="#73A79D"/>
<path d="M880.058 19.7419C879.527 16.0686 877.276 12.7186 873.677 11.0197C870.078 9.32188 866.06 9.71378 862.888 11.6378C859.382 13.7656 857.139 16.5452 854.12 17.7602C851.1 18.975 842.643 15.3568 837.377 24.9187C833.658 31.6724 837.072 40.2102 844.044 43.5C849.343 46.0005 853.537 45.7213 856.616 47.1734C859.695 48.6255 862.145 52.0413 867.444 54.5416C874.416 57.8316 883.176 55.0401 886.025 47.8755C890.059 37.7323 881.889 33.5042 880.907 30.4011C879.925 27.2984 880.645 23.7998 880.058 19.7419Z" fill="#73A79D"/>
</g>
<g clip-path="url(#clip13_135_904)">
<path d="M865.32 121.816C869.996 123.528 875.61 119.929 877.861 113.778C880.111 107.627 878.145 101.254 873.47 99.5435C868.793 97.8338 863.18 101.432 860.929 107.583C858.679 113.734 860.645 120.107 865.32 121.816Z" fill="#73A79D"/>
<path d="M847.554 131.625C852.445 131.201 855.958 125.643 855.402 119.207C854.845 112.773 850.428 107.901 845.537 108.322C840.646 108.748 837.133 114.307 837.69 120.742C838.247 127.176 842.663 132.048 847.554 131.625Z" fill="#73A79D"/>
<path d="M885.646 131.409C889.939 133.932 896.107 131.398 899.425 125.752C902.742 120.102 901.951 113.481 897.658 110.958C893.365 108.437 887.196 110.972 883.879 116.618C880.561 122.268 881.353 128.888 885.646 131.409Z" fill="#73A79D"/>
<path d="M908.639 138.101C905.855 134.057 899.287 133.745 893.966 137.405C888.644 141.067 886.588 147.313 889.37 151.358C892.153 155.401 898.722 155.714 904.043 152.053C909.363 148.391 911.421 142.146 908.639 138.101Z" fill="#73A79D"/>
<path d="M880.058 138.865C879.527 135.192 877.276 131.842 873.677 130.143C870.078 128.445 866.06 128.837 862.888 130.761C859.382 132.889 857.139 135.668 854.12 136.883C851.1 138.098 842.643 134.48 837.377 144.042C833.658 150.795 837.072 159.333 844.044 162.623C849.343 165.124 853.537 164.844 856.616 166.296C859.695 167.749 862.145 171.164 867.444 173.665C874.416 176.955 883.176 174.163 886.025 166.999C890.059 156.855 881.889 152.627 880.907 149.524C879.925 146.421 880.645 142.923 880.058 138.865Z" fill="#73A79D"/>
</g>
<g clip-path="url(#clip14_135_904)">
<path d="M864.375 240.939C869.05 242.651 874.665 239.052 876.916 232.901C879.166 226.75 877.2 220.377 872.525 218.667C867.848 216.957 862.234 220.555 859.983 226.706C857.733 232.857 859.699 239.23 864.375 240.939Z" fill="#73A79D"/>
<path d="M846.608 250.748C851.5 250.324 855.013 244.766 854.457 238.33C853.9 231.896 849.483 227.024 844.591 227.445C839.701 227.871 836.188 233.43 836.744 239.865C837.302 246.299 841.718 251.171 846.608 250.748Z" fill="#73A79D"/>
<path d="M884.701 250.532C888.993 253.055 895.162 250.521 898.479 244.875C901.797 239.225 901.006 232.604 896.713 230.081C892.42 227.56 886.25 230.095 882.933 235.742C879.616 241.391 880.408 248.011 884.701 250.532Z" fill="#73A79D"/>
<path d="M907.693 257.224C904.91 253.18 898.342 252.868 893.021 256.528C887.699 260.191 885.642 266.436 888.425 270.481C891.207 274.524 897.777 274.837 903.097 271.176C908.418 267.514 910.475 261.269 907.693 257.224Z" fill="#73A79D"/>
<path d="M879.113 257.988C878.582 254.315 876.33 250.965 872.731 249.266C869.133 247.568 865.115 247.96 861.943 249.884C858.437 252.012 856.194 254.791 853.174 256.006C850.155 257.221 841.698 253.603 836.432 263.165C832.713 269.918 836.127 278.456 843.099 281.746C848.398 284.247 852.592 283.967 855.671 285.42C858.749 286.872 861.2 290.287 866.499 292.788C873.47 296.078 882.231 293.286 885.08 286.122C889.114 275.978 880.944 271.75 879.961 268.647C878.98 265.544 879.7 262.046 879.113 257.988Z" fill="#73A79D"/>
</g>
<g clip-path="url(#clip15_135_904)">
<path d="M862.323 360.062C866.999 361.774 872.613 358.175 874.864 352.024C877.114 345.873 875.148 339.501 870.473 337.79C865.796 336.08 860.183 339.678 857.932 345.829C855.681 351.98 857.647 358.353 862.323 360.062Z" fill="#73A79D"/>
<path d="M844.557 369.871C849.448 369.447 852.961 363.889 852.405 357.453C851.848 351.019 847.431 346.147 842.54 346.568C837.649 346.994 834.136 352.553 834.693 358.988C835.25 365.422 839.666 370.294 844.557 369.871Z" fill="#73A79D"/>
<path d="M882.649 369.655C886.942 372.178 893.11 369.644 896.428 363.998C899.745 358.348 898.954 351.727 894.661 349.204C890.368 346.683 884.198 349.218 880.881 354.865C877.564 360.514 878.356 367.135 882.649 369.655Z" fill="#73A79D"/>
<path d="M905.642 376.347C902.858 372.303 896.29 371.991 890.969 375.651C885.647 379.314 883.591 385.559 886.373 389.604C889.156 393.647 895.725 393.96 901.046 390.299C906.366 386.637 908.424 380.392 905.642 376.347Z" fill="#73A79D"/>
<path d="M877.061 377.111C876.53 373.438 874.279 370.088 870.68 368.389C867.081 366.691 863.063 367.083 859.891 369.007C856.385 371.135 854.142 373.914 851.122 375.129C848.103 376.344 839.646 372.726 834.38 382.288C830.661 389.042 834.075 397.579 841.047 400.869C846.346 403.37 850.54 403.09 853.619 404.543C856.698 405.995 859.148 409.41 864.447 411.911C871.419 415.201 880.179 412.409 883.028 405.245C887.062 395.101 878.892 390.873 877.91 387.77C876.928 384.668 877.648 381.169 877.061 377.111Z" fill="#73A79D"/>
</g>
<g clip-path="url(#clip16_135_904)">
<path d="M862.323 479.185C866.999 480.897 872.613 477.298 874.864 471.147C877.114 464.996 875.148 458.624 870.473 456.913C865.796 455.203 860.183 458.801 857.932 464.952C855.681 471.103 857.647 477.476 862.323 479.185Z" fill="#73A79D"/>
<path d="M844.557 488.994C849.448 488.57 852.961 483.012 852.405 476.576C851.848 470.142 847.431 465.27 842.54 465.691C837.649 466.117 834.136 471.676 834.693 478.111C835.25 484.545 839.666 489.417 844.557 488.994Z" fill="#73A79D"/>
<path d="M882.649 488.778C886.942 491.301 893.11 488.767 896.428 483.121C899.745 477.471 898.954 470.85 894.661 468.327C890.368 465.806 884.198 468.341 880.881 473.988C877.564 479.637 878.356 486.258 882.649 488.778Z" fill="#73A79D"/>
<path d="M905.642 495.47C902.858 491.426 896.29 491.114 890.969 494.774C885.647 498.437 883.591 504.682 886.373 508.727C889.156 512.771 895.725 513.083 901.046 509.422C906.366 505.76 908.424 499.515 905.642 495.47Z" fill="#73A79D"/>
<path d="M877.061 496.234C876.53 492.561 874.279 489.211 870.68 487.512C867.081 485.814 863.063 486.206 859.891 488.13C856.385 490.258 854.142 493.037 851.122 494.252C848.103 495.467 839.646 491.849 834.38 501.411C830.661 508.165 834.075 516.702 841.047 519.992C846.346 522.493 850.54 522.214 853.619 523.666C856.698 525.118 859.148 528.534 864.447 531.034C871.419 534.324 880.179 531.532 883.028 524.368C887.062 514.225 878.892 509.996 877.91 506.893C876.928 503.791 877.648 500.292 877.061 496.234Z" fill="#73A79D"/>
</g>
<g clip-path="url(#clip17_135_904)">
<path d="M861.378 598.308C866.053 600.02 871.668 596.421 873.919 590.27C876.169 584.119 874.203 577.747 869.528 576.036C864.851 574.326 859.237 577.924 856.986 584.075C854.736 590.226 856.702 596.599 861.378 598.308Z" fill="#73A79D"/>
<path d="M843.611 608.118C848.503 607.693 852.015 602.135 851.46 595.699C850.902 589.265 846.486 584.393 841.594 584.814C836.704 585.24 833.191 590.799 833.747 597.234C834.305 603.668 838.721 608.54 843.611 608.118Z" fill="#73A79D"/>
<path d="M881.703 607.901C885.996 610.425 892.165 607.89 895.482 602.244C898.8 596.594 898.009 589.973 893.716 587.45C889.423 584.929 883.253 587.464 879.936 593.111C876.619 598.76 877.411 605.381 881.703 607.901Z" fill="#73A79D"/>
</g>
<g clip-path="url(#clip18_135_904)">
<path d="M1016.75 -16.3024C1013.97 -20.3461 1007.4 -20.6587 1002.08 -16.9984C996.759 -13.3359 994.703 -7.09028 997.485 -3.04543C1000.27 0.998078 1006.84 1.31094 1012.16 -2.35061C1017.48 -6.01201 1019.54 -12.2576 1016.75 -16.3024Z" fill="#73A79D"/>
<path d="M988.174 -15.5384C987.643 -19.2116 985.391 -22.5617 981.792 -24.2606C978.193 -25.9584 974.176 -25.5665 971.004 -23.6425C967.497 -21.5147 965.255 -18.7351 962.235 -17.5201C959.215 -16.3053 950.758 -19.9235 945.493 -10.3616C941.774 -3.60787 945.188 4.92991 952.159 8.21973C957.458 10.7203 961.652 10.4411 964.731 11.8931C967.81 13.3452 970.261 16.7611 975.559 19.2613C982.531 22.5513 991.292 19.7598 994.141 12.5952C998.175 2.45205 990.004 -1.77606 989.022 -4.8792C988.04 -7.98189 988.761 -11.4805 988.174 -15.5384Z" fill="#73A79D"/>
</g>
<g clip-path="url(#clip19_135_904)">
<path d="M973.435 86.5359C978.111 88.2479 983.725 84.6489 985.976 78.4979C988.226 72.3468 986.26 65.9742 981.585 64.2632C976.909 62.5536 971.295 66.1515 969.044 72.3025C966.794 78.4536 968.76 84.8262 973.435 86.5359Z" fill="#73A79D"/>
<path d="M955.669 96.3451C960.56 95.921 964.073 90.363 963.517 83.9269C962.96 77.493 958.543 72.6203 953.652 73.042C948.761 73.4674 945.249 79.0265 945.805 85.4616C946.362 91.8954 950.778 96.768 955.669 96.3451Z" fill="#73A79D"/>
<path d="M993.761 96.1288C998.054 98.6521 1004.22 96.118 1007.54 90.4715C1010.86 84.8212 1010.07 78.2004 1005.77 75.6773C1001.48 73.1565 995.311 75.6917 991.994 81.3382C988.677 86.9874 989.468 93.6081 993.761 96.1288Z" fill="#73A79D"/>
<path d="M1016.75 102.821C1013.97 98.777 1007.4 98.4644 1002.08 102.125C996.759 105.787 994.703 112.033 997.485 116.078C1000.27 120.121 1006.84 120.434 1012.16 116.772C1017.48 113.111 1019.54 106.865 1016.75 102.821Z" fill="#73A79D"/>
<path d="M988.174 103.585C987.643 99.9114 985.391 96.5614 981.792 94.8624C978.193 93.1647 974.176 93.5566 971.004 95.4806C967.497 97.6084 965.255 100.388 962.235 101.603C959.215 102.818 950.758 99.1995 945.493 108.761C941.774 115.515 945.188 124.053 952.159 127.343C957.458 129.843 961.652 129.564 964.731 131.016C967.81 132.468 970.261 135.884 975.559 138.384C982.531 141.674 991.292 138.883 994.141 131.718C998.175 121.575 990.004 117.347 989.022 114.244C988.04 111.141 988.761 107.643 988.174 103.585Z" fill="#73A79D"/>
</g>
<g clip-path="url(#clip20_135_904)">
<path d="M972.489 205.659C977.165 207.371 982.779 203.772 985.03 197.621C987.28 191.47 985.314 185.097 980.639 183.386C975.962 181.677 970.349 185.275 968.098 191.426C965.847 197.577 967.813 203.949 972.489 205.659Z" fill="#73A79D"/>
<path d="M954.723 215.468C959.614 215.044 963.127 209.486 962.571 203.05C962.014 196.616 957.597 191.743 952.706 192.165C947.815 192.59 944.302 198.15 944.859 204.585C945.416 211.018 949.832 215.891 954.723 215.468Z" fill="#73A79D"/>
<path d="M992.815 215.252C997.108 217.775 1003.28 215.241 1006.59 209.595C1009.91 203.944 1009.12 197.323 1004.83 194.8C1000.53 192.28 994.364 194.815 991.047 200.461C987.73 206.11 988.522 212.731 992.815 215.252Z" fill="#73A79D"/>
<path d="M1015.81 221.944C1013.02 217.9 1006.46 217.587 1001.14 221.248C995.813 224.91 993.757 231.156 996.539 235.201C999.322 239.244 1005.89 239.557 1011.21 235.895C1016.53 232.234 1018.59 225.989 1015.81 221.944Z" fill="#73A79D"/>
<path d="M987.227 222.708C986.696 219.034 984.445 215.684 980.846 213.985C977.247 212.288 973.229 212.68 970.057 214.604C966.551 216.731 964.308 219.511 961.288 220.726C958.269 221.941 949.812 218.323 944.546 227.885C940.827 234.638 944.241 243.176 951.213 246.466C956.512 248.966 960.706 248.687 963.785 250.139C966.864 251.591 969.314 255.007 974.613 257.507C981.585 260.797 990.345 258.006 993.194 250.841C997.228 240.698 989.058 236.47 988.076 233.367C987.094 230.264 987.814 226.766 987.227 222.708Z" fill="#73A79D"/>
</g>
<g clip-path="url(#clip21_135_904)">
<path d="M970.438 324.782C975.114 326.494 980.728 322.895 982.979 316.744C985.229 310.593 983.263 304.22 978.588 302.509C973.912 300.8 968.298 304.398 966.047 310.549C963.797 316.7 965.763 323.072 970.438 324.782Z" fill="#73A79D"/>
<path d="M952.672 334.591C957.563 334.167 961.076 328.609 960.52 322.173C959.963 315.739 955.546 310.866 950.655 311.288C945.764 311.714 942.251 317.273 942.808 323.708C943.365 330.142 947.781 335.014 952.672 334.591Z" fill="#73A79D"/>
<path d="M990.764 334.375C995.057 336.898 1001.23 334.364 1004.54 328.718C1007.86 323.067 1007.07 316.446 1002.78 313.923C998.483 311.403 992.314 313.938 988.997 319.584C985.679 325.234 986.471 331.854 990.764 334.375Z" fill="#73A79D"/>
<path d="M1013.76 341.067C1010.97 337.023 1004.41 336.71 999.084 340.371C993.762 344.033 991.706 350.279 994.488 354.324C997.271 358.367 1003.84 358.68 1009.16 355.019C1014.48 351.357 1016.54 345.112 1013.76 341.067Z" fill="#73A79D"/>
<path d="M985.176 341.831C984.646 338.157 982.394 334.807 978.795 333.109C975.196 331.411 971.179 331.803 968.006 333.727C964.5 335.854 962.257 338.634 959.238 339.849C956.218 341.064 947.761 337.446 942.495 347.008C938.777 353.761 942.19 362.299 949.162 365.589C954.461 368.089 958.655 367.81 961.734 369.262C964.813 370.714 967.264 374.13 972.562 376.63C979.534 379.92 988.294 377.129 991.144 369.964C995.178 359.821 987.007 355.593 986.025 352.49C985.043 349.387 985.764 345.889 985.176 341.831Z" fill="#73A79D"/>
</g>
<g clip-path="url(#clip22_135_904)">
<path d="M970.438 443.905C975.114 445.617 980.728 442.018 982.979 435.867C985.229 429.716 983.263 423.343 978.588 421.632C973.912 419.923 968.298 423.521 966.047 429.672C963.797 435.823 965.763 442.195 970.438 443.905Z" fill="#73A79D"/>
<path d="M952.672 453.714C957.563 453.29 961.076 447.732 960.52 441.296C959.963 434.862 955.546 429.989 950.655 430.411C945.764 430.837 942.251 436.396 942.808 442.831C943.365 449.265 947.781 454.137 952.672 453.714Z" fill="#73A79D"/>
<path d="M990.764 453.498C995.057 456.021 1001.23 453.487 1004.54 447.841C1007.86 442.19 1007.07 435.57 1002.78 433.046C998.483 430.526 992.314 433.061 988.997 438.707C985.679 444.357 986.471 450.977 990.764 453.498Z" fill="#73A79D"/>
<path d="M1013.76 460.19C1010.97 456.146 1004.41 455.834 999.084 459.494C993.762 463.156 991.706 469.402 994.488 473.447C997.271 477.49 1003.84 477.803 1009.16 474.142C1014.48 470.48 1016.54 464.235 1013.76 460.19Z" fill="#73A79D"/>
<path d="M985.176 460.954C984.646 457.281 982.394 453.931 978.795 452.232C975.196 450.534 971.179 450.926 968.006 452.85C964.5 454.978 962.257 457.757 959.238 458.972C956.218 460.187 947.761 456.569 942.495 466.131C938.777 472.884 942.19 481.422 949.162 484.712C954.461 487.212 958.655 486.933 961.734 488.385C964.813 489.837 967.264 493.253 972.562 495.754C979.534 499.043 988.294 496.252 991.144 489.087C995.178 478.944 987.007 474.716 986.025 471.613C985.043 468.51 985.764 465.012 985.176 460.954Z" fill="#73A79D"/>
</g>
<g clip-path="url(#clip23_135_904)">
<path d="M969.492 563.028C974.168 564.74 979.782 561.141 982.033 554.99C984.283 548.839 982.317 542.466 977.642 540.755C972.965 539.046 967.352 542.644 965.1 548.795C962.85 554.946 964.816 561.318 969.492 563.028Z" fill="#73A79D"/>
<path d="M951.726 572.837C956.617 572.413 960.13 566.855 959.574 560.419C959.017 553.985 954.6 549.113 949.709 549.534C944.818 549.96 941.305 555.519 941.862 561.954C942.419 568.388 946.835 573.26 951.726 572.837Z" fill="#73A79D"/>
<path d="M989.818 572.621C994.111 575.144 1000.28 572.61 1003.6 566.964C1006.91 561.313 1006.12 554.693 1001.83 552.169C997.537 549.649 991.367 552.184 988.05 557.83C984.733 563.48 985.525 570.1 989.818 572.621Z" fill="#73A79D"/>
<path d="M1012.81 579.313C1010.03 575.269 1003.46 574.957 998.138 578.617C992.816 582.279 990.759 588.525 993.542 592.57C996.325 596.613 1002.89 596.926 1008.21 593.265C1013.53 589.603 1015.59 583.358 1012.81 579.313Z" fill="#73A79D"/>
<path d="M984.23 580.077C983.699 576.404 981.448 573.054 977.849 571.355C974.25 569.657 970.232 570.049 967.06 571.973C963.554 574.101 961.311 576.88 958.291 578.095C955.272 579.31 946.815 575.692 941.549 585.254C937.83 592.007 941.244 600.545 948.216 603.835C953.515 606.336 957.709 606.056 960.788 607.508C963.867 608.96 966.317 612.376 971.616 614.877C978.588 618.167 987.348 615.375 990.197 608.21C994.231 598.067 986.061 593.839 985.078 590.736C984.097 587.633 984.817 584.135 984.23 580.077Z" fill="#73A79D"/>
</g>
<g clip-path="url(#clip24_135_904)">
<path d="M1074.61 27.449C1079.29 29.161 1084.9 25.562 1087.15 19.411C1089.4 13.2599 1087.44 6.88726 1082.76 5.17629C1078.08 3.46666 1072.47 7.0646 1070.22 13.2156C1067.97 19.3667 1069.93 25.7393 1074.61 27.449Z" fill="#73A79D"/>
<path d="M1056.84 37.2582C1061.74 36.8341 1065.25 31.2761 1064.69 24.84C1064.13 18.4061 1059.72 13.5334 1054.83 13.9551C1049.94 14.3805 1046.42 19.9396 1046.98 26.3746C1047.54 32.8085 1051.95 37.6811 1056.84 37.2582Z" fill="#73A79D"/>
<path d="M1094.94 37.0419C1099.23 39.5652 1105.4 37.0311 1108.71 31.3846C1112.03 25.7343 1111.24 19.1135 1106.95 16.5904C1102.66 14.0695 1096.49 16.6048 1093.17 22.2513C1089.85 27.9005 1090.64 34.5212 1094.94 37.0419Z" fill="#73A79D"/>
<path d="M1117.93 43.7337C1115.15 39.69 1108.58 39.3775 1103.26 43.0377C1097.93 46.7003 1095.88 52.9459 1098.66 56.9907C1101.44 61.0342 1108.01 61.3471 1113.33 57.6855C1118.65 54.0241 1120.71 47.7786 1117.93 43.7337Z" fill="#73A79D"/>
<path d="M1089.35 44.4978C1088.82 40.8245 1086.57 37.4745 1082.97 35.7755C1079.37 34.0777 1075.35 34.4696 1072.18 36.3937C1068.67 38.5215 1066.43 41.3011 1063.41 42.516C1060.39 43.7309 1051.93 40.1126 1046.67 49.6745C1042.95 56.4283 1046.36 64.966 1053.33 68.2559C1058.63 70.7564 1062.83 70.4772 1065.91 71.9293C1068.98 73.3814 1071.44 76.7972 1076.73 79.2974C1083.71 82.5874 1092.47 79.796 1095.32 72.6314C1099.35 62.4882 1091.18 58.2601 1090.2 55.1569C1089.22 52.0542 1089.94 48.5556 1089.35 44.4978Z" fill="#73A79D"/>
</g>
<g clip-path="url(#clip25_135_904)">
<path d="M1074.61 146.572C1079.29 148.284 1084.9 144.685 1087.15 138.534C1089.4 132.383 1087.44 126.01 1082.76 124.299C1078.08 122.59 1072.47 126.188 1070.22 132.339C1067.97 138.49 1069.93 144.862 1074.61 146.572Z" fill="#73A79D"/>
<path d="M1056.84 156.381C1061.74 155.957 1065.25 150.399 1064.69 143.963C1064.13 137.529 1059.72 132.656 1054.83 133.078C1049.94 133.504 1046.42 139.063 1046.98 145.498C1047.54 151.932 1051.95 156.804 1056.84 156.381Z" fill="#73A79D"/>
<path d="M1094.94 156.165C1099.23 158.688 1105.4 156.154 1108.71 150.508C1112.03 144.857 1111.24 138.237 1106.95 135.713C1102.66 133.193 1096.49 135.728 1093.17 141.374C1089.85 147.024 1090.64 153.644 1094.94 156.165Z" fill="#73A79D"/>
<path d="M1117.93 162.857C1115.15 158.813 1108.58 158.501 1103.26 162.161C1097.93 165.823 1095.88 172.069 1098.66 176.114C1101.44 180.157 1108.01 180.47 1113.33 176.809C1118.65 173.147 1120.71 166.902 1117.93 162.857Z" fill="#73A79D"/>
<path d="M1089.35 163.621C1088.82 159.948 1086.57 156.598 1082.97 154.899C1079.37 153.201 1075.35 153.593 1072.18 155.517C1068.67 157.645 1066.43 160.424 1063.41 161.639C1060.39 162.854 1051.93 159.236 1046.67 168.798C1042.95 175.551 1046.36 184.089 1053.33 187.379C1058.63 189.879 1062.83 189.6 1065.91 191.052C1068.98 192.504 1071.44 195.92 1076.73 198.42C1083.71 201.71 1092.47 198.919 1095.32 191.754C1099.35 181.611 1091.18 177.383 1090.2 174.28C1089.22 171.177 1089.94 167.679 1089.35 163.621Z" fill="#73A79D"/>
</g>
<g clip-path="url(#clip26_135_904)">
<path d="M1073.66 265.695C1078.34 267.407 1083.95 263.808 1086.2 257.657C1088.45 251.506 1086.49 245.133 1081.81 243.422C1077.14 241.713 1071.52 245.311 1069.27 251.462C1067.02 257.613 1068.99 263.985 1073.66 265.695Z" fill="#73A79D"/>
<path d="M1055.9 275.504C1060.79 275.08 1064.3 269.522 1063.75 263.086C1063.19 256.652 1058.77 251.78 1053.88 252.201C1048.99 252.627 1045.48 258.186 1046.03 264.621C1046.59 271.055 1051.01 275.927 1055.9 275.504Z" fill="#73A79D"/>
<path d="M1093.99 275.288C1098.28 277.811 1104.45 275.277 1107.77 269.631C1111.09 263.98 1110.3 257.36 1106 254.836C1101.71 252.316 1095.54 254.851 1092.22 260.497C1088.91 266.147 1089.7 272.767 1093.99 275.288Z" fill="#73A79D"/>
<path d="M1116.98 281.98C1114.2 277.936 1107.63 277.624 1102.31 281.284C1096.99 284.946 1094.93 291.192 1097.71 295.237C1100.5 299.28 1107.07 299.593 1112.39 295.932C1117.71 292.27 1119.76 286.025 1116.98 281.98Z" fill="#73A79D"/>
<path d="M1088.4 282.744C1087.87 279.071 1085.62 275.721 1082.02 274.022C1078.42 272.324 1074.4 272.716 1071.23 274.64C1067.73 276.768 1065.48 279.547 1062.46 280.762C1059.44 281.977 1050.99 278.359 1045.72 287.921C1042 294.674 1045.42 303.212 1052.39 306.502C1057.69 309.002 1061.88 308.723 1064.96 310.175C1068.04 311.627 1070.49 315.043 1075.79 317.544C1082.76 320.834 1091.52 318.042 1094.37 310.877C1098.4 300.734 1090.23 296.506 1089.25 293.403C1088.27 290.3 1088.99 286.802 1088.4 282.744Z" fill="#73A79D"/>
</g>
<g clip-path="url(#clip27_135_904)">
<path d="M1071.61 384.818C1076.29 386.53 1081.9 382.931 1084.15 376.78C1086.4 370.629 1084.44 364.256 1079.76 362.545C1075.09 360.836 1069.47 364.434 1067.22 370.585C1064.97 376.736 1066.94 383.108 1071.61 384.818Z" fill="#73A79D"/>
<path d="M1053.85 394.627C1058.74 394.203 1062.25 388.645 1061.69 382.209C1061.14 375.775 1056.72 370.903 1051.83 371.324C1046.94 371.75 1043.43 377.309 1043.98 383.744C1044.54 390.178 1048.96 395.05 1053.85 394.627Z" fill="#73A79D"/>
<path d="M1091.94 394.411C1096.23 396.934 1102.4 394.4 1105.72 388.754C1109.04 383.103 1108.24 376.483 1103.95 373.96C1099.66 371.439 1093.49 373.974 1090.17 379.62C1086.85 385.27 1087.65 391.89 1091.94 394.411Z" fill="#73A79D"/>
<path d="M1114.93 401.103C1112.15 397.059 1105.58 396.747 1100.26 400.407C1094.94 404.069 1092.88 410.315 1095.66 414.36C1098.45 418.403 1105.01 418.716 1110.34 415.055C1115.66 411.393 1117.71 405.148 1114.93 401.103Z" fill="#73A79D"/>
<path d="M1086.35 401.867C1085.82 398.194 1083.57 394.844 1079.97 393.145C1076.37 391.447 1072.35 391.839 1069.18 393.763C1065.68 395.891 1063.43 398.67 1060.41 399.885C1057.39 401.1 1048.94 397.482 1043.67 407.044C1039.95 413.797 1043.37 422.335 1050.34 425.625C1055.64 428.126 1059.83 427.846 1062.91 429.298C1065.99 430.75 1068.44 434.166 1073.74 436.667C1080.71 439.957 1089.47 437.165 1092.32 430.001C1096.35 419.857 1088.18 415.629 1087.2 412.526C1086.22 409.423 1086.94 405.925 1086.35 401.867Z" fill="#73A79D"/>
</g>
<g clip-path="url(#clip28_135_904)">
<path d="M1071.61 503.941C1076.29 505.653 1081.9 502.054 1084.15 495.903C1086.4 489.752 1084.44 483.379 1079.76 481.668C1075.09 479.959 1069.47 483.557 1067.22 489.708C1064.97 495.859 1066.94 502.232 1071.61 503.941Z" fill="#73A79D"/>
<path d="M1053.85 513.75C1058.74 513.326 1062.25 507.768 1061.69 501.332C1061.14 494.898 1056.72 490.026 1051.83 490.447C1046.94 490.873 1043.43 496.432 1043.98 502.867C1044.54 509.301 1048.96 514.173 1053.85 513.75Z" fill="#73A79D"/>
<path d="M1091.94 513.534C1096.23 516.057 1102.4 513.523 1105.72 507.877C1109.04 502.227 1108.24 495.606 1103.95 493.083C1099.66 490.562 1093.49 493.097 1090.17 498.743C1086.85 504.393 1087.65 511.013 1091.94 513.534Z" fill="#73A79D"/>
<path d="M1114.93 520.226C1112.15 516.182 1105.58 515.87 1100.26 519.53C1094.94 523.192 1092.88 529.438 1095.66 533.483C1098.45 537.526 1105.01 537.839 1110.34 534.178C1115.66 530.516 1117.71 524.271 1114.93 520.226Z" fill="#73A79D"/>
<path d="M1086.35 520.99C1085.82 517.317 1083.57 513.967 1079.97 512.268C1076.37 510.57 1072.35 510.962 1069.18 512.886C1065.68 515.014 1063.43 517.793 1060.41 519.008C1057.39 520.223 1048.94 516.605 1043.67 526.167C1039.95 532.92 1043.37 541.458 1050.34 544.748C1055.64 547.249 1059.83 546.969 1062.91 548.421C1065.99 549.874 1068.44 553.289 1073.74 555.79C1080.71 559.08 1089.47 556.288 1092.32 549.124C1096.35 538.98 1088.18 534.752 1087.2 531.649C1086.22 528.546 1086.94 525.048 1086.35 520.99Z" fill="#73A79D"/>
</g>
<g clip-path="url(#clip29_135_904)">
<path d="M1192.57 229.95C1192.04 226.277 1189.79 222.927 1186.19 221.228C1182.59 219.53 1178.58 219.922 1175.4 221.846C1171.9 223.974 1169.65 226.753 1166.64 227.968C1163.62 229.183 1155.16 225.565 1149.89 235.127C1146.17 241.88 1149.59 250.418 1156.56 253.708C1161.86 256.209 1166.05 255.929 1169.13 257.381C1172.21 258.833 1174.66 262.249 1179.96 264.75C1186.93 268.04 1195.69 265.248 1198.54 258.084C1202.58 247.94 1194.4 243.712 1193.42 240.609C1192.44 237.506 1193.16 234.008 1192.57 229.95Z" fill="#73A79D"/>
</g>
<g clip-path="url(#clip30_135_904)">
<path d="M1158.02 341.833C1162.91 341.409 1166.42 335.851 1165.87 329.415C1165.31 322.981 1160.89 318.109 1156 318.53C1151.11 318.956 1147.6 324.515 1148.15 330.95C1148.71 337.384 1153.13 342.256 1158.02 341.833Z" fill="#73A79D"/>
<path d="M1190.52 349.073C1189.99 345.4 1187.74 342.05 1184.14 340.351C1180.54 338.653 1176.53 339.045 1173.35 340.969C1169.85 343.097 1167.6 345.876 1164.58 347.091C1161.56 348.306 1153.11 344.688 1147.84 354.25C1144.12 361.003 1147.54 369.541 1154.51 372.831C1159.81 375.332 1164 375.052 1167.08 376.504C1170.16 377.957 1172.61 381.372 1177.91 383.873C1184.88 387.163 1193.64 384.371 1196.49 377.207C1200.52 367.063 1192.35 362.835 1191.37 359.732C1190.39 356.629 1191.11 353.131 1190.52 349.073Z" fill="#73A79D"/>
</g>
<g clip-path="url(#clip31_135_904)">
<path d="M1158.02 460.956C1162.91 460.532 1166.42 454.974 1165.87 448.538C1165.31 442.104 1160.89 437.232 1156 437.653C1151.11 438.079 1147.6 443.638 1148.15 450.073C1148.71 456.507 1153.13 461.379 1158.02 460.956Z" fill="#73A79D"/>
<path d="M1190.52 468.196C1189.99 464.523 1187.74 461.173 1184.14 459.474C1180.54 457.776 1176.53 458.168 1173.35 460.092C1169.85 462.22 1167.6 464.999 1164.58 466.214C1161.56 467.429 1153.11 463.811 1147.84 473.373C1144.12 480.127 1147.54 488.664 1154.51 491.954C1159.81 494.455 1164 494.175 1167.08 495.628C1170.16 497.08 1172.61 500.495 1177.91 502.996C1184.88 506.286 1193.64 503.494 1196.49 496.33C1200.52 486.186 1192.35 481.958 1191.37 478.855C1190.39 475.752 1191.11 472.254 1190.52 468.196Z" fill="#73A79D"/>
</g>
<g clip-path="url(#clip32_135_904)">
<path d="M1157.07 580.079C1161.96 579.655 1165.48 574.097 1164.92 567.661C1164.36 561.227 1159.95 556.355 1155.06 556.776C1150.17 557.202 1146.65 562.761 1147.21 569.196C1147.77 575.63 1152.18 580.502 1157.07 580.079Z" fill="#73A79D"/>
<path d="M1189.58 587.319C1189.05 583.646 1186.8 580.296 1183.2 578.597C1179.6 576.899 1175.58 577.291 1172.41 579.215C1168.9 581.343 1166.66 584.122 1163.64 585.337C1160.62 586.552 1152.16 582.934 1146.9 592.496C1143.18 599.25 1146.59 607.787 1153.56 611.077C1158.86 613.578 1163.06 613.298 1166.14 614.751C1169.21 616.203 1171.66 619.618 1176.96 622.119C1183.94 625.409 1192.7 622.617 1195.54 615.453C1199.58 605.309 1191.41 601.081 1190.43 597.978C1189.44 594.876 1190.16 591.377 1189.58 587.319Z" fill="#73A79D"/>
</g>
</g>
<g opacity="0.1">
<g clip-path="url(#clip33_135_904)">
<path d="M34.3571 13.697C39.0329 15.409 44.6471 11.81 46.8984 5.65907C49.1483 -0.492049 47.1823 -6.86469 42.5073 -8.57566C37.8305 -10.2853 32.2169 -6.68735 29.9657 -0.536384C27.7156 5.61473 29.6816 11.9874 34.3571 13.697Z" fill="#73A79D"/>
<path d="M16.5909 23.5062C21.4821 23.0821 24.9949 17.5241 24.439 11.088C23.882 4.65414 19.4651 -0.218533 14.5739 0.203167C9.68311 0.628573 6.17043 6.18762 6.72691 12.6227C7.28414 19.0566 11.7003 23.9291 16.5909 23.5062Z" fill="#73A79D"/>
<path d="M54.683 23.29C58.9759 25.8132 65.1442 23.2792 68.4617 17.6326C71.7793 11.9824 70.9885 5.36152 66.695 2.83844C62.4023 0.317587 56.2326 2.85283 52.9157 8.49936C49.5984 14.1486 50.3902 20.7693 54.683 23.29Z" fill="#73A79D"/>
<path d="M77.6759 29.9818C74.8926 25.9381 68.3241 25.6255 63.0033 29.2857C57.6813 32.9483 55.6247 39.1939 58.4073 43.2387C61.1899 47.2823 67.759 47.5951 73.0799 43.9336C78.4001 40.2722 80.4578 34.0266 77.6759 29.9818Z" fill="#73A79D"/>
<path d="M49.0954 30.7458C48.5646 27.0725 46.3129 23.7225 42.7138 22.0236C39.1154 20.3258 35.0975 20.7177 31.9254 22.6417C28.4193 24.7695 26.1764 27.5491 23.1566 28.7641C20.1373 29.9789 11.68 26.3607 6.41438 35.9226C2.69545 42.6763 6.10938 51.2141 13.0812 54.5039C18.3803 57.0044 22.5743 56.7252 25.6533 58.1773C28.7318 59.6294 31.1826 63.0453 36.4812 65.5455C43.4529 68.8355 52.2134 66.044 55.0625 58.8794C59.0966 48.7362 50.9261 44.5081 49.9437 41.405C48.9623 38.3023 49.6825 34.8037 49.0954 30.7458Z" fill="#73A79D"/>
</g>
<g clip-path="url(#clip34_135_904)">
<path d="M34.3571 132.82C39.0329 134.532 44.6471 130.933 46.8984 124.782C49.1483 118.631 47.1823 112.258 42.5073 110.547C37.8305 108.838 32.2169 112.436 29.9657 118.587C27.7156 124.738 29.6816 131.11 34.3571 132.82Z" fill="#73A79D"/>
<path d="M16.5909 142.629C21.4821 142.205 24.9949 136.647 24.439 130.211C23.882 123.777 19.4651 118.905 14.5739 119.326C9.68311 119.752 6.17043 125.311 6.72691 131.746C7.28414 138.18 11.7003 143.052 16.5909 142.629Z" fill="#73A79D"/>
<path d="M54.683 142.413C58.9759 144.936 65.1442 142.402 68.4617 136.756C71.7793 131.105 70.9885 124.485 66.695 121.961C62.4023 119.441 56.2326 121.976 52.9157 127.622C49.5984 133.272 50.3902 139.892 54.683 142.413Z" fill="#73A79D"/>
<path d="M77.6759 149.105C74.8926 145.061 68.3241 144.749 63.0033 148.409C57.6813 152.071 55.6247 158.317 58.4073 162.362C61.1899 166.405 67.759 166.718 73.0799 163.057C78.4001 159.395 80.4578 153.15 77.6759 149.105Z" fill="#73A79D"/>
<path d="M49.0954 149.869C48.5646 146.196 46.3129 142.846 42.7138 141.147C39.1154 139.449 35.0975 139.841 31.9254 141.765C28.4193 143.893 26.1764 146.672 23.1566 147.887C20.1373 149.102 11.68 145.484 6.41438 155.046C2.69545 161.799 6.10938 170.337 13.0812 173.627C18.3803 176.127 22.5743 175.848 25.6533 177.3C28.7318 178.752 31.1826 182.168 36.4812 184.669C43.4529 187.959 52.2134 185.167 55.0625 178.002C59.0966 167.859 50.9261 163.631 49.9437 160.528C48.9623 157.425 49.6825 153.927 49.0954 149.869Z" fill="#73A79D"/>
</g>
<g clip-path="url(#clip35_135_904)">
<path d="M33.4108 251.943C38.0866 253.655 43.7008 250.056 45.9521 243.905C48.202 237.754 46.236 231.381 41.561 229.67C36.8842 227.961 31.2706 231.559 29.0194 237.71C26.7693 243.861 28.7353 250.233 33.4108 251.943Z" fill="#73A79D"/>
<path d="M15.6446 261.752C20.5358 261.328 24.0486 255.77 23.4927 249.334C22.9357 242.9 18.5188 238.028 13.6276 238.449C8.73682 238.875 5.22414 244.434 5.78062 250.869C6.33785 257.303 10.754 262.175 15.6446 261.752Z" fill="#73A79D"/>
<path d="M53.7367 261.536C58.0296 264.059 64.1979 261.525 67.5155 255.879C70.833 250.228 70.0422 243.608 65.7487 241.085C61.456 238.564 55.2863 241.099 51.9694 246.745C48.6521 252.395 49.4439 259.015 53.7367 261.536Z" fill="#73A79D"/>
<path d="M76.7296 268.228C73.9463 264.184 67.3778 263.872 62.057 267.532C56.735 271.194 54.6784 277.44 57.461 281.485C60.2436 285.528 66.8127 285.841 72.1336 282.18C77.4538 278.518 79.5116 272.273 76.7296 268.228Z" fill="#73A79D"/>
<path d="M48.1492 268.992C47.6183 265.319 45.3666 261.969 41.7675 260.27C38.1691 258.572 34.1512 258.964 30.9791 260.888C27.473 263.016 25.2301 265.795 22.2103 267.01C19.191 268.225 10.7337 264.607 5.46809 274.169C1.74916 280.922 5.16309 289.46 12.1349 292.75C17.434 295.251 21.6281 294.971 24.707 296.423C27.7855 297.875 30.2363 301.291 35.5349 303.792C42.5066 307.082 51.2671 304.29 54.1163 297.126C58.1503 286.982 49.9798 282.754 48.9974 279.651C48.016 276.548 48.7362 273.05 48.1492 268.992Z" fill="#73A79D"/>
</g>
<g clip-path="url(#clip36_135_904)">
<path d="M31.36 371.066C36.0358 372.778 41.65 369.179 43.9013 363.028C46.1512 356.877 44.1852 350.504 39.5102 348.793C34.8334 347.084 29.2198 350.682 26.9687 356.833C24.7185 362.984 26.6846 369.357 31.36 371.066Z" fill="#73A79D"/>
<path d="M13.5938 380.875C18.485 380.451 21.9979 374.893 21.442 368.457C20.8849 362.023 16.468 357.151 11.5768 357.572C6.68604 357.998 3.17336 363.557 3.72984 369.992C4.28707 376.426 8.7032 381.298 13.5938 380.875Z" fill="#73A79D"/>
<path d="M51.6859 380.659C55.9788 383.182 62.1471 380.648 65.4647 375.002C68.7822 369.352 67.9915 362.731 63.698 360.208C59.4052 357.687 53.2355 360.222 49.9186 365.868C46.6013 371.518 47.3931 378.138 51.6859 380.659Z" fill="#73A79D"/>
<path d="M74.6788 387.351C71.8955 383.307 65.327 382.995 60.0062 386.655C54.6843 390.317 52.6277 396.563 55.4102 400.608C58.1928 404.651 64.7619 404.964 70.0828 401.303C75.403 397.641 77.4608 391.396 74.6788 387.351Z" fill="#73A79D"/>
<path d="M46.0984 388.115C45.5675 384.442 43.3158 381.092 39.7167 379.393C36.1183 377.695 32.1004 378.087 28.9284 380.011C25.4222 382.139 23.1794 384.918 20.1596 386.133C17.1402 387.348 8.68292 383.73 3.41731 393.292C-0.301619 400.045 3.11231 408.583 10.0841 411.873C15.3833 414.374 19.5773 414.094 22.6562 415.546C25.7348 416.999 28.1855 420.414 33.4842 422.915C40.4558 426.205 49.2163 423.413 52.0655 416.249C56.0995 406.105 47.929 401.877 46.9467 398.774C45.9652 395.671 46.6854 392.173 46.0984 388.115Z" fill="#73A79D"/>
</g>
<g clip-path="url(#clip37_135_904)">
<path d="M31.36 490.189C36.0358 491.901 41.65 488.302 43.9013 482.151C46.1512 476 44.1852 469.627 39.5102 467.917C34.8334 466.207 29.2198 469.805 26.9687 475.956C24.7185 482.107 26.6846 488.48 31.36 490.189Z" fill="#73A79D"/>
<path d="M13.5938 499.998C18.485 499.574 21.9979 494.016 21.442 487.58C20.8849 481.146 16.468 476.274 11.5768 476.695C6.68604 477.121 3.17336 482.68 3.72984 489.115C4.28707 495.549 8.7032 500.421 13.5938 499.998Z" fill="#73A79D"/>
<path d="M51.6859 499.782C55.9788 502.305 62.1471 499.771 65.4647 494.125C68.7822 488.475 67.9915 481.854 63.698 479.331C59.4052 476.81 53.2355 479.345 49.9186 484.992C46.6013 490.641 47.3931 497.261 51.6859 499.782Z" fill="#73A79D"/>
<path d="M74.6788 506.474C71.8955 502.43 65.327 502.118 60.0062 505.778C54.6843 509.441 52.6277 515.686 55.4102 519.731C58.1928 523.774 64.7619 524.087 70.0828 520.426C75.403 516.764 77.4608 510.519 74.6788 506.474Z" fill="#73A79D"/>
<path d="M46.0984 507.238C45.5675 503.565 43.3158 500.215 39.7167 498.516C36.1183 496.818 32.1004 497.21 28.9284 499.134C25.4222 501.262 23.1794 504.041 20.1596 505.256C17.1402 506.471 8.68292 502.853 3.41731 512.415C-0.301619 519.168 3.11231 527.706 10.0841 530.996C15.3833 533.497 19.5773 533.217 22.6562 534.67C25.7348 536.122 28.1855 539.537 33.4842 542.038C40.4558 545.328 49.2163 542.536 52.0655 535.372C56.0995 525.228 47.929 521 46.9467 517.897C45.9652 514.794 46.6854 511.296 46.0984 507.238Z" fill="#73A79D"/>
</g>
<g clip-path="url(#clip38_135_904)">
<path d="M30.4137 609.312C35.0895 611.024 40.7037 607.425 42.955 601.274C45.2049 595.123 43.2389 588.751 38.5639 587.04C33.8871 585.33 28.2735 588.928 26.0224 595.079C23.7723 601.23 25.7383 607.603 30.4137 609.312Z" fill="#73A79D"/>
</g>
<g clip-path="url(#clip39_135_904)">
<path d="M145.382 -35.9935C144.851 -39.6667 142.599 -43.0167 139 -44.7157C135.401 -46.4135 131.384 -46.0216 128.212 -44.0975C124.705 -41.9698 122.463 -39.1902 119.443 -37.9752C116.423 -36.7603 107.966 -40.3786 102.701 -30.8167C98.9816 -24.063 102.396 -15.5252 109.367 -12.2353C114.666 -9.73481 118.86 -10.014 121.939 -8.56194C125.018 -7.10986 127.469 -3.69401 132.767 -1.19376C139.739 2.09621 148.5 -0.695255 151.349 -7.85985C155.383 -18.003 147.212 -22.2311 146.23 -25.3343C145.248 -28.437 145.969 -31.9356 145.382 -35.9935Z" fill="#73A79D"/>
</g>
<g clip-path="url(#clip40_135_904)">
<path d="M130.643 66.0808C135.319 67.7928 140.933 64.1938 143.184 58.0429C145.434 51.8917 143.468 45.5191 138.793 43.8081C134.117 42.0985 128.503 45.6964 126.252 51.8474C124.002 57.9985 125.968 64.3712 130.643 66.0808Z" fill="#73A79D"/>
<path d="M112.877 75.89C117.768 75.4659 121.281 69.9079 120.725 63.4718C120.168 57.0379 115.751 52.1653 110.86 52.587C105.969 53.0124 102.457 58.5714 103.013 65.0065C103.57 71.4404 107.986 76.3129 112.877 75.89Z" fill="#73A79D"/>
<path d="M150.969 75.6738C155.262 78.197 161.43 75.6629 164.748 70.0164C168.065 64.3662 167.275 57.7453 162.981 55.2222C158.688 52.7014 152.519 55.2366 149.202 60.8831C145.885 66.5323 146.676 73.1531 150.969 75.6738Z" fill="#73A79D"/>
<path d="M173.962 82.3655C171.179 78.3219 164.61 78.0093 159.289 81.6695C153.967 85.3321 151.911 91.5777 154.693 95.6225C157.476 99.666 164.045 99.9789 169.366 96.3174C174.686 92.656 176.744 86.4104 173.962 82.3655Z" fill="#73A79D"/>
<path d="M145.382 83.1296C144.851 79.4563 142.599 76.1063 139 74.4073C135.401 72.7096 131.384 73.1015 128.212 75.0255C124.705 77.1533 122.463 79.9329 119.443 81.1479C116.423 82.3627 107.966 78.7444 102.701 88.3064C98.9816 95.0601 102.396 103.598 109.367 106.888C114.666 109.388 118.86 109.109 121.939 110.561C125.018 112.013 127.469 115.429 132.767 117.929C139.739 121.219 148.5 118.428 151.349 111.263C155.383 101.12 147.212 96.8919 146.23 93.7888C145.248 90.6861 145.969 87.1875 145.382 83.1296Z" fill="#73A79D"/>
</g>
<g clip-path="url(#clip41_135_904)">
<path d="M129.697 185.204C134.373 186.916 139.987 183.317 142.238 177.166C144.488 171.015 142.522 164.642 137.847 162.931C133.17 161.222 127.557 164.819 125.306 170.97C123.055 177.122 125.021 183.494 129.697 185.204Z" fill="#73A79D"/>
<path d="M111.931 195.013C116.822 194.589 120.335 189.031 119.779 182.595C119.222 176.161 114.805 171.288 109.914 171.71C105.023 172.135 101.51 177.694 102.067 184.13C102.624 190.563 107.04 195.436 111.931 195.013Z" fill="#73A79D"/>
<path d="M150.023 194.797C154.316 197.32 160.484 194.786 163.802 189.139C167.119 183.489 166.328 176.868 162.035 174.345C157.742 171.824 151.572 174.36 148.255 180.006C144.938 185.655 145.73 192.276 150.023 194.797Z" fill="#73A79D"/>
<path d="M173.016 201.489C170.232 197.445 163.664 197.132 158.343 200.793C153.021 204.455 150.965 210.701 153.747 214.746C156.53 218.789 163.099 219.102 168.42 215.44C173.74 211.779 175.798 205.533 173.016 201.489Z" fill="#73A79D"/>
<path d="M144.435 202.253C143.904 198.579 141.653 195.229 138.054 193.53C134.455 191.833 130.437 192.225 127.265 194.149C123.759 196.276 121.516 199.056 118.496 200.271C115.477 201.486 107.02 197.867 101.754 207.429C98.0353 214.183 101.449 222.721 108.421 226.011C113.72 228.511 117.914 228.232 120.993 229.684C124.072 231.136 126.522 234.552 131.821 237.052C138.793 240.342 147.553 237.551 150.402 230.386C154.436 220.243 146.266 216.015 145.284 212.912C144.302 209.809 145.022 206.311 144.435 202.253Z" fill="#73A79D"/>
</g>
<g clip-path="url(#clip42_135_904)">
<path d="M127.646 304.327C132.322 306.039 137.936 302.44 140.187 296.289C142.437 290.138 140.471 283.765 135.796 282.054C131.12 280.345 125.506 283.943 123.255 290.093C121.005 296.245 122.971 302.617 127.646 304.327Z" fill="#73A79D"/>
<path d="M109.88 314.136C114.771 313.712 118.284 308.154 117.728 301.718C117.171 295.284 112.754 290.411 107.863 290.833C102.972 291.258 99.4595 296.818 100.016 303.253C100.573 309.686 104.989 314.559 109.88 314.136Z" fill="#73A79D"/>
<path d="M147.972 313.92C152.265 316.443 158.433 313.909 161.751 308.263C165.068 302.612 164.278 295.991 159.984 293.468C155.691 290.947 149.522 293.483 146.205 299.129C142.887 304.778 143.679 311.399 147.972 313.92Z" fill="#73A79D"/>
<path d="M170.965 320.612C168.182 316.568 161.613 316.255 156.292 319.916C150.97 323.578 148.914 329.824 151.696 333.869C154.479 337.912 161.048 338.225 166.369 334.563C171.689 330.902 173.747 324.656 170.965 320.612Z" fill="#73A79D"/>
<path d="M142.385 321.376C141.854 317.702 139.602 314.352 136.003 312.653C132.404 310.956 128.387 311.348 125.214 313.272C121.708 315.399 119.465 318.179 116.446 319.394C113.426 320.609 104.969 316.991 99.7034 326.552C95.9845 333.306 99.3984 341.844 106.37 345.134C111.669 347.634 115.863 347.355 118.942 348.807C122.021 350.259 124.472 353.675 129.77 356.175C136.742 359.465 145.502 356.674 148.352 349.509C152.386 339.366 144.215 335.138 143.233 332.035C142.251 328.932 142.972 325.434 142.385 321.376Z" fill="#73A79D"/>
</g>
<g clip-path="url(#clip43_135_904)">
<path d="M127.646 423.45C132.322 425.162 137.936 421.563 140.187 415.412C142.437 409.261 140.471 402.888 135.796 401.177C131.12 399.468 125.506 403.066 123.255 409.217C121.005 415.368 122.971 421.74 127.646 423.45Z" fill="#73A79D"/>
<path d="M109.88 433.259C114.771 432.835 118.284 427.277 117.728 420.841C117.171 414.407 112.754 409.534 107.863 409.956C102.972 410.382 99.4595 415.941 100.016 422.376C100.573 428.81 104.989 433.682 109.88 433.259Z" fill="#73A79D"/>
<path d="M147.972 433.043C152.265 435.566 158.433 433.032 161.751 427.386C165.068 421.735 164.278 415.114 159.984 412.591C155.691 410.071 149.522 412.606 146.205 418.252C142.887 423.901 143.679 430.522 147.972 433.043Z" fill="#73A79D"/>
<path d="M170.965 439.735C168.182 435.691 161.613 435.378 156.292 439.039C150.97 442.701 148.914 448.947 151.696 452.992C154.479 457.035 161.048 457.348 166.369 453.687C171.689 450.025 173.747 443.78 170.965 439.735Z" fill="#73A79D"/>
<path d="M142.385 440.499C141.854 436.825 139.602 433.475 136.003 431.776C132.404 430.079 128.387 430.471 125.214 432.395C121.708 434.522 119.465 437.302 116.446 438.517C113.426 439.732 104.969 436.114 99.7034 445.676C95.9845 452.429 99.3984 460.967 106.37 464.257C111.669 466.757 115.863 466.478 118.942 467.93C122.021 469.382 124.472 472.798 129.77 475.298C136.742 478.588 145.502 475.797 148.352 468.632C152.386 458.489 144.215 454.261 143.233 451.158C142.251 448.055 142.972 444.557 142.385 440.499Z" fill="#73A79D"/>
</g>
<g clip-path="url(#clip44_135_904)">
<path d="M126.7 542.573C131.376 544.285 136.99 540.686 139.241 534.535C141.491 528.384 139.525 522.011 134.85 520.3C130.173 518.591 124.56 522.189 122.308 528.34C120.058 534.491 122.024 540.863 126.7 542.573Z" fill="#73A79D"/>
<path d="M108.934 552.382C113.825 551.958 117.338 546.4 116.782 539.964C116.225 533.53 111.808 528.657 106.917 529.079C102.026 529.505 98.5132 535.064 99.0697 541.499C99.6269 547.933 104.043 552.805 108.934 552.382Z" fill="#73A79D"/>
<path d="M147.026 552.166C151.319 554.689 157.487 552.155 160.805 546.509C164.122 540.858 163.331 534.237 159.038 531.714C154.745 529.194 148.575 531.729 145.258 537.375C141.941 543.025 142.733 549.645 147.026 552.166Z" fill="#73A79D"/>
<path d="M170.019 558.858C167.235 554.814 160.667 554.502 155.346 558.162C150.024 561.824 147.968 568.07 150.75 572.115C153.533 576.158 160.102 576.471 165.423 572.81C170.743 569.148 172.801 562.903 170.019 558.858Z" fill="#73A79D"/>
<path d="M141.438 559.622C140.907 555.949 138.656 552.598 135.057 550.9C131.458 549.202 127.44 549.594 124.268 551.518C120.762 553.645 118.519 556.425 115.499 557.64C112.48 558.855 104.023 555.237 98.7572 564.799C95.0382 571.552 98.4522 580.09 105.424 583.38C110.723 585.88 114.917 585.601 117.996 587.053C121.075 588.505 123.525 591.921 128.824 594.421C135.796 597.711 144.556 594.92 147.405 587.755C151.439 577.612 143.269 573.384 142.287 570.281C141.305 567.178 142.025 563.68 141.438 559.622Z" fill="#73A79D"/>
</g>
<g clip-path="url(#clip45_135_904)">
<path d="M255.141 -0.99127C259.434 1.53196 265.602 -1.0021 268.92 -6.64863C272.237 -12.2989 271.447 -18.9197 267.153 -21.4428C262.86 -23.9637 256.691 -21.4284 253.374 -15.7819C250.056 -10.1327 250.848 -3.51198 255.141 -0.99127Z" fill="#73A79D"/>
<path d="M278.134 5.7005C275.351 1.65684 268.782 1.34427 263.461 5.00449C258.139 8.66708 256.083 14.9127 258.865 18.9575C261.648 23.001 268.217 23.3139 273.538 19.6523C278.858 15.9909 280.916 9.74535 278.134 5.7005Z" fill="#73A79D"/>
<path d="M249.553 6.46455C249.023 2.79129 246.771 -0.558733 243.172 -2.25769C239.573 -3.95546 235.556 -3.56356 232.383 -1.63952C228.877 0.488251 226.634 3.26785 223.615 4.48283C220.595 5.69766 212.138 2.07941 206.872 11.6413C203.153 18.3951 206.567 26.9328 213.539 30.2227C218.838 32.7232 223.032 32.444 226.111 33.8961C229.19 35.3481 231.641 38.764 236.939 41.2642C243.911 44.5542 252.671 41.7628 255.521 34.5982C259.555 24.455 251.384 20.2269 250.402 17.1237C249.42 14.021 250.14 10.5224 249.553 6.46455Z" fill="#73A79D"/>
</g>
<g clip-path="url(#clip46_135_904)">
<path d="M234.815 108.539C239.491 110.251 245.105 106.652 247.356 100.501C249.606 94.3497 247.64 87.9771 242.965 86.2661C238.288 84.5565 232.675 88.1544 230.424 94.3054C228.174 100.457 230.14 106.829 234.815 108.539Z" fill="#73A79D"/>
<path d="M217.049 118.348C221.94 117.924 225.453 112.366 224.897 105.93C224.34 99.4959 219.923 94.6233 215.032 95.045C210.141 95.4704 206.628 101.029 207.185 107.464C207.742 113.898 212.158 118.771 217.049 118.348Z" fill="#73A79D"/>
<path d="M255.141 118.132C259.434 120.655 265.602 118.121 268.92 112.474C272.237 106.824 271.447 100.203 267.153 97.6802C262.86 95.1594 256.691 97.6946 253.374 103.341C250.056 108.99 250.848 115.611 255.141 118.132Z" fill="#73A79D"/>
<path d="M278.134 124.824C275.351 120.78 268.782 120.467 263.461 124.128C258.139 127.79 256.083 134.036 258.865 138.081C261.648 142.124 268.217 142.437 273.538 138.775C278.858 135.114 280.916 128.868 278.134 124.824Z" fill="#73A79D"/>
<path d="M249.553 125.588C249.023 121.914 246.771 118.564 243.172 116.865C239.573 115.168 235.556 115.559 232.383 117.484C228.877 119.611 226.634 122.391 223.615 123.606C220.595 124.821 212.138 121.202 206.872 130.764C203.153 137.518 206.567 146.056 213.539 149.346C218.838 151.846 223.032 151.567 226.111 153.019C229.19 154.471 231.641 157.887 236.939 160.387C243.911 163.677 252.671 160.886 255.521 153.721C259.555 143.578 251.384 139.35 250.402 136.247C249.42 133.144 250.14 129.645 249.553 125.588Z" fill="#73A79D"/>
</g>
<g clip-path="url(#clip47_135_904)">
<path d="M233.869 227.662C238.545 229.374 244.159 225.775 246.41 219.624C248.66 213.473 246.694 207.1 242.019 205.389C237.342 203.68 231.729 207.277 229.477 213.428C227.227 219.58 229.193 225.952 233.869 227.662Z" fill="#73A79D"/>
<path d="M216.103 237.471C220.994 237.047 224.507 231.489 223.951 225.053C223.394 218.619 218.977 213.746 214.086 214.168C209.195 214.593 205.682 220.152 206.239 226.588C206.796 233.021 211.212 237.894 216.103 237.471Z" fill="#73A79D"/>
<path d="M254.195 237.255C258.488 239.778 264.656 237.244 267.973 231.597C271.291 225.947 270.5 219.326 266.207 216.803C261.914 214.282 255.744 216.818 252.427 222.464C249.11 228.113 249.902 234.734 254.195 237.255Z" fill="#73A79D"/>
<path d="M277.188 243.947C274.404 239.903 267.836 239.59 262.515 243.251C257.193 246.913 255.136 253.159 257.919 257.204C260.702 261.247 267.271 261.56 272.592 257.898C277.912 254.237 279.97 247.991 277.188 243.947Z" fill="#73A79D"/>
<path d="M248.607 244.711C248.076 241.037 245.825 237.687 242.225 235.988C238.627 234.291 234.609 234.683 231.437 236.607C227.931 238.734 225.688 241.514 222.668 242.729C219.649 243.944 211.192 240.326 205.926 249.887C202.207 256.641 205.621 265.179 212.593 268.469C217.892 270.969 222.086 270.69 225.165 272.142C228.244 273.594 230.694 277.01 235.993 279.51C242.965 282.8 251.725 280.009 254.574 272.844C258.608 262.701 250.438 258.473 249.455 255.37C248.474 252.267 249.194 248.769 248.607 244.711Z" fill="#73A79D"/>
</g>
<g clip-path="url(#clip48_135_904)">
<path d="M231.817 346.785C236.493 348.497 242.107 344.898 244.358 338.747C246.608 332.596 244.642 326.223 239.967 324.512C235.29 322.803 229.677 326.401 227.426 332.552C225.176 338.703 227.142 345.075 231.817 346.785Z" fill="#73A79D"/>
<path d="M214.051 356.594C218.942 356.17 222.455 350.612 221.899 344.176C221.342 337.742 216.925 332.869 212.034 333.291C207.143 333.716 203.63 339.276 204.187 345.711C204.744 352.144 209.16 357.017 214.051 356.594Z" fill="#73A79D"/>
<path d="M252.143 356.378C256.436 358.901 262.604 356.367 265.922 350.721C269.239 345.07 268.448 338.449 264.155 335.926C259.862 333.405 253.693 335.941 250.376 341.587C247.058 347.236 247.85 353.857 252.143 356.378Z" fill="#73A79D"/>
<path d="M275.136 363.07C272.353 359.026 265.784 358.713 260.463 362.374C255.141 366.036 253.085 372.282 255.867 376.327C258.65 380.37 265.219 380.683 270.54 377.021C275.86 373.36 277.918 367.114 275.136 363.07Z" fill="#73A79D"/>
<path d="M246.555 363.834C246.025 360.16 243.773 356.81 240.174 355.111C236.575 353.414 232.557 353.806 229.385 355.73C225.879 357.857 223.636 360.637 220.617 361.852C217.597 363.067 209.14 359.449 203.874 369.01C200.155 375.764 203.569 384.302 210.541 387.592C215.84 390.092 220.034 389.813 223.113 391.265C226.192 392.717 228.643 396.133 233.941 398.633C240.913 401.923 249.673 399.132 252.523 391.967C256.557 381.824 248.386 377.596 247.404 374.493C246.422 371.39 247.142 367.892 246.555 363.834Z" fill="#73A79D"/>
</g>
<g clip-path="url(#clip49_135_904)">
<path d="M231.817 465.908C236.493 467.62 242.107 464.021 244.358 457.87C246.608 451.719 244.642 445.346 239.967 443.635C235.29 441.926 229.677 445.524 227.426 451.675C225.176 457.826 227.142 464.198 231.817 465.908Z" fill="#73A79D"/>
<path d="M214.051 475.717C218.942 475.293 222.455 469.735 221.899 463.299C221.342 456.865 216.925 451.992 212.034 452.414C207.143 452.84 203.63 458.399 204.187 464.834C204.744 471.268 209.16 476.14 214.051 475.717Z" fill="#73A79D"/>
<path d="M252.143 475.501C256.436 478.024 262.604 475.49 265.922 469.844C269.239 464.193 268.448 457.572 264.155 455.049C259.862 452.529 253.693 455.064 250.376 460.71C247.058 466.359 247.85 472.98 252.143 475.501Z" fill="#73A79D"/>
<path d="M275.136 482.193C272.353 478.149 265.784 477.836 260.463 481.497C255.141 485.159 253.085 491.405 255.867 495.45C258.65 499.493 265.219 499.806 270.54 496.145C275.86 492.483 277.918 486.238 275.136 482.193Z" fill="#73A79D"/>
<path d="M246.555 482.957C246.025 479.283 243.773 475.933 240.174 474.234C236.575 472.537 232.557 472.929 229.385 474.853C225.879 476.98 223.636 479.76 220.617 480.975C217.597 482.19 209.14 478.572 203.874 488.134C200.155 494.887 203.569 503.425 210.541 506.715C215.84 509.215 220.034 508.936 223.113 510.388C226.192 511.84 228.643 515.256 233.941 517.756C240.913 521.046 249.673 518.255 252.523 511.09C256.557 500.947 248.386 496.719 247.404 493.616C246.422 490.513 247.142 487.015 246.555 482.957Z" fill="#73A79D"/>
</g>
<g clip-path="url(#clip50_135_904)">
<path d="M230.872 585.031C235.548 586.743 241.162 583.144 243.413 576.993C245.663 570.842 243.697 564.469 239.022 562.758C234.345 561.049 228.732 564.647 226.48 570.798C224.23 576.949 226.196 583.321 230.872 585.031Z" fill="#73A79D"/>
<path d="M213.106 594.84C217.997 594.416 221.51 588.858 220.954 582.422C220.397 575.988 215.98 571.115 211.089 571.537C206.198 571.963 202.685 577.522 203.242 583.957C203.799 590.391 208.215 595.263 213.106 594.84Z" fill="#73A79D"/>
<path d="M251.198 594.624C255.491 597.147 261.659 594.613 264.976 588.967C268.294 583.316 267.503 576.696 263.21 574.172C258.917 571.652 252.747 574.187 249.43 579.833C246.113 585.483 246.905 592.103 251.198 594.624Z" fill="#73A79D"/>
</g>
<g clip-path="url(#clip51_135_904)">
<path d="M357.668 -28.8157C357.137 -32.489 354.885 -35.839 351.286 -37.538C347.688 -39.2357 343.67 -38.8438 340.498 -36.9198C336.992 -34.792 334.749 -32.0124 331.729 -30.7974C328.71 -29.5826 320.252 -33.2009 314.987 -23.6389C311.268 -16.8852 314.682 -8.34743 321.653 -5.05762C326.953 -2.55707 331.147 -2.83628 334.226 -1.3842C337.304 0.0678747 339.755 3.48373 345.053 5.98397C352.025 9.27394 360.786 6.48248 363.635 -0.682112C367.669 -10.8253 359.498 -15.0534 358.516 -18.1565C357.535 -21.2592 358.255 -24.7578 357.668 -28.8157Z" fill="#73A79D"/>
</g>
<g clip-path="url(#clip52_135_904)">
<path d="M342.929 73.2585C347.605 74.9705 353.219 71.3716 355.471 65.2206C357.721 59.0695 355.755 52.6968 351.08 50.9859C346.403 49.2762 340.789 52.8742 338.538 59.0251C336.288 65.1763 338.254 71.5489 342.929 73.2585Z" fill="#73A79D"/>
<path d="M325.163 83.0677C330.054 82.6437 333.567 77.0857 333.011 70.6495C332.454 64.2157 328.037 59.343 323.146 59.7647C318.255 60.1901 314.743 65.7491 315.299 72.1842C315.856 78.6181 320.273 83.4906 325.163 83.0677Z" fill="#73A79D"/>
<path d="M363.255 82.8515C367.548 85.3747 373.716 82.8407 377.034 77.1941C380.352 71.5439 379.561 64.923 375.267 62.4C370.975 59.8791 364.805 62.4143 361.488 68.0609C358.171 73.7101 358.962 80.3308 363.255 82.8515Z" fill="#73A79D"/>
<path d="M386.248 89.5433C383.465 85.4996 376.896 85.187 371.576 88.8473C366.254 92.5099 364.197 98.7554 366.98 102.8C369.762 106.844 376.331 107.157 381.652 103.495C386.972 99.8337 389.03 93.5881 386.248 89.5433Z" fill="#73A79D"/>
<path d="M357.668 90.3073C357.137 86.6341 354.885 83.284 351.286 81.5851C347.688 79.8873 343.67 80.2792 340.498 82.2033C336.992 84.331 334.749 87.1106 331.729 88.3256C328.71 89.5404 320.252 85.9222 314.987 95.4841C311.268 102.238 314.682 110.776 321.653 114.065C326.953 116.566 331.147 116.287 334.226 117.739C337.304 119.191 339.755 122.607 345.053 125.107C352.025 128.397 360.786 125.606 363.635 118.441C367.669 108.298 359.498 104.07 358.516 100.967C357.535 97.8638 358.255 94.3652 357.668 90.3073Z" fill="#73A79D"/>
</g>
<g clip-path="url(#clip53_135_904)">
<path d="M341.983 192.382C346.659 194.094 352.273 190.495 354.524 184.344C356.774 178.193 354.808 171.82 350.133 170.109C345.456 168.399 339.843 171.997 337.592 178.148C335.342 184.299 337.308 190.672 341.983 192.382Z" fill="#73A79D"/>
<path d="M324.217 202.191C329.108 201.767 332.621 196.209 332.065 189.773C331.508 183.339 327.091 178.466 322.2 178.888C317.309 179.313 313.796 184.872 314.353 191.307C314.91 197.741 319.326 202.614 324.217 202.191Z" fill="#73A79D"/>
<path d="M362.309 201.975C366.602 204.498 372.77 201.964 376.088 196.317C379.405 190.667 378.615 184.046 374.321 181.523C370.028 179.002 363.859 181.537 360.542 187.184C357.224 192.833 358.016 199.454 362.309 201.975Z" fill="#73A79D"/>
<path d="M385.302 208.666C382.519 204.623 375.95 204.31 370.629 207.97C365.307 211.633 363.251 217.878 366.033 221.923C368.816 225.967 375.385 226.28 380.706 222.618C386.026 218.957 388.084 212.711 385.302 208.666Z" fill="#73A79D"/>
<path d="M356.721 209.43C356.191 205.757 353.939 202.407 350.34 200.708C346.741 199.01 342.723 199.402 339.551 201.326C336.045 203.454 333.802 206.234 330.783 207.449C327.763 208.663 319.306 205.045 314.04 214.607C310.321 221.361 313.735 229.899 320.707 233.188C326.006 235.689 330.2 235.41 333.279 236.862C336.358 238.314 338.809 241.73 344.107 244.23C351.079 247.52 359.839 244.729 362.689 237.564C366.723 227.421 358.552 223.193 357.57 220.09C356.588 216.987 357.308 213.488 356.721 209.43Z" fill="#73A79D"/>
</g>
<g clip-path="url(#clip54_135_904)">
<path d="M339.932 311.505C344.608 313.217 350.222 309.618 352.474 303.467C354.723 297.316 352.757 290.943 348.082 289.232C343.406 287.522 337.792 291.12 335.541 297.271C333.291 303.422 335.257 309.795 339.932 311.505Z" fill="#73A79D"/>
<path d="M322.166 321.314C327.057 320.89 330.57 315.332 330.014 308.896C329.457 302.462 325.04 297.589 320.149 298.011C315.258 298.436 311.746 303.995 312.302 310.43C312.859 316.864 317.275 321.737 322.166 321.314Z" fill="#73A79D"/>
<path d="M360.258 321.098C364.551 323.621 370.719 321.087 374.037 315.44C377.354 309.79 376.564 303.169 372.27 300.646C367.977 298.125 361.808 300.66 358.491 306.307C355.174 311.956 355.965 318.577 360.258 321.098Z" fill="#73A79D"/>
<path d="M383.251 327.789C380.468 323.746 373.899 323.433 368.578 327.093C363.257 330.756 361.2 337.002 363.982 341.046C366.765 345.09 373.334 345.403 378.655 341.741C383.975 338.08 386.033 331.834 383.251 327.789Z" fill="#73A79D"/>
<path d="M354.671 328.553C354.14 324.88 351.888 321.53 348.289 319.831C344.691 318.133 340.673 318.525 337.501 320.449C333.994 322.577 331.752 325.357 328.732 326.572C325.712 327.787 317.255 324.168 311.99 333.73C308.271 340.484 311.685 349.022 318.656 352.312C323.956 354.812 328.15 354.533 331.229 355.985C334.307 357.437 336.758 360.853 342.056 363.353C349.028 366.643 357.789 363.852 360.638 356.687C364.672 346.544 356.501 342.316 355.519 339.213C354.537 336.11 355.258 332.611 354.671 328.553Z" fill="#73A79D"/>
</g>
<g clip-path="url(#clip55_135_904)">
<path d="M339.932 430.628C344.608 432.34 350.222 428.741 352.474 422.59C354.723 416.439 352.757 410.066 348.082 408.355C343.406 406.645 337.792 410.243 335.541 416.394C333.291 422.545 335.257 428.918 339.932 430.628Z" fill="#73A79D"/>
<path d="M322.166 440.437C327.057 440.013 330.57 434.455 330.014 428.019C329.457 421.585 325.04 416.712 320.149 417.134C315.258 417.559 311.746 423.118 312.302 429.553C312.859 435.987 317.275 440.86 322.166 440.437Z" fill="#73A79D"/>
<path d="M360.258 440.221C364.551 442.744 370.719 440.21 374.037 434.563C377.354 428.913 376.564 422.292 372.27 419.769C367.977 417.248 361.808 419.783 358.491 425.43C355.174 431.079 355.965 437.7 360.258 440.221Z" fill="#73A79D"/>
<path d="M383.251 446.912C380.468 442.869 373.899 442.556 368.578 446.216C363.257 449.879 361.2 456.125 363.982 460.169C366.765 464.213 373.334 464.526 378.655 460.864C383.975 457.203 386.033 450.957 383.251 446.912Z" fill="#73A79D"/>
<path d="M354.671 447.676C354.14 444.003 351.888 440.653 348.289 438.954C344.691 437.256 340.673 437.648 337.501 439.572C333.994 441.7 331.752 444.48 328.732 445.695C325.712 446.91 317.255 443.291 311.99 452.853C308.271 459.607 311.685 468.145 318.656 471.435C323.956 473.935 328.15 473.656 331.229 475.108C334.307 476.56 336.758 479.976 342.056 482.476C349.028 485.766 357.789 482.975 360.638 475.81C364.672 465.667 356.501 461.439 355.519 458.336C354.537 455.233 355.258 451.734 354.671 447.676Z" fill="#73A79D"/>
</g>
<g clip-path="url(#clip56_135_904)">
<path d="M338.986 549.751C343.662 551.463 349.276 547.864 351.527 541.713C353.777 535.562 351.811 529.189 347.136 527.478C342.459 525.768 336.846 529.366 334.595 535.517C332.345 541.668 334.311 548.041 338.986 549.751Z" fill="#73A79D"/>
<path d="M321.22 559.56C326.111 559.136 329.624 553.578 329.068 547.142C328.511 540.708 324.094 535.835 319.203 536.257C314.312 536.682 310.799 542.241 311.356 548.676C311.913 555.11 316.329 559.983 321.22 559.56Z" fill="#73A79D"/>
<path d="M359.312 559.344C363.605 561.867 369.773 559.333 373.091 553.686C376.408 548.036 375.617 541.415 371.324 538.892C367.031 536.371 360.862 538.907 357.545 544.553C354.227 550.202 355.019 556.823 359.312 559.344Z" fill="#73A79D"/>
<path d="M382.305 566.035C379.521 561.992 372.953 561.679 367.632 565.339C362.31 569.002 360.254 575.248 363.036 579.292C365.819 583.336 372.388 583.649 377.709 579.987C383.029 576.326 385.087 570.08 382.305 566.035Z" fill="#73A79D"/>
<path d="M353.724 566.8C353.194 563.126 350.942 559.776 347.343 558.077C343.744 556.38 339.726 556.771 336.554 558.695C333.048 560.823 330.805 563.603 327.786 564.818C324.766 566.033 316.309 562.414 311.043 571.976C307.324 578.73 310.738 587.268 317.71 590.558C323.009 593.058 327.203 592.779 330.282 594.231C333.361 595.683 335.811 599.099 341.11 601.599C348.082 604.889 356.842 602.098 359.691 594.933C363.725 584.79 355.555 580.562 354.573 577.459C353.591 574.356 354.311 570.857 353.724 566.8Z" fill="#73A79D"/>
</g>
<g clip-path="url(#clip57_135_904)">
<path d="M444.104 14.1716C448.78 15.8836 454.394 12.2847 456.645 6.13368C458.895 -0.0174395 456.929 -6.39008 452.254 -8.10105C447.578 -9.81068 441.964 -6.21275 439.713 -0.0617749C437.463 6.08934 439.429 12.462 444.104 14.1716Z" fill="#73A79D"/>
<path d="M426.338 23.9808C431.229 23.5568 434.742 17.9987 434.186 11.5626C433.629 5.12875 429.212 0.256077 424.321 0.677776C419.43 1.10318 415.918 6.66223 416.474 13.0973C417.031 19.5312 421.447 24.4037 426.338 23.9808Z" fill="#73A79D"/>
<path d="M464.43 23.7646C468.723 26.2878 474.891 23.7538 478.209 18.1072C481.526 12.457 480.736 5.83613 476.442 3.31305C472.149 0.792197 465.98 3.32744 462.663 8.97397C459.345 14.6232 460.137 21.2439 464.43 23.7646Z" fill="#73A79D"/>
<path d="M487.423 30.4564C484.64 26.4127 478.071 26.1001 472.75 29.7603C467.428 33.4229 465.372 39.6685 468.154 43.7134C470.937 47.7569 477.506 48.0697 482.827 44.4082C488.147 40.7468 490.205 34.5012 487.423 30.4564Z" fill="#73A79D"/>
<path d="M458.843 31.2204C458.312 27.5471 456.06 24.1971 452.461 22.4982C448.862 20.8004 444.845 21.1923 441.672 23.1163C438.166 25.2441 435.924 28.0237 432.904 29.2387C429.884 30.4535 421.427 26.8353 416.161 36.3972C412.443 43.1509 415.856 51.6887 422.828 54.9785C428.127 57.4791 432.321 57.1999 435.4 58.6519C438.479 60.104 440.93 63.5199 446.228 66.0201C453.2 69.3101 461.96 66.5186 464.81 59.354C468.844 49.2108 460.673 44.9827 459.691 41.8796C458.709 38.7769 459.43 35.2783 458.843 31.2204Z" fill="#73A79D"/>
</g>
<g clip-path="url(#clip58_135_904)">
<path d="M444.104 133.295C448.78 135.007 454.394 131.408 456.645 125.257C458.895 119.106 456.929 112.733 452.254 111.022C447.578 109.312 441.964 112.91 439.713 119.061C437.463 125.212 439.429 131.585 444.104 133.295Z" fill="#73A79D"/>
<path d="M426.338 143.104C431.229 142.68 434.742 137.122 434.186 130.686C433.629 124.252 429.212 119.379 424.321 119.801C419.43 120.226 415.918 125.785 416.474 132.22C417.031 138.654 421.447 143.527 426.338 143.104Z" fill="#73A79D"/>
<path d="M464.43 142.888C468.723 145.411 474.891 142.877 478.209 137.23C481.526 131.58 480.736 124.959 476.442 122.436C472.149 119.915 465.98 122.45 462.663 128.097C459.345 133.746 460.137 140.367 464.43 142.888Z" fill="#73A79D"/>
<path d="M487.423 149.579C484.64 145.536 478.071 145.223 472.75 148.883C467.428 152.546 465.372 158.792 468.154 162.836C470.937 166.88 477.506 167.193 482.827 163.531C488.147 159.87 490.205 153.624 487.423 149.579Z" fill="#73A79D"/>
<path d="M458.843 150.343C458.312 146.67 456.06 143.32 452.461 141.621C448.862 139.923 444.845 140.315 441.672 142.239C438.166 144.367 435.924 147.147 432.904 148.362C429.884 149.577 421.427 145.958 416.161 155.52C412.443 162.274 415.856 170.812 422.828 174.102C428.127 176.602 432.321 176.323 435.4 177.775C438.479 179.227 440.93 182.643 446.228 185.143C453.2 188.433 461.96 185.642 464.81 178.477C468.844 168.334 460.673 164.106 459.691 161.003C458.709 157.9 459.43 154.401 458.843 150.343Z" fill="#73A79D"/>
</g>
<g clip-path="url(#clip59_135_904)">
<path d="M443.158 252.418C447.834 254.13 453.448 250.531 455.699 244.38C457.949 238.229 455.983 231.856 451.308 230.145C446.631 228.435 441.018 232.033 438.767 238.184C436.516 244.335 438.482 250.708 443.158 252.418Z" fill="#73A79D"/>
<path d="M425.392 262.227C430.283 261.803 433.796 256.245 433.24 249.809C432.683 243.375 428.266 238.502 423.375 238.924C418.484 239.349 414.971 244.908 415.528 251.343C416.085 257.777 420.501 262.65 425.392 262.227Z" fill="#73A79D"/>
<path d="M463.484 262.011C467.777 264.534 473.945 262 477.263 256.353C480.58 250.703 479.789 244.082 475.496 241.559C471.203 239.038 465.033 241.574 461.716 247.22C458.399 252.869 459.191 259.49 463.484 262.011Z" fill="#73A79D"/>
<path d="M486.477 268.702C483.693 264.659 477.125 264.346 471.804 268.006C466.482 271.669 464.426 277.915 467.208 281.959C469.991 286.003 476.56 286.316 481.881 282.654C487.201 278.993 489.259 272.747 486.477 268.702Z" fill="#73A79D"/>
<path d="M457.896 269.467C457.365 265.793 455.114 262.443 451.515 260.744C447.916 259.046 443.898 259.438 440.726 261.362C437.22 263.49 434.977 266.27 431.957 267.485C428.938 268.7 420.481 265.081 415.215 274.643C411.496 281.397 414.91 289.935 421.882 293.225C427.181 295.725 431.375 295.446 434.454 296.898C437.533 298.35 439.983 301.766 445.282 304.266C452.254 307.556 461.014 304.765 463.863 297.6C467.897 287.457 459.727 283.229 458.745 280.126C457.763 277.023 458.483 273.524 457.896 269.467Z" fill="#73A79D"/>
</g>
<g clip-path="url(#clip60_135_904)">
<path d="M441.107 371.541C445.783 373.253 451.397 369.654 453.648 363.503C455.898 357.352 453.932 350.979 449.257 349.268C444.58 347.558 438.967 351.156 436.716 357.307C434.466 363.458 436.432 369.831 441.107 371.541Z" fill="#73A79D"/>
<path d="M423.341 381.35C428.232 380.926 431.745 375.368 431.189 368.932C430.632 362.498 426.215 357.625 421.324 358.047C416.433 358.472 412.92 364.031 413.477 370.466C414.034 376.9 418.45 381.773 423.341 381.35Z" fill="#73A79D"/>
<path d="M461.433 381.134C465.726 383.657 471.894 381.123 475.212 375.476C478.529 369.826 477.739 363.205 473.445 360.682C469.152 358.161 462.983 360.697 459.666 366.343C456.348 371.992 457.14 378.613 461.433 381.134Z" fill="#73A79D"/>
<path d="M484.426 387.826C481.643 383.782 475.074 383.469 469.753 387.129C464.431 390.792 462.375 397.038 465.157 401.082C467.94 405.126 474.509 405.439 479.83 401.777C485.15 398.116 487.208 391.87 484.426 387.826Z" fill="#73A79D"/>
<path d="M455.845 388.59C455.315 384.916 453.063 381.566 449.464 379.867C445.865 378.17 441.848 378.561 438.675 380.485C435.169 382.613 432.926 385.393 429.907 386.608C426.887 387.823 418.43 384.204 413.164 393.766C409.445 400.52 412.859 409.058 419.831 412.348C425.13 414.848 429.324 414.569 432.403 416.021C435.482 417.473 437.933 420.889 443.231 423.389C450.203 426.679 458.963 423.888 461.813 416.723C465.847 406.58 457.676 402.352 456.694 399.249C455.712 396.146 456.432 392.647 455.845 388.59Z" fill="#73A79D"/>
</g>
<g clip-path="url(#clip61_135_904)">
<path d="M441.107 490.664C445.783 492.376 451.397 488.777 453.648 482.626C455.898 476.475 453.932 470.102 449.257 468.391C444.58 466.682 438.967 470.279 436.716 476.43C434.466 482.582 436.432 488.954 441.107 490.664Z" fill="#73A79D"/>
<path d="M423.341 500.473C428.232 500.049 431.745 494.491 431.189 488.055C430.632 481.621 426.215 476.748 421.324 477.17C416.433 477.595 412.92 483.154 413.477 489.589C414.034 496.023 418.45 500.896 423.341 500.473Z" fill="#73A79D"/>
<path d="M461.433 500.257C465.726 502.78 471.894 500.246 475.212 494.599C478.529 488.949 477.739 482.328 473.445 479.805C469.152 477.284 462.983 479.82 459.666 485.466C456.348 491.115 457.14 497.736 461.433 500.257Z" fill="#73A79D"/>
<path d="M484.426 506.949C481.643 502.905 475.074 502.592 469.753 506.253C464.431 509.915 462.375 516.161 465.157 520.206C467.94 524.249 474.509 524.562 479.83 520.9C485.15 517.239 487.208 510.993 484.426 506.949Z" fill="#73A79D"/>
<path d="M455.845 507.713C455.315 504.039 453.063 500.689 449.464 498.99C445.865 497.293 441.848 497.684 438.675 499.609C435.169 501.736 432.926 504.516 429.907 505.731C426.887 506.946 418.43 503.327 413.164 512.889C409.445 519.643 412.859 528.181 419.831 531.471C425.13 533.971 429.324 533.692 432.403 535.144C435.482 536.596 437.933 540.012 443.231 542.512C450.203 545.802 458.963 543.011 461.813 535.846C465.847 525.703 457.676 521.475 456.694 518.372C455.712 515.269 456.432 511.77 455.845 507.713Z" fill="#73A79D"/>
</g>
<g clip-path="url(#clip62_135_904)">
<path d="M440.162 609.787C444.838 611.499 450.452 607.9 452.703 601.749C454.953 595.598 452.987 589.225 448.312 587.514C443.635 585.805 438.022 589.402 435.77 595.553C433.52 601.705 435.486 608.077 440.162 609.787Z" fill="#73A79D"/>
</g>
<g clip-path="url(#clip63_135_904)">
<path d="M563.014 -21.5735C562.484 -25.2468 560.232 -28.5968 556.633 -30.2958C553.034 -31.9935 549.016 -31.6016 545.844 -29.6776C542.338 -27.5498 540.095 -24.7702 537.076 -23.5553C534.056 -22.3404 525.599 -25.9587 520.333 -16.3967C516.614 -9.64303 520.028 -1.10525 527 2.18457C532.299 4.68511 536.493 4.40591 539.572 5.85799C542.651 7.31006 545.101 10.7259 550.4 13.2262C557.372 16.5161 566.132 13.7247 568.981 6.56008C573.016 -3.5831 564.845 -7.81121 563.863 -10.9144C562.881 -14.017 563.601 -17.5156 563.014 -21.5735Z" fill="#73A79D"/>
</g>
<g clip-path="url(#clip64_135_904)">
<path d="M548.276 80.5007C552.952 82.2127 558.566 78.6138 560.817 72.4628C563.067 66.3117 561.101 59.939 556.426 58.2281C551.749 56.5184 546.136 60.1164 543.885 66.2673C541.635 72.4184 543.601 78.7911 548.276 80.5007Z" fill="#73A79D"/>
<path d="M530.51 90.3099C535.401 89.8859 538.914 84.3278 538.358 77.8917C537.801 71.4579 533.384 66.5852 528.493 67.0069C523.602 67.4323 520.089 72.9913 520.646 79.4264C521.203 85.8603 525.619 90.7328 530.51 90.3099Z" fill="#73A79D"/>
<path d="M568.602 90.0937C572.895 92.6169 579.063 90.0829 582.381 84.4363C585.698 78.7861 584.907 72.1652 580.614 69.6422C576.321 67.1213 570.152 69.6565 566.835 75.3031C563.517 80.9523 564.309 87.573 568.602 90.0937Z" fill="#73A79D"/>
<path d="M591.595 96.7855C588.812 92.7418 582.243 92.4292 576.922 96.0895C571.6 99.752 569.544 105.998 572.326 110.042C575.109 114.086 581.678 114.399 586.999 110.737C592.319 107.076 594.377 100.83 591.595 96.7855Z" fill="#73A79D"/>
<path d="M563.014 97.5495C562.484 93.8762 560.232 90.5262 556.633 88.8273C553.034 87.1295 549.016 87.5214 545.844 89.4454C542.338 91.5732 540.095 94.3528 537.076 95.5678C534.056 96.7826 525.599 93.1644 520.333 102.726C516.614 109.48 520.028 118.018 527 121.308C532.299 123.808 536.493 123.529 539.572 124.981C542.651 126.433 545.101 129.849 550.4 132.349C557.372 135.639 566.132 132.848 568.981 125.683C573.016 115.54 564.845 111.312 563.863 108.209C562.881 105.106 563.601 101.607 563.014 97.5495Z" fill="#73A79D"/>
</g>
<g clip-path="url(#clip65_135_904)">
<path d="M547.33 199.624C552.006 201.336 557.62 197.737 559.871 191.586C562.121 185.435 560.155 179.062 555.48 177.351C550.803 175.641 545.19 179.239 542.938 185.39C540.688 191.541 542.654 197.914 547.33 199.624Z" fill="#73A79D"/>
<path d="M529.564 209.433C534.455 209.009 537.968 203.451 537.412 197.015C536.855 190.581 532.438 185.708 527.547 186.13C522.656 186.555 519.143 192.114 519.7 198.549C520.257 204.983 524.673 209.856 529.564 209.433Z" fill="#73A79D"/>
<path d="M567.656 209.217C571.949 211.74 578.117 209.206 581.434 203.559C584.752 197.909 583.961 191.288 579.668 188.765C575.375 186.244 569.205 188.78 565.888 194.426C562.571 200.075 563.363 206.696 567.656 209.217Z" fill="#73A79D"/>
<path d="M590.649 215.909C587.865 211.865 581.297 211.552 575.976 215.212C570.654 218.875 568.597 225.121 571.38 229.166C574.163 233.209 580.732 233.522 586.053 229.86C591.373 226.199 593.431 219.953 590.649 215.909Z" fill="#73A79D"/>
<path d="M562.068 216.673C561.537 212.999 559.286 209.649 555.686 207.95C552.088 206.253 548.07 206.644 544.898 208.568C541.392 210.696 539.149 213.476 536.129 214.691C533.11 215.906 524.653 212.287 519.387 221.849C515.668 228.603 519.082 237.141 526.054 240.431C531.353 242.931 535.547 242.652 538.626 244.104C541.704 245.556 544.155 248.972 549.454 251.472C556.426 254.762 565.186 251.971 568.035 244.806C572.069 234.663 563.899 230.435 562.916 227.332C561.935 224.229 562.655 220.73 562.068 216.673Z" fill="#73A79D"/>
</g>
<g clip-path="url(#clip66_135_904)">
<path d="M545.279 318.747C549.955 320.459 555.569 316.86 557.82 310.709C560.07 304.558 558.104 298.185 553.429 296.474C548.752 294.765 543.139 298.362 540.888 304.513C538.637 310.665 540.603 317.037 545.279 318.747Z" fill="#73A79D"/>
<path d="M527.513 328.556C532.404 328.132 535.917 322.574 535.361 316.138C534.804 309.704 530.387 304.831 525.496 305.253C520.605 305.678 517.092 311.237 517.649 317.672C518.206 324.106 522.622 328.979 527.513 328.556Z" fill="#73A79D"/>
<path d="M565.605 328.34C569.898 330.863 576.066 328.329 579.384 322.682C582.701 317.032 581.91 310.411 577.617 307.888C573.324 305.367 567.154 307.903 563.838 313.549C560.52 319.198 561.312 325.819 565.605 328.34Z" fill="#73A79D"/>
<path d="M588.598 335.032C585.814 330.988 579.246 330.675 573.925 334.336C568.603 337.998 566.547 344.244 569.329 348.289C572.112 352.332 578.681 352.645 584.002 348.983C589.322 345.322 591.38 339.076 588.598 335.032Z" fill="#73A79D"/>
<path d="M560.017 335.796C559.486 332.122 557.235 328.772 553.636 327.073C550.037 325.376 546.019 325.767 542.847 327.692C539.341 329.819 537.098 332.599 534.079 333.814C531.059 335.029 522.602 331.41 517.336 340.972C513.617 347.726 517.031 356.264 524.003 359.554C529.302 362.054 533.496 361.775 536.575 363.227C539.654 364.679 542.104 368.095 547.403 370.595C554.375 373.885 563.135 371.094 565.984 363.929C570.018 353.786 561.848 349.558 560.866 346.455C559.884 343.352 560.604 339.853 560.017 335.796Z" fill="#73A79D"/>
</g>
<g clip-path="url(#clip67_135_904)">
<path d="M545.279 437.87C549.955 439.582 555.569 435.983 557.82 429.832C560.07 423.681 558.104 417.308 553.429 415.597C548.752 413.888 543.139 417.485 540.888 423.636C538.637 429.788 540.603 436.16 545.279 437.87Z" fill="#73A79D"/>
<path d="M527.513 447.679C532.404 447.255 535.917 441.697 535.361 435.261C534.804 428.827 530.387 423.954 525.496 424.376C520.605 424.801 517.092 430.36 517.649 436.796C518.206 443.229 522.622 448.102 527.513 447.679Z" fill="#73A79D"/>
<path d="M565.605 447.463C569.898 449.986 576.066 447.452 579.384 441.805C582.701 436.155 581.91 429.534 577.617 427.011C573.324 424.49 567.154 427.026 563.838 432.672C560.52 438.321 561.312 444.942 565.605 447.463Z" fill="#73A79D"/>
<path d="M588.598 454.155C585.814 450.111 579.246 449.798 573.925 453.459C568.603 457.121 566.547 463.367 569.329 467.412C572.112 471.455 578.681 471.768 584.002 468.106C589.322 464.445 591.38 458.199 588.598 454.155Z" fill="#73A79D"/>
<path d="M560.017 454.919C559.486 451.245 557.235 447.895 553.636 446.196C550.037 444.499 546.019 444.891 542.847 446.815C539.341 448.942 537.098 451.722 534.079 452.937C531.059 454.152 522.602 450.534 517.336 460.095C513.617 466.849 517.031 475.387 524.003 478.677C529.302 481.177 533.496 480.898 536.575 482.35C539.654 483.802 542.104 487.218 547.403 489.718C554.375 493.008 563.135 490.217 565.984 483.052C570.018 472.909 561.848 468.681 560.866 465.578C559.884 462.475 560.604 458.977 560.017 454.919Z" fill="#73A79D"/>
</g>
<g clip-path="url(#clip68_135_904)">
<path d="M544.333 556.993C549.008 558.705 554.623 555.106 556.874 548.955C559.124 542.804 557.158 536.431 552.483 534.72C547.806 533.011 542.192 536.609 539.941 542.76C537.691 548.911 539.657 555.283 544.333 556.993Z" fill="#73A79D"/>
<path d="M526.566 566.802C531.458 566.378 534.971 560.82 534.415 554.384C533.858 547.95 529.441 543.077 524.549 543.499C519.659 543.924 516.146 549.484 516.702 555.919C517.26 562.352 521.676 567.225 526.566 566.802Z" fill="#73A79D"/>
<path d="M564.659 566.586C568.951 569.109 575.12 566.575 578.437 560.929C581.755 555.278 580.964 548.657 576.671 546.134C572.378 543.613 566.208 546.149 562.891 551.795C559.574 557.444 560.366 564.065 564.659 566.586Z" fill="#73A79D"/>
<path d="M587.651 573.278C584.868 569.234 578.3 568.921 572.979 572.582C567.657 576.244 565.6 582.49 568.383 586.535C571.165 590.578 577.735 590.891 583.055 587.229C588.376 583.568 590.433 577.322 587.651 573.278Z" fill="#73A79D"/>
<path d="M559.071 574.042C558.54 570.368 556.288 567.018 552.689 565.319C549.091 563.622 545.073 564.014 541.901 565.938C538.395 568.065 536.152 570.845 533.132 572.06C530.113 573.275 521.656 569.657 516.39 579.218C512.671 585.972 516.085 594.51 523.057 597.8C528.356 600.3 532.55 600.021 535.629 601.473C538.707 602.925 541.158 606.341 546.457 608.841C553.428 612.131 562.189 609.34 565.038 602.175C569.072 592.032 560.902 587.804 559.919 584.701C558.938 581.598 559.658 578.1 559.071 574.042Z" fill="#73A79D"/>
</g>
</g>
</g>
<defs>
<clipPath id="clip0_135_904">
<rect width="1148" height="588" rx="20" fill="white"/>
</clipPath>
<clipPath id="clip1_135_904">
<rect width="75.9178" height="75.9178" fill="white" transform="translate(634.449 4.27637)"/>
</clipPath>
<clipPath id="clip2_135_904">
<rect width="75.9178" height="75.9178" fill="white" transform="translate(634.449 123.399)"/>
</clipPath>
<clipPath id="clip3_135_904">
<rect width="75.9178" height="75.9178" fill="white" transform="translate(633.503 242.522)"/>
</clipPath>
<clipPath id="clip4_135_904">
<rect width="75.9178" height="75.9178" fill="white" transform="translate(631.452 361.646)"/>
</clipPath>
<clipPath id="clip5_135_904">
<rect width="75.9178" height="75.9178" fill="white" transform="translate(631.452 480.769)"/>
</clipPath>
<clipPath id="clip6_135_904">
<rect width="75.9178" height="75.9178" fill="white" transform="translate(730.735 -62.4629)"/>
</clipPath>
<clipPath id="clip7_135_904">
<rect width="75.9178" height="75.9178" fill="white" transform="translate(730.735 56.6602)"/>
</clipPath>
<clipPath id="clip8_135_904">
<rect width="75.9178" height="75.9178" fill="white" transform="translate(729.789 175.783)"/>
</clipPath>
<clipPath id="clip9_135_904">
<rect width="75.9178" height="75.9178" fill="white" transform="translate(727.738 294.906)"/>
</clipPath>
<clipPath id="clip10_135_904">
<rect width="75.9178" height="75.9178" fill="white" transform="translate(727.738 414.029)"/>
</clipPath>
<clipPath id="clip11_135_904">
<rect width="75.9178" height="75.9178" fill="white" transform="translate(726.792 533.152)"/>
</clipPath>
<clipPath id="clip12_135_904">
<rect width="75.9178" height="75.9178" fill="white" transform="translate(834.906 -20.0049)"/>
</clipPath>
<clipPath id="clip13_135_904">
<rect width="75.9178" height="75.9178" fill="white" transform="translate(834.906 99.1182)"/>
</clipPath>
<clipPath id="clip14_135_904">
<rect width="75.9178" height="75.9178" fill="white" transform="translate(833.961 218.241)"/>
</clipPath>
<clipPath id="clip15_135_904">
<rect width="75.9178" height="75.9178" fill="white" transform="translate(831.909 337.364)"/>
</clipPath>
<clipPath id="clip16_135_904">
<rect width="75.9178" height="75.9178" fill="white" transform="translate(831.909 456.487)"/>
</clipPath>
<clipPath id="clip17_135_904">
<rect width="75.9178" height="75.9178" fill="white" transform="translate(830.964 575.61)"/>
</clipPath>
<clipPath id="clip18_135_904">
<rect width="75.9178" height="75.9178" fill="white" transform="translate(943.021 -55.2852)"/>
</clipPath>
<clipPath id="clip19_135_904">
<rect width="75.9178" height="75.9178" fill="white" transform="translate(943.021 63.8379)"/>
</clipPath>
<clipPath id="clip20_135_904">
<rect width="75.9178" height="75.9178" fill="white" transform="translate(942.075 182.961)"/>
</clipPath>
<clipPath id="clip21_135_904">
<rect width="75.9178" height="75.9178" fill="white" transform="translate(940.024 302.084)"/>
</clipPath>
<clipPath id="clip22_135_904">
<rect width="75.9178" height="75.9178" fill="white" transform="translate(940.024 421.207)"/>
</clipPath>
<clipPath id="clip23_135_904">
<rect width="75.9178" height="75.9178" fill="white" transform="translate(939.078 540.33)"/>
</clipPath>
<clipPath id="clip24_135_904">
<rect width="75.9178" height="75.9178" fill="white" transform="translate(1044.2 4.75098)"/>
</clipPath>
<clipPath id="clip25_135_904">
<rect width="75.9178" height="75.9178" fill="white" transform="translate(1044.2 123.874)"/>
</clipPath>
<clipPath id="clip26_135_904">
<rect width="75.9178" height="75.9178" fill="white" transform="translate(1043.25 242.997)"/>
</clipPath>
<clipPath id="clip27_135_904">
<rect width="75.9178" height="75.9178" fill="white" transform="translate(1041.2 362.12)"/>
</clipPath>
<clipPath id="clip28_135_904">
<rect width="75.9178" height="75.9178" fill="white" transform="translate(1041.2 481.243)"/>
</clipPath>
<clipPath id="clip29_135_904">
<rect width="75.9178" height="75.9178" fill="white" transform="translate(1147.42 190.203)"/>
</clipPath>
<clipPath id="clip30_135_904">
<rect width="75.9178" height="75.9178" fill="white" transform="translate(1145.37 309.326)"/>
</clipPath>
<clipPath id="clip31_135_904">
<rect width="75.9178" height="75.9178" fill="white" transform="translate(1145.37 428.449)"/>
</clipPath>
<clipPath id="clip32_135_904">
<rect width="75.9178" height="75.9178" fill="white" transform="translate(1144.43 547.572)"/>
</clipPath>
<clipPath id="clip33_135_904">
<rect width="75.9178" height="75.9178" fill="white" transform="translate(3.94336 -9.00098)"/>
</clipPath>
<clipPath id="clip34_135_904">
<rect width="75.9178" height="75.9178" fill="white" transform="translate(3.94336 110.122)"/>
</clipPath>
<clipPath id="clip35_135_904">
<rect width="75.9178" height="75.9178" fill="white" transform="translate(2.99707 229.245)"/>
</clipPath>
<clipPath id="clip36_135_904">
<rect width="75.9178" height="75.9178" fill="white" transform="translate(0.946289 348.368)"/>
</clipPath>
<clipPath id="clip37_135_904">
<rect width="75.9178" height="75.9178" fill="white" transform="translate(0.946289 467.491)"/>
</clipPath>
<clipPath id="clip38_135_904">
<rect width="75.9178" height="75.9178" fill="white" transform="translate(0 586.614)"/>
</clipPath>
<clipPath id="clip39_135_904">
<rect width="75.9178" height="75.9178" fill="white" transform="translate(100.229 -75.7402)"/>
</clipPath>
<clipPath id="clip40_135_904">
<rect width="75.9178" height="75.9178" fill="white" transform="translate(100.229 43.3828)"/>
</clipPath>
<clipPath id="clip41_135_904">
<rect width="75.9178" height="75.9178" fill="white" transform="translate(99.2832 162.506)"/>
</clipPath>
<clipPath id="clip42_135_904">
<rect width="75.9178" height="75.9178" fill="white" transform="translate(97.2324 281.629)"/>
</clipPath>
<clipPath id="clip43_135_904">
<rect width="75.9178" height="75.9178" fill="white" transform="translate(97.2324 400.752)"/>
</clipPath>
<clipPath id="clip44_135_904">
<rect width="75.9178" height="75.9178" fill="white" transform="translate(96.2861 519.875)"/>
</clipPath>
<clipPath id="clip45_135_904">
<rect width="75.9178" height="75.9178" fill="white" transform="translate(204.401 -33.2822)"/>
</clipPath>
<clipPath id="clip46_135_904">
<rect width="75.9178" height="75.9178" fill="white" transform="translate(204.401 85.8408)"/>
</clipPath>
<clipPath id="clip47_135_904">
<rect width="75.9178" height="75.9178" fill="white" transform="translate(203.455 204.964)"/>
</clipPath>
<clipPath id="clip48_135_904">
<rect width="75.9178" height="75.9178" fill="white" transform="translate(201.403 324.087)"/>
</clipPath>
<clipPath id="clip49_135_904">
<rect width="75.9178" height="75.9178" fill="white" transform="translate(201.403 443.21)"/>
</clipPath>
<clipPath id="clip50_135_904">
<rect width="75.9178" height="75.9178" fill="white" transform="translate(200.458 562.333)"/>
</clipPath>
<clipPath id="clip51_135_904">
<rect width="75.9178" height="75.9178" fill="white" transform="translate(312.516 -68.5625)"/>
</clipPath>
<clipPath id="clip52_135_904">
<rect width="75.9178" height="75.9178" fill="white" transform="translate(312.516 50.5605)"/>
</clipPath>
<clipPath id="clip53_135_904">
<rect width="75.9178" height="75.9178" fill="white" transform="translate(311.569 169.684)"/>
</clipPath>
<clipPath id="clip54_135_904">
<rect width="75.9178" height="75.9178" fill="white" transform="translate(309.519 288.807)"/>
</clipPath>
<clipPath id="clip55_135_904">
<rect width="75.9178" height="75.9178" fill="white" transform="translate(309.519 407.93)"/>
</clipPath>
<clipPath id="clip56_135_904">
<rect width="75.9178" height="75.9178" fill="white" transform="translate(308.572 527.053)"/>
</clipPath>
<clipPath id="clip57_135_904">
<rect width="75.9178" height="75.9178" fill="white" transform="translate(413.69 -8.52637)"/>
</clipPath>
<clipPath id="clip58_135_904">
<rect width="75.9178" height="75.9178" fill="white" transform="translate(413.69 110.597)"/>
</clipPath>
<clipPath id="clip59_135_904">
<rect width="75.9178" height="75.9178" fill="white" transform="translate(412.744 229.72)"/>
</clipPath>
<clipPath id="clip60_135_904">
<rect width="75.9178" height="75.9178" fill="white" transform="translate(410.693 348.843)"/>
</clipPath>
<clipPath id="clip61_135_904">
<rect width="75.9178" height="75.9178" fill="white" transform="translate(410.693 467.966)"/>
</clipPath>
<clipPath id="clip62_135_904">
<rect width="75.9178" height="75.9178" fill="white" transform="translate(409.748 587.089)"/>
</clipPath>
<clipPath id="clip63_135_904">
<rect width="75.9178" height="75.9178" fill="white" transform="translate(517.862 -61.3203)"/>
</clipPath>
<clipPath id="clip64_135_904">
<rect width="75.9178" height="75.9178" fill="white" transform="translate(517.862 57.8027)"/>
</clipPath>
<clipPath id="clip65_135_904">
<rect width="75.9178" height="75.9178" fill="white" transform="translate(516.916 176.926)"/>
</clipPath>
<clipPath id="clip66_135_904">
<rect width="75.9178" height="75.9178" fill="white" transform="translate(514.865 296.049)"/>
</clipPath>
<clipPath id="clip67_135_904">
<rect width="75.9178" height="75.9178" fill="white" transform="translate(514.865 415.172)"/>
</clipPath>
<clipPath id="clip68_135_904">
<rect width="75.9178" height="75.9178" fill="white" transform="translate(513.919 534.295)"/>
</clipPath>
</defs>
</svg>
