<svg width="83" height="90" viewBox="0 0 83 90" fill="none" xmlns="http://www.w3.org/2000/svg">
<path d="M40.7914 75.6634C37.1942 73.2105 23.4044 72.9256 16.9591 73.0898C-9.85271 61.1379 13.682 39.8202 21.8539 32.8527C30.0258 25.8853 41.7568 33.7591 49.0207 27.5658C56.2846 21.3725 61.9562 20.3002 71.7814 24.4675C81.6066 28.6347 78.2728 36.4949 75.9808 41.8988C73.6888 47.3027 70.532 46.5434 67.5116 63.2311C64.4912 79.9187 45.2879 78.7295 40.7914 75.6634Z" fill="#FDFFCA"/>
<g clip-path="url(#clip0_134_894)">
<path fill-rule="evenodd" clip-rule="evenodd" d="M65.3845 12.308C64.699 11.625 63.8684 11.1053 62.9545 10.7872C62.0406 10.4691 61.0668 10.3608 60.1054 10.4705C58.6702 10.6463 57.3606 11.3761 56.4561 12.504C55.5515 13.632 55.1236 15.0689 55.2637 16.5079C55.3407 17.0792 55.5185 17.6322 55.7887 18.1413L50.772 20.1246C50.3193 20.1944 49.8712 20.2918 49.4304 20.4163C47.7679 17.9955 45.1429 13.4746 43.2179 10.7621C42.9845 10.4705 42.7804 10.2371 42.6054 9.97462C42.9639 9.72723 43.2962 9.44381 43.597 9.12879C44.2306 8.66885 44.7251 8.04315 45.0262 7.32045C45.3763 6.37917 45.4269 5.35268 45.1711 4.38154C44.9152 3.41039 44.3655 2.54206 43.597 1.89545C42.9329 1.22223 42.1287 0.703392 41.2415 0.375755C40.3544 0.0481176 39.406 -0.0802972 38.4637 -0.000380641C37.018 0.161391 35.6938 0.88517 34.7771 2.01473C33.8603 3.14429 33.4245 4.58903 33.5637 6.03712C33.6808 6.9068 34.0334 7.72791 34.5835 8.41163C35.1336 9.09536 35.8601 9.61567 36.6845 9.91629C34.2054 12.833 30.0637 18.6663 28.6054 20.6496L27.1762 20.4163C25.2688 19.6592 23.3215 19.0068 21.3429 18.4621C21.6696 17.5415 21.7136 16.5442 21.4693 15.5983C21.2251 14.6524 20.7037 13.8011 19.972 13.1538C19.2865 12.4709 18.4559 11.9511 17.542 11.633C16.6281 11.3149 15.6543 11.2067 14.6929 11.3163C13.2329 11.4987 11.9043 12.2512 10.9972 13.4097C10.0901 14.5682 9.6781 16.0385 9.85121 17.4996C9.94944 18.1606 10.1803 18.7948 10.5298 19.3643C10.8793 19.9339 11.3403 20.4268 11.8852 20.8137C12.43 21.2005 13.0475 21.4732 13.7004 21.6155C14.3533 21.7577 15.0282 21.7665 15.6845 21.6413V23.6538L16.2095 26.5704L17.4637 30.9454L18.6304 34.8829C19.0095 36.1371 20.4387 35.7288 20.322 34.3288L19.3012 30.4788L18.2512 26.1038L18.1054 23.333C18.1054 23.0413 17.9304 22.0788 17.9012 21.408C18.4069 21.2062 18.8947 20.9623 19.3595 20.6788C19.8981 20.7126 20.4339 20.7808 20.9637 20.8829C22.8187 21.5052 24.6394 22.2257 26.4179 23.0413C27.3701 23.3192 28.3468 23.5047 29.3345 23.5955C29.5945 23.6127 29.8544 23.5627 30.0894 23.4504C30.3244 23.338 30.5265 23.167 30.6762 22.9538C31.1137 22.3121 37.0345 14.2038 39.7179 11.2871C41.8762 13.8246 45.7845 20.4454 47.622 22.9538C47.7874 23.1719 48.005 23.345 48.2547 23.4571C48.5044 23.5693 48.7783 23.6168 49.0512 23.5955C49.916 23.451 50.7655 23.2264 51.5887 22.9246C52.3179 22.6621 53.047 22.3996 53.747 22.0788C54.447 21.758 55.8179 21.1455 56.8387 20.6788C57.0429 20.6788 57.772 20.5038 57.9762 20.2413C58.2898 20.6098 58.4741 21.0707 58.5012 21.5538C58.6373 22.5212 58.6373 23.503 58.5012 24.4705C58.1286 26.9728 57.5531 29.4406 56.7804 31.8496C56.2554 33.5996 55.4679 35.0871 54.797 36.7788C54.1262 38.4704 55.4679 39.6954 56.0512 38.4121C56.897 36.5455 58.122 34.4454 58.7929 32.5788C59.6797 30.079 60.3721 27.5144 60.8637 24.908C61.1021 23.5279 61.1021 22.1172 60.8637 20.7371C62.322 20.7371 62.0012 21.1746 62.7595 20.9121C63.7086 20.6417 64.5988 20.1966 65.3845 19.5996C66.0101 19.1314 66.5027 18.5081 66.8137 17.7913C67.1685 16.8413 67.2216 15.805 66.9658 14.8237C66.7101 13.8424 66.1579 12.9639 65.3845 12.308ZM19.1262 17.7913C18.8929 18.7246 12.6512 21.8455 12.4762 17.1205C12.528 16.3828 12.858 15.6924 13.3994 15.1888C13.9409 14.6852 14.6534 14.4061 15.3929 14.408C15.9157 14.3306 16.4492 14.3718 16.9541 14.5283C17.4589 14.6847 17.9221 14.9526 18.3095 15.3121C18.6742 15.5994 18.9461 15.9878 19.0913 16.4287C19.2366 16.8696 19.2487 17.3435 19.1262 17.7913ZM36.1887 5.83295C36.2475 5.10053 36.5805 4.41729 37.1213 3.91981C37.662 3.42232 38.3706 3.14726 39.1054 3.14962C39.5984 3.08896 40.0988 3.13575 40.5721 3.28679C41.0453 3.43783 41.4803 3.68954 41.847 4.02462C42.2614 4.27674 42.5893 4.64887 42.7872 5.09164C42.9851 5.53442 43.0438 6.02691 42.9554 6.50379C42.813 6.98474 42.5156 7.40515 42.1095 7.69962C42.1095 7.69962 36.3054 9.47879 36.1887 5.83295ZM64.5095 16.9163C64.3561 17.3918 64.061 17.8091 63.6637 18.1121C63.193 18.4987 62.6329 18.7611 62.0346 18.8755C61.4364 18.9899 60.819 18.9525 60.2388 18.7669C59.6587 18.5813 59.1344 18.2532 58.7136 17.8128C58.2929 17.3723 57.9892 16.8335 57.8304 16.2455C57.8892 15.513 58.2222 14.8298 58.763 14.3323C59.3037 13.8348 60.0123 13.5598 60.747 13.5621C61.2401 13.5015 61.7405 13.5483 62.2137 13.6993C62.687 13.8503 63.1219 14.102 63.4887 14.4371C63.8866 14.7086 64.1956 15.0913 64.3772 15.5374C64.5588 15.9836 64.6048 16.4733 64.5095 16.9455V16.9163Z" fill="black"/>
<path fill-rule="evenodd" clip-rule="evenodd" d="M53.9217 39.3751C52.8072 38.4799 51.5433 37.7887 50.1883 37.3334C45.8848 36.0197 41.4167 35.3225 36.9175 35.2626C31.7559 34.9463 26.5794 35.5588 21.6342 37.0709L21.2842 37.2459C20.8132 37.4305 20.3633 37.6652 19.9425 37.9459C19.055 38.4367 18.3416 39.1908 17.9008 40.1042C17.3286 41.4927 16.8416 42.9148 16.4425 44.3626C15.8883 46.4334 15.5383 48.2417 15.2758 49.3792C15.1758 49.5578 15.0881 49.7429 15.0133 49.9334L14.43 50.1667C13.1383 50.4589 11.8629 50.8191 10.6092 51.2459C9.41333 51.7126 8.80083 52.4417 8.71333 53.0251C7.92583 57.1376 10.5508 61.7751 16.0342 65.2751C22.1358 68.758 29.1156 70.3991 36.13 70.0001C36.3238 69.9636 36.4988 69.8606 36.6247 69.7088C36.7505 69.557 36.8194 69.366 36.8194 69.1688C36.8194 68.9716 36.7505 68.7806 36.6247 68.6288C36.4988 68.4771 36.3238 68.374 36.13 68.3376C29.4463 68.5821 22.8367 66.8688 17.1133 63.4084C12.9425 60.6376 10.6092 57.1084 11.1342 53.9001C10.6675 53.1126 13.5842 53.1709 14.8967 52.8792C15.7229 52.7373 16.5088 52.419 17.2008 51.9459C17.6209 51.4919 17.9216 50.9407 18.0758 50.3417C18.8022 47.2445 19.7776 44.211 20.9925 41.2709C21.3425 40.3667 22.7717 39.9001 24.6092 39.4334C28.6946 38.525 32.8825 38.1622 37.0633 38.3542C38.58 38.3542 39.98 38.5001 41.4967 38.6459C40.4257 40.4344 39.0194 41.9991 37.355 43.2542C36.5586 43.84 35.7203 44.3665 34.8467 44.8292C33.9593 45.2776 33.0434 45.6673 32.105 45.9959C30.375 46.6314 28.5518 46.9763 26.7092 47.0167C26.8152 45.966 26.9906 44.9235 27.2342 43.8959C27.2797 43.6799 27.2419 43.4546 27.1283 43.2653C27.0147 43.0759 26.8337 42.9366 26.6217 42.8751C26.4168 42.8207 26.1988 42.8481 26.0137 42.9515C25.8286 43.0549 25.691 43.2262 25.63 43.4292C24.6217 46.3424 24.1763 49.4206 24.3175 52.5001C24.474 54.672 25.1545 56.7736 26.3008 58.6251C27.6319 60.5063 29.5345 61.9076 31.7258 62.6209C34.7867 63.6357 38.0395 63.9351 41.2342 63.4959C42.365 63.3761 43.474 63.1013 44.53 62.6792C45.3509 62.3743 46.0968 61.8969 46.7175 61.2792C48.2528 59.534 49.2638 57.3906 49.6342 55.0959C50.2153 51.9261 50.1458 48.6713 49.43 45.5292C49.3678 45.2881 49.2146 45.0804 49.0024 44.9498C48.7903 44.8193 48.5358 44.7761 48.2925 44.8292C48.0536 44.8849 47.8462 45.0324 47.7152 45.2398C47.5842 45.4472 47.5401 45.6979 47.5925 45.9376C48.0304 48.3582 48.0304 50.8378 47.5925 53.2584C47.3186 55.5562 46.2932 57.6992 44.6758 59.3542C44.3107 59.6718 43.8836 59.9101 43.4217 60.0542C42.5668 60.3123 41.6868 60.4785 40.7967 60.5501C38.5162 60.7952 36.211 60.6671 33.9717 60.1709C31.8764 59.8424 29.9541 58.8144 28.5175 57.2542C27.2432 55.435 26.5146 53.2899 26.4175 51.0709V49.1751C28.506 49.5985 30.6582 49.5985 32.7467 49.1751C33.92 48.9089 35.0495 48.4767 36.1008 47.8917C37.1634 47.3384 38.1448 46.6416 39.0175 45.8209C40.9672 43.9811 42.4474 41.7007 43.3342 39.1709C45.3139 39.4188 47.2665 39.8484 49.1675 40.4542C50.9758 41.0667 52.3467 41.6792 52.755 42.6709C54.1842 46.1126 54.9425 49.2917 55.4675 50.8084C55.6056 51.3498 55.8878 51.8437 56.2842 52.2376C56.7351 52.5434 57.2398 52.7611 57.7717 52.8792C58.705 53.1709 60.4258 54.2792 61.1842 54.1917C61.0472 56.2336 60.4418 58.2166 59.415 59.9869C58.3883 61.7571 56.9677 63.2672 55.2633 64.4001C51.2258 66.8197 46.612 68.1091 41.905 68.1334C41.7812 68.1331 41.6586 68.1583 41.545 68.2074C41.4313 68.2564 41.3289 68.3283 41.2441 68.4185C41.1593 68.5087 41.094 68.6154 41.0522 68.732C41.0103 68.8485 40.9928 68.9724 41.0008 69.0959C41.0159 69.3461 41.1279 69.5805 41.3131 69.7493C41.4983 69.9182 41.742 70.0081 41.9925 70.0001C47.1053 70.0954 52.1473 68.7946 56.5758 66.2376C58.8043 64.8309 60.6481 62.8923 61.9413 60.5961C63.2344 58.2999 63.9365 55.7183 63.9842 53.0834C63.9885 52.7494 63.8939 52.4216 63.7122 52.1413C63.5305 51.8611 63.27 51.6408 62.9633 51.5084C61.748 50.9744 60.4892 50.545 59.2008 50.2251C58.8508 50.2251 58.5008 49.9042 58.2967 49.8459L58.18 49.5834C57.8592 48.5917 57.48 47.0167 56.9258 45.1501C56.5467 43.9834 56.1675 42.7001 55.6425 41.3876C55.115 40.6787 54.5401 40.0063 53.9217 39.3751Z" fill="black"/>
</g>
<defs>
<clipPath id="clip0_134_894">
<rect width="70" height="70" fill="white" transform="translate(2.76367)"/>
</clipPath>
</defs>
</svg>
