<svg width="30" height="30" viewBox="0 0 30 30" fill="none" xmlns="http://www.w3.org/2000/svg">
<g clip-path="url(#clip0_98_2505)">
<path d="M15.0673 25.4627C13.8164 24.6097 9.02098 24.5106 6.77963 24.5677C-2.54418 20.4114 5.64003 12.9982 8.48181 10.5753C11.3236 8.15233 15.403 10.8904 17.9291 8.73672C20.4551 6.583 22.4274 6.21011 25.8441 7.65928C29.2608 9.10845 28.1015 11.8418 27.3045 13.721C26.5074 15.6002 25.4096 15.3362 24.3593 21.1393C23.3089 26.9425 16.631 26.5289 15.0673 25.4627Z" fill="#E4F9E3"/>
<path fill-rule="evenodd" clip-rule="evenodd" d="M29.0243 0C27.1235 0.231791 25.2431 0.607876 23.3993 1.125C22.0493 1.5375 20.7243 2.075 19.3743 2.5125C17.1618 3.225 17.6618 2.725 14.6868 8.0875C14.4706 6.98033 14.0465 5.92418 13.4368 4.975C12.1868 3.725 10.9368 5.6125 10.0493 7.05C7.41185 11.3625 4.99935 15.2375 4.49935 21.725C4.49106 21.8245 4.52262 21.9231 4.58709 21.9993C4.65155 22.0755 4.74364 22.123 4.8431 22.1313C4.94255 22.1395 5.04123 22.108 5.11742 22.0435C5.1936 21.979 5.24106 21.887 5.24935 21.7875C5.79935 15.6125 8.24935 11.7875 10.9368 7.625C11.3197 6.89688 11.8522 6.25792 12.4993 5.75C12.5743 5.875 12.6493 5.75 12.9743 6.6C13.2993 7.45 13.5493 9.225 14.0368 9.6C14.5243 9.975 15.1368 9.6 15.5243 9.0625C15.9118 8.525 17.9743 4.525 18.7493 4.175C19.1087 4.02762 19.4812 3.91462 19.8618 3.8375C22.6331 2.76914 25.5126 2.0063 28.4493 1.5625C28.4794 2.61697 28.3531 3.67008 28.0743 4.6875C27.3806 7.72066 26.3969 10.6801 25.1368 13.525C24.7618 14.3625 24.1618 16.275 23.3118 16.8875C23.2243 16.7625 22.9618 16.6625 22.8868 16.5875C21.8471 15.6566 20.6375 14.9351 19.3243 14.4625C17.7243 14.25 18.5368 17.8125 18.4618 18.6625C17.5368 18.025 15.2493 16.8625 14.8368 17.8375C14.5618 18.4875 14.9618 19.325 15.0868 19.8375C15.3743 20.925 16.0743 23.025 15.2368 23.8C13.4993 25.0316 11.3613 25.5628 9.24935 25.2875C6.24935 25 7.18685 23.75 6.53685 24.225C6.28685 24.325 6.01185 24.55 6.28685 24.875C6.6508 25.4066 7.19837 25.785 7.82435 25.9375C10.1868 26.625 13.9368 26.2375 15.8493 24.55C17.2493 23.3 16.3993 20.5875 15.8493 18.6625C16.8715 18.9644 17.792 19.5391 18.5118 20.325C18.6419 20.4327 18.8055 20.4917 18.9743 20.4917C19.1432 20.4917 19.3068 20.4327 19.4368 20.325C19.9118 19.7875 19.4368 17.475 19.5368 15.9625H19.7743C20.5158 16.4216 21.222 16.9356 21.8868 17.5C22.1354 17.7963 22.431 18.0497 22.7618 18.25C23.5243 18.5625 24.3868 17.7625 24.8493 17.1375C26.4118 15.075 32.0243 0.325 29.0243 0Z" fill="black"/>
<path fill-rule="evenodd" clip-rule="evenodd" d="M8.82508 20.2875C17.5001 10.5375 21.7376 7.63754 24.4376 5.63754C24.4835 5.60471 24.5226 5.56315 24.5525 5.51522C24.5824 5.4673 24.6026 5.41396 24.6119 5.35825C24.6211 5.30253 24.6194 5.24553 24.6066 5.19051C24.5939 5.13548 24.5704 5.0835 24.5376 5.03754C24.5048 4.99158 24.4632 4.95253 24.4153 4.92263C24.3674 4.89273 24.314 4.87256 24.2583 4.86327C24.2026 4.85399 24.1456 4.85577 24.0906 4.86851C24.0355 4.88125 23.9835 4.90471 23.9376 4.93754C22.1876 6.18754 20.4751 7.25004 18.8626 8.55004C9.73759 16.05 6.42509 21.05 1.13759 27.975L0.175085 29.4C0.135867 29.484 0.128036 29.5792 0.153013 29.6685C0.17799 29.7577 0.23412 29.8351 0.311226 29.8865C0.388331 29.9379 0.481305 29.9599 0.573287 29.9487C0.665269 29.9374 0.750167 29.8935 0.812585 29.825C3.33759 26.525 7.40008 21.8875 8.82508 20.2875Z" fill="black"/>
</g>
<defs>
<clipPath id="clip0_98_2505">
<rect width="30" height="30" fill="white"/>
</clipPath>
</defs>
</svg>
