<svg width="245" height="65" viewBox="0 0 245 65" fill="none" xmlns="http://www.w3.org/2000/svg">
<mask id="mask0_116_505" style="mask-type:luminance" maskUnits="userSpaceOnUse" x="0" y="0" width="64" height="65">
<path d="M31.9629 0C49.6161 0 63.9258 14.481 63.9258 32.3433C63.9258 50.2057 49.6151 64.6867 31.9629 64.6867C14.3107 64.6867 0 50.2057 0 32.3433C0 14.481 14.3097 0 31.9629 0Z" fill="white"/>
</mask>
<g mask="url(#mask0_116_505)">
<path d="M31.9629 0C49.6161 0 63.9258 14.481 63.9258 32.3433C63.9258 50.2057 49.6151 64.6867 31.9629 64.6867C14.3097 64.6867 0 50.2057 0 32.3433C0 14.481 14.3107 0 31.9629 0Z" fill="#D5EDEC"/>
<path d="M16.5864 27.9788C17.5411 27.583 21.5772 25.5808 23.4755 24.6281L23.3113 22.4871C23.347 20.4012 23.4296 16.108 23.4724 15.6255C23.5153 15.142 24.6475 13.0816 25.2074 12.1116L28.7877 10.6836L31.5009 12.1106L35.1902 14.0863L39.4222 17.7084L45.9329 21.3855L45.7167 25.5573L45.935 29.674L46.9121 32.1986L47.1845 34.8883L49.1378 35.2168C49.8977 35.5462 51.4705 36.248 51.6878 36.4234C51.9051 36.5989 53.7676 37.4475 54.6723 37.8504L65.8485 38.2319L68.0191 40.3729L66.0689 52.5048L41.4939 52.8945L40.2454 51.6868L35.4697 42.1365L34.3844 41.2032L29.773 42.2477L24.6199 45.5973L20.0625 46.0921L16.3191 45.5443C15.6316 45.0139 14.2138 43.9194 14.0404 43.7879C13.867 43.6563 12.7022 42.6353 12.1412 42.1416L9.69929 41.4286L8.23354 38.0799L8.07034 35.1709L7.5277 32.9197L7.47363 30.5043L9.80639 29.2416C11.6689 28.9845 15.6327 28.3725 16.5874 27.9778L16.5864 27.9788Z" fill="white"/>
<path d="M73.8417 59.2822C73.8417 59.6341 60.0247 62.0688 53.1172 63.2418L40.8262 52.646C42.2124 51.2813 45.1459 48.4375 45.7916 47.9856C46.5984 47.4205 47.2808 45.8507 48.5211 43.8403C49.5136 42.2328 50.5468 38.4394 50.9395 36.7441L52.4909 37.1827L52.6154 39.3176C52.5328 39.59 52.5042 40.1336 53.0499 40.1336C53.5956 40.1336 54.3525 39.5053 54.6636 39.1911C58.3662 39.337 65.8336 39.641 66.0815 39.6909C66.3294 39.7409 69.6179 39.5441 71.2315 39.439C73.7142 39.6063 78.6908 40.0031 78.7408 40.254C78.803 40.5681 73.8427 58.8415 73.8427 59.2812L73.8417 59.2822Z" fill="#00A7BD"/>
<path d="M24.2279 17.8327C23.8352 19.12 24.3728 22.2881 24.691 23.711C25.404 23.9833 27.0207 24.5586 27.7836 24.6749C28.7374 24.8208 29.8359 24.9962 30.5009 25.1717C31.166 25.3471 32.8714 25.6684 33.5355 25.8438C34.2005 26.0193 37.0902 27.0423 37.4666 27.2178C37.8419 27.3932 41.774 30.9306 43.2194 31.3111C44.3761 31.615 45.6664 31.5151 46.1672 31.4273C46.1764 30.9887 46.1845 30.0004 46.1376 29.5556C46.0795 28.9997 45.9928 28.0929 45.9928 27.5381C45.9928 26.9822 45.9928 27.0699 46.0213 26.3681C46.0499 25.6664 46.0795 25.8418 46.1366 25.14C46.1947 24.4383 46.2519 23.9701 46.1937 23.4142C46.1356 22.8583 45.7602 22.2442 45.5868 21.9229C45.4134 21.6016 44.6902 21.2212 44.373 20.958C44.0548 20.6949 43.5346 20.2267 42.9858 19.8758C42.437 19.5249 41.3671 18.7936 41.0488 18.6181L41.007 18.5947C40.5878 18.3631 38.7518 17.3513 38.3897 17.0973C38.0143 16.8341 36.0773 15.2847 35.8172 15.1093C35.6091 14.9685 34.5738 14.1933 34.0832 13.8231L32.2625 12.5073L30.5856 11.3965C29.9206 11.4261 28.464 11.4964 27.955 11.5434C27.3195 11.6025 26.0476 13.2407 25.4407 14.0883C24.9552 14.7666 24.4299 16.8668 24.2289 17.8317L24.2279 17.8327Z" fill="#00A7BD"/>
<path d="M53.8314 36.9088L57.8084 37.5208L66.1398 37.6534L66.6978 38.9692C66.3816 39.0079 57.6422 38.962 56.2182 38.7468C54.7943 38.5326 54.3363 38.6326 54.2863 38.7091C53.605 39.5904 53.2255 39.9739 52.6574 39.5526C52.0892 39.1314 52.6574 38.2878 52.2025 37.9043C51.7475 37.5208 51.6343 38.0961 50.2706 37.023C48.9068 35.95 49.2098 36.2182 47.6563 36.2182C46.1028 36.2182 45.8774 34.4169 46.1028 33.9191C46.3283 33.4214 46.8219 32.0791 46.519 32.3096C46.2161 32.5401 45.2685 32.0413 45.1175 31.6965C44.9655 31.3518 45.7989 30.7 45.3062 29.4729C44.8135 28.2469 45.192 26.7903 45.5327 24.8737C45.8733 22.9571 44.5473 21.5393 44.0169 21.3863C43.4865 21.2333 40.5693 19.0485 39.9634 18.8577C39.3575 18.666 36.6678 16.4057 36.1751 15.8304C35.6825 15.2551 33.4099 14.1066 32.2736 13.7618C31.1373 13.417 31.2128 12.497 30.4172 11.9992C29.6216 11.5015 28.9402 11.6932 27.197 11.885C25.4549 12.0767 24.0921 16.0639 23.7515 17.7888C23.4108 19.5136 24.1319 23.4998 24.2829 23.4233C24.4338 23.3468 28.1089 23.461 32.2379 24.3413C36.3669 25.2216 42.6175 29.7432 43.2999 30.3185C43.9822 30.8938 44.2087 31.1998 43.6793 31.7363C43.255 32.1658 42.5175 31.7618 42.2023 31.5068C41.0405 30.6898 38.6038 28.9854 38.1488 28.71C37.5807 28.3652 35.5346 27.2922 31.7463 25.9896C28.7158 24.9482 24.7011 25.1991 23.0721 25.4551C20.8761 28.1388 12.7323 29.7116 12.5049 29.9034C12.2774 30.0951 13.6789 30.8612 15.6496 32.3177C17.6192 33.7743 16.4839 37.1087 14.0216 37.6075C12.052 38.0063 9.66519 36.7272 8.71862 36.0367C8.96138 39.011 10.7148 40.6736 11.5604 41.1336C11.03 40.4819 11.5604 39.1405 12.052 39.2935C12.4457 39.4159 13.378 41.3121 13.7952 42.2444C16.4849 45.5401 20.008 45.233 22.2051 45.1943C24.4022 45.1555 27.3562 42.4331 28.7199 41.1683C29.8103 40.1565 30.1336 39.06 30.1591 38.6387C29.3258 37.3739 30.5376 36.8374 31.4841 36.7599C32.4307 36.6834 33.6812 37.2576 32.5072 38.0247C31.5678 38.6377 31.4341 40.4523 31.4851 41.2826C32.2053 40.9888 34.1361 40.3085 36.1058 39.9402C38.5681 39.4802 37.4307 37.5636 37.1655 36.3753C36.9003 35.187 36.3312 31.3926 37.2777 30.3195C38.0356 29.4607 38.0989 32.3126 38.0356 33.8457C38.3998 37.8013 41.6485 41.9068 43.2274 43.4654C43.2274 42.6473 43.2346 40.9511 43.2652 40.7052C43.2958 40.4594 43.9853 40.5002 44.326 40.5512C44.5534 39.6699 44.0975 33.6142 44.0975 33.1919C44.0975 32.8543 45.1583 33.0001 45.6887 33.1154C46.3711 35.9132 45.4255 42.6208 45.2746 44.3456C45.1236 46.0705 42.6613 45.0749 42.2442 44.5762C41.827 44.0784 39.024 40.744 38.6068 40.5522C38.2733 40.3992 36.7004 41.1785 35.9558 41.5875C36.1986 42.5994 39.3657 47.5791 40.9202 49.9424C42.2839 49.6354 44.7075 46.3765 45.6918 45.3034C46.6761 44.2304 47.5094 41.662 48.3795 39.4384C49.2506 37.2148 50.0839 37.0995 50.2736 38.0961C50.4634 39.0926 46.9035 45.4942 46.4496 46.2989C46.0865 46.9426 42.6124 50.1709 40.9202 51.705L42.5869 52.931L50.0605 59.7345L48.4947 60.3261C47.6237 59.406 41.6026 54.2499 41.1476 53.6981C40.5795 53.0085 39.2158 52.7015 38.9128 52.0885C38.6701 51.5979 38.9373 50.6064 39.1015 50.1719C38.5711 49.1244 37.3206 46.7304 36.5627 45.535C35.6151 44.0406 35.3122 42.3158 34.5921 42.0476C34.0158 41.8334 32.0543 42.5208 31.1455 42.8911C27.4714 44.7322 24.442 46.61 20.5027 47.0711C17.3509 47.4393 13.8605 44.824 12.509 43.4694C10.1986 43.1247 9.51627 41.8986 8.79614 41.2091C8.21984 40.6573 7.67209 38.4755 7.46911 37.4535L7.39363 34.3486C6.86323 33.7355 4.21122 28.9068 11.4084 28.2918C17.1663 27.8001 21.534 24.8911 22.9987 23.4977C22.7335 23.0765 22.1266 20.6999 22.2021 19.7033C22.2776 18.7068 22.9212 15.3336 23.0732 14.4901C23.2241 13.6465 24.2849 11.2699 26.9737 10.4264C29.6624 9.58283 31.5953 10.8089 32.0115 11.4984C32.345 12.0502 33.1345 12.5459 33.4874 12.7245C33.8658 12.699 34.9491 12.9621 36.2526 14.2188C37.8816 15.7896 44.1709 19.7747 45.7999 20.6173C47.4288 21.4598 47.2014 24.5647 46.8984 25.6C46.5955 26.6353 46.4078 28.6671 46.6343 28.8966C46.8158 29.0802 47.0637 30.2247 47.1647 30.7745C47.5431 30.9662 48.3387 31.4874 48.4907 32.0393C48.6426 32.5911 47.6696 33.2398 47.1647 33.4958C47.6451 33.8661 48.6498 34.5995 48.8324 34.5689C49.0598 34.5301 50.6133 34.7596 51.9005 34.9901C52.9307 35.1737 53.6182 36.3447 53.8324 36.9067L53.8314 36.9088Z" fill="#010101"/>
<path d="M31.0266 28.9385C30.7236 28.1409 31.203 26.971 31.4805 26.4854C32.1241 26.3702 32.1241 26.3324 32.5035 26.7149C32.882 27.0985 32.4658 28.861 32.3148 29.015C32.1639 29.168 31.406 29.9351 31.0266 28.9385Z" fill="#010101"/>
<path d="M12.6609 31.667C11.8867 31.0019 10.7657 30.2992 9.61926 30.3481C8.84813 30.5348 8.65229 30.6633 8.18003 31.2325C7.56089 31.9791 8.40035 33.401 9.21839 34.2415C9.9579 35.0004 12.4998 35.9367 13.8441 35.5063C15.1895 35.0758 14.8131 34.168 14.6224 33.7152C14.4398 33.2806 13.5391 32.4228 12.6599 31.668L12.6609 31.667Z" fill="white"/>
</g>
<path d="M32.163 64.9991C14.4771 64.9991 0.0878906 50.4395 0.0878906 32.5425C0.0878906 14.6455 14.4761 0.0859375 32.163 0.0859375C49.8499 0.0859375 64.2381 14.6455 64.2381 32.5425C64.2381 50.4395 49.8488 64.9991 32.163 64.9991ZM32.163 1.81791C15.4206 1.81791 1.79946 15.6012 1.79946 32.5425C1.79946 49.4838 15.4206 63.2671 32.163 63.2671C48.9053 63.2671 62.5265 49.4838 62.5265 32.5425C62.5265 15.6012 48.9053 1.81791 32.163 1.81791Z" fill="#010101"/>
<path d="M83.8485 18.3299C83.9447 18.5585 83.9507 18.8111 83.8665 19.0878C83.7943 19.3645 83.656 19.5449 83.4515 19.6292C83.3432 19.6773 83.1989 19.7194 83.0184 19.7555C82.838 19.7795 82.6395 19.8036 82.4229 19.8276C82.2184 19.8517 82.0139 19.8697 81.8094 19.8818C81.6049 19.8938 81.4305 19.8998 81.2861 19.8998C81.2982 20.2607 81.3102 20.6336 81.3222 21.0186C81.3342 21.3915 81.3463 21.7584 81.3583 22.1193C81.3703 22.4802 81.3764 22.8291 81.3764 23.1659C81.3764 23.4907 81.3703 23.7854 81.3583 24.0501C81.3583 24.2305 81.3583 24.4411 81.3583 24.6817C81.3583 24.9102 81.3403 25.1328 81.3042 25.3493C81.2801 25.5659 81.238 25.7583 81.1779 25.9267C81.1177 26.0831 81.0275 26.1854 80.9072 26.2335C80.5343 26.3899 80.1914 26.432 79.8786 26.3598C79.5779 26.2997 79.3614 26.1734 79.229 25.9809C79.1328 25.8245 79.0606 25.644 79.0125 25.4395C78.9644 25.223 78.9283 25.0065 78.9042 24.7899C78.8922 24.5614 78.8862 24.3448 78.8862 24.1403C78.8982 23.9238 78.9042 23.7373 78.9042 23.5809C78.9163 23.0757 78.9223 22.5043 78.9223 21.8667C78.9343 21.2171 78.9403 20.5675 78.9403 19.9179H78.6697C78.5253 19.9179 78.3388 19.9179 78.1103 19.9179C77.8937 19.9058 77.6712 19.8878 77.4426 19.8637C77.2261 19.8276 77.0216 19.7855 76.8291 19.7374C76.6366 19.6773 76.4983 19.5931 76.4141 19.4848C76.2817 19.3284 76.1975 19.16 76.1614 18.9795C76.1374 18.7991 76.1494 18.6307 76.1975 18.4743C76.2577 18.3059 76.3479 18.1615 76.4682 18.0412C76.5885 17.9089 76.7268 17.8247 76.8832 17.7886C77.0998 17.7284 77.4065 17.6984 77.8035 17.6984C78.2005 17.6863 78.5734 17.6863 78.9223 17.6984C78.9102 17.5781 78.9042 17.4638 78.9042 17.3555C78.9042 17.2352 78.8982 17.1209 78.8862 17.0127C78.8742 16.8683 78.8681 16.6879 78.8681 16.4713C78.8681 16.2428 78.8802 16.0202 78.9042 15.8037C78.9403 15.5751 78.9945 15.3646 79.0666 15.1721C79.1388 14.9676 79.2411 14.8112 79.3734 14.703C79.5538 14.5586 79.7343 14.4804 79.9147 14.4684C80.1072 14.4443 80.2816 14.4684 80.438 14.5406C80.6064 14.6127 80.7448 14.721 80.8531 14.8654C80.9734 14.9977 81.0576 15.1481 81.1057 15.3165C81.1418 15.4608 81.1718 15.6353 81.1959 15.8398C81.22 16.0322 81.232 16.2368 81.232 16.4533C81.244 16.6698 81.25 16.8864 81.25 17.1029C81.25 17.3194 81.25 17.5179 81.25 17.6984H81.4305C81.6109 17.6984 81.8215 17.6924 82.0621 17.6803C82.3026 17.6683 82.5372 17.6743 82.7658 17.6984C83.0064 17.7224 83.2229 17.7826 83.4154 17.8788C83.6079 17.963 83.7522 18.1134 83.8485 18.3299Z" fill="#333333"/>
<path d="M91.3319 22.7328C91.344 22.9734 91.35 23.2261 91.35 23.4907C91.35 23.7433 91.344 23.9779 91.3319 24.1945C91.3199 24.5193 91.3019 24.82 91.2778 25.0967C91.2537 25.3613 91.2056 25.5899 91.1334 25.7824C91.0613 25.9628 90.947 26.1012 90.7906 26.1974C90.6462 26.2816 90.4417 26.3057 90.1771 26.2696C89.9004 26.2335 89.7019 26.1012 89.5816 25.8726C89.4613 25.644 89.3771 25.3854 89.329 25.0967C89.2929 24.7959 89.2809 24.4952 89.2929 24.1945C89.3049 23.8937 89.3049 23.6591 89.2929 23.4907C89.2809 23.2261 89.2688 22.9253 89.2568 22.5885C89.2568 22.2396 89.2207 21.9148 89.1485 21.6141C89.0884 21.3013 88.9801 21.0366 88.8237 20.8201C88.6673 20.6036 88.4328 20.4893 88.12 20.4773C87.723 20.4532 87.4162 20.4833 87.1997 20.5675C86.9952 20.6517 86.8448 20.778 86.7486 20.9464C86.6524 21.1028 86.5922 21.2953 86.5681 21.5238C86.5561 21.7524 86.5321 21.999 86.496 22.2637L86.4779 22.9674V24.2847C86.4779 24.5012 86.4719 24.7298 86.4599 24.9704C86.4599 25.1989 86.4238 25.4095 86.3516 25.6019C86.2794 25.7944 86.1651 25.9568 86.0088 26.0891C85.8644 26.2215 85.6479 26.2876 85.3592 26.2876C84.9983 26.2876 84.7276 26.1734 84.5471 25.9448C84.3787 25.7042 84.2945 25.4095 84.2945 25.0606V14.6849C84.2945 14.6127 84.2945 14.5466 84.2945 14.4864C84.3065 14.4142 84.3186 14.3421 84.3306 14.2699C84.3547 14.1977 84.3727 14.1315 84.3847 14.0714C84.3968 13.9992 84.4148 13.9331 84.4389 13.8729C84.475 13.7526 84.5351 13.6624 84.6193 13.6022C84.6795 13.5421 84.7396 13.494 84.7998 13.4579C84.8599 13.4218 84.9261 13.3977 84.9983 13.3857C85.0584 13.3737 85.1246 13.3677 85.1967 13.3677C85.2689 13.3556 85.3411 13.3496 85.4133 13.3496C85.5937 13.3496 85.7682 13.4037 85.9366 13.512C86.0088 13.5601 86.0749 13.6143 86.1351 13.6744C86.1952 13.7225 86.2433 13.7947 86.2794 13.8909C86.3757 14.1195 86.4238 14.3361 86.4238 14.5406C86.4358 14.6007 86.4418 14.6909 86.4418 14.8112C86.4539 14.9195 86.4599 15.0338 86.4599 15.1541C86.4599 15.2744 86.4599 15.3947 86.4599 15.515C86.4719 15.6232 86.4779 15.7074 86.4779 15.7676V15.8578C86.49 16.2428 86.496 16.6337 86.496 17.0307C86.496 17.4277 86.496 17.8307 86.496 18.2397V18.5465C87.0012 18.3781 87.5305 18.2999 88.0839 18.3119C88.6373 18.3119 89.1305 18.4202 89.5636 18.6367C90.0087 18.8653 90.3455 19.1239 90.5741 19.4126C90.8147 19.7013 90.9891 20.0201 91.0974 20.369C91.2056 20.7178 91.2658 21.0908 91.2778 21.4878C91.3019 21.8847 91.3199 22.2998 91.3319 22.7328Z" fill="#333333"/>
<path d="M97.949 23.8155C98.0933 23.7794 98.2377 23.7554 98.382 23.7433C98.5384 23.7313 98.6768 23.7494 98.7971 23.7975C98.9294 23.8456 99.0377 23.9298 99.1219 24.0501C99.2061 24.1584 99.2482 24.3148 99.2482 24.5193C99.2482 24.6636 99.2121 24.802 99.1399 24.9343C99.0677 25.0666 98.9775 25.1869 98.8693 25.2952C98.761 25.4034 98.6407 25.4997 98.5084 25.5839C98.376 25.6561 98.2497 25.7162 98.1294 25.7643C97.7806 25.9207 97.3776 26.041 96.9204 26.1252C96.4753 26.2094 96.0122 26.2395 95.531 26.2155C94.8814 26.1914 94.2558 26.0651 93.6543 25.8365C93.0649 25.5959 92.6017 25.205 92.2649 24.6636C91.9521 24.1343 91.7657 23.5448 91.7055 22.8952C91.6454 22.2456 91.6754 21.6321 91.7957 21.0547C91.9281 20.357 92.1506 19.7916 92.4634 19.3585C92.7882 18.9134 93.1732 18.5585 93.6183 18.2938C94.1596 17.9811 94.7671 17.8187 95.4408 17.8066C96.1144 17.7946 96.758 17.9269 97.3715 18.2036C97.7806 18.3841 98.1475 18.6307 98.4723 18.9435C98.7971 19.2442 99.0437 19.6111 99.2121 20.0442C99.2602 20.1524 99.2963 20.2848 99.3204 20.4412C99.3565 20.5976 99.3805 20.766 99.3925 20.9464C99.4046 21.1148 99.4046 21.2832 99.3925 21.4517C99.3805 21.6201 99.3504 21.7705 99.3023 21.9028C99.2301 22.1193 99.1399 22.2877 99.0317 22.408C98.9234 22.5283 98.785 22.6186 98.6166 22.6787C98.4482 22.7389 98.2437 22.781 98.0031 22.805C97.7745 22.817 97.4979 22.8291 97.1731 22.8411C96.8843 22.8531 96.6137 22.8592 96.361 22.8592C96.1084 22.8592 95.8498 22.8592 95.5851 22.8592C95.3205 22.8471 95.0438 22.8411 94.7551 22.8411C94.4784 22.8291 94.1656 22.817 93.8167 22.805C93.7807 23.0456 93.8107 23.2561 93.907 23.4366C94.0152 23.605 94.1596 23.7494 94.34 23.8697C94.5205 23.9779 94.725 24.0621 94.9536 24.1223C95.1821 24.1824 95.4047 24.2185 95.6212 24.2305C96.0302 24.2546 96.4212 24.2245 96.7941 24.1403C97.167 24.0441 97.552 23.9358 97.949 23.8155ZM97.1731 20.3149C96.9445 20.0502 96.7039 19.8577 96.4513 19.7374C96.2588 19.6532 96.0543 19.6171 95.8377 19.6292C95.6332 19.6292 95.4347 19.6592 95.2423 19.7194C94.8934 19.8036 94.5987 19.984 94.3581 20.2607C94.334 20.2848 94.2919 20.3449 94.2318 20.4412C94.1716 20.5254 94.1115 20.6156 94.0513 20.7118C94.0032 20.8081 93.9671 20.8983 93.9431 20.9825C93.919 21.0667 93.931 21.1088 93.9791 21.1088H97.5159C97.5039 20.9404 97.4738 20.8021 97.4257 20.6938C97.3776 20.5735 97.2934 20.4472 97.1731 20.3149Z" fill="#333333"/>
<path d="M91.5319 40.9832C91.6281 41.2527 91.6955 41.5606 91.734 41.9071C91.7917 42.2343 91.8206 42.5711 91.8206 42.9176C91.8206 43.2641 91.7917 43.6105 91.734 43.957C91.6955 44.2842 91.6378 44.5729 91.5608 44.8231C91.2528 45.901 90.6369 46.8056 89.713 47.537C88.7891 48.2492 87.7305 48.7689 86.5371 49.0961C85.363 49.4233 84.1408 49.5388 82.8705 49.4426C81.6194 49.3463 80.503 49.0287 79.5214 48.4898C78.9054 48.1433 78.3761 47.7199 77.9334 47.2195C77.4907 46.719 77.1154 46.1608 76.8074 45.5449C76.692 45.3332 76.615 45.0926 76.5765 44.8231C76.5572 44.5344 76.5861 44.2649 76.6631 44.0147C76.7401 43.7453 76.8652 43.5143 77.0384 43.3218C77.2116 43.1101 77.4522 42.9657 77.7602 42.8887C77.9527 42.8502 78.1644 42.831 78.3954 42.831C78.6456 42.831 78.8862 42.8695 79.1172 42.9465C79.3481 43.0042 79.5599 43.1101 79.7523 43.2641C79.9448 43.3988 80.0988 43.5913 80.2143 43.8415C80.426 44.2457 80.7243 44.621 81.1093 44.9675C81.5135 45.2947 81.9369 45.5642 82.3796 45.7759C83.0148 45.9876 83.65 46.0742 84.2852 46.0357C84.9396 45.9972 85.5266 45.8529 86.0463 45.6027C86.5852 45.3524 87.0183 45.0156 87.3455 44.5922C87.6727 44.1495 87.8363 43.649 87.8363 43.0908C87.8363 42.6289 87.769 42.2536 87.6342 41.9648C87.4995 41.6569 87.307 41.4067 87.0568 41.2142C86.8258 41.0025 86.5371 40.8292 86.1907 40.6945C85.8635 40.5598 85.4978 40.4443 85.0936 40.348C84.6316 40.2518 84.16 40.1844 83.6789 40.1459C83.2169 40.1074 82.7453 40.0593 82.2642 40.0016C81.783 39.9438 81.3114 39.8669 80.8494 39.7706C80.3875 39.6744 79.9352 39.53 79.4925 39.3375C78.6071 38.9718 77.9334 38.4137 77.4715 37.663C77.0095 36.9123 76.7305 36.1039 76.6342 35.2378C76.5572 34.3717 76.6631 33.5151 76.9518 32.6682C77.2405 31.8021 77.7025 31.0611 78.3376 30.4451C78.9536 29.8869 79.685 29.4924 80.5319 29.2614C81.398 29.0112 82.3508 28.8668 83.3901 28.8283C83.9676 28.8091 84.545 28.8283 85.1224 28.8861C85.7191 28.9438 86.2869 29.0401 86.8258 29.1748C87.384 29.3095 87.8941 29.4827 88.356 29.6945C88.8372 29.9062 89.251 30.1564 89.5975 30.4451C89.8477 30.6376 90.0979 30.8974 90.3482 31.2247C90.5984 31.5326 90.7909 31.8695 90.9256 32.2352C91.0603 32.5816 91.0988 32.9185 91.0411 33.2457C91.0026 33.5729 90.8005 33.852 90.4348 34.0829C90.1268 34.2754 89.8285 34.362 89.5398 34.3428C89.2703 34.3043 89.0105 34.2177 88.7602 34.0829C88.51 33.929 88.2694 33.7557 88.0384 33.5632C87.8075 33.3708 87.5957 33.1975 87.4033 33.0436C86.8836 32.6586 86.2388 32.3988 85.4689 32.264C84.699 32.1293 83.9772 32.1004 83.3035 32.1774C82.8801 32.2352 82.4855 32.3314 82.1198 32.4661C81.7541 32.6009 81.4365 32.7837 81.167 33.0147C80.9168 33.2457 80.7147 33.5344 80.5607 33.8808C80.426 34.208 80.3779 34.5834 80.4164 35.0068C80.4356 35.3148 80.5222 35.5746 80.6762 35.7864C80.8494 35.9981 81.0515 36.1713 81.2825 36.306C81.5327 36.4408 81.8022 36.5466 82.0909 36.6236C82.3796 36.7006 82.6684 36.7584 82.9571 36.7969C83.8232 36.9123 84.6894 36.999 85.5555 37.0567C86.4216 37.1144 87.2685 37.3069 88.0962 37.6341C88.9431 37.9613 89.6649 38.404 90.2615 38.9622C90.8582 39.5204 91.2817 40.1941 91.5319 40.9832Z" fill="#333333"/>
<path d="M103.15 38.2693C103.304 38.5388 103.381 38.8275 103.381 39.1354C103.4 39.4434 103.333 39.7321 103.179 40.0016C103.005 40.348 102.755 40.5886 102.428 40.7234C102.12 40.8389 101.774 40.8485 101.389 40.7522C101.215 40.7137 101.061 40.6464 100.927 40.5501C100.792 40.4539 100.648 40.3577 100.494 40.2614C100.359 40.1459 100.195 40.0401 100.003 39.9438C99.8295 39.8476 99.5985 39.7802 99.3098 39.7417C99.0211 39.7032 98.7035 39.7032 98.3571 39.7417C98.0299 39.7802 97.7315 39.8572 97.462 39.9727C97.0386 40.1844 96.7018 40.5116 96.4515 40.9543C96.2013 41.3778 96.0377 41.8397 95.9607 42.3402C95.8837 42.8214 95.8934 43.3122 95.9896 43.8126C96.1051 44.3131 96.3168 44.7365 96.6248 45.083C96.8557 45.3524 97.1541 45.5738 97.5198 45.747C97.9047 45.9202 98.2705 46.0261 98.6169 46.0646C98.9441 46.1031 99.2713 46.1031 99.5985 46.0646C99.9257 46.0069 100.243 45.9299 100.551 45.8336C100.782 45.7374 101.042 45.6123 101.331 45.4583C101.62 45.2851 101.899 45.1792 102.168 45.1407C102.515 45.1407 102.784 45.2369 102.977 45.4294C103.169 45.6027 103.304 45.824 103.381 46.0935C103.458 46.3437 103.467 46.6132 103.41 46.9019C103.371 47.1906 103.265 47.4408 103.092 47.6525C102.861 47.9412 102.534 48.2203 102.11 48.4898C101.687 48.74 101.283 48.9229 100.898 49.0384C100.436 49.1923 99.9161 49.279 99.3387 49.2982C98.7805 49.3174 98.2512 49.2982 97.7508 49.2405C97.5198 49.202 97.2792 49.1538 97.029 49.0961C96.7788 49.0384 96.5382 48.971 96.3072 48.894C95.4603 48.586 94.7481 48.153 94.1707 47.5948C93.6125 47.0174 93.1794 46.3726 92.8715 45.6604C92.5828 44.9482 92.4192 44.1879 92.3807 43.3795C92.3422 42.5711 92.4384 41.7724 92.6694 40.9832C92.8811 40.2326 93.141 39.5974 93.4489 39.0777C93.7761 38.558 94.1515 38.1346 94.5749 37.8074C95.0176 37.4609 95.5084 37.1914 96.0473 36.999C96.5863 36.7872 97.183 36.6044 97.8374 36.4504C98.511 36.3157 99.2232 36.3157 99.9739 36.4504C100.725 36.5851 101.398 36.8353 101.995 37.2011C102.457 37.4513 102.842 37.8074 103.15 38.2693Z" fill="#333333"/>
<path d="M104.042 39.1643C104.042 38.9333 104.042 38.6735 104.042 38.3848C104.042 38.0768 104.052 37.7689 104.071 37.4609C104.09 37.1337 104.119 36.8257 104.158 36.537C104.215 36.229 104.292 35.9596 104.389 35.7286C104.543 35.3822 104.783 35.1512 105.111 35.0357C105.438 34.901 105.794 34.8432 106.179 34.8625C106.583 34.8625 106.901 34.9298 107.132 35.0646C107.362 35.1993 107.536 35.3822 107.651 35.6131C107.767 35.8248 107.834 36.0751 107.853 36.3638C107.892 36.6332 107.911 36.922 107.911 37.2299C108.084 36.922 108.315 36.6717 108.604 36.4793C108.912 36.2868 109.22 36.1328 109.528 36.0173C109.836 35.9018 110.115 35.8248 110.365 35.7864C110.615 35.7286 110.76 35.6997 110.798 35.6997C111.279 35.6612 111.712 35.6516 112.097 35.6709C112.502 35.6901 112.944 35.7767 113.425 35.9307C113.733 36.0462 114.051 36.2098 114.378 36.4215C114.705 36.614 114.994 36.845 115.244 37.1144C115.495 37.3839 115.658 37.6822 115.735 38.0095C115.831 38.3174 115.793 38.6446 115.62 38.9911C115.35 39.4723 115.052 39.7129 114.725 39.7129C114.397 39.6936 114.041 39.6359 113.656 39.5396C113.445 39.5011 113.195 39.4145 112.906 39.2798C112.617 39.1451 112.367 39.0585 112.155 39.02C111.501 38.9237 110.923 38.9718 110.423 39.1643C109.922 39.3568 109.489 39.5878 109.124 39.8572C108.7 40.1844 108.334 40.5598 108.027 40.9832V45.1407C108.027 45.6604 108.017 46.1993 107.998 46.7575C107.998 47.3157 107.921 47.8258 107.767 48.2877C107.632 48.7304 107.391 49.0961 107.045 49.3848C106.718 49.6543 106.236 49.7698 105.601 49.7313C105.255 49.712 104.947 49.5484 104.677 49.2405C104.408 48.9132 104.244 48.5957 104.187 48.2877C104.148 47.999 104.119 47.6525 104.1 47.2483C104.081 46.8441 104.062 46.4207 104.042 45.978C104.042 45.5353 104.042 45.0926 104.042 44.6499C104.042 44.188 104.042 43.7645 104.042 43.3795V39.1643Z" fill="#333333"/>
<path d="M128.245 42.5134C128.206 43.1486 128.168 43.7934 128.129 44.4478C128.091 45.083 127.985 45.6989 127.812 46.2956C127.658 46.8922 127.407 47.4312 127.061 47.9124C126.734 48.3936 126.262 48.7785 125.646 49.0672C125.107 49.3367 124.53 49.5195 123.914 49.6158C123.298 49.7313 122.682 49.7794 122.066 49.7601C121.45 49.7409 120.854 49.6447 120.276 49.4714C119.699 49.3174 119.179 49.0961 118.717 48.8074C118.255 48.5187 117.88 48.1433 117.591 47.6814C117.302 47.2195 117.071 46.719 116.898 46.1801C116.744 45.6411 116.638 45.083 116.581 44.5055C116.523 43.9281 116.484 43.3892 116.465 42.8887C116.388 41.5606 116.388 40.2518 116.465 38.9622C116.465 38.712 116.465 38.4329 116.465 38.1249C116.465 37.7977 116.484 37.4801 116.523 37.1722C116.581 36.8642 116.667 36.5851 116.783 36.3349C116.898 36.0654 117.091 35.8633 117.36 35.7286C117.938 35.4206 118.467 35.4014 118.948 35.6709C119.449 35.9403 119.747 36.4985 119.843 37.3454C119.901 37.7881 119.92 38.2789 119.901 38.8179C119.901 39.3568 119.92 39.8476 119.959 40.2903C119.978 40.9447 119.997 41.6569 120.016 42.4268C120.036 43.1774 120.141 43.8511 120.334 44.4478C120.546 45.0445 120.882 45.4968 121.344 45.8048C121.826 46.0935 122.538 46.1031 123.481 45.8336C123.924 45.6989 124.212 45.3621 124.347 44.8231C124.501 44.2842 124.578 43.4854 124.578 42.4268C124.578 41.9648 124.568 41.4548 124.549 40.8966C124.53 40.3384 124.52 39.7899 124.52 39.2509C124.52 38.6927 124.53 38.1827 124.549 37.7207C124.588 37.2395 124.645 36.8738 124.722 36.6236C124.819 36.2772 125.021 36.0173 125.329 35.8441C125.637 35.6709 125.964 35.5843 126.31 35.5843C126.657 35.565 126.984 35.6324 127.292 35.7864C127.6 35.9403 127.812 36.1906 127.927 36.537C128.043 36.845 128.12 37.2395 128.158 37.7207C128.216 38.1827 128.254 38.6927 128.274 39.2509C128.293 39.7899 128.293 40.348 128.274 40.9255C128.274 41.4837 128.264 42.013 128.245 42.5134Z" fill="#333333"/>
<path d="M128.942 31.138C128.981 30.4451 129.193 29.8869 129.578 29.4635C129.982 29.0401 130.55 28.9246 131.281 29.117C131.627 29.2133 131.878 29.3576 132.032 29.5501C132.205 29.7426 132.32 29.9736 132.378 30.243C132.455 30.4932 132.494 30.7723 132.494 31.0803C132.494 31.369 132.494 31.6577 132.494 31.9464V35.9307C132.474 36.0847 132.465 36.2387 132.465 36.3927C132.484 36.5274 132.494 36.6525 132.494 36.768V37.1433H133.215C133.427 37.1433 133.629 37.1433 133.822 37.1433C134.033 37.1433 134.216 37.1337 134.37 37.1144C135.429 37.1144 136.333 37.2684 137.084 37.5764C137.854 37.8843 138.47 38.3174 138.932 38.8756C139.413 39.4145 139.76 40.069 139.971 40.8389C140.202 41.5895 140.308 42.4172 140.289 43.3218C140.27 44.3997 140.096 45.3236 139.769 46.0935C139.442 46.8634 138.98 47.4985 138.383 47.999C137.787 48.4994 137.065 48.8748 136.218 49.125C135.39 49.3559 134.457 49.4714 133.417 49.4714C132.224 49.4714 131.319 49.4618 130.703 49.4426C130.088 49.4233 129.645 49.2501 129.375 48.9229C129.125 48.5957 128.99 48.0279 128.971 47.2195C128.952 46.4111 128.942 45.2273 128.942 43.6683C128.942 42.1669 128.942 40.6849 128.942 39.2221C128.962 37.7592 128.962 36.2868 128.942 34.8047C128.942 34.6122 128.933 34.4101 128.913 34.1984C128.913 33.9867 128.913 33.7461 128.913 33.4766C128.913 33.2072 128.913 32.8896 128.913 32.5239C128.913 32.1389 128.923 31.677 128.942 31.138ZM134.341 46.2378C135.4 46.1801 136.131 45.8914 136.536 45.3717C136.747 45.083 136.911 44.7365 137.026 44.3323C137.142 43.9281 137.19 43.5239 137.171 43.1197C137.151 42.7155 137.065 42.3306 136.911 41.9648C136.776 41.5799 136.555 41.2623 136.247 41.0121C135.977 40.7811 135.708 40.6175 135.438 40.5213C135.169 40.4058 134.89 40.3384 134.601 40.3192C134.312 40.2807 134.004 40.2711 133.677 40.2903C133.35 40.2903 132.975 40.2999 132.551 40.3192V43.7838L132.494 46.1801C132.686 46.1993 132.888 46.2186 133.1 46.2378C133.466 46.2763 133.879 46.2763 134.341 46.2378Z" fill="#333333"/>
<path d="M163.051 30.3585C163.07 30.4932 163.08 30.6184 163.08 30.7338C163.08 30.8493 163.08 30.9648 163.08 31.0803V32.264L162.906 47.2483V47.537C162.906 47.6525 162.878 47.8258 162.82 48.0567C162.801 48.153 162.772 48.2588 162.733 48.3743C162.695 48.4706 162.656 48.5764 162.618 48.6919C162.522 48.9229 162.387 49.0961 162.214 49.2116C162.06 49.3656 161.809 49.4714 161.463 49.5292C160.924 49.6447 160.433 49.5965 159.99 49.3848C159.74 49.2308 159.567 49.0384 159.471 48.8074C159.432 48.7689 159.394 48.7111 159.355 48.6342C159.355 48.5957 159.336 48.5379 159.298 48.4609C159.259 48.3647 159.23 48.2685 159.211 48.1722C159.192 48.0567 159.172 47.9412 159.153 47.8258C159.153 47.7295 159.144 47.6333 159.124 47.537C159.124 47.4408 159.115 47.3446 159.095 47.2483C159.057 47.1521 159.038 47.0751 159.038 47.0174C159.038 46.9404 159.038 46.8537 159.038 46.7575C159.076 46.6805 159.095 46.5362 159.095 46.3244L159.124 44.0436L159.153 40.4058H157.594L151.733 40.4347L151.675 47.2483V47.537C151.675 47.6525 151.647 47.8258 151.589 48.0567C151.57 48.153 151.541 48.2588 151.502 48.3743C151.464 48.4706 151.425 48.5764 151.387 48.6919C151.291 48.9229 151.156 49.0961 150.983 49.2116C150.829 49.3656 150.578 49.4714 150.232 49.5292C149.693 49.6447 149.202 49.5965 148.759 49.3848C148.567 49.2693 148.384 49.0769 148.211 48.8074C148.172 48.7304 148.153 48.6727 148.153 48.6342L148.067 48.4609C148.028 48.3647 147.999 48.2685 147.98 48.1722C147.961 48.0567 147.941 47.9412 147.922 47.8258C147.922 47.7295 147.913 47.6333 147.893 47.537C147.874 47.4408 147.855 47.3446 147.836 47.2483C147.816 47.0943 147.816 46.9307 147.836 46.7575V46.3244L147.922 39.7995C147.941 39.1836 147.951 38.5484 147.951 37.894C147.951 37.2395 147.951 36.5659 147.951 35.873C147.932 35.1801 147.922 34.5641 147.922 34.0252C147.941 33.4863 147.97 32.88 148.009 32.2063V32.0908C148.028 31.8983 148.038 31.7058 148.038 31.5134C148.038 31.3016 148.047 31.0899 148.067 30.8782C148.086 30.6857 148.115 30.5029 148.153 30.3296C148.211 30.1372 148.288 29.9447 148.384 29.7522C148.442 29.5982 148.519 29.4731 148.615 29.3769C148.711 29.2614 148.827 29.1555 148.962 29.0593C149.269 28.9053 149.577 28.8283 149.885 28.8283C150.039 28.8283 150.174 28.838 150.29 28.8572C150.405 28.8572 150.521 28.8668 150.636 28.8861C150.867 28.9053 151.088 29.0208 151.3 29.2325C151.454 29.3673 151.56 29.5212 151.618 29.6945C151.714 29.9447 151.772 30.166 151.791 30.3585C151.81 30.4932 151.82 30.6184 151.82 30.7338C151.82 30.8493 151.82 30.9648 151.82 31.0803V32.264L151.762 37.0278C151.916 37.0278 152.089 37.0278 152.282 37.0278C152.493 37.0278 152.734 37.0182 153.004 36.999C154.004 36.999 154.996 37.0086 155.977 37.0278C156.978 37.0471 158.027 37.0567 159.124 37.0567H159.153C159.153 36.1906 159.153 35.3629 159.153 34.5737C159.172 33.7846 159.201 32.9569 159.24 32.0908C159.24 31.8983 159.24 31.7058 159.24 31.5134C159.259 31.3016 159.278 31.0899 159.298 30.8782C159.317 30.6857 159.346 30.5029 159.384 30.3296C159.442 30.1372 159.519 29.9447 159.615 29.7522C159.654 29.5982 159.721 29.4731 159.817 29.3769C159.933 29.2614 160.067 29.1555 160.221 29.0593C160.491 28.9053 160.789 28.8283 161.116 28.8283C161.27 28.8283 161.405 28.838 161.521 28.8572C161.655 28.8572 161.771 28.8668 161.867 28.8861C162.137 28.9246 162.358 29.0401 162.531 29.2325C162.685 29.3288 162.791 29.4827 162.849 29.6945C162.887 29.81 162.916 29.9254 162.935 30.0409C162.974 30.1372 163.012 30.243 163.051 30.3585Z" fill="#333333"/>
<path d="M167.046 37.2299C167.623 36.9412 168.23 36.7391 168.865 36.6236C169.5 36.4889 170.126 36.46 170.741 36.537C171.377 36.5948 171.983 36.7584 172.56 37.0278C173.138 37.278 173.677 37.6438 174.177 38.1249C174.678 38.6254 175.063 39.1739 175.332 39.7706C175.601 40.3673 175.794 41.0313 175.909 41.7627C175.986 42.2632 176.112 42.7251 176.285 43.1486C176.458 43.572 176.641 43.9955 176.833 44.4189C177.045 44.8424 177.238 45.2658 177.411 45.6893C177.603 46.1127 177.757 46.5554 177.873 47.0174C177.969 47.4601 177.93 47.8931 177.757 48.3166C177.603 48.7208 177.276 48.971 176.776 49.0672C176.487 49.125 176.208 49.1057 175.938 49.0095C175.688 48.894 175.457 48.74 175.245 48.5475C175.034 48.3358 174.841 48.1145 174.668 47.8835C174.514 47.6333 174.37 47.4023 174.235 47.1906C173.792 47.768 173.311 48.2203 172.791 48.5475C172.272 48.8555 171.646 49.0576 170.915 49.1538C170.299 49.2308 169.712 49.2501 169.154 49.2116C168.595 49.1731 167.999 49.0672 167.363 48.894C166.536 48.6823 165.853 48.3166 165.314 47.7969C164.794 47.2579 164.39 46.642 164.101 45.9491C163.832 45.2369 163.687 44.4767 163.668 43.6683C163.649 42.8599 163.745 42.0611 163.957 41.2719C164.226 40.2326 164.63 39.3857 165.169 38.7312C165.708 38.0768 166.334 37.5764 167.046 37.2299ZM167.768 40.6079C167.498 40.8774 167.287 41.1949 167.133 41.5606C166.979 41.9264 166.882 42.3113 166.844 42.7155C166.825 43.1197 166.863 43.5239 166.959 43.9281C167.056 44.3323 167.21 44.6884 167.421 44.9964C167.614 45.2658 167.941 45.4968 168.403 45.6893C168.865 45.8625 169.346 45.9684 169.846 46.0069C170.424 46.0453 170.924 45.8914 171.348 45.5449C171.79 45.1985 172.118 44.7654 172.329 44.2457C172.56 43.7068 172.666 43.139 172.647 42.5423C172.628 41.9264 172.464 41.3682 172.156 40.8677C171.925 40.502 171.617 40.2326 171.232 40.0593C170.867 39.8861 170.472 39.7995 170.049 39.7995C169.625 39.7802 169.202 39.8476 168.778 40.0016C168.374 40.1363 168.037 40.3384 167.768 40.6079Z" fill="#333333"/>
<path d="M187.459 36.6525C187.613 37.0182 187.623 37.4224 187.488 37.8651C187.372 38.3078 187.151 38.5965 186.824 38.7312C186.651 38.8082 186.42 38.8756 186.131 38.9333C185.842 38.9718 185.525 39.0103 185.178 39.0488C184.851 39.0873 184.524 39.1162 184.196 39.1354C183.869 39.1547 183.59 39.1643 183.359 39.1643C183.378 39.7417 183.398 40.3384 183.417 40.9543C183.436 41.551 183.455 42.1381 183.475 42.7155C183.494 43.2929 183.504 43.8511 183.504 44.3901C183.504 44.9097 183.494 45.3813 183.475 45.8048C183.475 46.0935 183.475 46.4303 183.475 46.8153C183.475 47.181 183.446 47.537 183.388 47.8835C183.35 48.23 183.282 48.5379 183.186 48.8074C183.09 49.0576 182.945 49.2212 182.753 49.2982C182.156 49.5484 181.608 49.6158 181.107 49.5003C180.626 49.4041 180.28 49.202 180.068 48.894C179.914 48.6438 179.798 48.3551 179.721 48.0279C179.644 47.6814 179.587 47.3349 179.548 46.9885C179.529 46.6228 179.519 46.2763 179.519 45.9491C179.539 45.6027 179.548 45.3043 179.548 45.0541C179.567 44.2457 179.577 43.3314 179.577 42.3113C179.596 41.2719 179.606 40.2326 179.606 39.1932H179.173C178.942 39.1932 178.644 39.1932 178.278 39.1932C177.931 39.1739 177.575 39.1451 177.21 39.1066C176.863 39.0488 176.536 38.9815 176.228 38.9045C175.92 38.8082 175.699 38.6735 175.564 38.5003C175.352 38.2501 175.217 37.9806 175.16 37.6919C175.121 37.4032 175.14 37.1337 175.217 36.8835C175.314 36.614 175.458 36.383 175.651 36.1906C175.843 35.9788 176.064 35.8441 176.315 35.7864C176.661 35.6901 177.152 35.642 177.787 35.642C178.422 35.6227 179.019 35.6227 179.577 35.642C179.558 35.4495 179.548 35.2667 179.548 35.0934C179.548 34.901 179.539 34.7181 179.519 34.5449C179.5 34.3139 179.49 34.0252 179.49 33.6787C179.49 33.313 179.51 32.9569 179.548 32.6105C179.606 32.2448 179.693 31.908 179.808 31.6C179.923 31.2728 180.087 31.0226 180.299 30.8493C180.588 30.6184 180.876 30.4932 181.165 30.474C181.473 30.4355 181.752 30.474 182.002 30.5895C182.272 30.705 182.493 30.8782 182.666 31.1092C182.859 31.3209 182.993 31.5615 183.07 31.831C183.128 32.0619 183.176 32.341 183.215 32.6682C183.253 32.9762 183.273 33.3034 183.273 33.6499C183.292 33.9963 183.301 34.3428 183.301 34.6892C183.301 35.0357 183.301 35.3533 183.301 35.642H183.59C183.879 35.642 184.216 35.6324 184.601 35.6131C184.986 35.5939 185.361 35.6035 185.727 35.642C186.112 35.6805 186.458 35.7767 186.766 35.9307C187.074 36.0654 187.305 36.306 187.459 36.6525Z" fill="#333333"/>
<path d="M201.996 44.3034C201.631 44.0725 201.217 43.8896 200.755 43.7549C200.312 43.6201 199.85 43.495 199.369 43.3795C198.907 43.2641 198.455 43.139 198.012 43.0042C197.569 42.8502 197.165 42.6385 196.8 42.369C196.01 41.7724 195.548 41.041 195.414 40.1748C195.298 39.2894 195.491 38.404 195.991 37.5186C196.261 37.0567 196.617 36.6814 197.059 36.3927C197.502 36.0847 197.983 35.8537 198.503 35.6997C199.042 35.5265 199.59 35.4303 200.149 35.411C200.707 35.3918 201.236 35.4206 201.737 35.4976C202.064 35.5554 202.41 35.642 202.776 35.7575C203.142 35.8537 203.478 35.9885 203.786 36.1617C204.114 36.3349 204.402 36.5563 204.653 36.8257C204.922 37.0759 205.115 37.3935 205.23 37.7785C205.307 38.0287 205.317 38.2693 205.259 38.5003C205.22 38.7312 205.124 38.9237 204.97 39.0777C204.835 39.2317 204.653 39.3472 204.422 39.4242C204.21 39.5011 203.979 39.5204 203.729 39.4819C203.44 39.4242 203.171 39.3375 202.92 39.2221C202.67 39.1066 202.42 38.9815 202.17 38.8467C201.919 38.712 201.66 38.5965 201.39 38.5003C201.14 38.404 200.87 38.3559 200.582 38.3559C200.139 38.3367 199.773 38.4137 199.485 38.5869C199.196 38.7601 198.994 38.9718 198.878 39.2221C198.782 39.4723 198.792 39.7417 198.907 40.0305C199.042 40.3192 199.311 40.5694 199.716 40.7811C200.081 40.9736 200.485 41.1276 200.928 41.2431C201.371 41.3585 201.804 41.474 202.227 41.5895C202.67 41.705 203.094 41.8397 203.498 41.9937C203.921 42.1477 204.296 42.3594 204.624 42.6289C205.259 43.1486 205.644 43.7549 205.779 44.4478C205.933 45.1407 205.894 45.824 205.663 46.4977C205.432 47.1713 205.028 47.768 204.45 48.2877C203.892 48.8074 203.228 49.1538 202.458 49.3271C201.9 49.4426 201.294 49.5003 200.639 49.5003C200.004 49.5003 199.369 49.4329 198.734 49.2982C198.118 49.1635 197.521 48.9517 196.944 48.663C196.386 48.3743 195.914 48.0086 195.529 47.5659C195.26 47.2579 195.115 46.9115 195.096 46.5265C195.096 46.1223 195.173 45.7759 195.327 45.4872C195.5 45.1792 195.741 44.9675 196.049 44.852C196.357 44.7365 196.703 44.8039 197.088 45.0541C197.396 45.2658 197.762 45.4775 198.185 45.6893C198.609 45.8817 199.032 46.0357 199.456 46.1512C199.879 46.2667 200.283 46.3244 200.668 46.3244C201.073 46.3244 201.419 46.2378 201.708 46.0646C202.131 45.7951 202.352 45.4872 202.372 45.1407C202.391 44.775 202.266 44.4959 201.996 44.3034Z" fill="#333333"/>
<path d="M217.734 43.6971C217.754 44.0821 217.763 44.4863 217.763 44.9097C217.763 45.3139 217.754 45.6893 217.734 46.0357C217.715 46.5554 217.686 47.0366 217.648 47.4793C217.609 47.9027 217.532 48.2685 217.417 48.5764C217.301 48.8651 217.118 49.0865 216.868 49.2405C216.637 49.3752 216.31 49.4137 215.887 49.3559C215.444 49.2982 215.126 49.0865 214.934 48.7208C214.741 48.3551 214.607 47.9412 214.53 47.4793C214.472 46.9981 214.453 46.5169 214.472 46.0357C214.491 45.5545 214.491 45.1792 214.472 44.9097C214.453 44.4863 214.433 44.0051 214.414 43.4662C214.414 42.908 214.356 42.3883 214.241 41.9071C214.145 41.4067 213.971 40.9832 213.721 40.6368C213.471 40.2903 213.096 40.1074 212.595 40.0882C211.96 40.0497 211.469 40.0978 211.123 40.2326C210.796 40.3673 210.555 40.5694 210.401 40.8389C210.247 41.0891 210.151 41.397 210.112 41.7627C210.093 42.1285 210.054 42.523 209.997 42.9465L209.968 44.0725V46.1801C209.968 46.5265 209.958 46.8922 209.939 47.2772C209.939 47.6429 209.881 47.9797 209.766 48.2877C209.65 48.5957 209.467 48.8555 209.217 49.0672C208.986 49.279 208.64 49.3848 208.178 49.3848C207.6 49.3848 207.167 49.202 206.879 48.8363C206.609 48.4513 206.474 47.9797 206.474 47.4216V30.8205C206.474 30.705 206.474 30.5991 206.474 30.5029C206.494 30.3874 206.513 30.2719 206.532 30.1564C206.571 30.0409 206.6 29.9351 206.619 29.8388C206.638 29.7233 206.667 29.6175 206.705 29.5212C206.763 29.3288 206.859 29.1844 206.994 29.0882C207.09 28.9919 207.187 28.9149 207.283 28.8572C207.379 28.7995 207.485 28.761 207.6 28.7417C207.697 28.7225 207.802 28.7128 207.918 28.7128C208.033 28.6936 208.149 28.684 208.264 28.684C208.553 28.684 208.832 28.7706 209.102 28.9438C209.217 29.0208 209.323 29.1074 209.419 29.2037C209.516 29.2806 209.593 29.3961 209.65 29.5501C209.804 29.9158 209.881 30.2623 209.881 30.5895C209.9 30.6857 209.91 30.8301 209.91 31.0226C209.929 31.1958 209.939 31.3786 209.939 31.5711C209.939 31.7636 209.939 31.9561 209.939 32.1485C209.958 32.3218 209.968 32.4565 209.968 32.5527V32.6971C209.987 33.313 209.997 33.9386 209.997 34.5737C209.997 35.2089 209.997 35.8537 209.997 36.5081V36.999C210.805 36.7295 211.652 36.6044 212.537 36.6236C213.423 36.6236 214.212 36.7969 214.905 37.1433C215.617 37.509 216.156 37.9228 216.522 38.3848C216.907 38.8467 217.186 39.3568 217.359 39.915C217.532 40.4732 217.628 41.0698 217.648 41.705C217.686 42.3402 217.715 43.0042 217.734 43.6971Z" fill="#333333"/>
<path d="M222.056 36.3349C222.692 36.0269 223.356 35.8056 224.049 35.6709C224.741 35.5361 225.425 35.5073 226.098 35.5843C226.791 35.6612 227.455 35.8441 228.091 36.1328C228.745 36.4215 229.342 36.8257 229.881 37.3454C230.323 37.7881 230.708 38.327 231.035 38.9622C231.363 39.5781 231.603 40.1844 231.757 40.7811C232.084 41.8397 232.133 42.908 231.902 43.9858C231.671 45.0637 231.276 46.0646 230.718 46.9885C230.448 47.4119 230.112 47.7969 229.707 48.1433C229.322 48.4706 228.909 48.74 228.466 48.9517C227.888 49.2212 227.263 49.4041 226.589 49.5003C225.916 49.6158 225.261 49.6447 224.626 49.5869C223.471 49.5292 222.451 49.2405 221.566 48.7208C220.699 48.2011 219.997 47.537 219.458 46.7286C218.938 45.9202 218.592 45.006 218.419 43.9858C218.265 42.9465 218.332 41.8879 218.621 40.81C218.929 39.6551 219.371 38.7216 219.949 38.0095C220.545 37.278 221.248 36.7199 222.056 36.3349ZM222.923 40.2037C222.634 40.4732 222.413 40.81 222.259 41.2142C222.105 41.6184 222.008 42.0418 221.97 42.4845C221.931 42.908 221.96 43.3411 222.056 43.7838C222.172 44.2072 222.345 44.5922 222.576 44.9386C222.769 45.2273 223.115 45.4679 223.615 45.6604C224.116 45.8529 224.636 45.9684 225.175 46.0069C225.79 46.0453 226.329 45.8817 226.791 45.516C227.253 45.1311 227.6 44.6595 227.831 44.1013C228.081 43.5432 228.196 42.9369 228.177 42.2824C228.158 41.628 227.985 41.0313 227.658 40.4924C227.427 40.1074 227.099 39.8284 226.676 39.6551C226.272 39.4627 225.839 39.3664 225.377 39.3664C224.934 39.3472 224.491 39.4145 224.049 39.5685C223.606 39.7032 223.231 39.915 222.923 40.2037Z" fill="#333333"/>
<path d="M240.698 36.3927C241.257 36.6236 241.767 36.9605 242.229 37.4032C242.691 37.8266 243.085 38.3174 243.412 38.8756C243.759 39.4338 244.019 40.0401 244.192 40.6945C244.384 41.3297 244.481 41.9745 244.481 42.6289C244.5 43.6105 244.269 44.5344 243.788 45.4006C243.326 46.2667 242.565 46.9307 241.507 47.3927C240.698 47.7199 239.861 47.9701 238.995 48.1433C238.148 48.2973 237.263 48.4032 236.339 48.4609V53.7444C236.339 53.8599 236.32 53.9658 236.281 54.062C236.262 54.1582 236.252 54.2545 236.252 54.3507C236.214 54.5432 236.166 54.7164 236.108 54.8704C236.069 55.0244 236.012 55.188 235.935 55.3612C235.858 55.4767 235.781 55.5826 235.704 55.6788C235.627 55.775 235.54 55.8713 235.444 55.9675C234.982 56.1985 234.501 56.2466 234 56.1119C233.692 56.0926 233.442 55.9964 233.25 55.8232C233.076 55.6499 232.951 55.4671 232.874 55.2746C232.797 55.0821 232.73 54.8608 232.672 54.6106C232.653 54.5143 232.634 54.4181 232.614 54.3218C232.614 54.2448 232.614 54.1582 232.614 54.062V37.9806C232.614 37.8651 232.614 37.7496 232.614 37.6341C232.634 37.4994 232.653 37.3647 232.672 37.2299C232.691 36.999 232.749 36.768 232.845 36.537C233.019 36.0558 233.375 35.7286 233.914 35.5554C234.453 35.3822 235.059 35.3052 235.732 35.3244C236.194 35.3437 236.666 35.3918 237.147 35.4688C237.648 35.5458 238.119 35.642 238.562 35.7575C239.024 35.8537 239.438 35.9596 239.803 36.0751C240.169 36.1906 240.467 36.2964 240.698 36.3927ZM240.756 42.6289C240.833 42.09 240.766 41.6376 240.554 41.2719C240.362 40.887 240.082 40.579 239.717 40.348C239.351 40.0978 238.928 39.9053 238.446 39.7706C237.984 39.6359 237.523 39.5396 237.061 39.4819C237.003 39.4627 236.907 39.453 236.772 39.453C236.656 39.453 236.522 39.453 236.368 39.453C236.368 40.069 236.368 40.6656 236.368 41.2431C236.387 41.8012 236.387 42.4075 236.368 43.062V44.9964C236.81 44.9771 237.272 44.929 237.753 44.852C238.254 44.775 238.716 44.6499 239.139 44.4767C239.563 44.3034 239.919 44.0725 240.208 43.7838C240.516 43.495 240.698 43.1101 240.756 42.6289Z" fill="#333333"/>
</svg>
