<svg width="88" height="85" viewBox="0 0 88 85" fill="none" xmlns="http://www.w3.org/2000/svg">
<path d="M45.9701 70.6829C42.373 68.23 28.5831 67.9451 22.1378 68.1093C-4.674 56.1574 18.8607 34.8397 27.0326 27.8723C35.2045 20.9048 46.9355 28.7786 54.1994 22.5853C61.4633 16.392 67.1349 15.3197 76.9601 19.487C86.7853 23.6543 83.4515 31.5145 81.1595 36.9183C78.8675 42.3222 75.7108 41.5629 72.6903 58.2506C69.6699 74.9382 50.4666 73.749 45.9701 70.6829Z" fill="#E4F9E3"/>
<g clip-path="url(#clip0_139_3540)">
<path fill-rule="evenodd" clip-rule="evenodd" d="M67.7251 8.10742C63.2899 8.64827 58.9022 9.5258 54.6001 10.7324C51.4501 11.6949 48.3584 12.9491 45.2084 13.9699C40.0459 15.6324 41.2126 14.4658 34.2709 26.9783C33.7664 24.3948 32.7767 21.9305 31.3543 19.7158C28.4376 16.7991 25.5209 21.2033 23.4501 24.5574C17.2959 34.6199 11.6668 43.6616 10.5001 58.7991C10.4808 59.0311 10.5544 59.2614 10.7048 59.4392C10.8552 59.6169 11.0701 59.7277 11.3022 59.747C11.5343 59.7663 11.7645 59.6927 11.9423 59.5423C12.12 59.3919 12.2308 59.177 12.2501 58.9449C13.5334 44.5366 19.2501 35.6116 25.5209 25.8991C26.4144 24.2001 27.6568 22.7092 29.1668 21.5241C29.3418 21.8158 29.5168 21.5241 30.2751 23.5074C31.0334 25.4908 31.6168 29.6324 32.7543 30.5074C33.8918 31.3824 35.3209 30.5074 36.2251 29.2533C37.1293 27.9991 41.9418 18.6658 43.7501 17.8491C44.5886 17.5052 45.4577 17.2415 46.3459 17.0616C52.8122 14.5688 59.5311 12.7888 66.3834 11.7533C66.4537 14.2137 66.1588 16.671 65.5084 19.0449C63.8898 26.1223 61.5945 33.0277 58.6543 39.6658C57.7793 41.6199 56.3793 46.0824 54.3959 47.5116C54.1918 47.2199 53.5793 46.9866 53.4043 46.8116C50.9781 44.6396 48.1557 42.9561 45.0918 41.8533C41.3584 41.3574 43.2543 49.6699 43.0793 51.6533C40.9209 50.1658 35.5834 47.4533 34.6209 49.7283C33.9793 51.2449 34.9126 53.1991 35.2043 54.3949C35.8751 56.9324 37.5084 61.8324 35.5543 63.6408C31.5 66.5145 26.5112 67.7539 21.5834 67.1116C14.5834 66.4408 16.7709 63.5241 15.2543 64.6324C14.6709 64.8657 14.0293 65.3908 14.6709 66.1491C15.5202 67.3896 16.7978 68.2725 18.2584 68.6283C23.7709 70.2324 32.5209 69.3283 36.9834 65.3908C40.2501 62.4741 38.2668 56.1449 36.9834 51.6533C39.3684 52.3576 41.5162 53.6987 43.1959 55.5324C43.4994 55.7838 43.8811 55.9213 44.2751 55.9213C44.6691 55.9213 45.0508 55.7838 45.3543 55.5324C46.4626 54.2783 45.3543 48.8824 45.5876 45.3533H46.1418C47.8719 46.4246 49.5196 47.6238 51.0709 48.9408C51.6509 49.6321 52.3407 50.2234 53.1126 50.6908C54.8918 51.4199 56.9043 49.5533 57.9834 48.0949C61.6293 43.2824 74.7251 8.86576 67.7251 8.10742Z" fill="black"/>
<path fill-rule="evenodd" clip-rule="evenodd" d="M20.5915 55.445C40.8332 32.695 50.7207 25.9283 57.0207 21.2617C57.1279 21.1851 57.2191 21.0881 57.2888 20.9763C57.3586 20.8645 57.4057 20.74 57.4273 20.61C57.449 20.48 57.4448 20.347 57.4151 20.2186C57.3854 20.0902 57.3306 19.9689 57.254 19.8617C57.1774 19.7544 57.0805 19.6633 56.9686 19.5936C56.8568 19.5238 56.7324 19.4767 56.6024 19.4551C56.4724 19.4334 56.3394 19.4375 56.211 19.4673C56.0826 19.497 55.9613 19.5517 55.854 19.6283C51.7707 22.545 47.7749 25.0242 44.0124 28.0575C22.7207 45.5575 14.9915 57.2242 2.65404 73.3825L0.408207 76.7075C0.316696 76.9034 0.298424 77.1256 0.356704 77.3339C0.414983 77.5421 0.545955 77.7225 0.725868 77.8425C0.905781 77.9624 1.12272 78.0139 1.33734 77.9876C1.55197 77.9613 1.75006 77.859 1.89571 77.6992C7.78737 69.9992 17.2665 59.1783 20.5915 55.445Z" fill="black"/>
</g>
<defs>
<clipPath id="clip0_139_3540">
<rect width="70" height="70" fill="white" transform="translate(0 8.10742)"/>
</clipPath>
</defs>
</svg>
