<svg width="167" height="26" viewBox="0 0 167 26" fill="none" xmlns="http://www.w3.org/2000/svg">
<path d="M157.412 8.52148L157.639 9.00488L158.166 9.08496L165.798 10.251L160.245 15.9463L159.893 16.3076L159.974 16.8057L161.284 24.8359L154.483 21.0742L154 20.8066L153.516 21.0742L146.714 24.8359L148.025 16.8057L148.106 16.3076L147.754 15.9463L142.2 10.251L149.834 9.08496L150.361 9.00488L150.588 8.52148L154 1.25293L157.412 8.52148Z" fill="#FFFFE9" stroke="black" stroke-width="2"/>
<path d="M122.412 8.52148L122.639 9.00488L123.166 9.08496L130.798 10.251L125.245 15.9463L124.893 16.3076L124.974 16.8057L126.284 24.8359L119.483 21.0742L119 20.8066L118.516 21.0742L111.714 24.8359L113.025 16.8057L113.106 16.3076L112.754 15.9463L107.2 10.251L114.834 9.08496L115.361 9.00488L115.588 8.52148L119 1.25293L122.412 8.52148Z" fill="#FFFFE9" stroke="black" stroke-width="2"/>
<path d="M87.084 8.53516L87.3154 9.00879L87.8379 9.08594L95.7754 10.2539L90.0264 15.9326L89.6562 16.2979L89.7432 16.8115L91.1074 24.8691L83.9697 21.0674L83.5 20.8164L83.0293 21.0674L75.8906 24.8691L77.2568 16.8115L77.3438 16.2979L76.9727 15.9326L71.2227 10.2539L79.1631 9.08594L79.6846 9.00879L79.916 8.53516L83.5 1.18164L87.084 8.53516Z" fill="#FFFFE9" stroke="black" stroke-width="2"/>
<path d="M51.4121 8.52148L51.6387 9.00488L52.166 9.08496L59.7979 10.251L54.2451 15.9463L53.8926 16.3076L53.9736 16.8057L55.2842 24.8359L48.4834 21.0742L48 20.8066L47.5156 21.0742L40.7139 24.8359L42.0254 16.8057L42.1064 16.3076L41.7539 15.9463L36.2002 10.251L43.834 9.08496L44.3613 9.00488L44.5879 8.52148L48 1.25293L51.4121 8.52148Z" fill="#FFFFE9" stroke="black" stroke-width="2"/>
<path d="M16.4121 8.52148L16.6387 9.00488L17.166 9.08496L24.7979 10.251L19.2451 15.9463L18.8926 16.3076L18.9736 16.8057L20.2842 24.8359L13.4834 21.0742L13 20.8066L12.5156 21.0742L5.71387 24.8359L7.02539 16.8057L7.10645 16.3076L6.75391 15.9463L1.2002 10.251L8.83398 9.08496L9.36133 9.00488L9.58789 8.52148L13 1.25293L16.4121 8.52148Z" fill="#FFFFE9" stroke="black" stroke-width="2"/>
</svg>
