<svg preserveAspectRatio="none" width="100%" height="100%" overflow="visible" style="display: block;" viewBox="0 0 18.924 18.924" fill="none" xmlns="http://www.w3.org/2000/svg">
<g id="instagram-svgrepo-com (2) 1" clip-path="url(#clip0_0_112)">
<path id="Vector" fill-rule="evenodd" clip-rule="evenodd" d="M9.46199 14.193C12.0748 14.193 14.193 12.0748 14.193 9.46199C14.193 6.84913 12.0748 4.73099 9.46199 4.73099C6.84913 4.73099 4.73099 6.84913 4.73099 9.46199C4.73099 12.0748 6.84913 14.193 9.46199 14.193ZM9.46199 12.616C11.2039 12.616 12.616 11.2039 12.616 9.46199C12.616 7.72008 11.2039 6.30799 9.46199 6.30799C7.72008 6.30799 6.30799 7.72008 6.30799 9.46199C6.30799 11.2039 7.72008 12.616 9.46199 12.616Z" fill="var(--fill-0, #43786C)"/>
<path id="Vector_2" d="M14.193 3.94249C13.7575 3.94249 13.4045 4.29552 13.4045 4.73099C13.4045 5.16647 13.7575 5.51949 14.193 5.51949C14.6285 5.51949 14.9815 5.16647 14.9815 4.73099C14.9815 4.29552 14.6285 3.94249 14.193 3.94249Z" fill="var(--fill-0, #43786C)"/>
<path id="Vector_3" fill-rule="evenodd" clip-rule="evenodd" d="M1.30415 3.37167C0.788499 4.38368 0.788499 5.70849 0.788499 8.35809V10.5659C0.788499 13.2155 0.788499 14.5403 1.30415 15.5523C1.75772 16.4425 2.48147 17.1662 3.37167 17.6198C4.38368 18.1355 5.70849 18.1355 8.35809 18.1355H10.5659C13.2155 18.1355 14.5403 18.1355 15.5523 17.6198C16.4425 17.1662 17.1662 16.4425 17.6198 15.5523C18.1355 14.5403 18.1355 13.2155 18.1355 10.5659V8.35809C18.1355 5.70849 18.1355 4.38368 17.6198 3.37167C17.1662 2.48147 16.4425 1.75772 15.5523 1.30415C14.5403 0.788499 13.2155 0.788499 10.5659 0.788499H8.35809C5.70849 0.788499 4.38368 0.788499 3.37167 1.30415C2.48147 1.75772 1.75772 2.48147 1.30415 3.37167ZM10.5659 2.3655H8.35809C7.00726 2.3655 6.08898 2.36673 5.3792 2.42471C4.68781 2.4812 4.33425 2.58359 4.08761 2.70926C3.49415 3.01165 3.01165 3.49415 2.70926 4.08761C2.58359 4.33425 2.4812 4.68781 2.42471 5.3792C2.36673 6.08898 2.3655 7.00726 2.3655 8.35809V10.5659C2.3655 11.9167 2.36673 12.8349 2.42471 13.5448C2.4812 14.2362 2.58359 14.5897 2.70926 14.8364C3.01165 15.4298 3.49415 15.9123 4.08761 16.2147C4.33425 16.3404 4.68781 16.4428 5.3792 16.4993C6.08898 16.5572 7.00726 16.5585 8.35809 16.5585H10.5659C11.9167 16.5585 12.8349 16.5572 13.5448 16.4993C14.2362 16.4428 14.5897 16.3404 14.8364 16.2147C15.4298 15.9123 15.9123 15.4298 16.2147 14.8364C16.3404 14.5897 16.4428 14.2362 16.4993 13.5448C16.5572 12.8349 16.5585 11.9167 16.5585 10.5659V8.35809C16.5585 7.00726 16.5572 6.08898 16.4993 5.3792C16.4428 4.68781 16.3404 4.33425 16.2147 4.08761C15.9123 3.49415 15.4298 3.01165 14.8364 2.70926C14.5897 2.58359 14.2362 2.4812 13.5448 2.42471C12.8349 2.36673 11.9167 2.3655 10.5659 2.3655Z" fill="var(--fill-0, #43786C)"/>
</g>
<defs>
<clipPath id="clip0_0_112">
<rect width="18.924" height="18.924" fill="white"/>
</clipPath>
</defs>
</svg>
