<svg width="155" height="120" viewBox="0 0 155 120" fill="none" xmlns="http://www.w3.org/2000/svg">
<path d="M21.176 1.05812C21.1978 -0.357489 24.5571 -0.0471483 25.5753 0.263196C44.2395 7.44466 65.3156 9.76953 85.488 9.86209C101.991 9.93831 118.553 8.7786 133.684 2.35394C136.303 2.39205 138.704 2.07082 141.208 1.34124L141.932 2.17971C143.544 2.15248 145.139 2.3485 146.707 2.76229L146.484 3.67154C134.533 15.3503 129.9 35.7186 132.508 51.8184C133.493 52.3357 134.016 53.5008 134.076 55.3193L136.352 61.0579C137.403 62.0108 137.898 62.9472 137.838 63.8619C139.591 63.9817 141.355 64.341 143.13 64.94L149.179 65.3265C150.715 64.7712 152.027 64.7494 153.11 65.2721C152.206 66.4536 152.718 67.9944 153.214 69.4917L153.11 70.5316C149.991 71.92 145.776 74.9472 152.56 72.8619L153.35 73.6296L153.159 77.6205C154.003 77.6641 154.569 77.8165 154.989 78.1922L154.352 79.0307C152.234 78.6386 148.548 79.9399 152.375 81.1377L152.517 82.2049C152.37 86.3918 151.161 90.4535 148.836 93.8455L148.139 93.0397C148.771 91.5642 149.871 85.3573 146.974 87.4971C145.346 98.4626 136.755 106.221 127.346 111.165C98.7184 126.203 56.6042 118.673 26.8221 110.114C16.6896 107.201 9.93285 99.9163 8.99093 89.7729C8.16335 89.8437 7.72233 90.6822 7.67877 92.2775C7.89656 93.5678 7.61889 94.4117 6.85119 94.8092C5.90927 94.3464 5.95283 93.1976 5.62615 92.2448C4.29766 88.4118 3.68787 84.7203 3.9111 80.8601L3.76953 79.8637L10.8693 75.4971L8.7786 75.3065C7.31399 75.7857 6.22507 75.6985 5.51182 75.0506L5.92017 69.3229L6.63886 68.5171C7.92924 68.8329 9.02905 68.7512 9.94919 68.2721C8.61526 67.4391 7.71144 66.5189 7.23776 65.5117C7.53177 65.1305 7.71144 64.7494 7.67877 64.4336L8.68603 63.6496C12.4918 64.0743 16.314 62.8438 19.3031 60.4754L20.5553 60.6224C22.6189 59.773 23.4246 58.2757 24.372 56.0924C26.882 50.332 27.9981 44.5226 27.47 38.2286L28.2649 36.7259C28.0471 23.9473 23.2341 10.8312 14.0272 1.80403L14.1143 1.07989L21.1706 1.06901L21.176 1.05812Z" fill="#F5D6A5"/>
<path d="M3.91069 80.8484C3.16477 81.3058 1.76005 81.5508 0.959691 81.2241C-0.385132 80.6742 -0.167337 79.0299 0.69836 78.0662C1.96696 76.6506 3.67656 75.6815 5.51684 75.039C8.90885 73.8521 12.4206 74.304 12.0722 75.6325C11.9796 75.9864 11.7237 76.0408 11.3426 76.2749L3.91069 80.843V80.8484Z" fill="#080607"/>
<path d="M102.927 92.7233C91.6074 107.484 61.1066 108.104 50.1955 93.4148C45.8398 87.5455 46.4496 79.9938 51.0939 74.4402C62.5222 60.7851 91.5094 59.4512 102.791 73.0137C107.685 78.8994 107.587 86.6471 102.927 92.7233Z" fill="#010101"/>
<path d="M72.6219 54.9432C70.2644 56.8162 67.1229 56.2009 65.2172 53.7998C62.0158 49.7654 61.5149 43.7164 64.3515 39.3879C65.5602 37.5422 67.4876 36.5131 69.317 36.4859C71.4132 36.4587 73.4441 37.4115 74.7072 39.3825C76.9722 42.8997 77.4078 47.6365 75.6981 51.5349C75.072 52.9559 73.7762 54.0285 72.6219 54.9432Z" fill="#FFFFFD"/>
<path d="M70.1339 53.9456C73.0146 53.9456 75.3499 51.6103 75.3499 48.7296C75.3499 45.8489 73.0146 43.5137 70.1339 43.5137C67.2532 43.5137 64.918 45.8489 64.918 48.7296C64.918 51.6103 67.2532 53.9456 70.1339 53.9456Z" fill="#010101"/>
<path d="M92.587 53.8752C90.0988 56.4179 86.2603 56.3798 83.5707 54.3979C79.999 51.7736 79.5689 46.7482 82.0299 43.0676C83.8157 40.3998 87.4527 39.153 90.4418 40.7156C95.2658 43.231 96.5344 49.8353 92.587 53.8752Z" fill="#FEFEFD"/>
<path d="M83.1249 53.2267C80.7619 51.2448 81.045 47.9399 82.8527 45.9853C84.6603 44.0307 87.9162 43.6659 90.1648 45.5552C92.4134 47.4445 92.4406 50.6187 90.8073 52.606C88.8962 54.9308 85.6948 55.3828 83.1249 53.2212V53.2267Z" fill="#010101"/>
</svg>
