<svg width="251" height="290" viewBox="0 0 251 290" fill="none" xmlns="http://www.w3.org/2000/svg">

<g id="Frontpage" filter="url(#filter0_dd_0_1)">

<g id="Group 1321314246">
<path id="Vector 239" d="M216.366 151.95C210.522 126.572 236.378 82.1783 250.036 63.1534C251.907 36.043 236.37 25.4062 228.367 23.4766C207.851 24.9434 160.195 23.7411 133.697 7.19718C100.576 -13.4827 36.0337 14.125 13.5134 42.9438C-9.00702 71.7626 26.2248 116.599 29.6113 140.992C32.9977 165.386 -4.80369 212.488 0.513174 247.802C5.83004 283.116 56.6045 272.754 118.66 286.931C180.715 301.107 181.926 259.084 195.783 248.458C209.641 237.832 223.67 183.671 216.366 151.95Z" fill="#E4F9E3"/>
</g>
</g>
<defs>
<filter id="filter0_dd_0_1" x="-847.166" y="-917.838" width="1220" height="3672" filterUnits="userSpaceOnUse" color-interpolation-filters="sRGB">
<feFlood flood-opacity="0" result="BackgroundImageFix"/>
<feColorMatrix in="SourceAlpha" type="matrix" values="0 0 0 0 0 0 0 0 0 0 0 0 0 0 0 0 0 0 127 0" result="hardAlpha"/>
<feOffset dy="2"/>
<feGaussianBlur stdDeviation="5"/>
<feColorMatrix type="matrix" values="0 0 0 0 0 0 0 0 0 0 0 0 0 0 0 0 0 0 0.1 0"/>
<feBlend mode="normal" in2="BackgroundImageFix" result="effect1_dropShadow_0_1"/>
<feColorMatrix in="SourceAlpha" type="matrix" values="0 0 0 0 0 0 0 0 0 0 0 0 0 0 0 0 0 0 127 0" result="hardAlpha"/>
<feOffset/>
<feGaussianBlur stdDeviation="1"/>
<feColorMatrix type="matrix" values="0 0 0 0 0 0 0 0 0 0 0 0 0 0 0 0 0 0 0.2 0"/>
<feBlend mode="normal" in2="effect1_dropShadow_0_1" result="effect2_dropShadow_0_1"/>
<feBlend mode="normal" in="SourceGraphic" in2="effect2_dropShadow_0_1" result="shape"/>
</filter>
</defs>
</svg>
