<svg width="60" height="60" viewBox="0 0 60 60" fill="none" xmlns="http://www.w3.org/2000/svg">
<g opacity="0.3" clip-path="url(#clip0_130_612)">
<path d="M29.8953 19.8168C31.8389 21.95 35.6886 21.6058 38.4944 19.0487C41.2996 16.4912 41.9978 12.6896 40.0542 10.5571C38.1094 8.4248 34.2603 8.76864 31.4546 11.3258C28.6494 13.8833 27.9512 17.6849 29.8953 19.8168Z" fill="#73A79D"/>
<path d="M18.1373 20.0944C20.7643 21.1878 24.0594 19.2736 25.4992 15.8174C26.9378 12.362 25.9745 8.67413 23.3481 7.57955C20.721 6.48699 17.4257 8.40176 15.9865 11.8576C14.548 15.313 15.5109 19.0006 18.1373 20.0944Z" fill="#73A79D"/>
<path d="M37.7683 30.1956C39.2978 32.643 43.1467 32.9945 46.3651 30.9825C49.5846 28.9685 50.9532 25.3545 49.4235 22.907C47.8935 20.4608 44.0436 20.1095 40.8254 22.1217C37.6064 24.1352 36.2383 27.7495 37.7683 30.1956Z" fill="#73A79D"/>
<path d="M47.7894 39.7987C47.4433 36.9747 44.1519 35.0532 40.4366 35.5075C36.72 35.9628 33.9889 38.6207 34.3343 41.445C34.6801 44.2687 37.9717 46.1906 41.6875 45.7356C45.4028 45.2805 48.1345 42.6229 47.7894 39.7987Z" fill="#73A79D"/>
<path d="M32.8979 32.528C33.6099 30.4982 33.351 28.1732 31.957 26.3353C30.5632 24.4982 28.3936 23.6225 26.2478 23.7607C23.8758 23.9141 21.9781 24.7411 20.1007 24.5558C18.2235 24.3706 14.8478 20.2441 9.57868 23.7458C5.85714 26.2192 5.32249 31.5215 8.02297 35.081C10.0755 37.7865 12.3054 38.7674 13.4983 40.339C14.6909 41.9104 15.0344 44.3227 17.0868 47.0279C19.7872 50.5875 25.0371 51.5017 28.4218 48.584C33.2139 44.4535 30.1491 40.0905 30.4762 38.2326C30.8037 36.3752 32.1117 34.7705 32.8979 32.528Z" fill="#73A79D"/>
</g>
<defs>
<clipPath id="clip0_130_612">
<rect width="44" height="44" fill="white" transform="translate(20.3526) rotate(27.5524)"/>
</clipPath>
</defs>
</svg>
