<svg preserveAspectRatio="none" width="100%" height="100%" overflow="visible" style="display: block;" viewBox="0 0 24.9452 24.9452" fill="none" xmlns="http://www.w3.org/2000/svg">
<g id="letter-svgrepo-com 1">
<path id="Vector" d="M2.07877 12.4726C2.07877 8.55285 2.07877 6.59297 3.29648 5.37525C4.5142 4.15754 6.47408 4.15754 10.3938 4.15754H14.5514C18.4711 4.15754 20.4311 4.15754 21.6487 5.37525C22.8665 6.59297 22.8665 8.55285 22.8665 12.4726C22.8665 16.3923 22.8665 18.3523 21.6487 19.57C20.4311 20.7877 18.4711 20.7877 14.5514 20.7877H10.3938C6.47408 20.7877 4.5142 20.7877 3.29648 19.57C2.07877 18.3523 2.07877 16.3923 2.07877 12.4726Z" stroke="var(--stroke-0, #43786C)" stroke-width="2"/>
<path id="Vector_2" d="M6.23631 8.31508L8.48024 10.185C10.3892 11.7758 11.3437 12.5713 12.4726 12.5713C13.6015 12.5713 14.5561 11.7758 16.465 10.185L18.7089 8.31508" stroke="var(--stroke-0, #43786C)" stroke-width="2" stroke-linecap="round"/>
</g>
</svg>
