<svg width="313" height="62" viewBox="0 0 313 62" fill="none" xmlns="http://www.w3.org/2000/svg">
<path d="M252.078 13.9922C252.125 13.9924 252.169 14.0197 252.189 14.0625V14.0635L257.143 24.6133L257.369 25.0957L257.896 25.1768L268.948 26.8643V26.8652C268.995 26.8725 269.033 26.9049 269.048 26.9482L269.049 26.9492C269.059 26.9806 269.056 27.0156 269.039 27.0459L269.019 27.0742L260.987 35.3086L260.636 35.6699L260.717 36.168L262.614 47.7998V47.8008C262.622 47.8477 262.602 47.8939 262.565 47.9199L262.562 47.9229C262.542 47.9367 262.518 47.9443 262.493 47.9443C262.475 47.9443 262.453 47.9388 262.431 47.9268H262.43L252.562 42.4678L252.077 42.2002L251.593 42.4678L241.724 47.9268C241.702 47.9388 241.679 47.9443 241.661 47.9443C241.637 47.9443 241.613 47.9369 241.592 47.9219L241.589 47.9199L241.564 47.8965C241.544 47.8704 241.534 47.8359 241.54 47.8008V47.7998L243.438 36.168L243.519 35.6699L243.166 35.3086L235.136 27.0742C235.103 27.0408 235.093 26.9925 235.107 26.9492L235.106 26.9482C235.122 26.9029 235.162 26.8729 235.206 26.8662L246.259 25.1768L246.786 25.0957L247.013 24.6133L251.965 14.0625C251.987 14.0183 252.032 13.9922 252.078 13.9922Z" fill="#FFFFE9" stroke="black" stroke-width="2"/>
<path d="M203.508 13.9922C203.555 13.9924 203.598 14.0197 203.619 14.0625V14.0635L208.572 24.6133L208.799 25.0957L209.326 25.1768L220.378 26.8643V26.8652C220.425 26.8725 220.463 26.9049 220.478 26.9482L220.479 26.9492C220.489 26.9806 220.485 27.0156 220.469 27.0459L220.448 27.0742L212.417 35.3086L212.065 35.6699L212.146 36.168L214.044 47.7998V47.8008C214.052 47.8477 214.032 47.8939 213.995 47.9199L213.991 47.9229C213.972 47.9367 213.947 47.9443 213.923 47.9443C213.905 47.9443 213.882 47.9388 213.86 47.9268H213.859L203.991 42.4678L203.507 42.2002L203.022 42.4678L193.153 47.9268C193.131 47.9388 193.109 47.9443 193.091 47.9443C193.067 47.9443 193.043 47.9369 193.021 47.9219L193.019 47.9199L192.994 47.8965C192.973 47.8704 192.964 47.8359 192.97 47.8008V47.7998L194.867 36.168L194.948 35.6699L194.596 35.3086L186.565 27.0742C186.533 27.0408 186.523 26.9925 186.537 26.9492L186.536 26.9482C186.552 26.9029 186.592 26.8729 186.636 26.8662L197.688 25.1768L198.216 25.0957L198.442 24.6133L203.395 14.0625C203.416 14.0183 203.461 13.9922 203.508 13.9922Z" fill="#FFFFE9" stroke="black" stroke-width="2"/>
<path d="M154.938 13.9922C154.986 13.9924 155.029 14.0197 155.05 14.0625V14.0635L160.003 24.6133L160.229 25.0957L160.757 25.1768L171.809 26.8643V26.8652C171.855 26.8725 171.894 26.9049 171.908 26.9482L171.909 26.9492C171.92 26.9806 171.916 27.0156 171.899 27.0459L171.879 27.0742L163.848 35.3086L163.496 35.6699L163.577 36.168L165.475 47.7998V47.8008C165.482 47.8477 165.463 47.8939 165.426 47.9199L165.422 47.9229C165.402 47.9367 165.378 47.9443 165.354 47.9443C165.335 47.9443 165.313 47.9388 165.291 47.9268H165.29L155.422 42.4678L154.938 42.2002L154.453 42.4678L144.584 47.9268C144.562 47.9388 144.54 47.9443 144.521 47.9443C144.498 47.9443 144.474 47.9369 144.452 47.9219L144.449 47.9199L144.425 47.8965C144.404 47.8704 144.395 47.8359 144.4 47.8008V47.7998L146.298 36.168L146.379 35.6699L146.026 35.3086L137.996 27.0742C137.964 27.0408 137.953 26.9925 137.968 26.9492L137.967 26.9482C137.983 26.9029 138.023 26.8729 138.066 26.8662L149.119 25.1768L149.646 25.0957L149.873 24.6133L154.825 14.0625C154.847 14.0183 154.892 13.9922 154.938 13.9922Z" fill="#FFFFE9" stroke="black" stroke-width="2"/>
<path d="M106.368 13.9922C106.415 13.9924 106.459 14.0197 106.479 14.0625V14.0635L111.433 24.6133L111.659 25.0957L112.187 25.1768L123.238 26.8643V26.8652C123.285 26.8725 123.323 26.9049 123.338 26.9482L123.339 26.9492C123.349 26.9806 123.346 27.0156 123.329 27.0459L123.309 27.0742L115.277 35.3086L114.926 35.6699L115.007 36.168L116.904 47.7998V47.8008C116.912 47.8477 116.892 47.8939 116.855 47.9199L116.852 47.9229C116.832 47.9367 116.808 47.9443 116.783 47.9443C116.765 47.9443 116.743 47.9388 116.721 47.9268H116.72L106.852 42.4678L106.367 42.2002L105.883 42.4678L96.0137 47.9268C95.9918 47.9388 95.9695 47.9443 95.9512 47.9443C95.9273 47.9443 95.9032 47.9369 95.8818 47.9219L95.8789 47.9199L95.8545 47.8965C95.8337 47.8704 95.8243 47.8359 95.8301 47.8008V47.7998L97.7275 36.168L97.8086 35.6699L97.4561 35.3086L89.4258 27.0742C89.3933 27.0408 89.383 26.9925 89.3975 26.9492L89.3965 26.9482C89.4125 26.9029 89.4525 26.8729 89.4961 26.8662L100.549 25.1768L101.076 25.0957L101.303 24.6133L106.255 14.0625C106.277 14.0183 106.322 13.9922 106.368 13.9922Z" fill="#FFFFE9" stroke="black" stroke-width="2"/>
<path d="M57.7969 13.9922C57.8442 13.9924 57.8875 14.0197 57.9082 14.0625V14.0635L62.8613 24.6133L63.0879 25.0957L63.6152 25.1768L74.667 26.8643V26.8652C74.7139 26.8724 74.7519 26.9049 74.7666 26.9482L74.7676 26.9492C74.778 26.9806 74.7743 27.0156 74.7578 27.0459L74.7373 27.0742L66.7061 35.3086L66.3545 35.6699L66.4355 36.168L68.333 47.7998V47.8008C68.3407 47.8477 68.3212 47.8939 68.2842 47.9199L68.2803 47.9229C68.2606 47.9367 68.2366 47.9443 68.2119 47.9443C68.1936 47.9443 68.1713 47.9388 68.1494 47.9268H68.1484L58.2803 42.4678L57.7959 42.2002L57.3115 42.4678L47.4424 47.9268C47.4205 47.9388 47.3982 47.9443 47.3799 47.9443C47.356 47.9443 47.3319 47.9369 47.3105 47.9219L47.3076 47.9199L47.2832 47.8965C47.2624 47.8704 47.253 47.8359 47.2588 47.8008V47.7998L49.1562 36.168L49.2373 35.6699L48.8848 35.3086L40.8545 27.0742C40.822 27.0408 40.8117 26.9925 40.8262 26.9492L40.8252 26.9482C40.8412 26.9029 40.8812 26.8729 40.9248 26.8662L51.9775 25.1768L52.5049 25.0957L52.7314 24.6133L57.6836 14.0625C57.7053 14.0183 57.7504 13.9922 57.7969 13.9922Z" fill="#FFFFE9" stroke="black" stroke-width="2"/>
<path d="M290.53 12.4044C292.748 9.57568 298.842 3.64122 305.468 2.53299" stroke="black" stroke-width="3" stroke-linecap="round"/>
<path d="M292.791 31.2211C296.096 29.8076 304.293 27.5341 310.635 29.748" stroke="black" stroke-width="3" stroke-linecap="round"/>
<path d="M291.158 49.7596C294.691 50.4267 302.765 53.1039 306.799 58.4752" stroke="black" stroke-width="3" stroke-linecap="round"/>
<path d="M21.6051 12.4044C19.3864 9.57568 13.2927 3.64122 6.66717 2.53299" stroke="black" stroke-width="3" stroke-linecap="round"/>
<path d="M19.3442 31.2211C16.0388 29.8076 7.84225 27.5341 1.49999 29.748" stroke="black" stroke-width="3" stroke-linecap="round"/>
<path d="M20.9754 49.7596C17.4429 50.4267 9.36919 53.1039 5.33494 58.4752" stroke="black" stroke-width="3" stroke-linecap="round"/>
</svg>
