<svg width="143" height="38" viewBox="0 0 143 38" fill="none" xmlns="http://www.w3.org/2000/svg">
<mask id="mask0_116_1565" style="mask-type:luminance" maskUnits="userSpaceOnUse" x="0" y="0" width="38" height="38">
<path d="M18.6857 0C29.006 0 37.3715 8.46571 37.3715 18.9082C37.3715 29.3506 29.0054 37.8163 18.6857 37.8163C8.36613 37.8163 0 29.3506 0 18.9082C0 8.46571 8.36553 0 18.6857 0Z" fill="white"/>
</mask>
<g mask="url(#mask0_116_1565)">
<path d="M18.6857 0C29.006 0 37.3715 8.46571 37.3715 18.9082C37.3715 29.3506 29.0054 37.8163 18.6857 37.8163C8.36553 37.8163 0 29.3506 0 18.9082C0 8.46571 8.36613 0 18.6857 0Z" fill="#D5EDEC"/>
<path d="M9.69651 16.358C10.2547 16.1266 12.6142 14.9561 13.7239 14.3991L13.6279 13.1475C13.6488 11.928 13.6971 9.41821 13.7222 9.13616C13.7472 8.85351 14.4091 7.64898 14.7365 7.08189L16.8295 6.24707L18.4157 7.0813L20.5725 8.23634L23.0465 10.3538L26.8527 12.5035L26.7263 14.9424L26.8539 17.349L27.4252 18.8249L27.5844 20.3973L28.7263 20.5893C29.1706 20.7819 30.0901 21.1922 30.2171 21.2948C30.3441 21.3973 31.4329 21.8935 31.9619 22.129L38.4956 22.352L39.7645 23.6037L38.6244 30.6961L24.2576 30.9239L23.5278 30.2178L20.7359 24.6347L20.1014 24.089L17.4055 24.6997L14.393 26.6579L11.7287 26.9471L9.54028 26.6269C9.13837 26.3168 8.30951 25.677 8.20814 25.6001C8.10677 25.5232 7.42579 24.9263 7.09782 24.6376L5.67027 24.2208L4.81339 22.2632L4.71798 20.5625L4.40075 19.2465L4.36914 17.8344L5.73289 17.0962C6.82174 16.9459 9.13897 16.5882 9.69711 16.3574L9.69651 16.358Z" fill="white"/>
<path d="M43.1683 34.6564C43.1683 34.8621 35.0908 36.2855 31.0526 36.9712L23.8672 30.7768C24.6776 29.979 26.3925 28.3165 26.77 28.0523C27.2417 27.722 27.6406 26.8043 28.3657 25.6289C28.9459 24.6892 29.55 22.4715 29.7795 21.4805L30.6865 21.7369L30.7593 22.9849C30.711 23.1442 30.6943 23.462 31.0133 23.462C31.3323 23.462 31.7748 23.0947 31.9566 22.911C34.1212 22.9963 38.4867 23.174 38.6316 23.2032C38.7765 23.2324 40.699 23.1173 41.6424 23.0559C43.0938 23.1537 46.0031 23.3857 46.0324 23.5323C46.0687 23.716 43.1689 34.3988 43.1689 34.6558L43.1683 34.6564Z" fill="#00A7BD"/>
<path d="M14.1637 10.4238C13.9341 11.1763 14.2484 13.0285 14.4344 13.8603C14.8513 14.0195 15.7964 14.3558 16.2424 14.4238C16.8 14.5091 17.4422 14.6116 17.831 14.7142C18.2198 14.8168 19.2168 15.0046 19.605 15.1072C19.9938 15.2097 21.6831 15.8078 21.9031 15.9104C22.1226 16.013 24.4213 18.0809 25.2663 18.3034C25.9425 18.4811 26.6968 18.4226 26.9896 18.3713C26.995 18.1149 26.9997 17.5371 26.9723 17.2771C26.9383 16.9521 26.8876 16.422 26.8876 16.0976C26.8876 15.7726 26.8876 15.8239 26.9043 15.4137C26.921 15.0034 26.9383 15.106 26.9717 14.6957C27.0057 14.2855 27.0391 14.0118 27.0051 13.6868C26.9711 13.3618 26.7517 13.0028 26.6503 12.815C26.5489 12.6271 26.1262 12.4047 25.9407 12.2509C25.7547 12.097 25.4505 11.8233 25.1297 11.6182C24.8089 11.4131 24.1834 10.9855 23.9974 10.883L23.9729 10.8692C23.7278 10.7339 22.6545 10.1423 22.4428 9.99387C22.2234 9.84002 21.091 8.93424 20.9389 8.83168C20.8173 8.74939 20.212 8.2962 19.9252 8.07974L18.8608 7.31051L17.8805 6.66113C17.4917 6.67843 16.6402 6.71957 16.3426 6.747C15.9711 6.78159 15.2275 7.73925 14.8727 8.23478C14.5889 8.63132 14.2818 9.85911 14.1643 10.4232L14.1637 10.4238Z" fill="#00A7BD"/>
<path d="M31.4704 21.5766L33.7954 21.9344L38.666 22.0119L38.9921 22.7811C38.8073 22.8038 33.6982 22.777 32.8657 22.6511C32.0333 22.5259 31.7656 22.5844 31.7363 22.6291C31.338 23.1443 31.1162 23.3685 30.784 23.1222C30.4519 22.8759 30.784 22.3828 30.5181 22.1586C30.2521 21.9344 30.1859 22.2707 29.3887 21.6434C28.5914 21.0161 28.7685 21.1729 27.8604 21.1729C26.9522 21.1729 26.8204 20.1198 26.9522 19.8288C27.084 19.5378 27.3726 18.7531 27.1955 18.8879C27.0184 19.0226 26.4644 18.731 26.3762 18.5295C26.2873 18.3279 26.7745 17.9469 26.4865 17.2296C26.1985 16.5128 26.4197 15.6613 26.6189 14.5408C26.818 13.4204 26.0428 12.5915 25.7328 12.5021C25.4227 12.4126 23.7173 11.1353 23.363 11.0238C23.0088 10.9117 21.4364 9.59032 21.1484 9.254C20.8604 8.91769 19.5318 8.24625 18.8675 8.0447C18.2032 7.84315 18.2474 7.30528 17.7823 7.01429C17.3171 6.72329 16.9188 6.8354 15.8997 6.9475C14.8812 7.05961 14.0846 9.39055 13.8854 10.3989C13.6862 11.4072 14.1078 13.7376 14.1961 13.6929C14.2843 13.6482 16.4328 13.7149 18.8467 14.2296C21.2605 14.7442 24.9146 17.3876 25.3136 17.7239C25.7125 18.0602 25.8449 18.2391 25.5354 18.5527C25.2873 18.8038 24.8562 18.5677 24.6719 18.4186C23.9927 17.9409 22.5682 16.9445 22.3022 16.7835C21.9701 16.582 20.7739 15.9547 18.5592 15.1932C16.7876 14.5844 14.4406 14.731 13.4883 14.8807C12.2044 16.4496 7.44355 17.3691 7.31057 17.4812C7.1776 17.5933 7.99692 18.0411 9.14898 18.8926C10.3004 19.7442 9.63675 21.6935 8.19728 21.9851C7.04581 22.2182 5.65047 21.4705 5.0971 21.0668C5.23902 22.8056 6.26406 23.7776 6.7584 24.0465C6.44832 23.6654 6.7584 22.8813 7.04582 22.9708C7.27599 23.0423 7.82101 24.1508 8.0649 24.6959C9.63735 26.6225 11.697 26.443 12.9814 26.4204C14.2659 26.3977 15.9927 24.8062 16.79 24.0668C17.4274 23.4752 17.6165 22.8342 17.6314 22.5879C17.1442 21.8485 17.8526 21.5349 18.406 21.4895C18.9594 21.4448 19.6904 21.7805 19.0041 22.229C18.4549 22.5873 18.3768 23.6482 18.4066 24.1335C18.8276 23.9618 19.9564 23.5641 21.1078 23.3488C22.5473 23.0799 21.8824 21.9594 21.7274 21.2647C21.5723 20.57 21.2396 18.3518 21.793 17.7245C22.236 17.2224 22.273 18.8897 22.236 19.7859C22.4489 22.0984 24.3481 24.4985 25.2712 25.4096C25.2712 24.9314 25.2754 23.9397 25.2933 23.796C25.3112 23.6523 25.7143 23.6762 25.9134 23.706C26.0464 23.1908 25.7799 19.6505 25.7799 19.4037C25.7799 19.2063 26.4 19.2916 26.7101 19.3589C27.109 20.9946 26.5562 24.9159 26.468 25.9242C26.3797 26.9326 24.9403 26.3506 24.6964 26.059C24.4525 25.768 22.8139 23.8187 22.57 23.7066C22.375 23.6171 21.4555 24.0727 21.0202 24.3118C21.1621 24.9034 23.0136 27.8145 23.9224 29.1962C24.7196 29.0167 26.1365 27.1115 26.7119 26.4842C27.2873 25.8569 27.7745 24.3554 28.2831 23.0554C28.7924 21.7555 29.2796 21.6881 29.3905 22.2707C29.5014 22.8533 27.4203 26.5957 27.1549 27.0662C26.9427 27.4424 24.9116 29.3297 23.9224 30.2266L24.8967 30.9433L29.2659 34.9207L28.3505 35.2665C27.8413 34.7287 24.3213 31.7143 24.0554 31.3917C23.7232 30.9886 22.926 30.8092 22.7489 30.4508C22.6069 30.164 22.7632 29.5844 22.8592 29.3303C22.5491 28.7179 21.818 27.3184 21.375 26.6195C20.821 25.7459 20.6439 24.7376 20.2229 24.5808C19.886 24.4555 18.7393 24.8575 18.208 25.0739C16.0601 26.1502 14.2891 27.248 11.9862 27.5176C10.1436 27.7328 8.10306 26.2039 7.31296 25.412C5.96233 25.2105 5.56341 24.4937 5.14242 24.0906C4.80551 23.768 4.48529 22.4925 4.36663 21.895L4.3225 20.0799C4.01242 19.7215 2.46203 16.8986 6.66955 16.539C10.0357 16.2516 12.589 14.551 13.4453 13.7364C13.2903 13.4901 12.9355 12.1008 12.9796 11.5182C13.0238 10.9356 13.4 8.9636 13.4889 8.47046C13.5771 7.97732 14.1973 6.58793 15.7691 6.09479C17.341 5.60165 18.471 6.3184 18.7143 6.7215C18.9093 7.0441 19.3708 7.33391 19.5771 7.43826C19.7983 7.42335 20.4316 7.5772 21.1937 8.31184C22.146 9.23015 25.8228 11.5599 26.7751 12.0525C27.7274 12.545 27.5944 14.3601 27.4173 14.9654C27.2402 15.5706 27.1305 16.7585 27.2629 16.8926C27.369 17 27.5139 17.669 27.5729 17.9904C27.7942 18.1025 28.2593 18.4073 28.3481 18.7299C28.437 19.0525 27.8681 19.4317 27.5729 19.5814C27.8538 19.7978 28.4412 20.2266 28.5479 20.2087C28.6809 20.186 29.589 20.3202 30.3416 20.455C30.9438 20.5623 31.3458 21.2468 31.471 21.5754L31.4704 21.5766Z" fill="#010101"/>
<path d="M18.1387 16.9189C17.9616 16.4526 18.2418 15.7686 18.404 15.4848C18.7803 15.4174 18.7803 15.3953 19.0021 15.6189C19.2233 15.8431 18.9801 16.8736 18.8918 16.9636C18.8035 17.053 18.3605 17.5015 18.1387 16.9189Z" fill="#010101"/>
<path d="M7.40201 18.5117C6.94942 18.1229 6.29408 17.712 5.62384 17.7407C5.17303 17.8498 5.05854 17.9249 4.78245 18.2577C4.4205 18.6942 4.91126 19.5254 5.38949 20.0168C5.82181 20.4604 7.3078 21.0078 8.09372 20.7562C8.88025 20.5045 8.66021 19.9738 8.5487 19.7091C8.44197 19.455 7.91543 18.9536 7.40142 18.5123L7.40201 18.5117Z" fill="white"/>
</g>
<path d="M18.8031 38.0005C8.4638 38.0005 0.0517578 29.4888 0.0517578 19.0261C0.0517578 8.56339 8.46321 0.0517578 18.8031 0.0517578C29.143 0.0517578 37.5544 8.56339 37.5544 19.0261C37.5544 29.4888 29.1424 38.0005 18.8031 38.0005ZM18.8031 1.06428C9.01538 1.06428 1.05235 9.12212 1.05235 19.0261C1.05235 28.9301 9.01538 36.988 18.8031 36.988C28.5908 36.988 36.5538 28.9301 36.5538 19.0261C36.5538 9.12212 28.5908 1.06428 18.8031 1.06428Z" fill="#010101"/>
<path d="M49.0185 10.7162C49.0748 10.8498 49.0783 10.9975 49.0291 11.1593C48.9869 11.321 48.906 11.4265 48.7864 11.4758C48.7231 11.5039 48.6387 11.5285 48.5333 11.5496C48.4278 11.5637 48.3117 11.5777 48.1851 11.5918C48.0656 11.6059 47.946 11.6164 47.8265 11.6234C47.7069 11.6305 47.6049 11.634 47.5205 11.634C47.5276 11.845 47.5346 12.063 47.5416 12.288C47.5487 12.506 47.5557 12.7205 47.5627 12.9315C47.5698 13.1425 47.5733 13.3465 47.5733 13.5434C47.5733 13.7333 47.5698 13.9056 47.5627 14.0603C47.5627 14.1658 47.5627 14.2888 47.5627 14.4295C47.5627 14.5631 47.5522 14.6932 47.5311 14.8198C47.517 14.9464 47.4924 15.0589 47.4572 15.1574C47.4221 15.2488 47.3693 15.3086 47.299 15.3367C47.081 15.4281 46.8806 15.4528 46.6977 15.4106C46.5219 15.3754 46.3953 15.3015 46.3179 15.189C46.2617 15.0976 46.2195 14.9921 46.1914 14.8726C46.1632 14.746 46.1421 14.6194 46.1281 14.4928C46.121 14.3592 46.1175 14.2326 46.1175 14.113C46.1246 13.9864 46.1281 13.8774 46.1281 13.786C46.1351 13.4906 46.1386 13.1566 46.1386 12.7838C46.1456 12.4041 46.1492 12.0243 46.1492 11.6445H45.9909C45.9065 11.6445 45.7975 11.6445 45.6639 11.6445C45.5373 11.6375 45.4072 11.627 45.2736 11.6129C45.147 11.5918 45.0274 11.5672 44.9149 11.5391C44.8024 11.5039 44.7215 11.4547 44.6723 11.3914C44.5949 11.2999 44.5457 11.2015 44.5246 11.096C44.5105 10.9905 44.5176 10.892 44.5457 10.8006C44.5809 10.7022 44.6336 10.6178 44.7039 10.5474C44.7743 10.4701 44.8551 10.4209 44.9466 10.3998C45.0732 10.3646 45.2525 10.347 45.4846 10.347C45.7167 10.34 45.9347 10.34 46.1386 10.347C46.1316 10.2767 46.1281 10.2099 46.1281 10.1466C46.1281 10.0763 46.1246 10.0094 46.1175 9.94615C46.1105 9.86175 46.107 9.75626 46.107 9.62967C46.107 9.49605 46.114 9.36595 46.1281 9.23936C46.1492 9.10574 46.1808 8.98266 46.223 8.87014C46.2652 8.75059 46.325 8.65916 46.4023 8.59587C46.5078 8.51147 46.6133 8.46576 46.7188 8.45873C46.8313 8.44466 46.9333 8.45873 47.0247 8.50092C47.1232 8.54312 47.2041 8.60642 47.2674 8.69081C47.3377 8.76817 47.3869 8.85608 47.4151 8.95453C47.4361 9.03893 47.4537 9.1409 47.4678 9.26046C47.4819 9.37298 47.4889 9.49254 47.4889 9.61912C47.4959 9.74571 47.4994 9.8723 47.4994 9.99889C47.4994 10.1255 47.4994 10.2415 47.4994 10.347H47.6049C47.7104 10.347 47.8335 10.3435 47.9742 10.3365C48.1148 10.3294 48.2519 10.3329 48.3856 10.347C48.5262 10.3611 48.6528 10.3962 48.7653 10.4525C48.8779 10.5017 48.9622 10.5896 49.0185 10.7162Z" fill="#333333"/>
<path d="M53.3934 13.2902C53.4004 13.4308 53.4039 13.5785 53.4039 13.7333C53.4039 13.8809 53.4004 14.0181 53.3934 14.1447C53.3864 14.3346 53.3758 14.5104 53.3618 14.6721C53.3477 14.8268 53.3196 14.9605 53.2774 15.073C53.2352 15.1785 53.1684 15.2594 53.0769 15.3156C52.9925 15.3648 52.873 15.3789 52.7183 15.3578C52.5565 15.3367 52.4405 15.2594 52.3701 15.1257C52.2998 14.9921 52.2506 14.8409 52.2225 14.6721C52.2014 14.4963 52.1943 14.3205 52.2014 14.1447C52.2084 13.9689 52.2084 13.8317 52.2014 13.7333C52.1943 13.5785 52.1873 13.4027 52.1803 13.2058C52.1803 13.0019 52.1592 12.812 52.117 12.6362C52.0818 12.4533 52.0185 12.2986 51.9271 12.172C51.8357 12.0454 51.6985 11.9786 51.5157 11.9716C51.2836 11.9575 51.1043 11.9751 50.9777 12.0243C50.8581 12.0735 50.7702 12.1474 50.7139 12.2458C50.6577 12.3373 50.6225 12.4498 50.6084 12.5834C50.6014 12.717 50.5873 12.8612 50.5663 13.0159L50.5557 13.4273V14.1974C50.5557 14.324 50.5522 14.4576 50.5452 14.5983C50.5452 14.7319 50.5241 14.855 50.4819 14.9675C50.4397 15.08 50.3729 15.175 50.2814 15.2523C50.197 15.3297 50.0704 15.3684 49.9017 15.3684C49.6907 15.3684 49.5324 15.3015 49.427 15.1679C49.3285 15.0273 49.2793 14.855 49.2793 14.651V8.58532C49.2793 8.54312 49.2793 8.50444 49.2793 8.46928C49.2863 8.42708 49.2933 8.38489 49.3004 8.34269C49.3144 8.30049 49.325 8.26181 49.332 8.22665C49.339 8.18445 49.3496 8.14577 49.3637 8.11061C49.3848 8.04028 49.4199 7.98754 49.4691 7.95237C49.5043 7.91721 49.5395 7.88908 49.5746 7.86798C49.6098 7.84688 49.6485 7.83282 49.6907 7.82579C49.7258 7.81875 49.7645 7.81524 49.8067 7.81524C49.8489 7.8082 49.8911 7.80469 49.9333 7.80469C50.0388 7.80469 50.1408 7.83633 50.2392 7.89963C50.2814 7.92776 50.3201 7.95941 50.3553 7.99457C50.3904 8.0227 50.4186 8.0649 50.4397 8.12116C50.4959 8.25478 50.5241 8.38137 50.5241 8.50092C50.5311 8.53609 50.5346 8.58883 50.5346 8.65916C50.5416 8.72245 50.5452 8.78927 50.5452 8.85959C50.5452 8.92992 50.5452 9.00025 50.5452 9.07057C50.5522 9.13387 50.5557 9.1831 50.5557 9.21826V9.27101C50.5627 9.49605 50.5663 9.72462 50.5663 9.95669C50.5663 10.1888 50.5663 10.4244 50.5663 10.6635V10.8428C50.8616 10.7444 51.1711 10.6986 51.4946 10.7057C51.8181 10.7057 52.1064 10.769 52.3596 10.8956C52.6198 11.0292 52.8167 11.1804 52.9503 11.3492C53.091 11.518 53.193 11.7043 53.2563 11.9083C53.3196 12.1122 53.3547 12.3302 53.3618 12.5623C53.3758 12.7944 53.3864 13.037 53.3934 13.2902Z" fill="#333333"/>
<path d="M57.2618 13.9231C57.3462 13.902 57.4306 13.888 57.5149 13.8809C57.6064 13.8739 57.6872 13.8845 57.7576 13.9126C57.8349 13.9407 57.8982 13.9899 57.9475 14.0603C57.9967 14.1236 58.0213 14.215 58.0213 14.3346C58.0213 14.4189 58.0002 14.4998 57.958 14.5772C57.9158 14.6545 57.8631 14.7249 57.7998 14.7882C57.7365 14.8515 57.6661 14.9077 57.5888 14.9569C57.5114 14.9991 57.4376 15.0343 57.3673 15.0624C57.1633 15.1539 56.9277 15.2242 56.6605 15.2734C56.4003 15.3226 56.1295 15.3402 55.8482 15.3262C55.4684 15.3121 55.1027 15.2383 54.7511 15.1046C54.4065 14.964 54.1357 14.7354 53.9388 14.4189C53.756 14.1095 53.647 13.7649 53.6118 13.3851C53.5766 13.0054 53.5942 12.6467 53.6645 12.3091C53.7419 11.9012 53.872 11.5707 54.0549 11.3175C54.2447 11.0573 54.4698 10.8498 54.73 10.6951C55.0465 10.5123 55.4016 10.4173 55.7954 10.4103C56.1893 10.4033 56.5655 10.4806 56.9242 10.6424C57.1633 10.7479 57.3778 10.892 57.5677 11.0749C57.7576 11.2507 57.9017 11.4652 58.0002 11.7184C58.0283 11.7817 58.0494 11.859 58.0635 11.9505C58.0846 12.0419 58.0987 12.1403 58.1057 12.2458C58.1127 12.3443 58.1127 12.4428 58.1057 12.5412C58.0987 12.6397 58.0811 12.7276 58.0529 12.8049C58.0108 12.9315 57.958 13.03 57.8947 13.1003C57.8314 13.1706 57.7505 13.2234 57.6521 13.2585C57.5536 13.2937 57.4341 13.3183 57.2934 13.3324C57.1598 13.3394 56.998 13.3465 56.8082 13.3535C56.6394 13.3605 56.4811 13.364 56.3335 13.364C56.1858 13.364 56.0346 13.364 55.8798 13.364C55.7251 13.357 55.5634 13.3535 55.3946 13.3535C55.2328 13.3465 55.05 13.3394 54.846 13.3324C54.8249 13.473 54.8425 13.5961 54.8988 13.7016C54.9621 13.8001 55.0465 13.8845 55.152 13.9548C55.2574 14.0181 55.377 14.0673 55.5106 14.1025C55.6442 14.1376 55.7744 14.1587 55.9009 14.1658C56.1401 14.1798 56.3686 14.1623 56.5866 14.113C56.8046 14.0568 57.0297 13.9935 57.2618 13.9231ZM56.8082 11.8766C56.6745 11.7219 56.5339 11.6094 56.3862 11.5391C56.2737 11.4898 56.1541 11.4687 56.0275 11.4758C55.908 11.4758 55.7919 11.4933 55.6794 11.5285C55.4755 11.5777 55.3032 11.6832 55.1625 11.845C55.1484 11.859 55.1238 11.8942 55.0887 11.9505C55.0535 11.9997 55.0183 12.0524 54.9832 12.1087C54.955 12.165 54.9339 12.2177 54.9199 12.2669C54.9058 12.3162 54.9128 12.3408 54.941 12.3408H57.0086C57.0016 12.2423 56.984 12.1614 56.9558 12.0982C56.9277 12.0278 56.8785 11.954 56.8082 11.8766Z" fill="#333333"/>
<path d="M53.5103 23.9595C53.5666 24.117 53.6059 24.2971 53.6284 24.4996C53.6622 24.6909 53.6791 24.8878 53.6791 25.0904C53.6791 25.2929 53.6622 25.4954 53.6284 25.698C53.6059 25.8893 53.5722 26.0581 53.5272 26.2043C53.3471 26.8345 52.9871 27.3633 52.4469 27.7909C51.9068 28.2073 51.288 28.5111 50.5903 28.7024C49.9039 28.8937 49.1894 28.9612 48.4467 28.9049C47.7153 28.8486 47.0627 28.663 46.4888 28.3479C46.1288 28.1454 45.8193 27.8978 45.5605 27.6053C45.3017 27.3127 45.0823 26.9864 44.9023 26.6263C44.8348 26.5025 44.7897 26.3619 44.7672 26.2043C44.756 26.0356 44.7729 25.878 44.8179 25.7317C44.8629 25.5742 44.936 25.4392 45.0373 25.3267C45.1386 25.2029 45.2792 25.1185 45.4593 25.0735C45.5718 25.051 45.6956 25.0397 45.8306 25.0397C45.9769 25.0397 46.1175 25.0622 46.2525 25.1072C46.3876 25.141 46.5113 25.2029 46.6239 25.2929C46.7364 25.3717 46.8264 25.4842 46.8939 25.6305C47.0177 25.8668 47.1921 26.0862 47.4172 26.2887C47.6535 26.48 47.901 26.6376 48.1598 26.7613C48.5311 26.8851 48.9025 26.9357 49.2738 26.9132C49.6564 26.8907 49.9996 26.8063 50.3034 26.6601C50.6184 26.5138 50.8716 26.3169 51.0629 26.0693C51.2542 25.8105 51.3498 25.518 51.3498 25.1916C51.3498 24.9216 51.3105 24.7022 51.2317 24.5334C51.1529 24.3533 51.0404 24.2071 50.8941 24.0945C50.7591 23.9708 50.5903 23.8695 50.3878 23.7907C50.1965 23.712 49.9827 23.6444 49.7464 23.5882C49.4763 23.5319 49.2007 23.4925 48.9193 23.47C48.6493 23.4475 48.3736 23.4194 48.0923 23.3856C47.811 23.3519 47.5353 23.3069 47.2653 23.2506C46.9952 23.1943 46.7308 23.11 46.472 22.9974C45.9544 22.7836 45.5605 22.4573 45.2905 22.0185C45.0204 21.5796 44.8573 21.107 44.801 20.6007C44.756 20.0943 44.8179 19.5936 44.9867 19.0985C45.1554 18.5921 45.4255 18.1589 45.7968 17.7989C46.1569 17.4725 46.5845 17.2419 47.0796 17.1068C47.5859 16.9606 48.1429 16.8762 48.7506 16.8537C49.0881 16.8424 49.4257 16.8537 49.7633 16.8874C50.1121 16.9212 50.444 16.9774 50.7591 17.0562C51.0854 17.135 51.3836 17.2362 51.6537 17.36C51.935 17.4838 52.1769 17.6301 52.3794 17.7989C52.5257 17.9114 52.672 18.0633 52.8183 18.2546C52.9646 18.4346 53.0771 18.6315 53.1558 18.8453C53.2346 19.0479 53.2571 19.2448 53.2234 19.4361C53.2009 19.6274 53.0827 19.7905 52.8689 19.9255C52.6889 20.0381 52.5145 20.0887 52.3457 20.0775C52.1881 20.055 52.0362 20.0043 51.89 19.9255C51.7437 19.8355 51.603 19.7343 51.468 19.6217C51.333 19.5092 51.2092 19.4079 51.0967 19.3179C50.7929 19.0929 50.4159 18.941 49.9658 18.8622C49.5157 18.7834 49.0938 18.7666 48.6999 18.8116C48.4524 18.8453 48.2217 18.9016 48.0079 18.9804C47.7941 19.0591 47.6085 19.166 47.4509 19.301C47.3046 19.4361 47.1865 19.6049 47.0965 19.8074C47.0177 19.9987 46.9896 20.2181 47.0121 20.4657C47.0233 20.6457 47.074 20.7976 47.164 20.9214C47.2653 21.0452 47.3834 21.1464 47.5184 21.2252C47.6647 21.304 47.8222 21.3658 47.991 21.4109C48.1598 21.4559 48.3286 21.4896 48.4974 21.5121C49.0037 21.5796 49.5101 21.6303 50.0164 21.664C50.5228 21.6978 51.0179 21.8103 51.5018 22.0016C51.9969 22.1929 52.4188 22.4517 52.7676 22.778C53.1165 23.1043 53.364 23.4982 53.5103 23.9595Z" fill="#333333"/>
<path d="M60.3022 22.3729C60.3922 22.5305 60.4372 22.6992 60.4372 22.8793C60.4485 23.0593 60.4091 23.2281 60.319 23.3856C60.2178 23.5882 60.0715 23.7288 59.8802 23.8076C59.7002 23.8751 59.4976 23.8807 59.2726 23.8245C59.1713 23.802 59.0813 23.7626 59.0025 23.7063C58.9238 23.6501 58.8394 23.5938 58.7493 23.5375C58.6706 23.47 58.5749 23.4081 58.4624 23.3519C58.3611 23.2956 58.2261 23.2562 58.0573 23.2337C57.8885 23.2112 57.7029 23.2112 57.5003 23.2337C57.3091 23.2562 57.1346 23.3012 56.9771 23.3688C56.7296 23.4925 56.5326 23.6838 56.3864 23.9426C56.2401 24.1902 56.1444 24.4602 56.0994 24.7528C56.0544 25.0341 56.06 25.321 56.1163 25.6136C56.1838 25.9062 56.3076 26.1537 56.4876 26.3563C56.6227 26.5138 56.7971 26.6432 57.0109 26.7445C57.2359 26.8457 57.4497 26.9076 57.6522 26.9301C57.8435 26.9526 58.0348 26.9526 58.2261 26.9301C58.4174 26.8964 58.6031 26.8514 58.7831 26.7951C58.9181 26.7388 59.07 26.6657 59.2388 26.5757C59.4076 26.4744 59.5708 26.4125 59.7283 26.39C59.9308 26.39 60.0884 26.4463 60.2009 26.5588C60.3134 26.6601 60.3922 26.7895 60.4372 26.947C60.4822 27.0933 60.4878 27.2508 60.4541 27.4196C60.4316 27.5884 60.3697 27.7347 60.2684 27.8584C60.1334 28.0272 59.9421 28.1904 59.6945 28.3479C59.447 28.4942 59.2107 28.6011 58.9856 28.6686C58.7156 28.7586 58.4118 28.8093 58.0742 28.8205C57.7479 28.8318 57.4385 28.8205 57.1459 28.7868C57.0109 28.7642 56.8702 28.7361 56.7239 28.7024C56.5777 28.6686 56.437 28.6292 56.302 28.5842C55.8069 28.4042 55.3905 28.151 55.053 27.8247C54.7266 27.4871 54.4735 27.1102 54.2934 26.6938C54.1246 26.2775 54.029 25.833 54.0065 25.3604C53.984 24.8878 54.0403 24.4209 54.1753 23.9595C54.2991 23.5207 54.451 23.1493 54.631 22.8455C54.8223 22.5417 55.0417 22.2942 55.2893 22.1029C55.5481 21.9003 55.835 21.7428 56.1501 21.6303C56.4651 21.5065 56.814 21.3996 57.1965 21.3096C57.5904 21.2308 58.0067 21.2308 58.4455 21.3096C58.8844 21.3884 59.2782 21.5346 59.627 21.7484C59.8971 21.8947 60.1221 22.1029 60.3022 22.3729Z" fill="#333333"/>
<path d="M60.824 22.8962C60.824 22.7611 60.824 22.6092 60.824 22.4404C60.824 22.2604 60.8296 22.0804 60.8408 21.9003C60.8521 21.709 60.869 21.529 60.8915 21.3602C60.9252 21.1802 60.9702 21.0227 61.0265 20.8876C61.1165 20.6851 61.2572 20.5501 61.4485 20.4825C61.6397 20.4038 61.8479 20.37 62.073 20.3813C62.3093 20.3813 62.4949 20.4207 62.63 20.4994C62.765 20.5782 62.8662 20.6851 62.9338 20.8201C63.0013 20.9439 63.0407 21.0902 63.0519 21.2589C63.0744 21.4165 63.0857 21.5853 63.0857 21.7653C63.1869 21.5853 63.322 21.439 63.4908 21.3265C63.6708 21.2139 63.8508 21.1239 64.0309 21.0564C64.2109 20.9889 64.3741 20.9439 64.5203 20.9214C64.6666 20.8876 64.751 20.8707 64.7735 20.8707C65.0548 20.8482 65.308 20.8426 65.5331 20.8539C65.7694 20.8651 66.0282 20.9158 66.3095 21.0058C66.4895 21.0733 66.6752 21.1689 66.8665 21.2927C67.0577 21.4052 67.2265 21.5403 67.3728 21.6978C67.5191 21.8553 67.6147 22.0297 67.6597 22.221C67.716 22.4011 67.6935 22.5924 67.5922 22.7949C67.4347 23.0762 67.2603 23.2169 67.069 23.2169C66.8777 23.2056 66.6695 23.1718 66.4445 23.1156C66.3207 23.0931 66.1744 23.0424 66.0056 22.9637C65.8369 22.8849 65.6906 22.8343 65.5668 22.8118C65.1842 22.7555 64.8467 22.7836 64.5541 22.8962C64.2615 23.0087 64.0084 23.1437 63.7946 23.3012C63.547 23.4925 63.3332 23.712 63.1532 23.9595V26.39C63.1532 26.6938 63.1476 27.0089 63.1363 27.3352C63.1363 27.6615 63.0913 27.9597 63.0013 28.2298C62.9225 28.4886 62.7819 28.7024 62.5793 28.8711C62.388 29.0287 62.1067 29.0962 61.7354 29.0737C61.5329 29.0624 61.3528 28.9668 61.1953 28.7868C61.0377 28.5955 60.9421 28.4098 60.9083 28.2298C60.8858 28.061 60.869 27.8584 60.8577 27.6221C60.8465 27.3858 60.8352 27.1383 60.824 26.8795C60.824 26.6207 60.824 26.3619 60.824 26.1031C60.824 25.833 60.824 25.5855 60.824 25.3604V22.8962Z" fill="#333333"/>
<path d="M74.9729 24.8541C74.9504 25.2254 74.9279 25.6023 74.9054 25.9849C74.8829 26.3563 74.821 26.7163 74.7197 27.0651C74.6297 27.414 74.4834 27.729 74.2809 28.0103C74.0896 28.2917 73.8139 28.5167 73.4538 28.6855C73.1387 28.843 72.8012 28.9499 72.4411 29.0062C72.081 29.0737 71.7209 29.1018 71.3609 29.0906C71.0008 29.0793 70.652 29.0231 70.3144 28.9218C69.9768 28.8318 69.673 28.7024 69.403 28.5336C69.1329 28.3648 68.9135 28.1454 68.7447 27.8753C68.5759 27.6053 68.4409 27.3127 68.3396 26.9976C68.2496 26.6826 68.1877 26.3563 68.154 26.0187C68.1202 25.6811 68.0977 25.366 68.0864 25.0735C68.0414 24.2971 68.0414 23.5319 68.0864 22.778C68.0864 22.6317 68.0864 22.4686 68.0864 22.2885C68.0864 22.0972 68.0977 21.9116 68.1202 21.7315C68.154 21.5515 68.2046 21.3884 68.2721 21.2421C68.3396 21.0845 68.4521 20.9664 68.6097 20.8876C68.9473 20.7076 69.2567 20.6963 69.538 20.8539C69.8306 21.0114 70.005 21.3377 70.0612 21.8328C70.095 22.0916 70.1062 22.3786 70.095 22.6936C70.095 23.0087 70.1062 23.2956 70.1287 23.5544C70.14 23.937 70.1512 24.3533 70.1625 24.8034C70.1738 25.2423 70.2356 25.6361 70.3482 25.9849C70.4719 26.3337 70.6689 26.5982 70.9389 26.7782C71.2202 26.947 71.6366 26.9526 72.1879 26.7951C72.4467 26.7163 72.6155 26.5194 72.6943 26.2043C72.7843 25.8893 72.8293 25.4223 72.8293 24.8034C72.8293 24.5334 72.8237 24.2352 72.8124 23.9089C72.8012 23.5826 72.7955 23.2619 72.7955 22.9468C72.7955 22.6205 72.8012 22.3223 72.8124 22.0522C72.8349 21.7709 72.8687 21.5571 72.9137 21.4109C72.97 21.2083 73.0881 21.0564 73.2681 20.9551C73.4482 20.8539 73.6395 20.8032 73.842 20.8032C74.0446 20.792 74.2358 20.8314 74.4159 20.9214C74.5959 21.0114 74.7197 21.1577 74.7872 21.3602C74.8547 21.5403 74.8997 21.7709 74.9222 22.0522C74.956 22.3223 74.9785 22.6205 74.9897 22.9468C75.001 23.2619 75.001 23.5882 74.9897 23.9257C74.9897 24.2521 74.9841 24.5615 74.9729 24.8541Z" fill="#333333"/>
<path d="M75.3807 18.2039C75.4032 17.7989 75.527 17.4725 75.752 17.225C75.9883 16.9774 76.3203 16.9099 76.7479 17.0224C76.9504 17.0787 77.0967 17.1631 77.1867 17.2756C77.288 17.3882 77.3555 17.5232 77.3893 17.6807C77.4343 17.827 77.4568 17.9901 77.4568 18.1702C77.4568 18.339 77.4568 18.5078 77.4568 18.6765V21.0058C77.4455 21.0958 77.4399 21.1858 77.4399 21.2758C77.4511 21.3546 77.4568 21.4277 77.4568 21.4952V21.7147H77.8787C78.0025 21.7147 78.1207 21.7147 78.2332 21.7147C78.357 21.7147 78.4639 21.709 78.5539 21.6978C79.1728 21.6978 79.7016 21.7878 80.1405 21.9678C80.5905 22.1479 80.9506 22.4011 81.2207 22.7274C81.502 23.0424 81.7045 23.425 81.8283 23.8751C81.9633 24.314 82.0252 24.7978 82.014 25.3267C82.0027 25.9568 81.9014 26.4969 81.7102 26.947C81.5189 27.3971 81.2488 27.7684 80.9 28.061C80.5512 28.3535 80.1292 28.573 79.6341 28.7192C79.1502 28.8543 78.6045 28.9218 77.9969 28.9218C77.2992 28.9218 76.7704 28.9162 76.4103 28.9049C76.0502 28.8937 75.7914 28.7924 75.6339 28.6011C75.4876 28.4098 75.4089 28.0779 75.3976 27.6053C75.3864 27.1327 75.3807 26.4406 75.3807 25.5292C75.3807 24.6515 75.3807 23.7851 75.3807 22.9299C75.392 22.0747 75.392 21.2139 75.3807 20.3475C75.3807 20.235 75.3751 20.1168 75.3638 19.9931C75.3638 19.8693 75.3638 19.7286 75.3638 19.5711C75.3638 19.4136 75.3638 19.2279 75.3638 19.0141C75.3638 18.7891 75.3695 18.519 75.3807 18.2039ZM78.537 27.0314C79.1559 26.9976 79.5835 26.8288 79.8198 26.525C79.9435 26.3563 80.0392 26.1537 80.1067 25.9174C80.1742 25.6811 80.2023 25.4448 80.1911 25.2085C80.1798 24.9722 80.1292 24.7472 80.0392 24.5334C79.9604 24.3083 79.831 24.1227 79.651 23.9764C79.4934 23.8414 79.3359 23.7457 79.1784 23.6895C79.0209 23.6219 78.8577 23.5826 78.6889 23.5713C78.5201 23.5488 78.3401 23.5432 78.1488 23.5544C77.9575 23.5544 77.7381 23.56 77.4905 23.5713V25.5967L77.4568 26.9976C77.5693 27.0089 77.6874 27.0201 77.8112 27.0314C78.025 27.0539 78.2669 27.0539 78.537 27.0314Z" fill="#333333"/>
<path d="M95.3208 17.7482C95.3321 17.827 95.3377 17.9001 95.3377 17.9676C95.3377 18.0352 95.3377 18.1027 95.3377 18.1702V18.8622L95.2364 27.6221V27.7909C95.2364 27.8584 95.2195 27.9597 95.1858 28.0947C95.1745 28.151 95.1576 28.2129 95.1351 28.2804C95.1126 28.3367 95.0901 28.3985 95.0676 28.4661C95.0114 28.6011 94.9326 28.7024 94.8313 28.7699C94.7413 28.8599 94.595 28.9218 94.3925 28.9555C94.0774 29.0231 93.7905 28.9949 93.5317 28.8711C93.3854 28.7811 93.2841 28.6686 93.2279 28.5336C93.2054 28.5111 93.1829 28.4773 93.1604 28.4323C93.1604 28.4098 93.1491 28.376 93.1266 28.331C93.1041 28.2748 93.0872 28.2185 93.076 28.1622C93.0647 28.0947 93.0535 28.0272 93.0422 27.9597C93.0422 27.9034 93.0366 27.8472 93.0253 27.7909C93.0253 27.7347 93.0197 27.6784 93.0085 27.6221C92.9859 27.5659 92.9747 27.5209 92.9747 27.4871C92.9747 27.4421 92.9747 27.3915 92.9747 27.3352C92.9972 27.2902 93.0085 27.2058 93.0085 27.082L93.0253 25.7486L93.0422 23.6219H92.1308L88.7044 23.6388L88.6707 27.6221V27.7909C88.6707 27.8584 88.6538 27.9597 88.62 28.0947C88.6088 28.151 88.5919 28.2129 88.5694 28.2804C88.5469 28.3367 88.5244 28.3985 88.5019 28.4661C88.4456 28.6011 88.3669 28.7024 88.2656 28.7699C88.1756 28.8599 88.0293 28.9218 87.8268 28.9555C87.5117 29.0231 87.2248 28.9949 86.966 28.8711C86.8534 28.8036 86.7465 28.6911 86.6453 28.5336C86.6228 28.4886 86.6115 28.4548 86.6115 28.4323L86.5609 28.331C86.5384 28.2748 86.5215 28.2185 86.5102 28.1622C86.499 28.0947 86.4877 28.0272 86.4765 27.9597C86.4765 27.9034 86.4709 27.8472 86.4596 27.7909C86.4483 27.7347 86.4371 27.6784 86.4258 27.6221C86.4146 27.5321 86.4146 27.4365 86.4258 27.3352V27.082L86.4765 23.2675C86.4877 22.9074 86.4934 22.5361 86.4934 22.1535C86.4934 21.7709 86.4934 21.3771 86.4934 20.972C86.4821 20.5669 86.4765 20.2069 86.4765 19.8918C86.4877 19.5767 86.5046 19.2223 86.5271 18.8284V18.7609C86.5384 18.6484 86.544 18.5359 86.544 18.4234C86.544 18.2996 86.5496 18.1758 86.5609 18.052C86.5721 17.9395 86.589 17.8326 86.6115 17.7313C86.6453 17.6188 86.6903 17.5063 86.7465 17.3938C86.7803 17.3038 86.8253 17.2306 86.8816 17.1744C86.9378 17.1068 87.0053 17.045 87.0841 16.9887C87.2641 16.8987 87.4442 16.8537 87.6242 16.8537C87.7142 16.8537 87.793 16.8593 87.8605 16.8705C87.928 16.8705 87.9955 16.8762 88.0631 16.8874C88.1981 16.8987 88.3275 16.9662 88.4513 17.09C88.5413 17.1687 88.6032 17.2587 88.6369 17.36C88.6932 17.5063 88.7269 17.6357 88.7382 17.7482C88.7494 17.827 88.7551 17.9001 88.7551 17.9676C88.7551 18.0352 88.7551 18.1027 88.7551 18.1702V18.8622L88.7213 21.6472C88.8113 21.6472 88.9126 21.6472 89.0251 21.6472C89.1489 21.6472 89.2896 21.6415 89.4471 21.6303C90.0322 21.6303 90.6117 21.6359 91.1856 21.6472C91.7707 21.6584 92.3839 21.664 93.0253 21.664H93.0422C93.0422 21.1577 93.0422 20.6738 93.0422 20.2125C93.0535 19.7511 93.0703 19.2673 93.0928 18.7609C93.0928 18.6484 93.0928 18.5359 93.0928 18.4234C93.1041 18.2996 93.1153 18.1758 93.1266 18.052C93.1379 17.9395 93.1547 17.8326 93.1772 17.7313C93.211 17.6188 93.256 17.5063 93.3123 17.3938C93.3348 17.3038 93.3742 17.2306 93.4304 17.1744C93.4979 17.1068 93.5767 17.045 93.6667 16.9887C93.8242 16.8987 93.9987 16.8537 94.1899 16.8537C94.28 16.8537 94.3587 16.8593 94.4262 16.8705C94.505 16.8705 94.5725 16.8762 94.6288 16.8874C94.7863 16.9099 94.9157 16.9774 95.017 17.09C95.107 17.1462 95.1689 17.2362 95.2027 17.36C95.2252 17.4275 95.242 17.495 95.2533 17.5626C95.2758 17.6188 95.2983 17.6807 95.3208 17.7482Z" fill="#333333"/>
<path d="M97.6564 21.7653C97.9939 21.5965 98.3484 21.4784 98.7197 21.4109C99.091 21.3321 99.4567 21.3152 99.8168 21.3602C100.188 21.394 100.543 21.4896 100.88 21.6472C101.218 21.7934 101.533 22.0072 101.825 22.2885C102.118 22.5811 102.343 22.9018 102.5 23.2506C102.658 23.5994 102.771 23.9876 102.838 24.4152C102.883 24.7078 102.956 24.9778 103.057 25.2254C103.159 25.4729 103.266 25.7205 103.378 25.968C103.502 26.2156 103.614 26.4631 103.716 26.7107C103.828 26.9583 103.918 27.2171 103.986 27.4871C104.042 27.7459 104.02 27.9991 103.918 28.2466C103.828 28.4829 103.637 28.6292 103.344 28.6855C103.176 28.7192 103.012 28.708 102.855 28.6517C102.709 28.5842 102.574 28.4942 102.45 28.3817C102.326 28.2579 102.214 28.1285 102.112 27.9935C102.022 27.8472 101.938 27.7122 101.859 27.5884C101.6 27.926 101.319 28.1904 101.015 28.3817C100.711 28.5617 100.346 28.6799 99.9181 28.7361C99.558 28.7811 99.2148 28.7924 98.8885 28.7699C98.5622 28.7474 98.2134 28.6855 97.842 28.5842C97.3582 28.4604 96.9587 28.2466 96.6437 27.9428C96.3398 27.6278 96.1035 27.2677 95.9348 26.8626C95.7772 26.4463 95.6928 26.0018 95.6816 25.5292C95.6703 25.0566 95.7266 24.5896 95.8504 24.1283C96.0079 23.5207 96.2442 23.0256 96.5593 22.643C96.8743 22.2604 97.24 21.9678 97.6564 21.7653ZM98.0783 23.7401C97.9208 23.8976 97.797 24.0833 97.707 24.2971C97.617 24.5109 97.5607 24.7359 97.5382 24.9722C97.527 25.2085 97.5495 25.4448 97.6057 25.6811C97.662 25.9174 97.752 26.1256 97.8758 26.3056C97.9883 26.4632 98.1796 26.5982 98.4497 26.7107C98.7197 26.812 99.001 26.8739 99.2936 26.8964C99.6311 26.9189 99.9237 26.8288 100.171 26.6263C100.43 26.4238 100.621 26.1706 100.745 25.8668C100.88 25.5517 100.942 25.2198 100.931 24.8709C100.92 24.5109 100.824 24.1846 100.644 23.892C100.509 23.6782 100.329 23.5207 100.104 23.4194C99.89 23.3181 99.6593 23.2675 99.4117 23.2675C99.1642 23.2562 98.9166 23.2956 98.6691 23.3856C98.4328 23.4644 98.2359 23.5826 98.0783 23.7401Z" fill="#333333"/>
<path d="M109.59 21.4277C109.68 21.6415 109.686 21.8778 109.607 22.1366C109.539 22.3954 109.41 22.5642 109.219 22.643C109.117 22.688 108.982 22.7274 108.814 22.7611C108.645 22.7836 108.459 22.8061 108.257 22.8286C108.065 22.8512 107.874 22.868 107.683 22.8793C107.491 22.8905 107.328 22.8962 107.193 22.8962C107.204 23.2337 107.216 23.5826 107.227 23.9426C107.238 24.2915 107.25 24.6346 107.261 24.9722C107.272 25.3098 107.278 25.6361 107.278 25.9512C107.278 26.255 107.272 26.5307 107.261 26.7782C107.261 26.947 107.261 27.1439 107.261 27.369C107.261 27.5828 107.244 27.7909 107.21 27.9935C107.188 28.196 107.148 28.376 107.092 28.5336C107.036 28.6799 106.951 28.7755 106.839 28.8205C106.49 28.9668 106.169 29.0062 105.877 28.9387C105.595 28.8824 105.393 28.7642 105.269 28.5842C105.179 28.4379 105.112 28.2691 105.067 28.0779C105.022 27.8753 104.988 27.6728 104.965 27.4702C104.954 27.2564 104.948 27.0539 104.948 26.8626C104.96 26.6601 104.965 26.4857 104.965 26.3394C104.977 25.8668 104.982 25.3323 104.982 24.7359C104.993 24.1283 104.999 23.5207 104.999 22.913H104.746C104.611 22.913 104.436 22.913 104.223 22.913C104.02 22.9018 103.812 22.8849 103.598 22.8624C103.396 22.8286 103.204 22.7893 103.024 22.7443C102.844 22.688 102.715 22.6092 102.636 22.508C102.512 22.3617 102.434 22.2041 102.4 22.0354C102.377 21.8666 102.388 21.709 102.434 21.5628C102.49 21.4052 102.574 21.2702 102.687 21.1577C102.799 21.0339 102.929 20.9551 103.075 20.9214C103.277 20.8651 103.564 20.837 103.936 20.837C104.307 20.8257 104.656 20.8257 104.982 20.837C104.971 20.7245 104.965 20.6176 104.965 20.5163C104.965 20.4038 104.96 20.2969 104.948 20.1956C104.937 20.0606 104.932 19.8918 104.932 19.6892C104.932 19.4755 104.943 19.2673 104.965 19.0647C104.999 18.851 105.05 18.654 105.117 18.474C105.185 18.2827 105.28 18.1364 105.404 18.0352C105.573 17.9001 105.742 17.827 105.91 17.8157C106.091 17.7932 106.254 17.8157 106.4 17.8833C106.557 17.9508 106.687 18.052 106.788 18.1871C106.901 18.3108 106.979 18.4515 107.024 18.609C107.058 18.7441 107.086 18.9072 107.109 19.0985C107.131 19.2785 107.143 19.4698 107.143 19.6724C107.154 19.8749 107.159 20.0775 107.159 20.28C107.159 20.4825 107.159 20.6682 107.159 20.837H107.328C107.497 20.837 107.694 20.8314 107.919 20.8201C108.144 20.8089 108.363 20.8145 108.577 20.837C108.802 20.8595 109.005 20.9158 109.185 21.0058C109.365 21.0845 109.5 21.2252 109.59 21.4277Z" fill="#333333"/>
<path d="M118.089 25.9005C117.875 25.7655 117.633 25.6586 117.363 25.5798C117.104 25.5011 116.834 25.4279 116.553 25.3604C116.283 25.2929 116.018 25.2198 115.759 25.141C115.501 25.051 115.264 24.9272 115.051 24.7697C114.589 24.4209 114.319 23.9933 114.24 23.4869C114.173 22.9693 114.285 22.4517 114.578 21.9341C114.736 21.664 114.944 21.4446 115.202 21.2758C115.461 21.0958 115.743 20.9608 116.046 20.8707C116.361 20.7695 116.682 20.7132 117.008 20.702C117.335 20.6907 117.644 20.7076 117.937 20.7526C118.128 20.7864 118.331 20.837 118.544 20.9045C118.758 20.9608 118.955 21.0395 119.135 21.1408C119.326 21.2421 119.495 21.3715 119.642 21.529C119.799 21.6753 119.912 21.8609 119.979 22.086C120.024 22.2323 120.03 22.3729 119.996 22.508C119.973 22.643 119.917 22.7555 119.827 22.8455C119.748 22.9355 119.642 23.0031 119.506 23.0481C119.383 23.0931 119.248 23.1043 119.101 23.0818C118.933 23.0481 118.775 22.9974 118.629 22.9299C118.483 22.8624 118.336 22.7893 118.19 22.7105C118.044 22.6317 117.892 22.5642 117.734 22.508C117.588 22.4517 117.43 22.4236 117.262 22.4236C117.003 22.4123 116.789 22.4573 116.62 22.5586C116.451 22.6599 116.333 22.7836 116.266 22.9299C116.21 23.0762 116.215 23.2337 116.283 23.4025C116.361 23.5713 116.519 23.7176 116.755 23.8414C116.969 23.9539 117.205 24.0439 117.464 24.1114C117.723 24.1789 117.976 24.2464 118.224 24.314C118.483 24.3815 118.73 24.4602 118.966 24.5503C119.214 24.6403 119.433 24.764 119.625 24.9216C119.996 25.2254 120.221 25.5798 120.3 25.9849C120.39 26.39 120.367 26.7895 120.232 27.1833C120.097 27.5771 119.861 27.926 119.523 28.2298C119.197 28.5336 118.809 28.7361 118.359 28.8374C118.032 28.9049 117.678 28.9387 117.295 28.9387C116.924 28.9387 116.553 28.8993 116.181 28.8205C115.821 28.7417 115.473 28.618 115.135 28.4492C114.809 28.2804 114.533 28.0666 114.308 27.8078C114.15 27.6278 114.066 27.4252 114.055 27.2002C114.055 26.9639 114.1 26.7613 114.19 26.5926C114.291 26.4125 114.432 26.2887 114.612 26.2212C114.792 26.1537 114.994 26.1931 115.219 26.3394C115.399 26.4631 115.613 26.5869 115.861 26.7107C116.108 26.8232 116.356 26.9132 116.603 26.9808C116.851 27.0483 117.087 27.082 117.312 27.082C117.549 27.082 117.751 27.0314 117.92 26.9301C118.167 26.7726 118.297 26.5926 118.308 26.39C118.319 26.1762 118.246 26.0131 118.089 25.9005Z" fill="#333333"/>
<path d="M127.289 25.5461C127.3 25.7711 127.306 26.0074 127.306 26.255C127.306 26.4913 127.3 26.7107 127.289 26.9132C127.278 27.2171 127.261 27.4984 127.239 27.7572C127.216 28.0047 127.171 28.2185 127.104 28.3985C127.036 28.5673 126.929 28.6967 126.783 28.7868C126.648 28.8655 126.457 28.888 126.209 28.8543C125.95 28.8205 125.764 28.6967 125.652 28.4829C125.539 28.2691 125.461 28.0272 125.416 27.7572C125.382 27.4759 125.371 27.1945 125.382 26.9132C125.393 26.6319 125.393 26.4125 125.382 26.255C125.371 26.0074 125.359 25.7261 125.348 25.4111C125.348 25.0847 125.314 24.7809 125.247 24.4996C125.191 24.2071 125.089 23.9595 124.943 23.757C124.797 23.5544 124.577 23.4475 124.285 23.4363C123.913 23.4138 123.627 23.4419 123.424 23.5207C123.233 23.5994 123.092 23.7176 123.002 23.8751C122.912 24.0214 122.856 24.2014 122.833 24.4152C122.822 24.629 122.8 24.8597 122.766 25.1072L122.749 25.7655V26.9976C122.749 27.2002 122.743 27.414 122.732 27.639C122.732 27.8528 122.698 28.0497 122.631 28.2298C122.563 28.4098 122.456 28.5617 122.31 28.6855C122.175 28.8093 121.972 28.8711 121.702 28.8711C121.365 28.8711 121.112 28.7642 120.943 28.5505C120.785 28.3254 120.707 28.0497 120.707 27.7234V18.0183C120.707 17.9508 120.707 17.8889 120.707 17.8326C120.718 17.7651 120.729 17.6976 120.74 17.6301C120.763 17.5626 120.78 17.5007 120.791 17.4444C120.802 17.3769 120.819 17.315 120.842 17.2587C120.875 17.1462 120.932 17.0618 121.01 17.0056C121.067 16.9493 121.123 16.9043 121.179 16.8705C121.235 16.8368 121.297 16.8143 121.365 16.803C121.421 16.7918 121.483 16.7862 121.55 16.7862C121.618 16.7749 121.686 16.7693 121.753 16.7693C121.922 16.7693 122.085 16.8199 122.243 16.9212C122.31 16.9662 122.372 17.0168 122.428 17.0731C122.484 17.1181 122.529 17.1856 122.563 17.2756C122.653 17.4894 122.698 17.692 122.698 17.8833C122.709 17.9395 122.715 18.0239 122.715 18.1364C122.726 18.2377 122.732 18.3446 122.732 18.4571C122.732 18.5696 122.732 18.6822 122.732 18.7947C122.743 18.896 122.749 18.9747 122.749 19.031V19.1154C122.76 19.4755 122.766 19.8412 122.766 20.2125C122.766 20.5838 122.766 20.9608 122.766 21.3433V21.6303C123.238 21.4727 123.733 21.3996 124.251 21.4109C124.769 21.4109 125.23 21.5121 125.635 21.7147C126.051 21.9285 126.367 22.1704 126.58 22.4404C126.805 22.7105 126.968 23.0087 127.07 23.335C127.171 23.6613 127.227 24.0101 127.239 24.3815C127.261 24.7528 127.278 25.141 127.289 25.5461Z" fill="#333333"/>
<path d="M129.816 21.2421C130.187 21.062 130.575 20.9326 130.981 20.8539C131.386 20.7751 131.785 20.7582 132.179 20.8032C132.584 20.8482 132.972 20.9551 133.344 21.1239C133.726 21.2927 134.075 21.529 134.39 21.8328C134.649 22.0916 134.874 22.4067 135.065 22.778C135.256 23.1381 135.397 23.4925 135.487 23.8414C135.678 24.4602 135.707 25.0847 135.572 25.7149C135.436 26.345 135.206 26.9301 134.879 27.4702C134.722 27.7178 134.525 27.9428 134.289 28.1454C134.064 28.3367 133.822 28.4942 133.563 28.618C133.225 28.7755 132.86 28.8824 132.466 28.9387C132.072 29.0062 131.689 29.0231 131.318 28.9893C130.643 28.9555 130.047 28.7868 129.529 28.4829C129.023 28.1791 128.612 27.7909 128.297 27.3183C127.993 26.8457 127.791 26.3112 127.689 25.7149C127.599 25.1072 127.639 24.4884 127.807 23.8582C127.987 23.1831 128.246 22.6374 128.584 22.221C128.933 21.7934 129.343 21.4671 129.816 21.2421ZM130.322 23.5038C130.154 23.6613 130.024 23.8582 129.934 24.0945C129.844 24.3308 129.788 24.5784 129.765 24.8372C129.743 25.0847 129.76 25.3379 129.816 25.5967C129.883 25.8443 129.985 26.0693 130.12 26.2719C130.232 26.4406 130.435 26.5813 130.727 26.6938C131.02 26.8063 131.324 26.8739 131.639 26.8964C131.999 26.9189 132.314 26.8232 132.584 26.6094C132.854 26.3844 133.057 26.1087 133.192 25.7824C133.338 25.4561 133.405 25.1016 133.394 24.719C133.383 24.3365 133.282 23.9876 133.09 23.6726C132.955 23.4475 132.764 23.2844 132.517 23.1831C132.28 23.0706 132.027 23.0143 131.757 23.0143C131.498 23.0031 131.239 23.0424 130.981 23.1325C130.722 23.2112 130.502 23.335 130.322 23.5038Z" fill="#333333"/>
<path d="M140.714 21.2758C141.04 21.4109 141.339 21.6078 141.609 21.8666C141.879 22.1141 142.109 22.4011 142.301 22.7274C142.503 23.0537 142.655 23.4081 142.756 23.7907C142.869 24.162 142.925 24.539 142.925 24.9216C142.937 25.4954 142.801 26.0356 142.52 26.5419C142.25 27.0483 141.806 27.4365 141.187 27.7065C140.714 27.8978 140.225 28.0441 139.718 28.1454C139.223 28.2354 138.706 28.2973 138.166 28.331V31.4198C138.166 31.4873 138.154 31.5492 138.132 31.6055C138.121 31.6617 138.115 31.718 138.115 31.7742C138.092 31.8868 138.064 31.988 138.03 32.0781C138.008 32.1681 137.974 32.2637 137.929 32.365C137.884 32.4325 137.839 32.4944 137.794 32.5507C137.749 32.6069 137.699 32.6632 137.642 32.7194C137.372 32.8545 137.091 32.8826 136.798 32.8038C136.618 32.7926 136.472 32.7363 136.36 32.635C136.258 32.5338 136.185 32.4269 136.14 32.3144C136.095 32.2018 136.056 32.0724 136.022 31.9262C136.011 31.8699 135.999 31.8136 135.988 31.7574C135.988 31.7124 135.988 31.6617 135.988 31.6055V22.2041C135.988 22.1366 135.988 22.0691 135.988 22.0016C135.999 21.9228 136.011 21.8441 136.022 21.7653C136.033 21.6303 136.067 21.4952 136.123 21.3602C136.224 21.0789 136.433 20.8876 136.748 20.7864C137.063 20.6851 137.417 20.6401 137.811 20.6513C138.081 20.6626 138.357 20.6907 138.638 20.7357C138.931 20.7807 139.206 20.837 139.465 20.9045C139.735 20.9608 139.977 21.0227 140.191 21.0902C140.405 21.1577 140.579 21.2196 140.714 21.2758ZM140.748 24.9216C140.793 24.6065 140.754 24.3421 140.63 24.1283C140.517 23.9032 140.354 23.7232 140.14 23.5882C139.927 23.4419 139.679 23.3294 139.398 23.2506C139.128 23.1718 138.858 23.1156 138.587 23.0818C138.554 23.0706 138.497 23.0649 138.419 23.0649C138.351 23.0649 138.272 23.0649 138.182 23.0649C138.182 23.425 138.182 23.7738 138.182 24.1114C138.194 24.4377 138.194 24.7922 138.182 25.1748V26.3056C138.441 26.2944 138.711 26.2662 138.993 26.2212C139.285 26.1762 139.555 26.1031 139.803 26.0018C140.05 25.9005 140.258 25.7655 140.427 25.5967C140.607 25.4279 140.714 25.2029 140.748 24.9216Z" fill="#333333"/>
</svg>
